<svg xmlns="http://www.w3.org/2000/svg" width="1030" height="422.001" viewBox="0 0 1030 422.001">
  <g id="Grupo_1064968" data-name="Grupo 1064968" transform="translate(-285 -2723)">
    <path id="Trazado_799171" data-name="Trazado 799171" d="M10,0H466a10,10,0,0,1,10,10V146a10,10,0,0,1-10,10H10A10,10,0,0,1,0,146V10A10,10,0,0,1,10,0Z" transform="translate(562 2835)" fill="#00a9ff"/>
    <path id="Trazado_799172" data-name="Trazado 799172" d="M10,0H247a10,10,0,0,1,10,10V72a10,10,0,0,1-10,10H10A10,10,0,0,1,0,72V10A10,10,0,0,1,10,0Z" transform="translate(285 2872)" fill="#94e435"/>
    <path id="Trazado_799173" data-name="Trazado 799173" d="M10,0H247a10,10,0,0,1,10,10V72a10,10,0,0,1-10,10H10A10,10,0,0,1,0,72V10A10,10,0,0,1,10,0Z" transform="translate(1058 2872)" fill="#94e435"/>
    <path id="Trazado_799174" data-name="Trazado 799174" d="M10,0H285a10,10,0,0,1,10,10V72a10,10,0,0,1-10,10H10A10,10,0,0,1,0,72V10A10,10,0,0,1,10,0Z" transform="translate(495 2723)" fill="#94e435"/>
    <path id="Trazado_799181" data-name="Trazado 799181" d="M10,0H285a10,10,0,0,1,10,10V72a10,10,0,0,1-10,10H10A10,10,0,0,1,0,72V10A10,10,0,0,1,10,0Z" transform="translate(495 3021)" fill="#94e435"/>
    <path id="Trazado_799175" data-name="Trazado 799175" d="M10,0H285a10,10,0,0,1,10,10V72a10,10,0,0,1-10,10H10A10,10,0,0,1,0,72V10A10,10,0,0,1,10,0Z" transform="translate(810 2723)" fill="#94e435"/>
    <path id="Trazado_799182" data-name="Trazado 799182" d="M10,0H285a10,10,0,0,1,10,10V72a10,10,0,0,1-10,10H10A10,10,0,0,1,0,72V10A10,10,0,0,1,10,0Z" transform="translate(810 3021)" fill="#94e435"/>
    <path id="Trazado_799176" data-name="Trazado 799176" d="M-76.043-4.648h-4.5V0h-2.344V-11.375h7.406v1.9h-5.062v2.938h4.5ZM-71.629,0h-2.344V-11.375h2.344Zm6.758-11.375h2.344V-3.5a3.766,3.766,0,0,1-.48,1.918A3.261,3.261,0,0,1-64.363-.3,4.235,4.235,0,0,1-66.34.156a4.025,4.025,0,0,1-2.812-.918,3.335,3.335,0,0,1-1.008-2.6H-67.8a1.829,1.829,0,0,0,.352,1.234,1.407,1.407,0,0,0,1.109.4,1.343,1.343,0,0,0,1.07-.461,1.948,1.948,0,0,0,.4-1.312Zm10.6,9.031h-4.109L-59.16,0h-2.492l4.234-11.375h2.172L-50.988,0H-53.48Zm-3.477-1.9H-54.9L-56.332-8.5Zm20.414-7.133v7.492A3.836,3.836,0,0,1-38.5-.93,4.5,4.5,0,0,1-41.691.156,4.553,4.553,0,0,1-44.855-.9a3.77,3.77,0,0,1-1.2-2.9v-7.578h2.344v7.508a2.167,2.167,0,0,0,.535,1.629,2.054,2.054,0,0,0,1.48.512q1.977,0,2.008-2.078v-7.57ZM-26.16,0H-28.5l-4.562-7.484V0H-35.41V-11.375h2.344l4.57,7.5v-7.5h2.336Zm8.609-2.344H-21.66L-22.441,0h-2.492L-20.7-11.375h2.172L-14.27,0h-2.492Zm-3.477-1.9h2.844L-19.613-8.5Zm18.648-.7h-4.5v3.063H-1.6V0H-9.223V-11.375h7.609v1.9H-6.879v2.711h4.5ZM5.676-2.984A1.2,1.2,0,0,0,5.207-4a6.148,6.148,0,0,0-1.687-.75,11.963,11.963,0,0,1-1.93-.777A3.153,3.153,0,0,1-.348-8.352,2.747,2.747,0,0,1,.172-10a3.389,3.389,0,0,1,1.492-1.129,5.616,5.616,0,0,1,2.184-.406,5.112,5.112,0,0,1,2.172.441A3.458,3.458,0,0,1,7.5-9.844a3.261,3.261,0,0,1,.527,1.828H5.684A1.534,1.534,0,0,0,5.191-9.23a2.023,2.023,0,0,0-1.383-.434A2.162,2.162,0,0,0,2.473-9.3,1.146,1.146,0,0,0,2-8.344a1.1,1.1,0,0,0,.559.93,6.311,6.311,0,0,0,1.645.7A7.106,7.106,0,0,1,7.113-5.219,2.972,2.972,0,0,1,8.027-3,2.737,2.737,0,0,1,6.91-.684,4.891,4.891,0,0,1,3.9.156a5.808,5.808,0,0,1-2.391-.48A3.783,3.783,0,0,1-.133-1.641,3.371,3.371,0,0,1-.7-3.578H1.652Q1.652-1.7,3.9-1.7a2.189,2.189,0,0,0,1.3-.34A1.106,1.106,0,0,0,5.676-2.984Zm12.5-6.492H14.691V0H12.348V-9.477H8.91v-1.9h9.266Zm5.547,5.313H21.855V0H19.512V-11.375h4.227a4.778,4.778,0,0,1,3.109.9,3.1,3.1,0,0,1,1.094,2.539A3.5,3.5,0,0,1,27.438-6,3.437,3.437,0,0,1,25.91-4.758L28.371-.109V0H25.855Zm-1.867-1.9h1.891a1.936,1.936,0,0,0,1.367-.449A1.606,1.606,0,0,0,25.6-7.75a1.719,1.719,0,0,0-.457-1.266,1.9,1.9,0,0,0-1.4-.461H21.855ZM36.145-2.344H32.035L31.254,0H28.762L33-11.375h2.172L39.426,0H36.934Zm-3.477-1.9h2.844L34.082-8.5ZM48.113-9.477H44.629V0H42.285V-9.477H38.848v-1.9h9.266Zm8.18,4.531h-4.5v3.063h5.281V0H49.449V-11.375h7.609v1.9H51.793v2.711h4.5ZM67.449-1.437A4.068,4.068,0,0,1,65.66-.262,7.492,7.492,0,0,1,63.1.156a5.076,5.076,0,0,1-2.59-.645,4.3,4.3,0,0,1-1.719-1.871,6.585,6.585,0,0,1-.621-2.883v-.773a6.994,6.994,0,0,1,.574-2.949A4.248,4.248,0,0,1,60.4-10.871a4.771,4.771,0,0,1,2.535-.66,4.751,4.751,0,0,1,3.164.965,4.123,4.123,0,0,1,1.352,2.809H65.168a2.268,2.268,0,0,0-.691-1.43A2.208,2.208,0,0,0,63-9.641a2.078,2.078,0,0,0-1.82.9,4.724,4.724,0,0,0-.633,2.672v.727a4.5,4.5,0,0,0,.68,2.7,2.327,2.327,0,0,0,1.992.914,2.6,2.6,0,0,0,1.883-.562V-4.25H62.973V-5.977h4.477ZM71.84,0H69.5V-11.375H71.84Zm8.734-2.344H76.465L75.684,0H73.191l4.234-11.375H79.6L83.855,0H81.363ZM77.1-4.242h2.844L78.512-8.5Z" transform="translate(643 2770)" fill="#12263f"/>
    <path id="Trazado_799183" data-name="Trazado 799183" d="M51,12.656H46.891L46.109,15H43.617L47.852,3.625h2.172L54.281,15H51.789Zm-3.477-1.9h2.844L48.938,6.5Zm16.3-7.133v7.492a3.836,3.836,0,0,1-1.168,2.953,4.5,4.5,0,0,1-3.191,1.086A4.553,4.553,0,0,1,56.3,14.1a3.77,3.77,0,0,1-1.2-2.9V3.625h2.344v7.508a2.167,2.167,0,0,0,.535,1.629,2.054,2.054,0,0,0,1.48.512q1.977,0,2.008-2.078V3.625ZM74.3,5.523H70.82V15H68.477V5.523H65.039v-1.9H74.3ZM84.766,9.57a6.867,6.867,0,0,1-.594,2.945,4.472,4.472,0,0,1-1.7,1.953,5.021,5.021,0,0,1-5.059.008A4.515,4.515,0,0,1,75.7,12.535a6.67,6.67,0,0,1-.617-2.9V9.07a6.831,6.831,0,0,1,.605-2.957,4.508,4.508,0,0,1,1.711-1.961,5.014,5.014,0,0,1,5.055,0A4.508,4.508,0,0,1,84.16,6.113a6.811,6.811,0,0,1,.605,2.949Zm-2.375-.516a4.787,4.787,0,0,0-.641-2.719A2.263,2.263,0,0,0,78.1,6.324a4.732,4.732,0,0,0-.648,2.691V9.57a4.847,4.847,0,0,0,.641,2.7,2.243,2.243,0,0,0,3.656.035,4.819,4.819,0,0,0,.641-2.7Zm7.141-5.43,2.922,8.25,2.906-8.25h3.078V15H96.086V11.891l.234-5.367L93.25,15H91.641L88.578,6.531l.234,5.359V15H86.469V3.625Zm17.516,9.031h-4.109L102.156,15H99.664L103.9,3.625h2.172L110.328,15h-2.492Zm-3.477-1.9h2.844L104.984,6.5Zm15.445-5.234h-3.484V15h-2.344V5.523H109.75v-1.9h9.266ZM122.844,15H120.5V3.625h2.344Zm4.656-1.883h5.734V15H124.57V13.625l5.625-8.1h-5.617v-1.9h8.531V4.969Zm13.734-.461h-4.109L136.344,15h-2.492l4.234-11.375h2.172L144.516,15h-2.492Zm-3.477-1.9H140.6L139.172,6.5ZM153.484,8.75l2.367-5.125h2.563l-3.734,7.25V15H152.3V10.875l-3.734-7.25h2.57ZM24.121,34.992V39H21.777V27.625h4.438a5.134,5.134,0,0,1,2.254.469,3.454,3.454,0,0,1,1.5,1.332,3.714,3.714,0,0,1,.523,1.965,3.266,3.266,0,0,1-1.145,2.637,4.767,4.767,0,0,1-3.168.965Zm0-1.9h2.094a2.059,2.059,0,0,0,1.418-.437,1.591,1.591,0,0,0,.488-1.25,1.876,1.876,0,0,0-.492-1.352,1.839,1.839,0,0,0-1.359-.531H24.121Zm12.188,1.742H34.441V39H32.1V27.625h4.227a4.778,4.778,0,0,1,3.109.9,3.1,3.1,0,0,1,1.094,2.539,3.5,3.5,0,0,1-.5,1.941A3.437,3.437,0,0,1,38.5,34.242l2.461,4.648V39H38.441Zm-1.867-1.9h1.891a1.936,1.936,0,0,0,1.367-.449,1.606,1.606,0,0,0,.484-1.238,1.719,1.719,0,0,0-.457-1.266,1.9,1.9,0,0,0-1.4-.461H34.441Zm17.211.633a6.867,6.867,0,0,1-.594,2.945,4.472,4.472,0,0,1-1.7,1.953,5.021,5.021,0,0,1-5.059.008,4.515,4.515,0,0,1-1.719-1.941,6.67,6.67,0,0,1-.617-2.9V33.07a6.831,6.831,0,0,1,.605-2.957,4.508,4.508,0,0,1,1.711-1.961,5.014,5.014,0,0,1,5.055,0,4.508,4.508,0,0,1,1.711,1.961,6.811,6.811,0,0,1,.605,2.949Zm-2.375-.516a4.787,4.787,0,0,0-.641-2.719,2.263,2.263,0,0,0-3.648-.012,4.732,4.732,0,0,0-.648,2.691v.555a4.847,4.847,0,0,0,.641,2.7,2.243,2.243,0,0,0,3.656.035,4.819,4.819,0,0,0,.641-2.7Zm13.078,4.508a4.068,4.068,0,0,1-1.789,1.176A7.492,7.492,0,0,1,58,39.156a5.076,5.076,0,0,1-2.59-.645A4.3,4.3,0,0,1,53.7,36.641a6.585,6.585,0,0,1-.621-2.883v-.773a6.994,6.994,0,0,1,.574-2.949A4.248,4.248,0,0,1,55.3,28.129a5.453,5.453,0,0,1,5.7.3,4.123,4.123,0,0,1,1.352,2.809H60.074a2.268,2.268,0,0,0-.691-1.43,2.208,2.208,0,0,0-1.473-.453,2.078,2.078,0,0,0-1.82.9,4.724,4.724,0,0,0-.633,2.672v.727a4.5,4.5,0,0,0,.68,2.7,2.327,2.327,0,0,0,1.992.914,2.6,2.6,0,0,0,1.883-.562V34.75H57.879V33.023h4.477Zm6.109-2.727H66.6V39H64.254V27.625H68.48a4.778,4.778,0,0,1,3.109.9,3.1,3.1,0,0,1,1.094,2.539A3.5,3.5,0,0,1,72.18,33a3.437,3.437,0,0,1-1.527,1.238l2.461,4.648V39H70.6Zm-1.867-1.9h1.891a1.936,1.936,0,0,0,1.367-.449,1.606,1.606,0,0,0,.484-1.238,1.719,1.719,0,0,0-.457-1.266,1.9,1.9,0,0,0-1.4-.461H66.6Zm14.289,3.719H76.777L76,39H73.5l4.234-11.375H79.91L84.168,39H81.676Zm-3.477-1.9h2.844L78.824,30.5Zm10.883-7.133,2.922,8.25,2.906-8.25H97.2V39H94.848V35.891l.234-5.367L92.012,39H90.4L87.34,30.531l.234,5.359V39H85.23V27.625Zm17.516,9.031H101.7L100.918,39H98.426l4.234-11.375h2.172L109.09,39H106.6Zm-3.477-1.9h2.844l-1.43-4.258Zm18.648-.7h-4.5v3.063h5.281V39h-7.625V27.625h7.609v1.9H116.48v2.711h4.5Zm4.5,3.063h4.977V39h-7.32V27.625h2.344Zm17.148-3.062h-4.5v3.063h5.281V39h-7.625V27.625h7.609v1.9h-5.266v2.711h4.5ZM154.035,39h-2.344l-4.562-7.484V39h-2.344V27.625h2.344l4.57,7.5v-7.5h2.336Zm6.25-2.82,2.578-8.555h2.609L161.512,39h-2.445l-3.945-11.375h2.6Zm8.75,2.82h-2.344V27.625h2.344Zm-.727-14.445h2.461l-2.164,2.422H166.77Zm12.242,9.016a6.867,6.867,0,0,1-.594,2.945,4.471,4.471,0,0,1-1.7,1.953,5.021,5.021,0,0,1-5.059.008,4.515,4.515,0,0,1-1.719-1.941,6.67,6.67,0,0,1-.617-2.9V33.07a6.831,6.831,0,0,1,.605-2.957,4.508,4.508,0,0,1,1.711-1.961,5.014,5.014,0,0,1,5.055,0,4.508,4.508,0,0,1,1.711,1.961,6.811,6.811,0,0,1,.605,2.949Zm-2.375-.516a4.787,4.787,0,0,0-.641-2.719,2.263,2.263,0,0,0-3.648-.012,4.732,4.732,0,0,0-.648,2.691v.555a4.847,4.847,0,0,0,.641,2.7,2.243,2.243,0,0,0,3.656.035,4.819,4.819,0,0,0,.641-2.7Z" transform="translate(542 3041)" fill="#12263f"/>
    <path id="Trazado_799177" data-name="Trazado 799177" d="M-105.414,0V-11.375h3.5a5.315,5.315,0,0,1,2.684.676,4.712,4.712,0,0,1,1.848,1.922,5.928,5.928,0,0,1,.664,2.832v.523a5.945,5.945,0,0,1-.652,2.82,4.672,4.672,0,0,1-1.84,1.914,5.355,5.355,0,0,1-2.68.688Zm2.344-9.477v7.594h1.133a2.545,2.545,0,0,0,2.1-.9,4.06,4.06,0,0,0,.742-2.57v-.6a4.124,4.124,0,0,0-.719-2.629,2.537,2.537,0,0,0-2.1-.895Zm14.9,4.531h-4.5v3.063h5.281V0h-7.625V-11.375h7.609v1.9h-5.266v2.711h4.5Zm9,.3h-4.5V0h-2.344V-11.375h7.406v1.9h-5.062v2.938h4.5ZM-74.758,0H-77.1V-11.375h2.344Zm11.422,0H-65.68l-4.562-7.484V0h-2.344V-11.375h2.344l4.57,7.5v-7.5h2.336Zm8.891-4.945h-4.5v3.063h5.281V0h-7.625V-11.375h7.609v1.9h-5.266v2.711h4.5Zm15.484-.484a6.867,6.867,0,0,1-.594,2.945,4.472,4.472,0,0,1-1.7,1.953,4.7,4.7,0,0,1-2.535.688,4.732,4.732,0,0,1-2.523-.68,4.515,4.515,0,0,1-1.719-1.941,6.67,6.67,0,0,1-.617-2.9V-5.93a6.831,6.831,0,0,1,.605-2.957,4.508,4.508,0,0,1,1.711-1.961,4.706,4.706,0,0,1,2.527-.684,4.706,4.706,0,0,1,2.527.684,4.508,4.508,0,0,1,1.711,1.961,6.811,6.811,0,0,1,.605,2.949Zm-2.375-.516a4.787,4.787,0,0,0-.641-2.719,2.088,2.088,0,0,0-1.828-.93,2.088,2.088,0,0,0-1.82.918,4.732,4.732,0,0,0-.648,2.691v.555a4.847,4.847,0,0,0,.641,2.7,2.082,2.082,0,0,0,1.844.961,2.064,2.064,0,0,0,1.813-.926,4.819,4.819,0,0,0,.641-2.7ZM-37.258,0V-11.375h3.984a5.232,5.232,0,0,1,3.141.793,2.712,2.712,0,0,1,1.07,2.324,2.57,2.57,0,0,1-.43,1.473,2.482,2.482,0,0,1-1.2.934,2.4,2.4,0,0,1,1.379.883,2.61,2.61,0,0,1,.5,1.625A3,3,0,0,1-29.852-.859,4.713,4.713,0,0,1-32.836,0Zm2.344-4.953v3.07h2.008a1.938,1.938,0,0,0,1.293-.395,1.353,1.353,0,0,0,.465-1.09,1.428,1.428,0,0,0-1.617-1.586Zm0-1.656h1.734q1.773-.031,1.773-1.414a1.307,1.307,0,0,0-.449-1.113,2.363,2.363,0,0,0-1.418-.34h-1.641Zm12.453-4.766h2.344V-3.5a3.766,3.766,0,0,1-.48,1.918A3.261,3.261,0,0,1-21.953-.3,4.235,4.235,0,0,1-23.93.156a4.025,4.025,0,0,1-2.812-.918,3.335,3.335,0,0,1-1.008-2.6h2.359a1.829,1.829,0,0,0,.352,1.234,1.407,1.407,0,0,0,1.109.4,1.343,1.343,0,0,0,1.07-.461,1.948,1.948,0,0,0,.4-1.312Zm11.2,6.43h-4.5v3.063h5.281V0h-7.625V-11.375H-10.5v1.9h-5.266v2.711h4.5ZM-.391-9.477H-3.875V0H-6.219V-9.477H-9.656v-1.9H-.391ZM3.438,0H1.094V-11.375H3.438ZM9.813-2.82l2.578-8.555H15L11.039,0H8.594L4.648-11.375h2.6Zm15.5-2.609a6.867,6.867,0,0,1-.594,2.945,4.472,4.472,0,0,1-1.7,1.953,4.7,4.7,0,0,1-2.535.688,4.732,4.732,0,0,1-2.523-.68,4.515,4.515,0,0,1-1.719-1.941,6.67,6.67,0,0,1-.617-2.9V-5.93a6.831,6.831,0,0,1,.605-2.957,4.508,4.508,0,0,1,1.711-1.961,4.706,4.706,0,0,1,2.527-.684A4.706,4.706,0,0,1,23-10.848a4.508,4.508,0,0,1,1.711,1.961,6.811,6.811,0,0,1,.605,2.949Zm-2.375-.516A4.787,4.787,0,0,0,22.3-8.664a2.088,2.088,0,0,0-1.828-.93,2.088,2.088,0,0,0-1.82.918A4.732,4.732,0,0,0,18-5.984v.555a4.847,4.847,0,0,0,.641,2.7,2.082,2.082,0,0,0,1.844.961A2.064,2.064,0,0,0,22.3-2.691a4.819,4.819,0,0,0,.641-2.7Zm9.977,2.961A1.2,1.2,0,0,0,32.445-4a6.148,6.148,0,0,0-1.687-.75,11.963,11.963,0,0,1-1.93-.777,3.153,3.153,0,0,1-1.937-2.82A2.747,2.747,0,0,1,27.41-10,3.389,3.389,0,0,1,28.9-11.125a5.616,5.616,0,0,1,2.184-.406,5.112,5.112,0,0,1,2.172.441,3.458,3.458,0,0,1,1.48,1.246,3.261,3.261,0,0,1,.527,1.828H32.922A1.534,1.534,0,0,0,32.43-9.23a2.023,2.023,0,0,0-1.383-.434,2.162,2.162,0,0,0-1.336.363,1.146,1.146,0,0,0-.477.957,1.1,1.1,0,0,0,.559.93,6.311,6.311,0,0,0,1.645.7,7.106,7.106,0,0,1,2.914,1.492A2.972,2.972,0,0,1,35.266-3,2.737,2.737,0,0,1,34.148-.684a4.891,4.891,0,0,1-3.008.84,5.808,5.808,0,0,1-2.391-.48,3.783,3.783,0,0,1-1.645-1.316,3.371,3.371,0,0,1-.566-1.937h2.352q0,1.883,2.25,1.883a2.189,2.189,0,0,0,1.3-.34A1.106,1.106,0,0,0,32.914-2.984ZM44.758-6.25l2.367-5.125h2.563l-3.734,7.25V0H43.57V-4.125l-3.734-7.25h2.57Zm13.016-5.125L60.7-3.125l2.906-8.25H66.68V0H64.328V-3.109l.234-5.367L61.492,0H59.883L56.82-8.469l.234,5.359V0H54.711V-11.375Zm17.8,6.43h-4.5v3.063h5.281V0H68.727V-11.375h7.609v1.9H71.07v2.711h4.5ZM86.445-9.477H82.961V0H80.617V-9.477H77.18v-1.9h9.266Zm6.82,7.133H89.156L88.375,0H85.883l4.234-11.375h2.172L96.547,0H94.055Zm-3.477-1.9h2.844L91.2-8.5Zm13.719,1.258A1.2,1.2,0,0,0,103.039-4a6.148,6.148,0,0,0-1.687-.75,11.963,11.963,0,0,1-1.93-.777,3.153,3.153,0,0,1-1.937-2.82A2.747,2.747,0,0,1,98-10,3.389,3.389,0,0,1,99.5-11.125a5.616,5.616,0,0,1,2.184-.406,5.112,5.112,0,0,1,2.172.441,3.458,3.458,0,0,1,1.48,1.246,3.261,3.261,0,0,1,.527,1.828h-2.344a1.534,1.534,0,0,0-.492-1.215,2.023,2.023,0,0,0-1.383-.434A2.162,2.162,0,0,0,100.3-9.3a1.146,1.146,0,0,0-.477.957,1.1,1.1,0,0,0,.559.93,6.311,6.311,0,0,0,1.645.7,7.106,7.106,0,0,1,2.914,1.492A2.972,2.972,0,0,1,105.859-3a2.737,2.737,0,0,1-1.117,2.316,4.891,4.891,0,0,1-3.008.84,5.808,5.808,0,0,1-2.391-.48A3.783,3.783,0,0,1,97.7-1.641a3.371,3.371,0,0,1-.566-1.937h2.352q0,1.883,2.25,1.883a2.189,2.189,0,0,0,1.3-.34A1.106,1.106,0,0,0,103.508-2.984Z" transform="translate(414 2919)" fill="#12263f"/>
    <path id="Trazado_799180" data-name="Trazado 799180" d="M23.266,10.352h-4.5V15H16.422V3.625h7.406v1.9H18.766V8.461h4.5Zm6.133.484H27.531V15H25.188V3.625h4.227a4.778,4.778,0,0,1,3.109.9,3.1,3.1,0,0,1,1.094,2.539A3.5,3.5,0,0,1,33.113,9a3.437,3.437,0,0,1-1.527,1.238l2.461,4.648V15H31.531Zm-1.867-1.9h1.891a1.936,1.936,0,0,0,1.367-.449,1.606,1.606,0,0,0,.484-1.238,1.719,1.719,0,0,0-.457-1.266,1.9,1.9,0,0,0-1.4-.461H27.531Zm14.711,1.117h-4.5v3.063h5.281V15H35.4V3.625h7.609v1.9H37.742V8.234h4.5Zm11.086,1.156A4.025,4.025,0,0,1,51.973,14.1a4.76,4.76,0,0,1-3.223,1.055,4.281,4.281,0,0,1-3.441-1.473,6.038,6.038,0,0,1-1.254-4.043v-.7a6.819,6.819,0,0,1,.578-2.891,4.332,4.332,0,0,1,1.652-1.918,5.164,5.164,0,0,1,5.668.387,4.326,4.326,0,0,1,1.391,2.961H51a2.376,2.376,0,0,0-.613-1.6,2.271,2.271,0,0,0-1.605-.5,1.991,1.991,0,0,0-1.754.84,4.707,4.707,0,0,0-.6,2.605V9.7a5.038,5.038,0,0,0,.559,2.7,1.954,1.954,0,0,0,1.762.852,2.314,2.314,0,0,0,1.621-.5,2.241,2.241,0,0,0,.613-1.535ZM63.477,3.625v7.492a3.836,3.836,0,0,1-1.168,2.953,4.5,4.5,0,0,1-3.191,1.086A4.553,4.553,0,0,1,55.953,14.1a3.77,3.77,0,0,1-1.2-2.9V3.625H57.1v7.508a2.167,2.167,0,0,0,.535,1.629,2.054,2.054,0,0,0,1.48.512q1.977,0,2.008-2.078V3.625Zm8.766,6.43h-4.5v3.063h5.281V15H65.4V3.625h7.609v1.9H67.742V8.234h4.5ZM83.648,15H81.3L76.742,7.516V15H74.4V3.625h2.344l4.57,7.5v-7.5h2.336Zm10.977-3.789A4.025,4.025,0,0,1,93.27,14.1a4.76,4.76,0,0,1-3.223,1.055,4.28,4.28,0,0,1-3.441-1.473,6.038,6.038,0,0,1-1.254-4.043v-.7a6.819,6.819,0,0,1,.578-2.891,4.332,4.332,0,0,1,1.652-1.918,5.164,5.164,0,0,1,5.668.387,4.326,4.326,0,0,1,1.391,2.961H92.3a2.376,2.376,0,0,0-.613-1.6,2.271,2.271,0,0,0-1.605-.5,1.991,1.991,0,0,0-1.754.84,4.707,4.707,0,0,0-.6,2.605V9.7a5.038,5.038,0,0,0,.559,2.7,1.954,1.954,0,0,0,1.762.852,2.314,2.314,0,0,0,1.621-.5,2.241,2.241,0,0,0,.613-1.535ZM98.656,15H96.313V3.625h2.344Zm8.734-2.344h-4.109L102.5,15h-2.492l4.234-11.375h2.172L110.672,15H108.18Zm-3.477-1.9h2.844L105.328,6.5ZM119.641,8.75l2.367-5.125h2.563l-3.734,7.25V15h-2.383V10.875l-3.734-7.25h2.57ZM10.926,34.992V39H8.582V27.625H13.02a5.134,5.134,0,0,1,2.254.469,3.454,3.454,0,0,1,1.5,1.332,3.714,3.714,0,0,1,.523,1.965,3.266,3.266,0,0,1-1.145,2.637,4.767,4.767,0,0,1-3.168.965Zm0-1.9H13.02a2.059,2.059,0,0,0,1.418-.437,1.591,1.591,0,0,0,.488-1.25,1.876,1.876,0,0,0-.492-1.352,1.839,1.839,0,0,0-1.359-.531H10.926Zm10.32,4.023h4.977V39H18.9V27.625h2.344Zm12.891-.461H30.027L29.246,39H26.754l4.234-11.375H33.16L37.418,39H34.926Zm-3.477-1.9H33.5L32.074,30.5ZM47.73,39H45.387l-4.562-7.484V39H38.48V27.625h2.344l4.57,7.5v-7.5H47.73Zm6.031,0V27.625h3.5a5.315,5.315,0,0,1,2.684.676,4.712,4.712,0,0,1,1.848,1.922,5.928,5.928,0,0,1,.664,2.832v.523A5.945,5.945,0,0,1,61.8,36.4a4.672,4.672,0,0,1-1.84,1.914,5.355,5.355,0,0,1-2.68.688Zm2.344-9.477v7.594h1.133a2.545,2.545,0,0,0,2.1-.9,4.06,4.06,0,0,0,.742-2.57v-.6a4.124,4.124,0,0,0-.719-2.629,2.537,2.537,0,0,0-2.1-.895ZM71,34.055H66.5v3.063h5.281V39H64.16V27.625H71.77v1.9H66.5v2.711H71Zm12.984,0h-4.5v3.063H84.77V39H77.145V27.625h7.609v1.9H79.488v2.711h4.5ZM95.395,39H93.051l-4.562-7.484V39H86.145V27.625h2.344l4.57,7.5v-7.5h2.336Zm6.25-2.82,2.578-8.555h2.609L102.871,39h-2.445L96.48,27.625h2.6Zm8.75,2.82h-2.344V27.625h2.344Zm-.727-14.445h2.461l-2.164,2.422h-1.836ZM121.91,33.57a6.867,6.867,0,0,1-.594,2.945,4.472,4.472,0,0,1-1.7,1.953,5.021,5.021,0,0,1-5.059.008,4.515,4.515,0,0,1-1.719-1.941,6.67,6.67,0,0,1-.617-2.9V33.07a6.831,6.831,0,0,1,.605-2.957,4.508,4.508,0,0,1,1.711-1.961,5.014,5.014,0,0,1,5.055,0,4.508,4.508,0,0,1,1.711,1.961,6.811,6.811,0,0,1,.605,2.949Zm-2.375-.516a4.787,4.787,0,0,0-.641-2.719,2.263,2.263,0,0,0-3.648-.012,4.732,4.732,0,0,0-.648,2.691v.555a4.847,4.847,0,0,0,.641,2.7,2.243,2.243,0,0,0,3.656.035,4.819,4.819,0,0,0,.641-2.7Zm9.977,2.961a1.2,1.2,0,0,0-.469-1.02,6.148,6.148,0,0,0-1.687-.75,11.963,11.963,0,0,1-1.93-.777,3.153,3.153,0,0,1-1.937-2.82,2.747,2.747,0,0,1,.52-1.645,3.389,3.389,0,0,1,1.492-1.129,5.616,5.616,0,0,1,2.184-.406,5.112,5.112,0,0,1,2.172.441,3.458,3.458,0,0,1,1.48,1.246,3.261,3.261,0,0,1,.527,1.828H129.52a1.534,1.534,0,0,0-.492-1.215,2.023,2.023,0,0,0-1.383-.434,2.162,2.162,0,0,0-1.336.363,1.146,1.146,0,0,0-.477.957,1.1,1.1,0,0,0,.559.93,6.311,6.311,0,0,0,1.645.7,7.106,7.106,0,0,1,2.914,1.492A2.972,2.972,0,0,1,131.863,36a2.737,2.737,0,0,1-1.117,2.316,4.891,4.891,0,0,1-3.008.84,5.808,5.808,0,0,1-2.391-.48,3.783,3.783,0,0,1-1.645-1.316,3.371,3.371,0,0,1-.566-1.937h2.352q0,1.883,2.25,1.883a2.189,2.189,0,0,0,1.3-.34A1.106,1.106,0,0,0,129.512,36.016Z" transform="translate(1117 2892)" fill="#12263f"/>
    <path id="Trazado_799184" data-name="Trazado 799184" d="M12.031,13.117h4.977V15H9.688V3.625h2.344Zm8.664,0h4.977V15h-7.32V3.625H20.7Zm12.891-.461H29.477L28.7,15H26.2L30.438,3.625h2.172L36.867,15H34.375Zm-3.477-1.9h2.844L31.523,6.5ZM40.992,3.625l2.922,8.25,2.906-8.25H49.9V15H47.547V11.891l.234-5.367L44.711,15H43.1L40.039,6.531l.234,5.359V15H37.93V3.625Zm17.516,9.031H54.4L53.617,15H51.125L55.359,3.625h2.172L61.789,15H59.3Zm-3.477-1.9h2.844L56.445,6.5ZM69.18,13.117h4.977V15h-7.32V3.625H69.18Zm12.891-.461H77.961L77.18,15H74.688L78.922,3.625h2.172L85.352,15H82.859Zm-3.477-1.9h2.844L80.008,6.5Zm18.227,1.9H92.711L91.93,15H89.438L93.672,3.625h2.172L100.1,15H97.609Zm-3.477-1.9h2.844L94.758,6.5Zm15.445-5.234H105.3V15h-2.344V5.523H99.523v-1.9h9.266Zm8.18,4.531h-4.5v3.063h5.281V15h-7.625V3.625h7.609v1.9h-5.266V8.234h4.5ZM128.375,15h-2.344l-4.562-7.484V15h-2.344V3.625h2.344l4.57,7.5v-7.5h2.336Zm10.977-3.789A4.025,4.025,0,0,1,138,14.1a4.76,4.76,0,0,1-3.223,1.055,4.281,4.281,0,0,1-3.441-1.473,6.038,6.038,0,0,1-1.254-4.043v-.7a6.819,6.819,0,0,1,.578-2.891,4.332,4.332,0,0,1,1.652-1.918,5.164,5.164,0,0,1,5.668.387,4.326,4.326,0,0,1,1.391,2.961h-2.344a2.376,2.376,0,0,0-.613-1.6,2.271,2.271,0,0,0-1.605-.5,1.991,1.991,0,0,0-1.754.84,4.707,4.707,0,0,0-.6,2.605V9.7a5.038,5.038,0,0,0,.559,2.7,1.954,1.954,0,0,0,1.762.852,2.314,2.314,0,0,0,1.621-.5,2.241,2.241,0,0,0,.613-1.535ZM143.383,15h-2.344V3.625h2.344ZM154.9,9.57a6.867,6.867,0,0,1-.594,2.945,4.471,4.471,0,0,1-1.7,1.953,5.021,5.021,0,0,1-5.059.008,4.515,4.515,0,0,1-1.719-1.941,6.67,6.67,0,0,1-.617-2.9V9.07a6.831,6.831,0,0,1,.605-2.957,4.508,4.508,0,0,1,1.711-1.961,5.014,5.014,0,0,1,5.055,0,4.508,4.508,0,0,1,1.711,1.961,6.811,6.811,0,0,1,.605,2.949Zm-2.375-.516a4.787,4.787,0,0,0-.641-2.719,2.263,2.263,0,0,0-3.648-.012,4.732,4.732,0,0,0-.648,2.691V9.57a4.847,4.847,0,0,0,.641,2.7,2.243,2.243,0,0,0,3.656.035,4.819,4.819,0,0,0,.641-2.7ZM150.508.578h2.461L150.8,3h-1.836ZM165.852,15h-2.344l-4.562-7.484V15H156.6V3.625h2.344l4.57,7.5v-7.5h2.336Zm14.961-3.789a4.025,4.025,0,0,1-1.355,2.891,4.76,4.76,0,0,1-3.223,1.055,4.281,4.281,0,0,1-3.441-1.473,6.038,6.038,0,0,1-1.254-4.043v-.7a6.819,6.819,0,0,1,.578-2.891,4.332,4.332,0,0,1,1.652-1.918,5.164,5.164,0,0,1,5.668.387,4.326,4.326,0,0,1,1.391,2.961h-2.344a2.376,2.376,0,0,0-.613-1.6,2.271,2.271,0,0,0-1.605-.5,1.991,1.991,0,0,0-1.754.84,4.707,4.707,0,0,0-.6,2.605V9.7a5.038,5.038,0,0,0,.559,2.7,1.954,1.954,0,0,0,1.762.852,2.314,2.314,0,0,0,1.621-.5,2.241,2.241,0,0,0,.613-1.535ZM191.7,9.57a6.867,6.867,0,0,1-.594,2.945,4.471,4.471,0,0,1-1.7,1.953,5.021,5.021,0,0,1-5.059.008,4.515,4.515,0,0,1-1.719-1.941,6.67,6.67,0,0,1-.617-2.9V9.07a6.831,6.831,0,0,1,.605-2.957,4.508,4.508,0,0,1,1.711-1.961,5.014,5.014,0,0,1,5.055,0,4.508,4.508,0,0,1,1.711,1.961,6.811,6.811,0,0,1,.605,2.949Zm-2.375-.516a4.787,4.787,0,0,0-.641-2.719,2.263,2.263,0,0,0-3.648-.012,4.732,4.732,0,0,0-.648,2.691V9.57a4.847,4.847,0,0,0,.641,2.7,2.243,2.243,0,0,0,3.656.035,4.819,4.819,0,0,0,.641-2.7ZM202.648,15H200.3l-4.562-7.484V15H193.4V3.625h2.344l4.57,7.5v-7.5h2.336Zm12.875-4.945h-4.5v3.063H216.3V15H208.68V3.625h7.609v1.9h-5.266V8.234h4.5Zm4.5,3.063H225V15h-7.32V3.625h2.344ZM25.7,39V27.625h3.5a5.315,5.315,0,0,1,2.684.676,4.712,4.712,0,0,1,1.848,1.922,5.928,5.928,0,0,1,.664,2.832v.523a5.945,5.945,0,0,1-.652,2.82,4.672,4.672,0,0,1-1.84,1.914,5.355,5.355,0,0,1-2.68.688Zm2.344-9.477v7.594h1.133a2.545,2.545,0,0,0,2.1-.9,4.06,4.06,0,0,0,.742-2.57v-.6a4.124,4.124,0,0,0-.719-2.629,2.537,2.537,0,0,0-2.1-.895ZM38.586,39H36.242V27.625h2.344Zm8.07-2.984A1.2,1.2,0,0,0,46.188,35a6.148,6.148,0,0,0-1.687-.75,11.963,11.963,0,0,1-1.93-.777,3.153,3.153,0,0,1-1.937-2.82A2.747,2.747,0,0,1,41.152,29a3.389,3.389,0,0,1,1.492-1.129,5.616,5.616,0,0,1,2.184-.406A5.112,5.112,0,0,1,47,27.91a3.458,3.458,0,0,1,1.48,1.246,3.261,3.261,0,0,1,.527,1.828H46.664a1.534,1.534,0,0,0-.492-1.215,2.023,2.023,0,0,0-1.383-.434,2.162,2.162,0,0,0-1.336.363,1.146,1.146,0,0,0-.477.957,1.1,1.1,0,0,0,.559.93,6.311,6.311,0,0,0,1.645.7,7.106,7.106,0,0,1,2.914,1.492A2.972,2.972,0,0,1,49.008,36a2.737,2.737,0,0,1-1.117,2.316,4.891,4.891,0,0,1-3.008.84,5.808,5.808,0,0,1-2.391-.48,3.783,3.783,0,0,1-1.645-1.316,3.371,3.371,0,0,1-.566-1.937h2.352q0,1.883,2.25,1.883a2.189,2.189,0,0,0,1.3-.34A1.106,1.106,0,0,0,46.656,36.016Zm10.781-1.961h-4.5v3.063h5.281V39H50.594V27.625H58.2v1.9H52.938v2.711h4.5ZM68.844,39H66.5l-4.562-7.484V39H59.594V27.625h2.344l4.57,7.5v-7.5h2.336ZM67.188,24.688a2.187,2.187,0,0,1-.516,1.48,1.6,1.6,0,0,1-1.258.6,1.908,1.908,0,0,1-.527-.066,3.539,3.539,0,0,1-.637-.285,3.434,3.434,0,0,0-.586-.27,1.432,1.432,0,0,0-.391-.051.627.627,0,0,0-.465.2.759.759,0,0,0-.191.555L61.3,26.766a2.22,2.22,0,0,1,.512-1.477,1.578,1.578,0,0,1,1.254-.609,1.614,1.614,0,0,1,.441.059,4.861,4.861,0,0,1,.676.285,4.392,4.392,0,0,0,.648.273,1.48,1.48,0,0,0,.375.047.659.659,0,0,0,.473-.191.728.728,0,0,0,.2-.551ZM80.234,33.57a6.867,6.867,0,0,1-.594,2.945,4.472,4.472,0,0,1-1.7,1.953,5.021,5.021,0,0,1-5.059.008,4.515,4.515,0,0,1-1.719-1.941,6.67,6.67,0,0,1-.617-2.9V33.07a6.831,6.831,0,0,1,.605-2.957,4.508,4.508,0,0,1,1.711-1.961,5.014,5.014,0,0,1,5.055,0,4.508,4.508,0,0,1,1.711,1.961,6.811,6.811,0,0,1,.605,2.949Zm-2.375-.516a4.787,4.787,0,0,0-.641-2.719,2.263,2.263,0,0,0-3.648-.012,4.732,4.732,0,0,0-.648,2.691v.555a4.847,4.847,0,0,0,.641,2.7,2.243,2.243,0,0,0,3.656.035,4.819,4.819,0,0,0,.641-2.7Zm11.984-.3,2.367-5.125h2.563l-3.734,7.25V39H88.656V34.875l-3.734-7.25h2.57Zm16.8,1.3h-4.5v3.063h5.281V39H99.8V27.625h7.609v1.9h-5.266v2.711h4.5Zm4.5,3.063h4.977V39H108.8V27.625h2.344Zm19.234-1.906A4.025,4.025,0,0,1,129.02,38.1a4.76,4.76,0,0,1-3.223,1.055,4.28,4.28,0,0,1-3.441-1.473,6.038,6.038,0,0,1-1.254-4.043v-.7a6.819,6.819,0,0,1,.578-2.891,4.332,4.332,0,0,1,1.652-1.918,5.164,5.164,0,0,1,5.668.387,4.326,4.326,0,0,1,1.391,2.961h-2.344a2.376,2.376,0,0,0-.613-1.6,2.271,2.271,0,0,0-1.605-.5,1.991,1.991,0,0,0-1.754.84,4.707,4.707,0,0,0-.6,2.605V33.7a5.038,5.038,0,0,0,.559,2.7,1.954,1.954,0,0,0,1.762.852,2.314,2.314,0,0,0,1.621-.5,2.241,2.241,0,0,0,.613-1.535Zm10.883-1.641a6.867,6.867,0,0,1-.594,2.945,4.471,4.471,0,0,1-1.7,1.953,5.021,5.021,0,0,1-5.059.008,4.515,4.515,0,0,1-1.719-1.941,6.67,6.67,0,0,1-.617-2.9V33.07a6.831,6.831,0,0,1,.605-2.957,4.508,4.508,0,0,1,1.711-1.961,5.014,5.014,0,0,1,5.055,0,4.508,4.508,0,0,1,1.711,1.961,6.811,6.811,0,0,1,.605,2.949Zm-2.375-.516a4.787,4.787,0,0,0-.641-2.719,2.263,2.263,0,0,0-3.648-.012,4.732,4.732,0,0,0-.648,2.691v.555a4.847,4.847,0,0,0,.641,2.7,2.243,2.243,0,0,0,3.656.035,4.819,4.819,0,0,0,.641-2.7ZM152.211,39h-2.344L145.3,31.516V39h-2.344V27.625H145.3l4.57,7.5v-7.5h2.336Zm10.383-9.477h-3.484V39h-2.344V29.523h-3.437v-1.9h9.266Zm8.18,4.531h-4.5v3.063h5.281V39H163.93V27.625h7.609v1.9h-5.266v2.711h4.5ZM182.18,39h-2.344l-4.562-7.484V39H172.93V27.625h2.344l4.57,7.5v-7.5h2.336Zm4.539,0h-2.344V27.625h2.344Zm2.172,0V27.625h3.5a5.315,5.315,0,0,1,2.684.676,4.712,4.712,0,0,1,1.848,1.922,5.928,5.928,0,0,1,.664,2.832v.523a5.945,5.945,0,0,1-.652,2.82,4.672,4.672,0,0,1-1.84,1.914,5.355,5.355,0,0,1-2.68.688Zm2.344-9.477v7.594h1.133a2.545,2.545,0,0,0,2.1-.9,4.06,4.06,0,0,0,.742-2.57v-.6a4.124,4.124,0,0,0-.719-2.629,2.537,2.537,0,0,0-2.1-.895Zm17.4,4.047a6.867,6.867,0,0,1-.594,2.945,4.471,4.471,0,0,1-1.7,1.953,5.021,5.021,0,0,1-5.059.008,4.515,4.515,0,0,1-1.719-1.941,6.67,6.67,0,0,1-.617-2.9V33.07a6.831,6.831,0,0,1,.605-2.957,4.508,4.508,0,0,1,1.711-1.961,5.014,5.014,0,0,1,5.055,0,4.508,4.508,0,0,1,1.711,1.961,6.811,6.811,0,0,1,.605,2.949Zm-2.375-.516a4.787,4.787,0,0,0-.641-2.719,2.263,2.263,0,0,0-3.648-.012,4.732,4.732,0,0,0-.648,2.691v.555a4.847,4.847,0,0,0,.641,2.7,2.243,2.243,0,0,0,3.656.035,4.819,4.819,0,0,0,.641-2.7Z" transform="translate(841 3041)" fill="#12263f"/>
    <path id="Trazado_799178" data-name="Trazado 799178" d="M13.559,13.211A4.025,4.025,0,0,1,12.2,16.1,4.76,4.76,0,0,1,8.98,17.156a4.28,4.28,0,0,1-3.441-1.473,6.038,6.038,0,0,1-1.254-4.043v-.7a6.819,6.819,0,0,1,.578-2.891A4.332,4.332,0,0,1,6.516,6.137a4.629,4.629,0,0,1,2.5-.668,4.637,4.637,0,0,1,3.172,1.055,4.326,4.326,0,0,1,1.391,2.961H11.23a2.376,2.376,0,0,0-.613-1.6,2.271,2.271,0,0,0-1.605-.5,1.991,1.991,0,0,0-1.754.84,4.707,4.707,0,0,0-.6,2.605V11.7a5.038,5.038,0,0,0,.559,2.7,1.954,1.954,0,0,0,1.762.852,2.314,2.314,0,0,0,1.621-.5,2.241,2.241,0,0,0,.613-1.535ZM24.441,11.57a6.867,6.867,0,0,1-.594,2.945,4.472,4.472,0,0,1-1.7,1.953,5.021,5.021,0,0,1-5.059.008,4.515,4.515,0,0,1-1.719-1.941,6.67,6.67,0,0,1-.617-2.9V11.07a6.831,6.831,0,0,1,.605-2.957A4.508,4.508,0,0,1,17.07,6.152a5.014,5.014,0,0,1,5.055,0,4.508,4.508,0,0,1,1.711,1.961,6.811,6.811,0,0,1,.605,2.949Zm-2.375-.516a4.787,4.787,0,0,0-.641-2.719,2.263,2.263,0,0,0-3.648-.012,4.732,4.732,0,0,0-.648,2.691v.555a4.847,4.847,0,0,0,.641,2.7,2.243,2.243,0,0,0,3.656.035,4.819,4.819,0,0,0,.641-2.7ZM35.395,17H33.051L28.488,9.516V17H26.145V5.625h2.344l4.57,7.5v-7.5h2.336Zm10.977-3.789A4.025,4.025,0,0,1,45.016,16.1a4.76,4.76,0,0,1-3.223,1.055,4.28,4.28,0,0,1-3.441-1.473A6.038,6.038,0,0,1,37.1,11.641v-.7a6.819,6.819,0,0,1,.578-2.891,4.332,4.332,0,0,1,1.652-1.918A5.164,5.164,0,0,1,45,6.523a4.326,4.326,0,0,1,1.391,2.961H44.043a2.376,2.376,0,0,0-.613-1.6,2.271,2.271,0,0,0-1.605-.5,1.991,1.991,0,0,0-1.754.84,4.707,4.707,0,0,0-.6,2.605V11.7a5.038,5.038,0,0,0,.559,2.7,1.954,1.954,0,0,0,1.762.852,2.314,2.314,0,0,0,1.621-.5,2.241,2.241,0,0,0,.613-1.535Zm5.75-.375H50.254V17H47.91V5.625h4.227a4.778,4.778,0,0,1,3.109.9A3.1,3.1,0,0,1,56.34,9.063a3.5,3.5,0,0,1-.5,1.941,3.437,3.437,0,0,1-1.527,1.238l2.461,4.648V17H54.254Zm-1.867-1.9h1.891a1.936,1.936,0,0,0,1.367-.449A1.606,1.606,0,0,0,54,9.25a1.719,1.719,0,0,0-.457-1.266,1.9,1.9,0,0,0-1.4-.461H50.254Zm14.711,1.117h-4.5v3.063h5.281V17H58.121V5.625H65.73v1.9H60.465v2.711h4.5ZM75.84,7.523H72.355V17H70.012V7.523H66.574v-1.9H75.84Zm6.82,7.133H78.551L77.77,17H75.277L79.512,5.625h2.172L85.941,17H83.449Zm-3.477-1.9h2.844L80.6,8.5Zm18.648-.7h-4.5v3.063h5.281V17H90.988V5.625H98.6v1.9H93.332v2.711h4.5Zm4.5,3.063h4.977V17h-7.32V5.625h2.344Zm19.414-7.594h-3.375L116.73,17h-2.289l1.641-9.477h-3.336l.336-1.9h9Zm5.469,7.133h-3.969L122.074,17h-2.523l6.078-11.375h2.117L129.91,17h-2.336Zm-3.031-1.9h2.742l-.641-4.234Zm11.742.078h-1.859L133.34,17h-2.289l1.977-11.375,3.766.008a4.289,4.289,0,0,1,2.91.891,2.817,2.817,0,0,1,.9,2.477,3.574,3.574,0,0,1-2.5,3.258l1.6,4.617V17H137.27Zm-1.531-1.9,1.7.016a2.386,2.386,0,0,0,1.5-.488A1.933,1.933,0,0,0,138.3,9.18a1.473,1.473,0,0,0-.242-1.187,1.442,1.442,0,0,0-1.117-.461l-1.953-.008Zm15.758,4.625a3.837,3.837,0,0,1-1.785,1.191,7.523,7.523,0,0,1-2.652.395,4.114,4.114,0,0,1-2.047-.512,3.572,3.572,0,0,1-1.391-1.449,5.127,5.127,0,0,1-.578-2.156,9.841,9.841,0,0,1,.238-2.645,7.438,7.438,0,0,1,1.086-2.664,5.076,5.076,0,0,1,1.848-1.711,4.868,4.868,0,0,1,2.391-.543,3.954,3.954,0,0,1,2.789,1A4.165,4.165,0,0,1,151.2,9.258L149,9.25a2.331,2.331,0,0,0-.508-1.406,1.731,1.731,0,0,0-1.258-.484,2.467,2.467,0,0,0-2.277,1.27A7.9,7.9,0,0,0,144,12.445a3.355,3.355,0,0,0,.41,2.07,1.7,1.7,0,0,0,1.488.75,3.171,3.171,0,0,0,1.984-.555l.383-1.961h-2.078l.3-1.727h4.344Zm9.039-3.492h-4.359l-.531,3.047h5.125L159.1,17h-7.414L153.66,5.625h7.4l-.336,1.9h-5.1l-.477,2.711h4.375Zm11.414-4.547H167.23L165.59,17H163.3l1.641-9.477h-3.336l.336-1.9h9ZM182,12.055h-4.5v3.063h5.281V17H175.16V5.625h7.609v1.9H177.5v2.711H182ZM193.41,17h-2.344L186.5,9.516V17H184.16V5.625H186.5l4.57,7.5v-7.5h2.336Zm14.125-9.477h-3.484V17h-2.344V7.523H198.27v-1.9h9.266Zm9.945-1.9v7.492a3.836,3.836,0,0,1-1.168,2.953,4.5,4.5,0,0,1-3.191,1.086,4.553,4.553,0,0,1-3.164-1.055,3.77,3.77,0,0,1-1.2-2.9V5.625h2.344v7.508a2.167,2.167,0,0,0,.535,1.629,2.054,2.054,0,0,0,1.48.512q1.977,0,2.008-2.078V5.625ZM53.113,41V29.625H57.1a5.232,5.232,0,0,1,3.141.793,2.712,2.712,0,0,1,1.07,2.324,2.57,2.57,0,0,1-.43,1.473,2.482,2.482,0,0,1-1.2.934,2.4,2.4,0,0,1,1.379.883,2.61,2.61,0,0,1,.5,1.625,3,3,0,0,1-1.047,2.484A4.713,4.713,0,0,1,57.535,41Zm2.344-4.953v3.07h2.008a1.938,1.938,0,0,0,1.293-.395,1.353,1.353,0,0,0,.465-1.09,1.428,1.428,0,0,0-1.617-1.586Zm0-1.656h1.734q1.773-.031,1.773-1.414a1.307,1.307,0,0,0-.449-1.113,2.363,2.363,0,0,0-1.418-.34H55.457Zm14.289,4.266H65.637L64.855,41H62.363L66.6,29.625H68.77L73.027,41H70.535Zm-3.477-1.9h2.844L67.684,32.5Zm13.719,1.258A1.2,1.2,0,0,0,79.52,37a6.148,6.148,0,0,0-1.687-.75,11.963,11.963,0,0,1-1.93-.777,3.153,3.153,0,0,1-1.937-2.82A2.747,2.747,0,0,1,74.484,31a3.389,3.389,0,0,1,1.492-1.129,5.616,5.616,0,0,1,2.184-.406,5.112,5.112,0,0,1,2.172.441,3.458,3.458,0,0,1,1.48,1.246,3.261,3.261,0,0,1,.527,1.828H80A1.534,1.534,0,0,0,79.5,31.77a2.023,2.023,0,0,0-1.383-.434,2.162,2.162,0,0,0-1.336.363,1.146,1.146,0,0,0-.477.957,1.1,1.1,0,0,0,.559.93,6.311,6.311,0,0,0,1.645.7,7.106,7.106,0,0,1,2.914,1.492A2.972,2.972,0,0,1,82.34,38a2.737,2.737,0,0,1-1.117,2.316,4.891,4.891,0,0,1-3.008.84,5.808,5.808,0,0,1-2.391-.48,3.783,3.783,0,0,1-1.645-1.316,3.371,3.371,0,0,1-.566-1.937h2.352q0,1.883,2.25,1.883a2.189,2.189,0,0,0,1.3-.34A1.106,1.106,0,0,0,79.988,38.016ZM90.77,36.055h-4.5v3.063h5.281V41H83.926V29.625h7.609v1.9H86.27v2.711h4.5ZM96.91,41V29.625h3.5a5.315,5.315,0,0,1,2.684.676,4.712,4.712,0,0,1,1.848,1.922,5.928,5.928,0,0,1,.664,2.832v.523a5.945,5.945,0,0,1-.652,2.82,4.672,4.672,0,0,1-1.84,1.914,5.355,5.355,0,0,1-2.68.688Zm2.344-9.477v7.594h1.133a2.545,2.545,0,0,0,2.1-.9,4.06,4.06,0,0,0,.742-2.57v-.6a4.124,4.124,0,0,0-.719-2.629,2.537,2.537,0,0,0-2.1-.895Zm14.9,4.531h-4.5v3.063h5.281V41h-7.625V29.625h7.609v1.9h-5.266v2.711h4.5ZM120.293,41V29.625h3.5a5.315,5.315,0,0,1,2.684.676,4.712,4.712,0,0,1,1.848,1.922,5.928,5.928,0,0,1,.664,2.832v.523a5.945,5.945,0,0,1-.652,2.82,4.672,4.672,0,0,1-1.84,1.914,5.355,5.355,0,0,1-2.68.688Zm2.344-9.477v7.594h1.133a2.545,2.545,0,0,0,2.1-.9,4.06,4.06,0,0,0,.742-2.57v-.6a4.124,4.124,0,0,0-.719-2.629,2.537,2.537,0,0,0-2.1-.895Zm14.313,7.133H132.84L132.059,41h-2.492L133.8,29.625h2.172L140.23,41h-2.492Zm-3.477-1.9h2.844l-1.43-4.258Zm15.445-5.234h-3.484V41H143.09V31.523h-3.437v-1.9h9.266Zm10.461,4.047a6.867,6.867,0,0,1-.594,2.945,4.471,4.471,0,0,1-1.7,1.953,5.021,5.021,0,0,1-5.059.008,4.515,4.515,0,0,1-1.719-1.941,6.67,6.67,0,0,1-.617-2.9V35.07a6.831,6.831,0,0,1,.605-2.957,4.508,4.508,0,0,1,1.711-1.961,5.014,5.014,0,0,1,5.055,0,4.508,4.508,0,0,1,1.711,1.961,6.811,6.811,0,0,1,.605,2.949ZM157,35.055a4.787,4.787,0,0,0-.641-2.719,2.263,2.263,0,0,0-3.648-.012,4.732,4.732,0,0,0-.648,2.691v.555a4.847,4.847,0,0,0,.641,2.7,2.243,2.243,0,0,0,3.656.035,4.819,4.819,0,0,0,.641-2.7Zm9.977,2.961a1.2,1.2,0,0,0-.469-1.02,6.148,6.148,0,0,0-1.687-.75,11.962,11.962,0,0,1-1.93-.777,3.153,3.153,0,0,1-1.937-2.82,2.747,2.747,0,0,1,.52-1.645,3.389,3.389,0,0,1,1.492-1.129,5.616,5.616,0,0,1,2.184-.406,5.112,5.112,0,0,1,2.172.441,3.458,3.458,0,0,1,1.48,1.246,3.261,3.261,0,0,1,.527,1.828h-2.344a1.534,1.534,0,0,0-.492-1.215,2.023,2.023,0,0,0-1.383-.434,2.162,2.162,0,0,0-1.336.363,1.146,1.146,0,0,0-.477.957,1.1,1.1,0,0,0,.559.93,6.311,6.311,0,0,0,1.645.7,7.106,7.106,0,0,1,2.914,1.492A2.972,2.972,0,0,1,169.332,38a2.737,2.737,0,0,1-1.117,2.316,4.891,4.891,0,0,1-3.008.84,5.808,5.808,0,0,1-2.391-.48,3.783,3.783,0,0,1-1.645-1.316,3.371,3.371,0,0,1-.566-1.937h2.352q0,1.883,2.25,1.883a2.189,2.189,0,0,0,1.3-.34A1.106,1.106,0,0,0,166.98,38.016Z" transform="translate(847 2743)" fill="#12263f"/>
    <path id="Trazado_799179" data-name="Trazado 799179" d="M3.979,23V5.938h5.5a8.085,8.085,0,0,1,4.066,1.025,7.208,7.208,0,0,1,2.818,2.895,8.739,8.739,0,0,1,1.025,4.189v.785a8.79,8.79,0,0,1-.99,4.2,7.239,7.239,0,0,1-2.789,2.906A7.907,7.907,0,0,1,9.592,23ZM8.092,9.113V19.836h1.43a3.2,3.2,0,0,0,2.719-1.26,6.173,6.173,0,0,0,.949-3.744v-.738a6.123,6.123,0,0,0-.949-3.727A3.256,3.256,0,0,0,9.475,9.113ZM23.877,23h-4.1V5.938h4.1Zm11.66-4.535a1.69,1.69,0,0,0-.639-1.406,7.938,7.938,0,0,0-2.244-1.043,21.53,21.53,0,0,1-2.625-1.043q-3.316-1.629-3.316-4.477a4.014,4.014,0,0,1,.826-2.5,5.344,5.344,0,0,1,2.338-1.687,9.1,9.1,0,0,1,3.4-.6,7.958,7.958,0,0,1,3.3.656,5.223,5.223,0,0,1,2.268,1.869A4.881,4.881,0,0,1,39.65,11h-4.1a2.063,2.063,0,0,0-.639-1.617,2.489,2.489,0,0,0-1.729-.574,2.807,2.807,0,0,0-1.74.486,1.432,1.432,0,0,0,.064,2.426,8.867,8.867,0,0,0,2.473,1.1,15.147,15.147,0,0,1,2.906,1.225,4.884,4.884,0,0,1,2.766,4.395,4.166,4.166,0,0,1-1.687,3.516,7.506,7.506,0,0,1-4.629,1.277,9.184,9.184,0,0,1-3.756-.744,5.663,5.663,0,0,1-2.531-2.039,5.313,5.313,0,0,1-.85-2.982h4.125a2.617,2.617,0,0,0,.709,2.021,3.351,3.351,0,0,0,2.3.65,2.647,2.647,0,0,0,1.611-.439A1.45,1.45,0,0,0,35.537,18.465Zm16.8-2.707H45.873v4.078h7.641V23H41.76V5.938H53.537V9.113H45.873v3.6h6.469ZM69.439,23H65.35L59.3,12.383V23H55.189V5.938H59.3l6.035,10.617V5.938h4.1ZM66.932,1.473a3.417,3.417,0,0,1-.779,2.268,2.418,2.418,0,0,1-1.928.932A3.8,3.8,0,0,1,62.5,4.18a3.593,3.593,0,0,0-1.535-.492.88.88,0,0,0-.639.258,1.071,1.071,0,0,0-.264.8l-2.191-.117a3.435,3.435,0,0,1,.779-2.25,2.39,2.39,0,0,1,1.916-.949,3.955,3.955,0,0,1,1.535.433,9.427,9.427,0,0,0,1.2.492,2.32,2.32,0,0,0,.533.059.9.9,0,0,0,.645-.261,1.076,1.076,0,0,0,.27-.806Zm15.012,18.34H76.307L75.322,23H70.928L77.186,5.938h3.867L87.357,23H82.939Zm-4.652-3.176h3.668l-1.84-5.918Zm29.977-7.523h-5.121V23H98.033V9.113H93.006V5.938h14.262Zm15.117-3.176V17.105a6.419,6.419,0,0,1-.809,3.287,5.238,5.238,0,0,1-2.32,2.115,8.174,8.174,0,0,1-3.574.727,7.062,7.062,0,0,1-4.91-1.617,5.768,5.768,0,0,1-1.828-4.43V5.938h4.137V17.27q.07,2.8,2.6,2.8a2.518,2.518,0,0,0,1.934-.7,3.286,3.286,0,0,0,.656-2.285V5.938Zm12.656,11.273V23h-4.113V5.938h6.809a7.93,7.93,0,0,1,3.463.721,5.431,5.431,0,0,1,2.332,2.051,5.6,5.6,0,0,1,.826,3.018,4.937,4.937,0,0,1-1.787,3.99,7.415,7.415,0,0,1-4.9,1.494Zm0-3.176h2.7a2.542,2.542,0,0,0,1.822-.6,2.221,2.221,0,0,0,.627-1.687,2.745,2.745,0,0,0-.645-1.91,2.282,2.282,0,0,0-1.758-.727h-2.742Zm17.848,2.93h-2.227V23h-4.113V5.938h6.715a7.5,7.5,0,0,1,4.746,1.346,4.561,4.561,0,0,1,1.711,3.8,5.54,5.54,0,0,1-.721,2.95,5.115,5.115,0,0,1-2.256,1.9l3.563,6.889V23H155.9ZM150.662,13.8h2.6a2.335,2.335,0,0,0,1.764-.617,2.384,2.384,0,0,0,.592-1.721,2.412,2.412,0,0,0-.6-1.733,2.313,2.313,0,0,0-1.758-.629h-2.6Zm25.992,1.02a10.062,10.062,0,0,1-.926,4.418A6.842,6.842,0,0,1,173.1,22.2a7.326,7.326,0,0,1-3.885,1.037,7.429,7.429,0,0,1-3.867-1,6.831,6.831,0,0,1-2.631-2.865,9.772,9.772,0,0,1-.99-4.277v-.961a10.106,10.106,0,0,1,.92-4.424,6.825,6.825,0,0,1,2.637-2.959,7.805,7.805,0,0,1,7.775-.012A6.948,6.948,0,0,1,175.7,9.67a9.816,9.816,0,0,1,.955,4.365Zm-4.184-.715a7.175,7.175,0,0,0-.85-3.861,2.725,2.725,0,0,0-2.432-1.318q-3.094,0-3.27,4.641l-.012,1.254a7.379,7.379,0,0,0,.832,3.855,2.721,2.721,0,0,0,2.473,1.348,2.688,2.688,0,0,0,2.4-1.324,7.178,7.178,0,0,0,.855-3.809Zm10.418,3.105V23h-4.113V5.938h6.809a7.93,7.93,0,0,1,3.463.721,5.431,5.431,0,0,1,2.332,2.051,5.6,5.6,0,0,1,.826,3.018,4.937,4.937,0,0,1-1.787,3.99,7.415,7.415,0,0,1-4.9,1.494Zm0-3.176h2.7a2.542,2.542,0,0,0,1.822-.6,2.221,2.221,0,0,0,.627-1.687,2.745,2.745,0,0,0-.645-1.91,2.282,2.282,0,0,0-1.758-.727h-2.742ZM198.779,23h-4.1V5.938h4.1Zm12.762-3.187H205.9L204.92,23h-4.395l6.258-17.062h3.867L216.955,23h-4.418Zm-4.652-3.176h3.668l-1.84-5.918Zm31.09.586a6.231,6.231,0,0,1-.961,3.146,5.8,5.8,0,0,1-2.467,2.115,8.4,8.4,0,0,1-3.627.75,6.7,6.7,0,0,1-5.3-2.191,9.048,9.048,0,0,1-1.934-6.187v-.844a10.328,10.328,0,0,1,.873-4.389,6.615,6.615,0,0,1,2.514-2.906,7.013,7.013,0,0,1,3.8-1.025,7.354,7.354,0,0,1,4.992,1.635,6.459,6.459,0,0,1,2.145,4.506h-4.1a3.056,3.056,0,0,0-.785-2.238,3.229,3.229,0,0,0-2.25-.68,2.457,2.457,0,0,0-2.25,1.148,7.381,7.381,0,0,0-.75,3.668v1.207a8.167,8.167,0,0,0,.686,3.9,2.509,2.509,0,0,0,2.361,1.172,3.159,3.159,0,0,0,2.168-.668,2.835,2.835,0,0,0,.8-2.121Zm11.637,2.59h-5.637L242.994,23H238.6l6.258-17.062h3.867L255.029,23h-4.418Zm-4.652-3.176h3.668l-1.84-5.918Zm16.711-10.7,3.809,11.871,3.8-11.871h5.414V23h-4.125V19.016l.4-8.156L266.842,23h-2.719l-4.137-12.152.4,8.168V23h-4.113V5.938ZM281.42,17.211V23h-4.113V5.938h6.809a7.93,7.93,0,0,1,3.463.721,5.431,5.431,0,0,1,2.332,2.051,5.6,5.6,0,0,1,.826,3.018,4.937,4.937,0,0,1-1.787,3.99,7.415,7.415,0,0,1-4.9,1.494Zm0-3.176h2.7a2.542,2.542,0,0,0,1.822-.6,2.221,2.221,0,0,0,.627-1.687,2.745,2.745,0,0,0-.645-1.91,2.282,2.282,0,0,0-1.758-.727H281.42Zm19.113,5.777H294.9L293.912,23h-4.395l6.258-17.062h3.867L305.947,23h-4.418Zm-4.652-3.176h3.668l-1.84-5.918ZM321.439,23h-4.09L311.3,12.383V23h-4.113V5.938H311.3l6.035,10.617V5.938h4.1ZM318.932,1.473a3.417,3.417,0,0,1-.779,2.268,2.418,2.418,0,0,1-1.928.932A3.8,3.8,0,0,1,314.5,4.18a3.593,3.593,0,0,0-1.535-.492.88.88,0,0,0-.639.258,1.071,1.071,0,0,0-.264.8l-2.191-.117a3.435,3.435,0,0,1,.779-2.25,2.39,2.39,0,0,1,1.916-.949,3.955,3.955,0,0,1,1.535.433,9.427,9.427,0,0,0,1.2.492,2.32,2.32,0,0,0,.533.059.9.9,0,0,0,.645-.261,1.076,1.076,0,0,0,.27-.806Zm15.012,18.34h-5.637L327.322,23h-4.395l6.258-17.062h3.867L339.357,23h-4.418Zm-4.652-3.176h3.668l-1.84-5.918ZM49.828,53V35.938h5.5a8.085,8.085,0,0,1,4.066,1.025,7.208,7.208,0,0,1,2.818,2.895,8.739,8.739,0,0,1,1.025,4.189v.785a8.79,8.79,0,0,1-.99,4.2,7.239,7.239,0,0,1-2.789,2.906A7.907,7.907,0,0,1,55.441,53Zm4.113-13.887V49.836h1.43a3.2,3.2,0,0,0,2.719-1.26,6.173,6.173,0,0,0,.949-3.744v-.738a6.123,6.123,0,0,0-.949-3.727,3.256,3.256,0,0,0-2.766-1.254Zm21.984,6.645H69.457v4.078H77.1V53H65.344V35.938H77.121v3.176H69.457v3.6h6.469Zm19.1,0h-6.27l-.715,4.078h7.418L94.91,53H83.484l2.953-17.062H97.887l-.551,3.176h-7.43l-.633,3.6h6.281Zm9.762-9.82,1.629,11.836,5.719-11.836h5.344L114.527,53H110.5l.727-4.184,1.734-7.711L106.98,53h-2.66l-1.934-12.34-1.078,8.555L100.641,53H96.633l2.953-17.062ZM127.172,49.8h-5.449L120.211,53h-4.418l9.035-17.062H128.6L131.754,53h-4.172Zm-3.949-3.164h3.539l-.75-5.883ZM137.4,53h-4.008l2.965-17.062h4Zm7.418-3.164h6.949L151.219,53H140.262l2.953-17.062h4.02Zm22.254-13.9L168.7,47.773l5.719-11.836h5.344L176.813,53h-4.031l.727-4.184,1.734-7.711L169.266,53h-2.66l-1.934-12.34-1.078,8.555L162.926,53h-4.008l2.953-17.062ZM189.457,49.8h-5.449L182.5,53h-4.418l9.035-17.062h3.773L194.039,53h-4.172Zm-3.949-3.164h3.539l-.75-5.883Zm17.191.328h-2.227L199.418,53H195.41l2.953-17.062,6.023.012a6.618,6.618,0,0,1,4.459,1.352,4.206,4.206,0,0,1,1.4,3.693,5.505,5.505,0,0,1-1.066,3.061,6.277,6.277,0,0,1-2.625,1.914l2.3,6.831V53h-4.277ZM201.012,43.8l2.344.023a2.953,2.953,0,0,0,1.67-.47,2.587,2.587,0,0,0,1.014-1.286,3.023,3.023,0,0,0,.176-1.58,1.573,1.573,0,0,0-1.664-1.375l-2.719-.012ZM217.57,46.7l-2.086,1.957L214.723,53h-4.008l2.953-17.062h4.02l-1.277,7.3,1.664-2.027,4.43-5.273h5.2l-7.078,7.723L224.555,53h-4.582Zm19.7-.937H231l-.715,4.078H237.7L237.152,53H225.727l2.953-17.062h11.449l-.551,3.176h-7.43l-.633,3.6H237.8Zm17.262-6.645h-4.969L247.16,53h-4.02l2.414-13.887h-4.887l.563-3.176h13.852ZM258.176,53h-4.008l2.965-17.062h4Zm16.7,0H271l-4.078-10.77L265.043,53h-4.008l2.953-17.062H267.9l4.066,10.77,1.863-10.77h4.008Zm16.77-2.1a6.143,6.143,0,0,1-2.8,1.74,12.191,12.191,0,0,1-4.078.58,6.189,6.189,0,0,1-3.621-1.078,5.739,5.739,0,0,1-2.109-2.941,9.573,9.573,0,0,1-.34-4.254l.094-.7a10.83,10.83,0,0,1,2.795-6.293,7.216,7.216,0,0,1,5.525-2.262,6.213,6.213,0,0,1,4.395,1.535,6.3,6.3,0,0,1,1.711,4.3l-3.844-.012a3.131,3.131,0,0,0-.674-2,2.3,2.3,0,0,0-1.682-.665,3.114,3.114,0,0,0-2.672,1.27,8.066,8.066,0,0,0-1.441,3.8,14.97,14.97,0,0,0-.234,3.278q.176,2.821,2.543,2.856a4.3,4.3,0,0,0,2.508-.691l.527-2.66h-2.777l.492-2.824h6.785Z" transform="translate(629 2884)" fill="#fff"/>
    <path id="Trazado_798690" data-name="Trazado 798690" d="M4493.5-8726v146.5h374.333" transform="translate(-4162.833 11716.999)" fill="none" stroke="#0050db" stroke-width="15"/>
    <path id="Trazado_798691" data-name="Trazado 798691" d="M4874.5-8726v146.5h-381" transform="translate(-3598.5 11716.999)" fill="none" stroke="#0050db" stroke-width="15"/>
    <g id="Grupo_1064932" data-name="Grupo 1064932" transform="translate(-37 -20)">
      <path id="Trazado_798692" data-name="Trazado 798692" d="M4533-8726v67.5h59" transform="translate(-4080 11733.499)" fill="none" stroke="#0050db" stroke-width="15"/>
      <path id="Polígono_1" data-name="Polígono 1" d="M17.5,0,35,30H0Z" transform="translate(436 2982)" fill="#0050db"/>
    </g>
    <g id="Grupo_1064935" data-name="Grupo 1064935" transform="translate(-1865.001 3515) rotate(-90)">
      <path id="Trazado_798692-2" data-name="Trazado 798692" d="M4533-8726v67.5h59" transform="translate(-4080 11733.499)" fill="none" stroke="#0050db" stroke-width="15"/>
      <path id="Polígono_1-2" data-name="Polígono 1" d="M17.5,0,35,30H0Z" transform="translate(436 2982)" fill="#0050db"/>
    </g>
    <g id="Grupo_1064933" data-name="Grupo 1064933" transform="translate(3465 2307) rotate(90)">
      <path id="Trazado_798692-3" data-name="Trazado 798692" d="M4533-8726v39.5h97.333" transform="translate(-4080 11737.999)" fill="none" stroke="#0050db" stroke-width="15"/>
      <path id="Polígono_1-3" data-name="Polígono 1" d="M17.5,0,35,30H0Z" transform="translate(436 2982)" fill="#0050db"/>
    </g>
    <g id="Grupo_1064934" data-name="Grupo 1064934" transform="translate(1666 5816.917) rotate(180)">
      <path id="Trazado_798692-4" data-name="Trazado 798692" d="M4533-8726v39.5h81.693" transform="translate(-4073.694 11737.999)" fill="none" stroke="#0050db" stroke-width="15"/>
      <path id="Polígono_1-4" data-name="Polígono 1" d="M23.992,0,47.984,30H0Z" transform="translate(436 2982)" fill="#0050db"/>
    </g>
  </g>
</svg>
