<svg xmlns="http://www.w3.org/2000/svg" width="925" height="429" viewBox="0 0 925 429">
  <g id="Grupo_1064957" data-name="Grupo 1064957" transform="translate(-337.333 -512)">
    <path id="Trazado_799160" data-name="Trazado 799160" d="M0,0H609V60H0Z" transform="translate(495.333 512)" fill="#00a9ff"/>
    <path id="Trazado_799161" data-name="Trazado 799161" d="M0,0H400V60H0Z" transform="translate(600.333 758)" fill="#94e435"/>
    <path id="Trazado_799162" data-name="Trazado 799162" d="M0,0H295V60H0Z" transform="translate(337.333 881)" fill="#0050db"/>
    <path id="Trazado_799163" data-name="Trazado 799163" d="M0,0H295V60H0Z" transform="translate(652.333 881)" fill="#0050db"/>
    <path id="Trazado_799164" data-name="Trazado 799164" d="M0,0H295V60H0Z" transform="translate(967.333 881)" fill="#0050db"/>
    <path id="Trazado_799165" data-name="Trazado 799165" d="M-149.512-4.824V0h-3.428V-14.219h5.674a6.609,6.609,0,0,1,2.886.6,4.526,4.526,0,0,1,1.943,1.709,4.667,4.667,0,0,1,.688,2.515,4.114,4.114,0,0,1-1.489,3.325,6.179,6.179,0,0,1-4.087,1.245Zm0-2.646h2.246a2.118,2.118,0,0,0,1.519-.5,1.85,1.85,0,0,0,.522-1.406,2.287,2.287,0,0,0-.537-1.592,1.9,1.9,0,0,0-1.465-.605h-2.285Zm13.018,4.834h5.967V0h-9.395V-14.219h3.428Zm15.674-.02h-4.7L-126.338,0H-130l5.215-14.219h3.223L-116.309,0h-3.682ZM-124.7-5.3h3.057l-1.533-4.932ZM-103.4,0h-3.408l-5.039-8.848V0h-3.428V-14.219h3.428l5.029,8.848v-8.848h3.418Zm15.967-6.035h-5.391v3.4h6.367V0H-96.25V-14.219h9.814v2.646h-6.387v3h5.391Zm9.707,2.256a1.408,1.408,0,0,0-.532-1.172,6.615,6.615,0,0,0-1.87-.869,17.941,17.941,0,0,1-2.187-.869q-2.764-1.357-2.764-3.73A3.345,3.345,0,0,1-84.39-12.5a4.453,4.453,0,0,1,1.948-1.406,7.582,7.582,0,0,1,2.832-.5,6.632,6.632,0,0,1,2.749.547,4.352,4.352,0,0,1,1.89,1.558A4.068,4.068,0,0,1-74.3-10h-3.418a1.719,1.719,0,0,0-.532-1.348,2.075,2.075,0,0,0-1.44-.479,2.339,2.339,0,0,0-1.45.405,1.243,1.243,0,0,0-.532,1.03,1.252,1.252,0,0,0,.586.991,7.389,7.389,0,0,0,2.061.918A12.623,12.623,0,0,1-76.6-7.461,4.07,4.07,0,0,1-74.3-3.8,3.472,3.472,0,0,1-75.7-.869,6.255,6.255,0,0,1-79.561.2a7.653,7.653,0,0,1-3.13-.62,4.719,4.719,0,0,1-2.109-1.7,4.427,4.427,0,0,1-.708-2.485h3.438a2.181,2.181,0,0,0,.591,1.685,2.793,2.793,0,0,0,1.919.542,2.206,2.206,0,0,0,1.343-.366A1.209,1.209,0,0,0-77.725-3.779Zm16.348-7.793h-4.268V0h-3.428V-11.572h-4.189v-2.646h11.885Zm6.729,6.543H-56.5V0h-3.428V-14.219h5.6A6.246,6.246,0,0,1-50.381-13.1a3.8,3.8,0,0,1,1.426,3.17,4.616,4.616,0,0,1-.6,2.458,4.263,4.263,0,0,1-1.88,1.58l2.969,5.741V0h-3.672ZM-56.5-7.666h2.168a1.946,1.946,0,0,0,1.47-.514,1.987,1.987,0,0,0,.493-1.434,2.01,2.01,0,0,0-.5-1.444,1.928,1.928,0,0,0-1.465-.524H-56.5Zm17.7,5.01h-4.7L-44.326,0h-3.662l5.215-14.219h3.223L-34.3,0h-3.682ZM-42.686-5.3h3.057l-1.533-4.932Zm19.414-6.27h-4.268V0h-3.428V-11.572h-4.189v-2.646h11.885Zm10.264,5.537H-18.4v3.4h6.367V0h-9.795V-14.219h9.814v2.646H-18.4v3h5.391ZM-16.2-18.027h3.477l-2.715,3.066-2.686,0ZM1.006-1.758A5.511,5.511,0,0,1-1.309-.342,9.982,9.982,0,0,1-4.648.2,5.955,5.955,0,0,1-9.111-1.514,6.918,6.918,0,0,1-10.9-6.27l-.01-1.23a8.485,8.485,0,0,1,.742-3.667,5.511,5.511,0,0,1,2.124-2.412,6.008,6.008,0,0,1,3.2-.845A6.3,6.3,0,0,1-.718-13.208,5.152,5.152,0,0,1,1-9.58H-2.3a2.7,2.7,0,0,0-.762-1.7,2.458,2.458,0,0,0-1.66-.508,2.237,2.237,0,0,0-1.992,1.094,5.84,5.84,0,0,0-.713,3.125v.859a5.717,5.717,0,0,0,.728,3.2,2.573,2.573,0,0,0,2.29,1.069,2.88,2.88,0,0,0,1.992-.6V-5.244H-4.8V-7.6H1.006ZM6.65,0H3.232V-14.219H6.65ZM20.537-4.814a5.193,5.193,0,0,1-.8,2.622A4.833,4.833,0,0,1,17.681-.43,7,7,0,0,1,14.658.2a5.584,5.584,0,0,1-4.414-1.826A7.54,7.54,0,0,1,8.633-6.787v-.7a8.607,8.607,0,0,1,.728-3.657,5.513,5.513,0,0,1,2.095-2.422,5.844,5.844,0,0,1,3.164-.854,6.129,6.129,0,0,1,4.16,1.362,5.383,5.383,0,0,1,1.787,3.755H17.148a2.547,2.547,0,0,0-.654-1.865,2.691,2.691,0,0,0-1.875-.566,2.048,2.048,0,0,0-1.875.957,6.151,6.151,0,0,0-.625,3.057v1.006a6.806,6.806,0,0,0,.571,3.252,2.091,2.091,0,0,0,1.968.977,2.632,2.632,0,0,0,1.807-.557,2.363,2.363,0,0,0,.664-1.768Zm13.662-2a8.385,8.385,0,0,1-.771,3.682A5.7,5.7,0,0,1,31.235-.669,6.1,6.1,0,0,1,28,.2,6.191,6.191,0,0,1,24.775-.64a5.692,5.692,0,0,1-2.192-2.388,8.144,8.144,0,0,1-.825-3.564v-.8a8.422,8.422,0,0,1,.767-3.687,5.688,5.688,0,0,1,2.2-2.466,6.147,6.147,0,0,1,3.257-.869,6.087,6.087,0,0,1,3.223.859,5.79,5.79,0,0,1,2.2,2.446,8.18,8.18,0,0,1,.8,3.638Zm-3.486-.6A5.979,5.979,0,0,0,30-10.63a2.271,2.271,0,0,0-2.026-1.1q-2.578,0-2.725,3.867l-.01,1.045A6.149,6.149,0,0,0,25.938-3.6,2.268,2.268,0,0,0,28-2.48a2.24,2.24,0,0,0,2-1.1,5.982,5.982,0,0,0,.713-3.174ZM49.766-6.035H44.375v3.4h6.367V0H40.947V-14.219h9.814v2.646H44.375v3h5.391ZM64.014,0H60.605L55.566-8.848V0H52.139V-14.219h3.428L60.6-5.371v-8.848h3.418ZM74.59-2.637h5.967V0H71.162V-14.219H74.59Zm15.674-.02h-4.7L84.746,0H81.084L86.3-14.219h3.223L94.775,0H91.094ZM86.387-5.3h3.057L87.91-10.234Zm17.832.479V0h-3.428V-14.219h5.674a6.608,6.608,0,0,1,2.886.6,4.526,4.526,0,0,1,1.943,1.709,4.667,4.667,0,0,1,.688,2.515,4.114,4.114,0,0,1-1.489,3.325,6.179,6.179,0,0,1-4.087,1.245Zm0-2.646h2.246a2.118,2.118,0,0,0,1.519-.5,1.85,1.85,0,0,0,.522-1.406,2.287,2.287,0,0,0-.537-1.592,1.9,1.9,0,0,0-1.465-.605h-2.285Zm14.795-.576,2.617-6.172h3.7l-4.58,9.111V0h-3.477V-5.107l-4.57-9.111h3.682Zm11.855-6.172,3.174,9.893,3.164-9.893h4.512V0h-3.437V-3.32l.332-6.8L135.176,0H132.91l-3.447-10.127.332,6.807V0h-3.428V-14.219Zm21.846,8.184h-5.391v3.4h6.367V0H143.9V-14.219h9.814v2.646h-6.387v3h5.391Z" transform="translate(800.333 549)" fill="#12263f"/>
    <path id="Trazado_799166" data-name="Trazado 799166" d="M-103.77-2.656h-4.7L-109.287,0h-3.662l5.215-14.219h3.223L-99.258,0h-3.682ZM-107.646-5.3h3.057l-1.533-4.932Zm21.3,5.3h-3.408l-5.039-8.848V0h-3.428V-14.219h3.428l5.029,8.848v-8.848h3.418Zm10.42-2.656h-4.7L-81.445,0h-3.662l5.215-14.219h3.223L-71.416,0H-75.1ZM-79.8-5.3h3.057l-1.533-4.932Zm12.852,2.666h5.967V0h-9.395V-14.219h3.428ZM-55.889,0h-3.418V-14.219h3.418Zm-1.3-18.027h3.477l-2.715,3.066-2.686,0Zm14.561,6.455h-4.268V0h-3.428V-11.572h-4.189v-2.646h11.885ZM-37.529,0h-3.418V-14.219h3.418Zm13.887-4.814a5.193,5.193,0,0,1-.8,2.622A4.833,4.833,0,0,1-26.5-.43,7,7,0,0,1-29.521.2a5.584,5.584,0,0,1-4.414-1.826,7.54,7.54,0,0,1-1.611-5.156v-.7a8.607,8.607,0,0,1,.728-3.657,5.513,5.513,0,0,1,2.095-2.422,5.844,5.844,0,0,1,3.164-.854,6.129,6.129,0,0,1,4.16,1.362,5.383,5.383,0,0,1,1.787,3.755h-3.418a2.547,2.547,0,0,0-.654-1.865,2.691,2.691,0,0,0-1.875-.566,2.048,2.048,0,0,0-1.875.957,6.151,6.151,0,0,0-.625,3.057v1.006a6.806,6.806,0,0,0,.571,3.252,2.091,2.091,0,0,0,1.968.977,2.632,2.632,0,0,0,1.807-.557,2.363,2.363,0,0,0,.664-1.768Zm9.7,2.158h-4.7L-19.463,0h-3.662l5.215-14.219h3.223L-9.434,0h-3.682ZM-17.822-5.3h3.057L-16.3-10.234ZM1.787-8.047,4.4-14.219h3.7L3.525-5.107V0H.049V-5.107l-4.57-9.111H-.84Zm16.836-6.172L21.8-4.326l3.164-9.893h4.512V0H26.035V-3.32l.332-6.8L22.93,0H20.664L17.217-10.127l.332,6.807V0H14.121V-14.219ZM40.469-6.035H35.078v3.4h6.367V0H31.65V-14.219h9.814v2.646H35.078v3h5.391ZM37.275-18.027h3.477l-2.715,3.066-2.686,0ZM54.2-11.572H49.932V0H46.5V-11.572H42.314v-2.646H54.2Zm6.729,6.543H59.072V0H55.645V-14.219h5.6A6.246,6.246,0,0,1,65.2-13.1a3.8,3.8,0,0,1,1.426,3.17,4.616,4.616,0,0,1-.6,2.458,4.263,4.263,0,0,1-1.88,1.58L67.109-.147V0H63.438ZM59.072-7.666H61.24a1.946,1.946,0,0,0,1.47-.514A1.987,1.987,0,0,0,63.2-9.614a2.01,2.01,0,0,0-.5-1.444,1.928,1.928,0,0,0-1.465-.524H59.072ZM72.344,0H68.926V-14.219h3.418ZM86.23-4.814a5.193,5.193,0,0,1-.8,2.622A4.833,4.833,0,0,1,83.374-.43,7,7,0,0,1,80.352.2a5.584,5.584,0,0,1-4.414-1.826,7.54,7.54,0,0,1-1.611-5.156v-.7a8.607,8.607,0,0,1,.728-3.657,5.513,5.513,0,0,1,2.095-2.422,5.844,5.844,0,0,1,3.164-.854,6.129,6.129,0,0,1,4.16,1.362A5.383,5.383,0,0,1,86.26-9.307H82.842a2.547,2.547,0,0,0-.654-1.865,2.691,2.691,0,0,0-1.875-.566,2.048,2.048,0,0,0-1.875.957,6.151,6.151,0,0,0-.625,3.057v1.006a6.806,6.806,0,0,0,.571,3.252,2.091,2.091,0,0,0,1.968.977,2.632,2.632,0,0,0,1.807-.557,2.363,2.363,0,0,0,.664-1.768Zm9.7,2.158h-4.7L90.41,0H86.748l5.215-14.219h3.223L100.439,0H96.758ZM92.051-5.3h3.057l-1.533-4.932Zm16.758,1.523a1.408,1.408,0,0,0-.532-1.172,6.615,6.615,0,0,0-1.87-.869,17.941,17.941,0,0,1-2.187-.869q-2.764-1.357-2.764-3.73a3.345,3.345,0,0,1,.688-2.085,4.453,4.453,0,0,1,1.948-1.406,7.582,7.582,0,0,1,2.832-.5,6.632,6.632,0,0,1,2.749.547,4.352,4.352,0,0,1,1.89,1.558,4.068,4.068,0,0,1,.674,2.31h-3.418a1.719,1.719,0,0,0-.532-1.348,2.075,2.075,0,0,0-1.44-.479,2.339,2.339,0,0,0-1.45.405,1.243,1.243,0,0,0-.532,1.03,1.252,1.252,0,0,0,.586.991,7.389,7.389,0,0,0,2.061.918,12.623,12.623,0,0,1,2.422,1.021,4.07,4.07,0,0,1,2.3,3.662,3.472,3.472,0,0,1-1.406,2.93A6.255,6.255,0,0,1,106.973.2a7.653,7.653,0,0,1-3.13-.62,4.719,4.719,0,0,1-2.109-1.7,4.427,4.427,0,0,1-.708-2.485h3.438a2.181,2.181,0,0,0,.591,1.685,2.793,2.793,0,0,0,1.919.542,2.206,2.206,0,0,0,1.343-.366A1.209,1.209,0,0,0,108.809-3.779Z" transform="translate(800.333 795)" fill="#12263f"/>
    <path id="Trazado_799167" data-name="Trazado 799167" d="M-85.181-4.814a5.193,5.193,0,0,1-.8,2.622A4.833,4.833,0,0,1-88.037-.43,7,7,0,0,1-91.06.2a5.584,5.584,0,0,1-4.414-1.826,7.54,7.54,0,0,1-1.611-5.156v-.7a8.607,8.607,0,0,1,.728-3.657,5.513,5.513,0,0,1,2.095-2.422,5.844,5.844,0,0,1,3.164-.854,6.129,6.129,0,0,1,4.16,1.362,5.383,5.383,0,0,1,1.787,3.755h-3.418a2.547,2.547,0,0,0-.654-1.865,2.691,2.691,0,0,0-1.875-.566,2.048,2.048,0,0,0-1.875.957A6.151,6.151,0,0,0-93.6-7.725v1.006a6.806,6.806,0,0,0,.571,3.252,2.091,2.091,0,0,0,1.968.977,2.632,2.632,0,0,0,1.807-.557,2.363,2.363,0,0,0,.664-1.768Zm13.662-2a8.385,8.385,0,0,1-.771,3.682A5.7,5.7,0,0,1-74.482-.669,6.1,6.1,0,0,1-77.72.2,6.191,6.191,0,0,1-80.942-.64a5.692,5.692,0,0,1-2.192-2.388,8.144,8.144,0,0,1-.825-3.564v-.8a8.422,8.422,0,0,1,.767-3.687A5.688,5.688,0,0,1-81-13.545a6.147,6.147,0,0,1,3.257-.869,6.087,6.087,0,0,1,3.223.859,5.79,5.79,0,0,1,2.2,2.446,8.18,8.18,0,0,1,.8,3.638ZM-75-7.412a5.979,5.979,0,0,0-.708-3.218,2.271,2.271,0,0,0-2.026-1.1q-2.578,0-2.725,3.867l-.01,1.045A6.149,6.149,0,0,0-79.78-3.6,2.268,2.268,0,0,0-77.72-2.48a2.24,2.24,0,0,0,2-1.1A5.982,5.982,0,0,0-75-6.758ZM-57.876,0h-3.408l-5.039-8.848V0h-3.428V-14.219h3.428l5.029,8.848v-8.848h3.418Zm13.047-11.572H-49.1V0h-3.428V-11.572h-4.189v-2.646h11.885Zm10.264,5.537h-5.391v3.4h6.367V0h-9.795V-14.219h9.814v2.646h-6.387v3h5.391ZM-20.317,0h-3.408l-5.039-8.848V0h-3.428V-14.219h3.428l5.029,8.848v-8.848h3.418Zm5.82,0h-3.418V-14.219H-14.5Zm2.383,0V-14.219h4.58a6.737,6.737,0,0,1,3.389.854A6.006,6.006,0,0,1-1.8-10.952,7.283,7.283,0,0,1-.942-7.461v.654a7.325,7.325,0,0,1-.825,3.5A6.032,6.032,0,0,1-4.092-.884,6.589,6.589,0,0,1-7.437,0Zm3.428-11.572v8.936H-7.5a2.666,2.666,0,0,0,2.266-1.05,5.145,5.145,0,0,0,.791-3.12v-.615a5.1,5.1,0,0,0-.791-3.105,2.713,2.713,0,0,0-2.3-1.045ZM12.856-6.816a8.385,8.385,0,0,1-.771,3.682A5.7,5.7,0,0,1,9.893-.669,6.1,6.1,0,0,1,6.655.2,6.191,6.191,0,0,1,3.433-.64,5.692,5.692,0,0,1,1.24-3.027,8.144,8.144,0,0,1,.415-6.592v-.8a8.422,8.422,0,0,1,.767-3.687,5.688,5.688,0,0,1,2.2-2.466,6.147,6.147,0,0,1,3.257-.869,6.087,6.087,0,0,1,3.223.859,5.79,5.79,0,0,1,2.2,2.446,8.18,8.18,0,0,1,.8,3.638Zm-3.486-.6a5.979,5.979,0,0,0-.708-3.218,2.271,2.271,0,0,0-2.026-1.1q-2.578,0-2.725,3.867L3.9-6.816A6.149,6.149,0,0,0,4.595-3.6,2.268,2.268,0,0,0,6.655-2.48a2.24,2.24,0,0,0,2-1.1A5.982,5.982,0,0,0,9.37-6.758ZM19.6,0V-14.219h4.58a6.737,6.737,0,0,1,3.389.854,6.006,6.006,0,0,1,2.349,2.412,7.283,7.283,0,0,1,.854,3.491v.654a7.325,7.325,0,0,1-.825,3.5A6.032,6.032,0,0,1,27.627-.884,6.589,6.589,0,0,1,24.282,0Zm3.428-11.572v8.936h1.191a2.666,2.666,0,0,0,2.266-1.05,5.145,5.145,0,0,0,.791-3.12v-.615a5.1,5.1,0,0,0-.791-3.105,2.713,2.713,0,0,0-2.3-1.045ZM36.187,0H32.769V-14.219h3.418ZM50.21-1.758A5.511,5.511,0,0,1,47.9-.342,9.982,9.982,0,0,1,44.556.2a5.955,5.955,0,0,1-4.463-1.709A6.918,6.918,0,0,1,38.306-6.27L38.3-7.5a8.485,8.485,0,0,1,.742-3.667,5.511,5.511,0,0,1,2.124-2.412,6.008,6.008,0,0,1,3.2-.845,6.3,6.3,0,0,1,4.126,1.216A5.152,5.152,0,0,1,50.2-9.58H46.9a2.7,2.7,0,0,0-.762-1.7,2.458,2.458,0,0,0-1.66-.508,2.237,2.237,0,0,0-1.992,1.094,5.84,5.84,0,0,0-.713,3.125v.859a5.717,5.717,0,0,0,.728,3.2,2.573,2.573,0,0,0,2.29,1.069,2.88,2.88,0,0,0,1.992-.6V-5.244H44.4V-7.6H50.21ZM55.854,0H52.437V-14.219h3.418ZM69.116-11.572H64.849V0H61.421V-11.572H57.231v-2.646H69.116Zm8.35,8.916h-4.7L71.948,0H68.286L73.5-14.219h3.223L81.978,0H78.3ZM73.589-5.3h3.057l-1.533-4.932ZM86.44-2.637h5.967V0H83.013V-14.219H86.44Z" transform="translate(491.333 918)" fill="#fff"/>
    <path id="Trazado_799168" data-name="Trazado 799168" d="M-82.222-6.035h-5.391v3.4h6.367V0H-91.04V-14.219h9.814v2.646h-6.387v3h5.391Zm6.875-8.184,3.174,9.893,3.164-9.893H-64.5V0h-3.437V-3.32l.332-6.8L-71.04,0h-2.266l-3.447-10.127.332,6.807V0h-3.428V-14.219ZM-54.067-2.656h-4.7L-59.585,0h-3.662l5.215-14.219h3.223L-49.556,0h-3.682ZM-57.944-5.3h3.057l-1.533-4.932ZM-44.868,0h-3.418V-14.219h3.418Zm5.811-2.637h5.967V0h-9.395V-14.219h3.428Zm16.895-11.582,3.174,9.893,3.164-9.893h4.512V0h-3.437V-3.32l.332-6.8L-17.856,0h-2.266l-3.447-10.127.332,6.807V0h-3.428V-14.219ZM-.884-2.656h-4.7L-6.4,0h-3.662l5.215-14.219h3.223L3.628,0H-.054ZM-4.761-5.3H-1.7l-1.533-4.932Zm14.707.273H8.091V0H4.663V-14.219h5.6A6.246,6.246,0,0,1,14.214-13.1a3.8,3.8,0,0,1,1.426,3.17,4.616,4.616,0,0,1-.6,2.458,4.263,4.263,0,0,1-1.88,1.58L16.128-.147V0H12.456ZM8.091-7.666h2.168a1.946,1.946,0,0,0,1.47-.514,1.987,1.987,0,0,0,.493-1.434,2.01,2.01,0,0,0-.5-1.444,1.928,1.928,0,0,0-1.465-.524H8.091ZM22.544-5.293,21.138-3.75V0H17.71V-14.219h3.428v6.27l1.191-1.807L25.4-14.219h4.238l-4.8,6.289L29.634,0H25.571Zm16.777-.742H33.931v3.4H40.3V0H30.5V-14.219h9.814v2.646H33.931v3h5.391Zm13.73-5.537H48.784V0H45.356V-11.572H41.167v-2.646H53.052ZM58.149,0H54.731V-14.219h3.418ZM72.407,0H69L63.96-8.848V0H60.532V-14.219H63.96l5.029,8.848v-8.848h3.418ZM86.216-1.758A5.511,5.511,0,0,1,83.9-.342,9.982,9.982,0,0,1,80.562.2,5.955,5.955,0,0,1,76.1-1.514,6.918,6.918,0,0,1,74.312-6.27L74.3-7.5a8.485,8.485,0,0,1,.742-3.667,5.511,5.511,0,0,1,2.124-2.412,6.008,6.008,0,0,1,3.2-.845,6.3,6.3,0,0,1,4.126,1.216A5.152,5.152,0,0,1,86.206-9.58h-3.3a2.7,2.7,0,0,0-.762-1.7,2.458,2.458,0,0,0-1.66-.508,2.237,2.237,0,0,0-1.992,1.094,5.84,5.84,0,0,0-.713,3.125v.859a5.717,5.717,0,0,0,.728,3.2A2.573,2.573,0,0,0,80.8-2.441a2.88,2.88,0,0,0,1.992-.6V-5.244H80.405V-7.6h5.811Z" transform="translate(800.333 918)" fill="#fff"/>
    <path id="Trazado_799169" data-name="Trazado 799169" d="M-80.84-14.219l3.174,9.893,3.164-9.893h4.512V0h-3.437V-3.32l.332-6.8L-76.533,0H-78.8l-3.447-10.127.332,6.807V0h-3.428V-14.219Zm21.846,8.184h-5.391v3.4h6.367V0h-9.795V-14.219H-58v2.646h-6.387v3h5.391ZM-56.621,0V-14.219h4.58a6.737,6.737,0,0,1,3.389.854A6.006,6.006,0,0,1-46.3-10.952a7.283,7.283,0,0,1,.854,3.491v.654a7.325,7.325,0,0,1-.825,3.5A6.032,6.032,0,0,1-48.6-.884,6.589,6.589,0,0,1-51.943,0Zm3.428-11.572v8.936H-52a2.666,2.666,0,0,0,2.266-1.05,5.145,5.145,0,0,0,.791-3.12v-.615a5.1,5.1,0,0,0-.791-3.105,2.713,2.713,0,0,0-2.3-1.045ZM-40.039,0h-3.418V-14.219h3.418Zm14.424-6.816a8.385,8.385,0,0,1-.771,3.682A5.7,5.7,0,0,1-28.579-.669,6.1,6.1,0,0,1-31.816.2,6.191,6.191,0,0,1-35.039-.64a5.692,5.692,0,0,1-2.192-2.388,8.144,8.144,0,0,1-.825-3.564v-.8a8.422,8.422,0,0,1,.767-3.687,5.688,5.688,0,0,1,2.2-2.466,6.147,6.147,0,0,1,3.257-.869,6.087,6.087,0,0,1,3.223.859,5.79,5.79,0,0,1,2.2,2.446,8.18,8.18,0,0,1,.8,3.638Zm-3.486-.6a5.979,5.979,0,0,0-.708-3.218,2.271,2.271,0,0,0-2.026-1.1q-2.578,0-2.725,3.867l-.01,1.045A6.149,6.149,0,0,0-33.877-3.6,2.268,2.268,0,0,0-31.816-2.48a2.24,2.24,0,0,0,2-1.1A5.982,5.982,0,0,0-29.1-6.758Zm12.588,3.633a1.408,1.408,0,0,0-.532-1.172,6.615,6.615,0,0,0-1.87-.869A17.941,17.941,0,0,1-21.1-6.689q-2.764-1.357-2.764-3.73a3.345,3.345,0,0,1,.688-2.085,4.453,4.453,0,0,1,1.948-1.406,7.582,7.582,0,0,1,2.832-.5,6.632,6.632,0,0,1,2.749.547,4.352,4.352,0,0,1,1.89,1.558A4.068,4.068,0,0,1-13.086-10H-16.5a1.719,1.719,0,0,0-.532-1.348,2.075,2.075,0,0,0-1.44-.479,2.339,2.339,0,0,0-1.45.405,1.243,1.243,0,0,0-.532,1.03,1.252,1.252,0,0,0,.586.991,7.389,7.389,0,0,0,2.061.918,12.623,12.623,0,0,1,2.422,1.021,4.07,4.07,0,0,1,2.3,3.662,3.472,3.472,0,0,1-1.406,2.93A6.255,6.255,0,0,1-18.35.2a7.653,7.653,0,0,1-3.13-.62,4.719,4.719,0,0,1-2.109-1.7A4.427,4.427,0,0,1-24.3-4.609h3.438a2.181,2.181,0,0,0,.591,1.685,2.793,2.793,0,0,0,1.919.542,2.206,2.206,0,0,0,1.343-.366A1.209,1.209,0,0,0-16.514-3.779Zm17.5,0A1.408,1.408,0,0,0,.454-4.951a6.615,6.615,0,0,0-1.87-.869A17.941,17.941,0,0,1-3.6-6.689q-2.764-1.357-2.764-3.73A3.345,3.345,0,0,1-5.679-12.5,4.453,4.453,0,0,1-3.73-13.911a7.582,7.582,0,0,1,2.832-.5,6.632,6.632,0,0,1,2.749.547A4.352,4.352,0,0,1,3.74-12.31,4.068,4.068,0,0,1,4.414-10H1a1.719,1.719,0,0,0-.532-1.348,2.075,2.075,0,0,0-1.44-.479,2.339,2.339,0,0,0-1.45.405,1.243,1.243,0,0,0-.532,1.03,1.252,1.252,0,0,0,.586.991,7.389,7.389,0,0,0,2.061.918A12.623,12.623,0,0,1,2.109-7.461,4.07,4.07,0,0,1,4.414-3.8,3.472,3.472,0,0,1,3.008-.869,6.255,6.255,0,0,1-.85.2a7.653,7.653,0,0,1-3.13-.62,4.719,4.719,0,0,1-2.109-1.7A4.428,4.428,0,0,1-6.8-4.609h3.438a2.181,2.181,0,0,0,.591,1.685A2.793,2.793,0,0,0-.85-2.383,2.206,2.206,0,0,0,.493-2.749,1.209,1.209,0,0,0,.986-3.779ZM18.213-6.816a8.385,8.385,0,0,1-.771,3.682A5.7,5.7,0,0,1,15.249-.669,6.1,6.1,0,0,1,12.012.2,6.191,6.191,0,0,1,8.789-.64,5.692,5.692,0,0,1,6.6-3.027a8.144,8.144,0,0,1-.825-3.564v-.8a8.422,8.422,0,0,1,.767-3.687,5.688,5.688,0,0,1,2.2-2.466,6.147,6.147,0,0,1,3.257-.869,6.087,6.087,0,0,1,3.223.859,5.79,5.79,0,0,1,2.2,2.446,8.18,8.18,0,0,1,.8,3.638Zm-3.486-.6a5.979,5.979,0,0,0-.708-3.218,2.271,2.271,0,0,0-2.026-1.1q-2.578,0-2.725,3.867l-.01,1.045A6.149,6.149,0,0,0,9.951-3.6,2.268,2.268,0,0,0,12.012-2.48a2.24,2.24,0,0,0,2-1.1,5.982,5.982,0,0,0,.713-3.174Zm16.758,2.6a5.193,5.193,0,0,1-.8,2.622A4.833,4.833,0,0,1,28.628-.43,7,7,0,0,1,25.605.2a5.584,5.584,0,0,1-4.414-1.826A7.54,7.54,0,0,1,19.58-6.787v-.7a8.607,8.607,0,0,1,.728-3.657A5.513,5.513,0,0,1,22.4-13.569a5.844,5.844,0,0,1,3.164-.854,6.129,6.129,0,0,1,4.16,1.362,5.383,5.383,0,0,1,1.787,3.755H28.1a2.547,2.547,0,0,0-.654-1.865,2.691,2.691,0,0,0-1.875-.566,2.048,2.048,0,0,0-1.875.957,6.151,6.151,0,0,0-.625,3.057v1.006a6.806,6.806,0,0,0,.571,3.252,2.091,2.091,0,0,0,1.968.977,2.632,2.632,0,0,0,1.807-.557,2.363,2.363,0,0,0,.664-1.768ZM36.758,0H33.34V-14.219h3.418ZM47.393-2.656H42.7L41.875,0H38.213l5.215-14.219H46.65L51.9,0H48.223ZM43.516-5.3h3.057l-1.533-4.932ZM56.367-2.637h5.967V0H52.939V-14.219h3.428Zm16.23-3.4H67.207v3.4h6.367V0H63.779V-14.219h9.814v2.646H67.207v3H72.6ZM82.3-3.779a1.408,1.408,0,0,0-.532-1.172A6.615,6.615,0,0,0,79.9-5.82a17.941,17.941,0,0,1-2.187-.869q-2.764-1.357-2.764-3.73A3.345,3.345,0,0,1,75.64-12.5a4.453,4.453,0,0,1,1.948-1.406,7.582,7.582,0,0,1,2.832-.5,6.632,6.632,0,0,1,2.749.547,4.352,4.352,0,0,1,1.89,1.558A4.068,4.068,0,0,1,85.732-10H82.314a1.719,1.719,0,0,0-.532-1.348,2.075,2.075,0,0,0-1.44-.479,2.339,2.339,0,0,0-1.45.405,1.243,1.243,0,0,0-.532,1.03,1.252,1.252,0,0,0,.586.991,7.389,7.389,0,0,0,2.061.918,12.623,12.623,0,0,1,2.422,1.021,4.07,4.07,0,0,1,2.3,3.662,3.472,3.472,0,0,1-1.406,2.93A6.255,6.255,0,0,1,80.469.2a7.653,7.653,0,0,1-3.13-.62,4.719,4.719,0,0,1-2.109-1.7,4.427,4.427,0,0,1-.708-2.485h3.438a2.181,2.181,0,0,0,.591,1.685,2.793,2.793,0,0,0,1.919.542,2.206,2.206,0,0,0,1.343-.366A1.209,1.209,0,0,0,82.3-3.779Z" transform="translate(1115.333 918)" fill="#fff"/>
    <path id="Trazado_798245" data-name="Trazado 798245" d="M-12116-9475v150h317v-150" transform="translate(12759.333 10047)" fill="none" stroke="#ffc401" stroke-width="3"/>
    <path id="Trazado_798246" data-name="Trazado 798246" d="M-12116-9475v27h630.5v-27" transform="translate(-11000.667 -8594) rotate(180)" fill="none" stroke="#ffc401" stroke-width="3"/>
    <path id="Trazado_799170" data-name="Trazado 799170" d="M0,0H295V60H0Z" transform="translate(495.333 635)" fill="#68cbfe"/>
    <path id="Trazado_799171" data-name="Trazado 799171" d="M0,0H295V60H0Z" transform="translate(810.333 635)" fill="#68cbfe"/>
    <path id="Trazado_799172" data-name="Trazado 799172" d="M-9.272-4.814a5.193,5.193,0,0,1-.8,2.622A4.833,4.833,0,0,1-12.129-.43,7,7,0,0,1-15.151.2a5.584,5.584,0,0,1-4.414-1.826,7.54,7.54,0,0,1-1.611-5.156v-.7a8.607,8.607,0,0,1,.728-3.657,5.513,5.513,0,0,1,2.095-2.422,5.844,5.844,0,0,1,3.164-.854,6.129,6.129,0,0,1,4.16,1.362A5.383,5.383,0,0,1-9.243-9.307h-3.418a2.547,2.547,0,0,0-.654-1.865,2.691,2.691,0,0,0-1.875-.566,2.048,2.048,0,0,0-1.875.957,6.151,6.151,0,0,0-.625,3.057v1.006a6.806,6.806,0,0,0,.571,3.252,2.091,2.091,0,0,0,1.968.977,2.632,2.632,0,0,0,1.807-.557,2.363,2.363,0,0,0,.664-1.768Zm6.123-9.4L.024-4.326l3.164-9.893H7.7V0H4.263V-3.32l.332-6.8L1.157,0H-1.108L-4.556-10.127l.332,6.807V0H-7.651V-14.219ZM15.161-5.029H13.306V0H9.878V-14.219h5.6A6.246,6.246,0,0,1,19.429-13.1a3.8,3.8,0,0,1,1.426,3.17,4.616,4.616,0,0,1-.6,2.458,4.263,4.263,0,0,1-1.88,1.58L21.343-.147V0H17.671ZM13.306-7.666h2.168a1.946,1.946,0,0,0,1.47-.514,1.987,1.987,0,0,0,.493-1.434,2.01,2.01,0,0,0-.5-1.444,1.928,1.928,0,0,0-1.465-.524H13.306Z" transform="translate(958.333 672)" fill="#12263f"/>
    <path id="Trazado_799173" data-name="Trazado 799173" d="M-107.017-4.814a5.193,5.193,0,0,1-.8,2.622A4.833,4.833,0,0,1-109.873-.43,7,7,0,0,1-112.9.2a5.584,5.584,0,0,1-4.414-1.826,7.54,7.54,0,0,1-1.611-5.156v-.7a8.607,8.607,0,0,1,.728-3.657,5.513,5.513,0,0,1,2.095-2.422,5.844,5.844,0,0,1,3.164-.854,6.129,6.129,0,0,1,4.16,1.362,5.383,5.383,0,0,1,1.787,3.755h-3.418a2.547,2.547,0,0,0-.654-1.865,2.691,2.691,0,0,0-1.875-.566,2.048,2.048,0,0,0-1.875.957,6.151,6.151,0,0,0-.625,3.057v1.006a6.806,6.806,0,0,0,.571,3.252,2.091,2.091,0,0,0,1.968.977,2.632,2.632,0,0,0,1.807-.557,2.363,2.363,0,0,0,.664-1.768Zm13.662-2a8.385,8.385,0,0,1-.771,3.682A5.7,5.7,0,0,1-96.318-.669,6.1,6.1,0,0,1-99.556.2a6.191,6.191,0,0,1-3.223-.835,5.692,5.692,0,0,1-2.192-2.388,8.144,8.144,0,0,1-.825-3.564v-.8a8.422,8.422,0,0,1,.767-3.687,5.688,5.688,0,0,1,2.2-2.466,6.147,6.147,0,0,1,3.257-.869,6.087,6.087,0,0,1,3.223.859,5.79,5.79,0,0,1,2.2,2.446,8.18,8.18,0,0,1,.8,3.638Zm-3.486-.6a5.979,5.979,0,0,0-.708-3.218,2.271,2.271,0,0,0-2.026-1.1q-2.578,0-2.725,3.867l-.01,1.045a6.149,6.149,0,0,0,.693,3.213A2.268,2.268,0,0,0-99.556-2.48a2.24,2.24,0,0,0,2-1.1,5.982,5.982,0,0,0,.713-3.174Zm9.756-6.807,3.174,9.893,3.164-9.893h4.512V0h-3.437V-3.32l.332-6.8L-82.778,0h-2.266l-3.447-10.127.332,6.807V0h-3.428V-14.219Zm21.846,8.184H-70.63v3.4h6.367V0h-9.795V-14.219h9.814v2.646H-70.63v3h5.391Zm7.656,1.006h-1.855V0h-3.428V-14.219h5.6A6.246,6.246,0,0,1-53.315-13.1a3.8,3.8,0,0,1,1.426,3.17,4.616,4.616,0,0,1-.6,2.458,4.263,4.263,0,0,1-1.88,1.58L-51.4-.147V0h-3.672Zm-1.855-2.637h2.168A1.946,1.946,0,0,0-55.8-8.18a1.987,1.987,0,0,0,.493-1.434,2.01,2.01,0,0,0-.5-1.444,1.928,1.928,0,0,0-1.465-.524h-2.168Zm21.123,2.852a5.193,5.193,0,0,1-.8,2.622A4.833,4.833,0,0,1-41.172-.43,7,7,0,0,1-44.194.2a5.584,5.584,0,0,1-4.414-1.826A7.54,7.54,0,0,1-50.22-6.787v-.7a8.607,8.607,0,0,1,.728-3.657A5.513,5.513,0,0,1-47.4-13.569a5.844,5.844,0,0,1,3.164-.854,6.129,6.129,0,0,1,4.16,1.362,5.383,5.383,0,0,1,1.787,3.755H-41.7a2.547,2.547,0,0,0-.654-1.865,2.691,2.691,0,0,0-1.875-.566,2.048,2.048,0,0,0-1.875.957,6.151,6.151,0,0,0-.625,3.057v1.006a6.806,6.806,0,0,0,.571,3.252,2.091,2.091,0,0,0,1.968.977,2.632,2.632,0,0,0,1.807-.557,2.363,2.363,0,0,0,.664-1.768ZM-33.042,0H-36.46V-14.219h3.418Zm14.424-6.816a8.385,8.385,0,0,1-.771,3.682A5.7,5.7,0,0,1-21.582-.669,6.1,6.1,0,0,1-24.819.2,6.191,6.191,0,0,1-28.042-.64a5.692,5.692,0,0,1-2.192-2.388,8.144,8.144,0,0,1-.825-3.564v-.8a8.422,8.422,0,0,1,.767-3.687,5.688,5.688,0,0,1,2.2-2.466,6.147,6.147,0,0,1,3.257-.869,6.087,6.087,0,0,1,3.223.859,5.79,5.79,0,0,1,2.2,2.446,8.18,8.18,0,0,1,.8,3.638Zm-3.486-.6a5.979,5.979,0,0,0-.708-3.218,2.271,2.271,0,0,0-2.026-1.1q-2.578,0-2.725,3.867l-.01,1.045A6.149,6.149,0,0,0-26.88-3.6,2.268,2.268,0,0,0-24.819-2.48a2.24,2.24,0,0,0,2-1.1A5.982,5.982,0,0,0-22.1-6.758ZM-3.052-6.035H-8.442v3.4h6.367V0H-11.87V-14.219h9.814v2.646H-8.442v3h5.391Zm5.8,3.4H8.716V0H-.679V-14.219H2.749Zm16.23-3.4H13.589v3.4h6.367V0H10.161V-14.219h9.814v2.646H13.589v3h5.391ZM32.856-4.814a5.193,5.193,0,0,1-.8,2.622A4.833,4.833,0,0,1,30-.43,7,7,0,0,1,26.978.2a5.584,5.584,0,0,1-4.414-1.826,7.54,7.54,0,0,1-1.611-5.156v-.7a8.607,8.607,0,0,1,.728-3.657,5.513,5.513,0,0,1,2.095-2.422,5.844,5.844,0,0,1,3.164-.854,6.129,6.129,0,0,1,4.16,1.362,5.383,5.383,0,0,1,1.787,3.755H29.468a2.547,2.547,0,0,0-.654-1.865,2.691,2.691,0,0,0-1.875-.566,2.048,2.048,0,0,0-1.875.957,6.151,6.151,0,0,0-.625,3.057v1.006a6.806,6.806,0,0,0,.571,3.252,2.091,2.091,0,0,0,1.968.977,2.632,2.632,0,0,0,1.807-.557,2.363,2.363,0,0,0,.664-1.768Zm12.5-6.758H41.089V0H37.661V-11.572H33.472v-2.646H45.356Zm6.729,6.543H50.229V0H46.8V-14.219h5.6A6.246,6.246,0,0,1,56.353-13.1a3.8,3.8,0,0,1,1.426,3.17,4.616,4.616,0,0,1-.6,2.458,4.263,4.263,0,0,1-1.88,1.58L58.267-.147V0H54.595ZM50.229-7.666H52.4a1.946,1.946,0,0,0,1.47-.514,1.987,1.987,0,0,0,.493-1.434,2.01,2.01,0,0,0-.5-1.444,1.928,1.928,0,0,0-1.465-.524H50.229Zm21.66.85a8.385,8.385,0,0,1-.771,3.682A5.7,5.7,0,0,1,68.926-.669,6.1,6.1,0,0,1,65.688.2,6.191,6.191,0,0,1,62.466-.64a5.692,5.692,0,0,1-2.192-2.388,8.144,8.144,0,0,1-.825-3.564v-.8a8.422,8.422,0,0,1,.767-3.687,5.688,5.688,0,0,1,2.2-2.466,6.147,6.147,0,0,1,3.257-.869,6.087,6.087,0,0,1,3.223.859,5.79,5.79,0,0,1,2.2,2.446,8.18,8.18,0,0,1,.8,3.638Zm-3.486-.6A5.979,5.979,0,0,0,67.7-10.63a2.271,2.271,0,0,0-2.026-1.1q-2.578,0-2.725,3.867l-.01,1.045A6.149,6.149,0,0,0,63.628-3.6,2.268,2.268,0,0,0,65.688-2.48a2.24,2.24,0,0,0,2-1.1A5.982,5.982,0,0,0,68.4-6.758ZM66.069-18.027h3.477l-2.715,3.066-2.686,0ZM85.532,0H82.124L77.085-8.848V0H73.657V-14.219h3.428l5.029,8.848v-8.848h3.418Zm5.82,0H87.935V-14.219h3.418Zm13.887-4.814a5.193,5.193,0,0,1-.8,2.622A4.833,4.833,0,0,1,102.383-.43,7,7,0,0,1,99.36.2a5.584,5.584,0,0,1-4.414-1.826,7.54,7.54,0,0,1-1.611-5.156v-.7a8.607,8.607,0,0,1,.728-3.657,5.513,5.513,0,0,1,2.095-2.422,5.844,5.844,0,0,1,3.164-.854,6.129,6.129,0,0,1,4.16,1.362,5.383,5.383,0,0,1,1.787,3.755h-3.418a2.547,2.547,0,0,0-.654-1.865,2.691,2.691,0,0,0-1.875-.566,2.048,2.048,0,0,0-1.875.957,6.151,6.151,0,0,0-.625,3.057v1.006a6.806,6.806,0,0,0,.571,3.252,2.091,2.091,0,0,0,1.968.977,2.632,2.632,0,0,0,1.807-.557,2.363,2.363,0,0,0,.664-1.768Zm13.662-2a8.385,8.385,0,0,1-.771,3.682,5.7,5.7,0,0,1-2.192,2.466A6.1,6.1,0,0,1,112.7.2a6.191,6.191,0,0,1-3.223-.835,5.692,5.692,0,0,1-2.192-2.388,8.144,8.144,0,0,1-.825-3.564v-.8a8.422,8.422,0,0,1,.767-3.687,5.688,5.688,0,0,1,2.2-2.466,6.147,6.147,0,0,1,3.257-.869,6.087,6.087,0,0,1,3.223.859,5.79,5.79,0,0,1,2.2,2.446,8.18,8.18,0,0,1,.8,3.638Zm-3.486-.6a5.979,5.979,0,0,0-.708-3.218,2.271,2.271,0,0,0-2.026-1.1q-2.578,0-2.725,3.867l-.01,1.045A6.149,6.149,0,0,0,110.64-3.6,2.268,2.268,0,0,0,112.7-2.48a2.24,2.24,0,0,0,2-1.1,5.982,5.982,0,0,0,.713-3.174Z" transform="translate(643.333 672)" fill="#12263f"/>
    <path id="Trazado_799174" data-name="Trazado 799174" d="M0,0V36" transform="translate(799.833 722.5)" fill="none" stroke="#ffc401" stroke-width="3"/>
    <path id="Trazado_799175" data-name="Trazado 799175" d="M0,0V63.5" transform="translate(799.833 818)" fill="none" stroke="#ffc401" stroke-width="3"/>
  </g>
</svg>
