<svg xmlns="http://www.w3.org/2000/svg" width="898" height="564" viewBox="0 0 898 564">
  <g id="Grupo_1064968" data-name="Grupo 1064968" transform="translate(-351 -1339)">
    <g id="Grupo_1064879" data-name="Grupo 1064879" transform="translate(19 41)">
      <g id="Grupo_1064870" data-name="Grupo 1064870">
        <path id="Trazado_798248" data-name="Trazado 798248" d="M141.017,240.032,62.024,319.025a207.206,207.206,0,0,0,139.057,57.948V265.243a95.887,95.887,0,0,1-60.064-25.211" transform="translate(594.931 1428.896)" fill="#00a9ff"/>
        <path id="Trazado_798249" data-name="Trazado 798249" d="M185.473,265.243v111.73A207.2,207.2,0,0,0,324.53,319.025l-78.993-78.993a95.887,95.887,0,0,1-60.064,25.211" transform="translate(620.566 1428.896)" fill="#0050db"/>
        <path id="Trazado_798250" data-name="Trazado 798250" d="M200.862,120.9V9.172A207.181,207.181,0,0,0,63.075,65.911l79.035,79.035A95.852,95.852,0,0,1,200.862,120.9" transform="translate(595.15 1380.957)" fill="#0050db"/>
        <path id="Trazado_798251" data-name="Trazado 798251" d="M265.1,184.425a95.848,95.848,0,0,1-24.08,59.991l79.035,79.035A207.177,207.177,0,0,0,376.81,184.425Z" transform="translate(632.101 1417.35)" fill="#00a9ff"/>
        <path id="Trazado_798252" data-name="Trazado 798252" d="M265.172,199.82H376.957A207.194,207.194,0,0,0,319.048,62l-78.993,78.993a95.875,95.875,0,0,1,25.117,58.825" transform="translate(631.9 1391.928)" fill="#0050db"/>
        <path id="Trazado_798253" data-name="Trazado 798253" d="M244.227,144.946l79.035-79.035A207.176,207.176,0,0,0,185.473,9.172V120.9a95.857,95.857,0,0,1,58.754,24.046" transform="translate(620.566 1380.957)" fill="#00a9ff"/>
        <path id="Trazado_798254" data-name="Trazado 798254" d="M146.128,140.994,67.135,62A207.2,207.2,0,0,0,9.226,199.819H121.011a95.878,95.878,0,0,1,25.117-58.825" transform="translate(583.967 1391.928)" fill="#00a9ff"/>
        <path id="Trazado_798255" data-name="Trazado 798255" d="M120.893,184.425H9.182A207.183,207.183,0,0,0,65.937,323.453l79.035-79.036a95.848,95.848,0,0,1-24.079-59.991" transform="translate(583.958 1417.35)" fill="#0050db"/>
        <path id="Trazado_798256" data-name="Trazado 798256" d="M129.879,240.032l-14.217,14.217a115.913,115.913,0,0,0,74.28,31.1v-20.1a95.887,95.887,0,0,1-60.064-25.211" transform="translate(606.069 1428.897)" fill="#0050db"/>
        <path id="Trazado_798257" data-name="Trazado 798257" d="M185.473,265.243v20.1a115.911,115.911,0,0,0,74.281-31.1l-14.217-14.217a95.887,95.887,0,0,1-60.064,25.211" transform="translate(620.566 1428.897)" fill="#00a9ff"/>
        <path id="Trazado_798258" data-name="Trazado 798258" d="M189.721,105.147v-20.1a115.9,115.9,0,0,0-72.992,29.909l14.239,14.239a95.852,95.852,0,0,1,58.752-24.044" transform="translate(606.291 1396.713)" fill="#00a9ff"/>
        <path id="Trazado_798259" data-name="Trazado 798259" d="M241.02,244.416l14.239,14.239a115.9,115.9,0,0,0,29.956-74.231H265.1a95.853,95.853,0,0,1-24.08,59.991" transform="translate(632.101 1417.35)" fill="#0050db"/>
        <path id="Trazado_798260" data-name="Trazado 798260" d="M265.172,188.681h20.144a115.91,115.91,0,0,0-31.044-73.041l-14.217,14.217a95.875,95.875,0,0,1,25.117,58.825" transform="translate(631.9 1403.066)" fill="#00a9ff"/>
        <path id="Trazado_798261" data-name="Trazado 798261" d="M244.227,129.191l14.239-14.239a115.9,115.9,0,0,0-72.993-29.909v20.1a95.857,95.857,0,0,1,58.754,24.046" transform="translate(620.565 1396.713)" fill="#0050db"/>
        <path id="Trazado_798262" data-name="Trazado 798262" d="M130.371,129.856l-14.217-14.217A115.913,115.913,0,0,0,85.11,188.68h20.144a95.878,95.878,0,0,1,25.117-58.825" transform="translate(599.725 1403.066)" fill="#0050db"/>
        <path id="Trazado_798263" data-name="Trazado 798263" d="M105.143,184.425H85.027a115.9,115.9,0,0,0,29.956,74.231l14.239-14.239a95.848,95.848,0,0,1-24.079-59.991" transform="translate(599.708 1417.351)" fill="#00a9ff"/>
        <text id="Auditoría" transform="translate(862 1454)" fill="#12263f" font-size="16" font-family="Roboto-Bold, Roboto" font-weight="700"><tspan x="-32.953" y="0">Auditoría</tspan></text>
        <text id="DAFO" transform="translate(948 1665)" fill="#12263f" font-size="16" font-family="Roboto-Bold, Roboto" font-weight="700"><tspan x="-20.406" y="0">DAFO</tspan></text>
        <text id="Recursos" transform="translate(739 1752)" fill="#12263f" font-size="16" font-family="Roboto-Bold, Roboto" font-weight="700"><tspan x="-33.746" y="0">Recursos</tspan></text>
        <text id="Objetivos" transform="translate(651 1541)" fill="#12263f" font-size="16" font-family="Roboto-Bold, Roboto" font-weight="700"><tspan x="-33.875" y="0">Objetivos</tspan></text>
        <text id="Análisis" transform="translate(948 1548)" fill="#fff" font-size="16" font-family="Roboto-Bold, Roboto" font-weight="700"><tspan x="-28.555" y="0">Análisis</tspan></text>
        <text id="Análisis_PO" data-name="Análisis PO" transform="translate(857 1752)" fill="#fff" font-size="16" font-family="Roboto-Bold, Roboto" font-weight="700"><tspan x="-41.23" y="0">Análisis PO</tspan></text>
        <text id="Elección_RRSS" data-name="Elección
RRSS" transform="translate(648 1655)" fill="#fff" font-size="16" font-family="Roboto-Bold, Roboto" font-weight="700"><tspan x="-30.414" y="0">Elección</tspan><tspan x="-20.047" y="24">RRSS</tspan></text>
        <text id="Calendario_Editorial" data-name="Calendario
Editorial" transform="translate(735 1446)" fill="#fff" font-size="16" font-family="Roboto-Bold, Roboto" font-weight="700"><tspan x="-38.809" y="0">Calendario</tspan><tspan x="-29.613" y="24">Editorial</tspan></text>
      </g>
      <g id="Rectángulo_374194" data-name="Rectángulo 374194" transform="translate(810 1298)" fill="#fff" stroke="#94e435" stroke-width="3">
        <rect width="210" height="67" rx="20" stroke="none"/>
        <rect x="1.5" y="1.5" width="207" height="64" rx="18.5" fill="none"/>
      </g>
      <g id="Rectángulo_374195" data-name="Rectángulo 374195" transform="translate(1020 1455)" fill="#fff" stroke="#94e435" stroke-width="3">
        <rect width="210" height="67" rx="20" stroke="none"/>
        <rect x="1.5" y="1.5" width="207" height="64" rx="18.5" fill="none"/>
      </g>
      <g id="Rectángulo_374199" data-name="Rectángulo 374199" transform="translate(332 1646)" fill="#fff" stroke="#94e435" stroke-width="3">
        <rect width="248" height="67" rx="20" stroke="none"/>
        <rect x="1.5" y="1.5" width="245" height="64" rx="18.5" fill="none"/>
      </g>
      <g id="Rectángulo_374200" data-name="Rectángulo 374200" transform="translate(332 1463)" fill="#fff" stroke="#94e435" stroke-width="3">
        <rect width="248" height="67" rx="20" stroke="none"/>
        <rect x="1.5" y="1.5" width="245" height="64" rx="18.5" fill="none"/>
      </g>
      <g id="Rectángulo_374201" data-name="Rectángulo 374201" transform="translate(457 1332)" fill="#fff" stroke="#94e435" stroke-width="3">
        <rect width="248" height="67" rx="20" stroke="none"/>
        <rect x="1.5" y="1.5" width="245" height="64" rx="18.5" fill="none"/>
      </g>
      <g id="Rectángulo_374197" data-name="Rectángulo 374197" transform="translate(895 1812)" fill="#fff" stroke="#94e435" stroke-width="3">
        <rect width="210" height="50" rx="20" stroke="none"/>
        <rect x="1.5" y="1.5" width="207" height="47" rx="18.5" fill="none"/>
      </g>
      <g id="Rectángulo_374198" data-name="Rectángulo 374198" transform="translate(514 1812)" fill="#fff" stroke="#94e435" stroke-width="3">
        <rect width="210" height="50" rx="20" stroke="none"/>
        <rect x="1.5" y="1.5" width="207" height="47" rx="18.5" fill="none"/>
      </g>
      <g id="Rectángulo_374196" data-name="Rectángulo 374196" transform="translate(1020 1663)" fill="#fff" stroke="#94e435" stroke-width="3">
        <rect width="210" height="104" rx="20" stroke="none"/>
        <rect x="1.5" y="1.5" width="207" height="101" rx="18.5" fill="none"/>
      </g>
      <g id="Grupo_1064871" data-name="Grupo 1064871" transform="matrix(0.891, 0.454, -0.454, 0.891, 1262.82, -161.886)">
        <path id="Trazado_798264" data-name="Trazado 798264" d="M-8571-10162.006l10-7.994,10,7.994" transform="translate(8941.5 11700)" fill="none" stroke="#94e435" stroke-linecap="round" stroke-width="5"/>
        <line id="Línea_1614" data-name="Línea 1614" y1="22.444" transform="translate(380.5 1533.997)" fill="none" stroke="#94e435" stroke-linecap="round" stroke-width="5"/>
      </g>
      <g id="Grupo_1064872" data-name="Grupo 1064872" transform="translate(2550.909 1147.045) rotate(92)">
        <path id="Trazado_798264-2" data-name="Trazado 798264" d="M-8571-10162.006l10-7.994,10,7.994" transform="translate(8941.5 11700)" fill="none" stroke="#94e435" stroke-linecap="round" stroke-width="5"/>
        <line id="Línea_1614-2" data-name="Línea 1614" y1="22.444" transform="translate(380.5 1533.997)" fill="none" stroke="#94e435" stroke-linecap="round" stroke-width="5"/>
      </g>
      <g id="Grupo_1064873" data-name="Grupo 1064873" transform="translate(2541.998 1406.045) rotate(92)">
        <path id="Trazado_798264-3" data-name="Trazado 798264" d="M-8571-10162.006l10-7.994,10,7.994" transform="translate(8941.5 11700)" fill="none" stroke="#94e435" stroke-linecap="round" stroke-width="5"/>
        <line id="Línea_1614-3" data-name="Línea 1614" y1="22.444" transform="translate(380.5 1533.997)" fill="none" stroke="#94e435" stroke-linecap="round" stroke-width="5"/>
      </g>
      <g id="Grupo_1064876" data-name="Grupo 1064876" transform="translate(-943.659 2083.5) rotate(-90)">
        <path id="Trazado_798264-4" data-name="Trazado 798264" d="M-8571-10162.006l10-7.994,10,7.994" transform="translate(8941.5 11700)" fill="none" stroke="#94e435" stroke-linecap="round" stroke-width="5"/>
        <line id="Línea_1614-4" data-name="Línea 1614" y1="22.444" transform="translate(380.5 1533.997)" fill="none" stroke="#94e435" stroke-linecap="round" stroke-width="5"/>
      </g>
      <g id="Grupo_1064877" data-name="Grupo 1064877" transform="translate(-940.659 1867) rotate(-90)">
        <path id="Trazado_798264-5" data-name="Trazado 798264" d="M-8571-10162.006l10-7.994,10,7.994" transform="translate(8941.5 11700)" fill="none" stroke="#94e435" stroke-linecap="round" stroke-width="5"/>
        <line id="Línea_1614-5" data-name="Línea 1614" y1="22.444" transform="translate(380.5 1533.997)" fill="none" stroke="#94e435" stroke-linecap="round" stroke-width="5"/>
      </g>
      <g id="Grupo_1064878" data-name="Grupo 1064878" transform="translate(-700.694 596.448) rotate(-45)">
        <path id="Trazado_798264-6" data-name="Trazado 798264" d="M-8571-10162.006l10-7.994,10,7.994" transform="translate(8941.5 11700)" fill="none" stroke="#94e435" stroke-linecap="round" stroke-width="5"/>
        <line id="Línea_1614-6" data-name="Línea 1614" y1="22.444" transform="translate(380.5 1533.997)" fill="none" stroke="#94e435" stroke-linecap="round" stroke-width="5"/>
      </g>
      <g id="Grupo_1064874" data-name="Grupo 1064874" transform="matrix(-0.719, 0.695, -0.695, -0.719, 2277.097, 2635.195)">
        <path id="Trazado_798264-7" data-name="Trazado 798264" d="M-8571-10162.006l10-7.994,10,7.994" transform="translate(8941.5 11700)" fill="none" stroke="#94e435" stroke-linecap="round" stroke-width="5"/>
        <line id="Línea_1614-7" data-name="Línea 1614" y1="22.444" transform="translate(380.5 1533.997)" fill="none" stroke="#94e435" stroke-linecap="round" stroke-width="5"/>
      </g>
      <g id="Grupo_1064875" data-name="Grupo 1064875" transform="translate(-168.791 3149.689) rotate(-135)">
        <path id="Trazado_798264-8" data-name="Trazado 798264" d="M-8571-10162.006l10-7.994,10,7.994" transform="translate(8941.5 11700)" fill="none" stroke="#94e435" stroke-linecap="round" stroke-width="5"/>
        <line id="Línea_1614-8" data-name="Línea 1614" y1="22.444" transform="translate(380.5 1533.997)" fill="none" stroke="#94e435" stroke-linecap="round" stroke-width="5"/>
      </g>
      <text id="Análisis_de_nuestras_redes_sociales" data-name="Análisis de nuestras redes sociales" transform="translate(839 1313)" fill="#12263f" font-size="16" font-family="Roboto-Regular, Roboto"><tspan x="0" y="15">Análisis de nuestras </tspan><tspan x="0" y="35">redes sociales</tspan></text>
      <text id="Análisis_de_las_RRSS_de_la_competencia" data-name="Análisis de las RRSS de la competencia" transform="translate(1049 1470)" fill="#12263f" font-size="16" font-family="Roboto-Regular, Roboto"><tspan x="0" y="15">Análisis de las RRSS </tspan><tspan x="0" y="35">de la competencia</tspan></text>
      <text id="Determinar_RRSS_donde_se_realizarán_las_acciones" data-name="Determinar RRSS donde se realizarán las acciones" transform="translate(361 1661)" fill="#12263f" font-size="16" font-family="Roboto-Regular, Roboto"><tspan x="0" y="15">Determinar RRSS donde </tspan><tspan x="0" y="35">se realizarán las acciones</tspan></text>
      <text id="Objetivos_de_marketing_Objetivos_propios" data-name="Objetivos de marketing
Objetivos propios" transform="translate(361 1478)" fill="#12263f" font-size="16" font-family="Roboto-Regular, Roboto"><tspan x="0" y="17">Objetivos de</tspan><tspan y="17" xml:space="preserve" font-family="Roboto-Italic, Roboto" font-style="italic"> marketing</tspan><tspan x="0" y="37">Objetivos propios</tspan></text>
      <text id="Qué_cuándo_y_en_qué_perfil_social_se_publica" data-name="Qué, cuándo y en qué perfil social se publica" transform="translate(486 1347)" fill="#12263f" font-size="16" font-family="Roboto-Regular, Roboto"><tspan x="0" y="15">Qué, cuándo y en qué </tspan><tspan x="0" y="35">perfil social se publica</tspan></text>
      <text id="Detectar_buyer_persona" data-name="Detectar buyer persona" transform="translate(915 1827)" fill="#12263f" font-size="16" font-family="Roboto-Regular, Roboto"><tspan x="0" y="15">Detectar buyer persona</tspan></text>
      <text id="Económicos_y_personal" data-name="Económicos y personal" transform="translate(534 1827)" fill="#12263f" font-size="16" font-family="Roboto-Regular, Roboto"><tspan x="0" y="15">Económicos y personal</tspan></text>
      <text id="Debilidades_Amenazas_Fortalezas_Oportinidades" data-name="Debilidades
Amenazas
Fortalezas
Oportinidades" transform="translate(1049 1675)" fill="#12263f" font-size="16" font-family="Roboto-Regular, Roboto"><tspan x="0" y="15">Debilidades</tspan><tspan x="0" y="35">Amenazas</tspan><tspan x="0" y="55">Fortalezas</tspan><tspan x="0" y="75">Oportinidades</tspan></text>
      <path id="Trazado_799160" data-name="Trazado 799160" d="M13.6,12.658V17H10.517V4.2h5.106a5.948,5.948,0,0,1,2.6.541A4.074,4.074,0,0,1,19.97,6.282a4.2,4.2,0,0,1,.62,2.263,3.7,3.7,0,0,1-1.34,2.993,5.561,5.561,0,0,1-3.678,1.121Zm0-2.382h2.021a1.906,1.906,0,0,0,1.367-.448,1.665,1.665,0,0,0,.47-1.266,2.059,2.059,0,0,0-.483-1.433,1.712,1.712,0,0,0-1.318-.545H13.6ZM25.221,17H22.25V3.5h2.971ZM32.4,17a3.344,3.344,0,0,1-.281-.853,2.754,2.754,0,0,1-2.285,1.028,3.374,3.374,0,0,1-2.285-.813,2.588,2.588,0,0,1-.94-2.043,2.66,2.66,0,0,1,1.143-2.338,5.821,5.821,0,0,1,3.322-.791h.914v-.5q0-1.316-1.134-1.316A.927.927,0,0,0,29.8,10.413H26.838a2.655,2.655,0,0,1,1.173-2.239A4.931,4.931,0,0,1,31,7.314a4.323,4.323,0,0,1,2.874.888,3.086,3.086,0,0,1,1.081,2.435v4.21a4.311,4.311,0,0,0,.4,2V17Zm-1.854-1.934a1.652,1.652,0,0,0,.918-.237,1.487,1.487,0,0,0,.523-.536V12.772h-.861q-1.547,0-1.547,1.389a.848.848,0,0,0,.272.655A.986.986,0,0,0,30.547,15.066ZM39.319,7.49l.1,1.116a3.225,3.225,0,0,1,2.716-1.292,2.713,2.713,0,0,1,2.219.888,4.226,4.226,0,0,1,.76,2.672V17H42.14V11a1.6,1.6,0,0,0-.29-1.059A1.342,1.342,0,0,0,40.8,9.6a1.413,1.413,0,0,0-1.292.686V17H36.542V7.49Zm16.515,9.686a4.889,4.889,0,0,1-3.542-1.305,4.507,4.507,0,0,1-1.354-3.4v-.246a5.84,5.84,0,0,1,.541-2.575,3.955,3.955,0,0,1,1.578-1.727,4.763,4.763,0,0,1,2.461-.611,4.117,4.117,0,0,1,3.164,1.244,4.887,4.887,0,0,1,1.16,3.467v1.151H53.953a2.135,2.135,0,0,0,.694,1.257,2.066,2.066,0,0,0,1.389.457,2.662,2.662,0,0,0,2.2-.984l1.354,1.6a3.784,3.784,0,0,1-1.569,1.217A5.3,5.3,0,0,1,55.833,17.176ZM55.5,9.6q-1.3,0-1.547,1.723h2.988v-.229a1.467,1.467,0,0,0-.36-1.1A1.434,1.434,0,0,0,55.5,9.6Zm10.512,4.729a.684.684,0,0,0-.4-.606,6.016,6.016,0,0,0-1.5-.475,6.853,6.853,0,0,1-1.828-.646,3.062,3.062,0,0,1-1.1-.971,2.319,2.319,0,0,1-.378-1.31,2.628,2.628,0,0,1,1.081-2.158,4.453,4.453,0,0,1,2.83-.848,4.934,4.934,0,0,1,3.023.853,2.666,2.666,0,0,1,1.143,2.241H65.915q0-1.143-1.2-1.143a1.194,1.194,0,0,0-.782.259.8.8,0,0,0-.316.646.737.737,0,0,0,.387.642,3.654,3.654,0,0,0,1.235.4,10.671,10.671,0,0,1,1.49.378,2.706,2.706,0,0,1,2.145,2.646,2.491,2.491,0,0,1-1.156,2.118,5.068,5.068,0,0,1-2.993.817,5.172,5.172,0,0,1-2.18-.439,3.645,3.645,0,0,1-1.494-1.2,2.707,2.707,0,0,1-.536-1.591h2.769a1.145,1.145,0,0,0,.439.962,1.808,1.808,0,0,0,1.081.3,1.422,1.422,0,0,0,.91-.246A.787.787,0,0,0,66.011,14.328Zm7.69-9.2V7.49h1.564V9.547H73.7V13.9a1.111,1.111,0,0,0,.193.747,1.037,1.037,0,0,0,.765.211A4.345,4.345,0,0,0,75.4,14.8v2.118a5.466,5.466,0,0,1-1.67.255,3.1,3.1,0,0,1-2.259-.721,2.954,2.954,0,0,1-.729-2.188V9.547H69.527V7.49H70.74V5.126Zm8.481,5.045-.976-.07a1.752,1.752,0,0,0-1.793.879V17H76.453V7.49H79.23l.1,1.222a2.294,2.294,0,0,1,2.083-1.4,2.888,2.888,0,0,1,.826.105ZM88.344,17a3.344,3.344,0,0,1-.281-.853,2.754,2.754,0,0,1-2.285,1.028,3.374,3.374,0,0,1-2.285-.813,2.588,2.588,0,0,1-.94-2.043,2.66,2.66,0,0,1,1.143-2.338,5.821,5.821,0,0,1,3.322-.791h.914v-.5q0-1.316-1.134-1.316a.927.927,0,0,0-1.055,1.042H82.781a2.655,2.655,0,0,1,1.173-2.239,4.931,4.931,0,0,1,2.993-.86,4.323,4.323,0,0,1,2.874.888A3.086,3.086,0,0,1,90.9,10.637v4.21a4.311,4.311,0,0,0,.4,2V17ZM86.49,15.066a1.652,1.652,0,0,0,.918-.237,1.487,1.487,0,0,0,.523-.536V12.772H87.07q-1.547,0-1.547,1.389a.848.848,0,0,0,.272.655A.986.986,0,0,0,86.49,15.066Zm9.5-9.94V7.49h1.564V9.547H95.991V13.9a1.111,1.111,0,0,0,.193.747,1.037,1.037,0,0,0,.765.211,4.345,4.345,0,0,0,.738-.053v2.118a5.466,5.466,0,0,1-1.67.255,3.1,3.1,0,0,1-2.259-.721,2.954,2.954,0,0,1-.729-2.188V9.547H91.816V7.49h1.213V5.126Zm7.33,12.05a4.889,4.889,0,0,1-3.542-1.305,4.507,4.507,0,0,1-1.354-3.4v-.246a5.84,5.84,0,0,1,.541-2.575,3.955,3.955,0,0,1,1.578-1.727A4.763,4.763,0,0,1,103,7.314a4.117,4.117,0,0,1,3.164,1.244,4.887,4.887,0,0,1,1.16,3.467v1.151H101.44a2.135,2.135,0,0,0,.694,1.257,2.066,2.066,0,0,0,1.389.457,2.662,2.662,0,0,0,2.2-.984l1.354,1.6a3.784,3.784,0,0,1-1.569,1.217A5.3,5.3,0,0,1,103.321,17.176ZM102.987,9.6q-1.3,0-1.547,1.723h2.988v-.229a1.467,1.467,0,0,0-.36-1.1A1.434,1.434,0,0,0,102.987,9.6Zm-.035-6.108h3.129l-2.443,2.76-2.417,0Zm5.221,8.684a6.421,6.421,0,0,1,.475-2.549,3.821,3.821,0,0,1,1.362-1.709,3.591,3.591,0,0,1,2.065-.6,2.855,2.855,0,0,1,2.32,1l.105-.826h2.689V16.64a4.009,4.009,0,0,1-.584,2.184,3.75,3.75,0,0,1-1.692,1.424,6.219,6.219,0,0,1-2.566.5,5.365,5.365,0,0,1-2.026-.4,3.657,3.657,0,0,1-1.5-1.028l1.239-1.74a2.716,2.716,0,0,0,2.18.976,1.764,1.764,0,0,0,1.969-2.021v-.3a2.781,2.781,0,0,1-2.153.94,3.437,3.437,0,0,1-2.812-1.332,5.517,5.517,0,0,1-1.072-3.564Zm2.971.185a3.383,3.383,0,0,0,.439,1.85,1.387,1.387,0,0,0,1.23.681,1.573,1.573,0,0,0,1.4-.642v-4a1.534,1.534,0,0,0-1.38-.65,1.4,1.4,0,0,0-1.239.708A3.858,3.858,0,0,0,111.143,12.359ZM122,17h-2.971V7.49H122ZM118.851,5.029a1.334,1.334,0,0,1,.457-1.043,1.934,1.934,0,0,1,2.373,0,1.334,1.334,0,0,1,.457,1.043,1.334,1.334,0,0,1-.457,1.043,1.934,1.934,0,0,1-2.373,0A1.334,1.334,0,0,1,118.851,5.029Zm8.991,9.861a1.317,1.317,0,0,0,.967-.338,1.241,1.241,0,0,0,.334-.945h2.777a3.288,3.288,0,0,1-1.121,2.566,4.168,4.168,0,0,1-2.887,1,4.22,4.22,0,0,1-3.27-1.3,5.125,5.125,0,0,1-1.2-3.6v-.123a5.792,5.792,0,0,1,.532-2.544,3.872,3.872,0,0,1,1.534-1.7,4.573,4.573,0,0,1,2.373-.593,4.116,4.116,0,0,1,2.944,1.028,3.647,3.647,0,0,1,1.09,2.786h-2.777a1.626,1.626,0,0,0-.36-1.134,1.244,1.244,0,0,0-.967-.4q-1.151,0-1.345,1.468a10.357,10.357,0,0,0-.062,1.283,4.068,4.068,0,0,0,.343,1.986A1.187,1.187,0,0,0,127.842,14.891Zm4.957-2.733a5.613,5.613,0,0,1,.554-2.536,3.96,3.96,0,0,1,1.591-1.709,4.791,4.791,0,0,1,2.435-.6,4.373,4.373,0,0,1,3.366,1.323,5.076,5.076,0,0,1,1.23,3.6v.105a4.925,4.925,0,0,1-1.235,3.529,4.384,4.384,0,0,1-3.344,1.305,4.434,4.434,0,0,1-3.261-1.217,4.761,4.761,0,0,1-1.327-3.3Zm2.962.185a3.538,3.538,0,0,0,.413,1.934,1.376,1.376,0,0,0,1.222.615q1.582,0,1.617-2.435v-.3q0-2.558-1.635-2.558-1.485,0-1.608,2.206ZM10.6,42.176a4.889,4.889,0,0,1-3.542-1.305,4.507,4.507,0,0,1-1.354-3.4v-.246a5.84,5.84,0,0,1,.541-2.575,3.955,3.955,0,0,1,1.578-1.727,4.763,4.763,0,0,1,2.461-.611,4.117,4.117,0,0,1,3.164,1.244,4.887,4.887,0,0,1,1.16,3.467v1.151H8.72a2.135,2.135,0,0,0,.694,1.257,2.066,2.066,0,0,0,1.389.457,2.662,2.662,0,0,0,2.2-.984l1.354,1.6a3.784,3.784,0,0,1-1.569,1.217A5.3,5.3,0,0,1,10.6,42.176ZM10.267,34.6q-1.3,0-1.547,1.723h2.988v-.229a1.467,1.467,0,0,0-.36-1.1A1.434,1.434,0,0,0,10.267,34.6ZM18.52,32.49l.1,1.116a3.225,3.225,0,0,1,2.716-1.292,2.713,2.713,0,0,1,2.219.888,4.226,4.226,0,0,1,.76,2.672V42H21.341V36a1.6,1.6,0,0,0-.29-1.059A1.342,1.342,0,0,0,20,34.6a1.413,1.413,0,0,0-1.292.686V42H15.742V32.49Zm17.666,2.681-.976-.07a1.752,1.752,0,0,0-1.793.879V42H30.455V32.49h2.777l.1,1.222a2.294,2.294,0,0,1,2.083-1.4,2.888,2.888,0,0,1,.826.105Zm5.5,7a4.889,4.889,0,0,1-3.542-1.305,4.507,4.507,0,0,1-1.354-3.4v-.246a5.84,5.84,0,0,1,.541-2.575,3.955,3.955,0,0,1,1.578-1.727,4.763,4.763,0,0,1,2.461-.611,4.117,4.117,0,0,1,3.164,1.244,4.887,4.887,0,0,1,1.16,3.467v1.151H39.807a2.135,2.135,0,0,0,.694,1.257,2.066,2.066,0,0,0,1.389.457,2.662,2.662,0,0,0,2.2-.984l1.354,1.6a3.784,3.784,0,0,1-1.569,1.217A5.3,5.3,0,0,1,41.688,42.176ZM41.354,34.6q-1.3,0-1.547,1.723h2.988v-.229a1.467,1.467,0,0,0-.36-1.1A1.434,1.434,0,0,0,41.354,34.6Zm5.159,2.575a5.809,5.809,0,0,1,.976-3.56,3.211,3.211,0,0,1,2.725-1.3,2.731,2.731,0,0,1,2.145,1V28.5h2.971V42H52.665l-.149-1.02a2.8,2.8,0,0,1-2.32,1.2,3.205,3.205,0,0,1-2.689-1.3A5.993,5.993,0,0,1,46.513,37.175Zm2.962.185q0,2.531,1.477,2.531a1.458,1.458,0,0,0,1.406-.826V35.443a1.419,1.419,0,0,0-1.389-.844q-1.371,0-1.485,2.215Zm12.138,4.816a4.889,4.889,0,0,1-3.542-1.305,4.507,4.507,0,0,1-1.354-3.4v-.246a5.84,5.84,0,0,1,.541-2.575,3.955,3.955,0,0,1,1.578-1.727,4.763,4.763,0,0,1,2.461-.611,4.117,4.117,0,0,1,3.164,1.244,4.887,4.887,0,0,1,1.16,3.467v1.151H59.731a2.135,2.135,0,0,0,.694,1.257,2.066,2.066,0,0,0,1.389.457,2.662,2.662,0,0,0,2.2-.984l1.354,1.6A3.784,3.784,0,0,1,63.8,41.723,5.3,5.3,0,0,1,61.612,42.176ZM61.278,34.6q-1.3,0-1.547,1.723H62.72v-.229a1.467,1.467,0,0,0-.36-1.1A1.434,1.434,0,0,0,61.278,34.6ZM71.79,39.328a.684.684,0,0,0-.4-.606,6.016,6.016,0,0,0-1.5-.475,6.853,6.853,0,0,1-1.828-.646,3.062,3.062,0,0,1-1.1-.971,2.319,2.319,0,0,1-.378-1.31,2.628,2.628,0,0,1,1.081-2.158,4.453,4.453,0,0,1,2.83-.848,4.934,4.934,0,0,1,3.023.853,2.666,2.666,0,0,1,1.143,2.241H71.693q0-1.143-1.2-1.143a1.194,1.194,0,0,0-.782.259.8.8,0,0,0-.316.646.737.737,0,0,0,.387.642,3.654,3.654,0,0,0,1.235.4,10.671,10.671,0,0,1,1.49.378,2.706,2.706,0,0,1,2.145,2.646,2.491,2.491,0,0,1-1.156,2.118,5.068,5.068,0,0,1-2.993.817,5.172,5.172,0,0,1-2.18-.439,3.645,3.645,0,0,1-1.494-1.2,2.707,2.707,0,0,1-.536-1.591h2.769a1.145,1.145,0,0,0,.439.962,1.808,1.808,0,0,0,1.081.3,1.422,1.422,0,0,0,.91-.246A.787.787,0,0,0,71.79,39.328Zm13.7,0a.684.684,0,0,0-.4-.606,6.016,6.016,0,0,0-1.5-.475,6.853,6.853,0,0,1-1.828-.646,3.062,3.062,0,0,1-1.1-.971,2.319,2.319,0,0,1-.378-1.31,2.628,2.628,0,0,1,1.081-2.158,4.453,4.453,0,0,1,2.83-.848,4.934,4.934,0,0,1,3.023.853,2.666,2.666,0,0,1,1.143,2.241H85.4q0-1.143-1.2-1.143a1.194,1.194,0,0,0-.782.259.8.8,0,0,0-.316.646.737.737,0,0,0,.387.642,3.654,3.654,0,0,0,1.235.4,10.671,10.671,0,0,1,1.49.378,2.706,2.706,0,0,1,2.145,2.646,2.491,2.491,0,0,1-1.156,2.118,5.068,5.068,0,0,1-2.993.817,5.172,5.172,0,0,1-2.18-.439,3.645,3.645,0,0,1-1.494-1.2,2.707,2.707,0,0,1-.536-1.591h2.769a1.145,1.145,0,0,0,.439.962,1.808,1.808,0,0,0,1.081.3,1.422,1.422,0,0,0,.91-.246A.787.787,0,0,0,85.492,39.328Zm3.867-2.171a5.613,5.613,0,0,1,.554-2.536A3.96,3.96,0,0,1,91.5,32.912a4.791,4.791,0,0,1,2.435-.6A4.373,4.373,0,0,1,97.3,33.637a5.076,5.076,0,0,1,1.23,3.6v.105A4.925,4.925,0,0,1,97.3,40.871a4.384,4.384,0,0,1-3.344,1.305A4.434,4.434,0,0,1,90.7,40.958a4.761,4.761,0,0,1-1.327-3.3Zm2.962.185a3.538,3.538,0,0,0,.413,1.934,1.376,1.376,0,0,0,1.222.615q1.582,0,1.617-2.435v-.3q0-2.558-1.635-2.558-1.485,0-1.608,2.206Zm11.54,2.549a1.317,1.317,0,0,0,.967-.338,1.241,1.241,0,0,0,.334-.945h2.777a3.288,3.288,0,0,1-1.121,2.566,4.168,4.168,0,0,1-2.887,1,4.22,4.22,0,0,1-3.27-1.3,5.125,5.125,0,0,1-1.2-3.6v-.123A5.792,5.792,0,0,1,100,34.6a3.872,3.872,0,0,1,1.534-1.7,4.573,4.573,0,0,1,2.373-.593,4.116,4.116,0,0,1,2.944,1.028,3.647,3.647,0,0,1,1.09,2.786h-2.777A1.626,1.626,0,0,0,104.8,35a1.244,1.244,0,0,0-.967-.4q-1.151,0-1.345,1.468a10.357,10.357,0,0,0-.062,1.283,4.068,4.068,0,0,0,.343,1.986A1.187,1.187,0,0,0,103.861,39.891ZM112.316,42h-2.971V32.49h2.971ZM109.17,30.029a1.334,1.334,0,0,1,.457-1.043,1.934,1.934,0,0,1,2.373,0,1.42,1.42,0,0,1,0,2.087,1.934,1.934,0,0,1-2.373,0A1.334,1.334,0,0,1,109.17,30.029ZM119.5,42a3.344,3.344,0,0,1-.281-.853,2.754,2.754,0,0,1-2.285,1.028,3.374,3.374,0,0,1-2.285-.813,2.588,2.588,0,0,1-.94-2.043,2.66,2.66,0,0,1,1.143-2.338,5.821,5.821,0,0,1,3.322-.791h.914v-.5q0-1.316-1.134-1.316a.927.927,0,0,0-1.055,1.042h-2.962a2.655,2.655,0,0,1,1.173-2.239,4.931,4.931,0,0,1,2.993-.86,4.323,4.323,0,0,1,2.874.888,3.086,3.086,0,0,1,1.081,2.435v4.21a4.311,4.311,0,0,0,.4,2V42Zm-1.854-1.934a1.652,1.652,0,0,0,.918-.237,1.487,1.487,0,0,0,.523-.536V37.772h-.861q-1.547,0-1.547,1.389a.848.848,0,0,0,.272.655A.986.986,0,0,0,117.643,40.066ZM126.818,42h-2.971V28.5h2.971Zm6.425.176a4.889,4.889,0,0,1-3.542-1.305,4.507,4.507,0,0,1-1.354-3.4v-.246a5.84,5.84,0,0,1,.541-2.575,3.955,3.955,0,0,1,1.578-1.727,4.763,4.763,0,0,1,2.461-.611,4.117,4.117,0,0,1,3.164,1.244,4.887,4.887,0,0,1,1.16,3.467v1.151h-5.889a2.135,2.135,0,0,0,.694,1.257,2.066,2.066,0,0,0,1.389.457,2.662,2.662,0,0,0,2.2-.984l1.354,1.6a3.784,3.784,0,0,1-1.569,1.217A5.3,5.3,0,0,1,133.243,42.176Zm-.334-7.576q-1.3,0-1.547,1.723h2.988v-.229a1.467,1.467,0,0,0-.36-1.1A1.434,1.434,0,0,0,132.909,34.6Zm10.512,4.729a.684.684,0,0,0-.4-.606,6.016,6.016,0,0,0-1.5-.475,6.853,6.853,0,0,1-1.828-.646,3.062,3.062,0,0,1-1.1-.971,2.319,2.319,0,0,1-.378-1.31,2.628,2.628,0,0,1,1.081-2.158,4.453,4.453,0,0,1,2.83-.848,4.934,4.934,0,0,1,3.023.853,2.666,2.666,0,0,1,1.143,2.241h-2.971q0-1.143-1.2-1.143a1.194,1.194,0,0,0-.782.259.8.8,0,0,0-.316.646.737.737,0,0,0,.387.642,3.654,3.654,0,0,0,1.235.4,10.671,10.671,0,0,1,1.49.378,2.706,2.706,0,0,1,2.145,2.646,2.491,2.491,0,0,1-1.156,2.118,5.068,5.068,0,0,1-2.993.817,5.172,5.172,0,0,1-2.18-.439,3.645,3.645,0,0,1-1.494-1.2,2.707,2.707,0,0,1-.536-1.591h2.769a1.145,1.145,0,0,0,.439.962,1.808,1.808,0,0,0,1.081.3,1.422,1.422,0,0,0,.91-.246A.787.787,0,0,0,143.421,39.328Z" transform="translate(724 1574)" fill="#12263f"/>
    </g>
  </g>
</svg>
