<svg xmlns="http://www.w3.org/2000/svg" xmlns:xlink="http://www.w3.org/1999/xlink" width="400" height="487" viewBox="0 0 400 487">
  <defs>
    <clipPath id="clip-path">
      <rect id="Rectángulo_373956" data-name="Rectángulo 373956" width="380.083" height="479" fill="none"/>
    </clipPath>
    <clipPath id="clip-path-4">
      <rect id="Rectángulo_373936" data-name="Rectángulo 373936" width="78.601" height="65.796" fill="none"/>
    </clipPath>
    <clipPath id="clip-path-5">
      <rect id="Rectángulo_373937" data-name="Rectángulo 373937" width="50.376" height="39.737" fill="none"/>
    </clipPath>
    <clipPath id="clip-path-9">
      <rect id="Rectángulo_373953" data-name="Rectángulo 373953" width="30.346" height="28.631" fill="none"/>
    </clipPath>
    <clipPath id="clip-path-10">
      <rect id="Rectángulo_373954" data-name="Rectángulo 373954" width="16.644" height="21.243" fill="none"/>
    </clipPath>
  </defs>
  <g id="Grupo_1064495" data-name="Grupo 1064495" transform="translate(-180 -2407)">
    <path id="Rectángulo_373957" data-name="Rectángulo 373957" d="M0,0H243A157,157,0,0,1,400,157v8a0,0,0,0,1,0,0H0a0,0,0,0,1,0,0V0A0,0,0,0,1,0,0Z" transform="translate(180 2729)" fill="#0050db"/>
    <g id="Grupo_1064494" data-name="Grupo 1064494" transform="translate(199.917 2407)">
      <g id="Grupo_1064493" data-name="Grupo 1064493" clip-path="url(#clip-path)">
        <g id="Grupo_1064472" data-name="Grupo 1064472">
          <g id="Grupo_1064471" data-name="Grupo 1064471" clip-path="url(#clip-path)">
            <path id="Trazado_797939" data-name="Trazado 797939" d="M353.778,220.891a41.3,41.3,0,1,1-41.958-40.819,41.451,41.451,0,0,1,41.958,40.819m-61.04.985a19.748,19.748,0,1,0,19.427-20.155,19.812,19.812,0,0,0-19.427,20.155" transform="translate(26.297 17.462)" fill="#94e435"/>
            <path id="Trazado_797940" data-name="Trazado 797940" d="M350.185,220.891a41.451,41.451,0,0,1-40.632,42.152l-.347-21.65a19.839,19.839,0,0,0-.634-39.672l-.346-21.65a41.435,41.435,0,0,1,41.958,40.819" transform="translate(29.89 17.462)" fill="#0050db"/>
            <path id="Trazado_797941" data-name="Trazado 797941" d="M290.834,219.982a1.379,1.379,0,0,1-.019-.32c0-.246,0-.556,0-.945a9.178,9.178,0,0,1,.1-1.531,14.131,14.131,0,0,1,.342-2.07,18.86,18.86,0,0,1,2.055-5.365,19.8,19.8,0,0,1,23.783-9.066,18.7,18.7,0,0,1,5.115,2.654,21.989,21.989,0,0,1,2.3,1.9,22.434,22.434,0,0,1,2,2.3,20.019,20.019,0,0,1,.382,23.732,22.48,22.48,0,0,1-1.926,2.36,22.171,22.171,0,0,1-2.24,1.976,18.719,18.719,0,0,1-5.027,2.818,19.859,19.859,0,0,1-24.064-8.293,18.815,18.815,0,0,1-2.225-5.3,14.115,14.115,0,0,1-.409-2.058,9.225,9.225,0,0,1-.151-1.527c-.014-.388-.025-.7-.034-.943a1.35,1.35,0,0,1,.008-.321,30.855,30.855,0,0,0,.8,4.792,19.007,19.007,0,0,0,2.282,5.186,19.69,19.69,0,0,0,5.075,5.482,19.359,19.359,0,0,0,18.528,2.488,18.255,18.255,0,0,0,4.884-2.758,18,18,0,0,0,4.042-4.227,19.509,19.509,0,0,0-.371-23.073,22.077,22.077,0,0,0-1.941-2.237,21.723,21.723,0,0,0-2.236-1.856,18.229,18.229,0,0,0-4.969-2.6,19.357,19.357,0,0,0-18.436,3.087,19.7,19.7,0,0,0-4.9,5.641,19.049,19.049,0,0,0-2.115,5.258,31.083,31.083,0,0,0-.648,4.816" transform="translate(28.201 19.356)" fill="#263238"/>
            <path id="Trazado_797942" data-name="Trazado 797942" d="M353.8,220.911s-.035-.226-.073-.669c-.037-.463-.09-1.115-.159-1.961q-.049-.65-.11-1.445c-.064-.529-.186-1.1-.29-1.724a30.339,30.339,0,0,0-.928-4.255,39.7,39.7,0,0,0-4.742-10.908A41.24,41.24,0,0,0,336.868,188.4a40.779,40.779,0,0,0-17.42-7.458,38.106,38.106,0,0,0-5.211-.523c-.887-.016-1.783-.089-2.683-.06l-2.719.186c-.455.041-.917.042-1.372.114l-1.367.235c-.913.169-1.843.287-2.758.5a42.892,42.892,0,0,0-5.452,1.711,43.365,43.365,0,0,0-5.317,2.461c-.853.495-1.679,1.053-2.529,1.581a21.462,21.462,0,0,0-2.445,1.76,45.632,45.632,0,0,0-4.583,4.057l-2.047,2.34-.516.588-.457.636-.918,1.276-.923,1.281-.8,1.369-.8,1.376-.4.691-.336.726q-.671,1.455-1.346,2.922l-1.062,3.064a40.874,40.874,0,0,0,.412,25.94l1.16,3.029q.722,1.445,1.438,2.88l.359.715.424.677.847,1.35.844,1.343.963,1.252.96,1.246.477.622.534.572,2.122,2.273a45.672,45.672,0,0,0,4.712,3.907,21.294,21.294,0,0,0,2.5,1.681c.866.5,1.709,1.031,2.579,1.5a44.819,44.819,0,0,0,10.9,3.822c.923.182,1.855.271,2.773.41l1.375.191c.457.056.918.044,1.376.069l2.724.1c.9,0,1.794-.1,2.68-.147a38.381,38.381,0,0,0,5.191-.691,41.368,41.368,0,0,0,27.423-19.9,39.686,39.686,0,0,0,4.39-11.053,30.07,30.07,0,0,0,.791-4.284c.083-.625.188-1.2.235-1.731q.035-.8.064-1.448c.042-.849.073-1.5.1-1.966.025-.443.053-.67.053-.67s.012.227.007.67c-.01.465-.023,1.12-.039,1.971q-.016.653-.036,1.453c-.038.533-.134,1.112-.208,1.742a29.709,29.709,0,0,1-.743,4.312,39.471,39.471,0,0,1-4.33,11.161,41.611,41.611,0,0,1-27.605,20.211,38.69,38.69,0,0,1-5.25.714c-.9.048-1.8.152-2.712.156l-2.757-.092c-.463-.024-.93-.012-1.393-.067l-1.392-.189c-.929-.139-1.875-.228-2.809-.41a45.316,45.316,0,0,1-11.047-3.851c-.883-.472-1.738-1.008-2.615-1.514a21.858,21.858,0,0,1-2.537-1.7,45.983,45.983,0,0,1-4.778-3.955l-2.153-2.3-.541-.578-.486-.63-.973-1.262-.976-1.268-.858-1.36-.858-1.368-.431-.687-.364-.724-1.46-2.919-1.177-3.069a41.4,41.4,0,0,1-.418-26.3q.541-1.558,1.078-3.106l1.366-2.962.341-.736.408-.7.814-1.394.814-1.385.936-1.3.931-1.293.465-.644.522-.6,2.077-2.368a46.443,46.443,0,0,1,4.649-4.1,22.036,22.036,0,0,1,2.48-1.779c.861-.533,1.7-1.1,2.565-1.6a45.289,45.289,0,0,1,10.915-4.2c.928-.214,1.87-.332,2.794-.5l1.385-.235c.461-.071.928-.072,1.389-.112l2.753-.181c.91-.027,1.817.048,2.715.067a38.589,38.589,0,0,1,5.27.544,41.592,41.592,0,0,1,28.244,19.307,39.454,39.454,0,0,1,4.685,11.017,29.658,29.658,0,0,1,.881,4.287c.094.627.208,1.2.263,1.734q.046.8.083,1.452c.044.85.078,1.5.1,1.969.02.443.015.67.015.67" transform="translate(26.273 17.441)" fill="#263238"/>
            <path id="Trazado_797943" data-name="Trazado 797943" d="M317.087,262.934c-26.639.43-47.891-20.245-48.318-47.008l25.212-.406c.205,12.8,9.942,20.852,22.679,20.646Z" transform="translate(26.063 20.9)" fill="#00a9ff"/>
            <path id="Trazado_797944" data-name="Trazado 797944" d="M317.113,262.959a4.609,4.609,0,0,1-.031-.5c-.011-.348-.026-.815-.045-1.412-.033-1.263-.08-3.066-.139-5.367-.1-4.652-.247-11.312-.426-19.488l.216.21a28.133,28.133,0,0,1-7.586-.928,21.674,21.674,0,0,1-7.516-3.661,19.55,19.55,0,0,1-5.7-6.956,21.967,21.967,0,0,1-2.154-9.31l.281.272-19.523.324-5.689.091.28-.29a52.862,52.862,0,0,0,2.569,14.911q.643,1.718,1.276,3.4c.475,1.1,1.038,2.148,1.543,3.206a24.7,24.7,0,0,0,1.718,3.024,27.948,27.948,0,0,0,1.867,2.837l2.009,2.635c.7.829,1.462,1.594,2.174,2.376l1.073,1.154q.586.517,1.161,1.028l2.269,2a48.527,48.527,0,0,0,9.353,5.769l2.233,1.033c.744.289,1.486.525,2.2.78l2.081.726c.678.215,1.358.341,2,.509l1.874.453.885.215c.292.055.582.086.864.127l3.087.436a19.209,19.209,0,0,0,2.458.2l1.81.093,1.129.064a3.54,3.54,0,0,1,.4.033,2.433,2.433,0,0,1-.362.008l-1.11-.01-1.836-.027a18,18,0,0,1-2.51-.145l-3.11-.388c-.283-.039-.576-.067-.87-.117l-.893-.2-1.891-.434c-.651-.161-1.337-.282-2.022-.493l-2.1-.71c-.72-.25-1.47-.483-2.222-.768l-2.259-1.023a48.4,48.4,0,0,1-9.475-5.763q-1.132-.987-2.3-2.011l-1.177-1.033-1.089-1.161c-.723-.788-1.492-1.557-2.207-2.392l-2.04-2.656a28.445,28.445,0,0,1-1.9-2.863,25.013,25.013,0,0,1-1.746-3.053c-.514-1.07-1.086-2.129-1.569-3.24q-.643-1.7-1.3-3.439a53.189,53.189,0,0,1-2.615-15.078l-.008-.285.288,0,5.689-.093L294,215.268l.278,0,0,.278a21.458,21.458,0,0,0,2.081,9.086,19.069,19.069,0,0,0,5.528,6.788,21.262,21.262,0,0,0,7.334,3.61,27.829,27.829,0,0,0,7.455.954h.214v.208c.084,8.232.152,14.937.2,19.62.013,2.283.024,4.071.032,5.323,0,.58,0,1.036,0,1.373a3.356,3.356,0,0,1-.015.454" transform="translate(26.038 20.875)" fill="#263238"/>
          </g>
        </g>
        <rect id="Rectángulo_373933" data-name="Rectángulo 373933" width="218.569" height="163.388" transform="translate(146.194 0.285)" fill="#fff"/>
        <rect id="Rectángulo_373934" data-name="Rectángulo 373934" width="218.569" height="20.195" transform="translate(146.194 0.285)" fill="#e0e0e0"/>
        <g id="Grupo_1064480" data-name="Grupo 1064480">
          <g id="Grupo_1064479" data-name="Grupo 1064479" clip-path="url(#clip-path)">
            <path id="Trazado_797945" data-name="Trazado 797945" d="M147.346,9.722a2.911,2.911,0,1,1-2.91-2.91,2.911,2.911,0,0,1,2.91,2.91" transform="translate(13.724 0.661)" fill="#fff"/>
            <path id="Trazado_797946" data-name="Trazado 797946" d="M156.292,9.722a2.911,2.911,0,1,1-2.91-2.91,2.911,2.911,0,0,1,2.91,2.91" transform="translate(14.592 0.661)" fill="#fff"/>
            <path id="Trazado_797947" data-name="Trazado 797947" d="M165.238,9.722a2.911,2.911,0,1,1-2.91-2.91,2.911,2.911,0,0,1,2.91,2.91" transform="translate(15.459 0.661)" fill="#fff"/>
            <path id="Trazado_797948" data-name="Trazado 797948" d="M351.865,163.673s-.018-1.025-.025-2.988-.015-4.877-.026-8.676c-.014-7.6-.035-18.757-.06-33-.03-28.47-.071-69.289-.122-118.72l.234.234L133.314.57H133.3l.285-.285c-.01,58.72-.02,114.341-.027,163.388l-.258-.258,157.771.128,44.806.068,11.884.032,3.062.014c.689.005,1.047.015,1.047.015s-.338.01-1.017.015l-3.033.014-11.833.031-44.747.069-157.939.128h-.259v-.258c-.008-49.047-.018-104.668-.027-163.388V0h.3L351.865.052h.235V.285c-.05,49.492-.092,90.361-.122,118.867-.025,14.223-.046,25.361-.059,32.951-.012,3.779-.021,6.673-.027,8.632s-.025,2.938-.025,2.938" transform="translate(12.898)" fill="#263238"/>
            <path id="Trazado_797949" data-name="Trazado 797949" d="M338.719,90.047c0,.158-43.5.285-97.141.285-53.662,0-97.15-.127-97.15-.285s43.488-.285,97.15-.285c53.644,0,97.141.127,97.141.285" transform="translate(14.006 8.705)" fill="#e0e0e0"/>
            <path id="Trazado_797950" data-name="Trazado 797950" d="M338.719,74.757c0,.158-43.5.285-97.141.285-53.662,0-97.15-.127-97.15-.285s43.488-.285,97.15-.285c53.644,0,97.141.127,97.141.285" transform="translate(14.006 7.222)" fill="#e0e0e0"/>
            <path id="Trazado_797951" data-name="Trazado 797951" d="M338.719,59.466c0,.158-43.5.285-97.141.285-53.662,0-97.15-.127-97.15-.285s43.488-.285,97.15-.285c53.644,0,97.141.127,97.141.285" transform="translate(14.006 5.739)" fill="#e0e0e0"/>
            <path id="Trazado_797952" data-name="Trazado 797952" d="M338.719,44.176c0,.158-43.5.285-97.141.285-53.662,0-97.15-.127-97.15-.285s43.488-.285,97.15-.285c53.644,0,97.141.127,97.141.285" transform="translate(14.006 4.256)" fill="#e0e0e0"/>
            <path id="Trazado_797953" data-name="Trazado 797953" d="M325.089,94.6c-3.787-9.138-6.383-19.122-9.287-28.587-2.527-8.238-2.762-12.089-4.931-19.048C307.455,36,298.41,34.789,291.836,37.76c-5.859,2.647-8.387,9.535-10.331,15.733q-3.488,11.117-6.976,22.235c-1.1,3.511-2.228,7.077-4.254,10.136s-5.111,5.6-8.714,6.074c-5.942.783-11.262-4.19-13.8-9.692s-3.244-11.7-5.516-17.325S235.3,53.908,229.31,53.8c-7.376-.134-12.388,7.394-15.455,14.2a162.257,162.257,0,0,0-9.3,26.59c-.792,3.106-1.511,6.286-3.089,9.065s-4.2,5.157-7.339,5.542c-4.05.5-7.809-2.389-10.166-5.766s-3.8-7.342-6.215-10.678-6.3-6.1-10.317-5.4c-3.611.631-6.195,3.793-8.329,6.812a159.612,159.612,0,0,0-14.922,25.973H345.144c-9.256-3.188-16.268-16.392-20.055-25.53" transform="translate(13.981 3.527)" fill="#94e435"/>
            <rect id="Rectángulo_373935" data-name="Rectángulo 373935" width="9.49" height="9.49" transform="translate(205.132 136.817)" fill="#ff725e"/>
            <path id="Trazado_797954" data-name="Trazado 797954" d="M254.229,129.241H204.736a1.09,1.09,0,0,1,0-2.181h49.492a1.09,1.09,0,0,1,0,2.181" transform="translate(19.748 12.321)" fill="#263238"/>
            <path id="Trazado_797955" data-name="Trazado 797955" d="M336.449,120.488s-.245.02-.723.03l-2.123.029-8.159.053-30.01.091-99.008.083-52.226-.02h-.265v-.265c.042-25.748.078-47.7.1-63.226.032-7.741.058-13.883.076-18.11.018-2.09.032-3.7.042-4.816.01-.533.016-.942.022-1.24.008-.279.022-.42.022-.42s.015.142.023.42c0,.3.012.706.022,1.24.009,1.113.023,2.726.042,4.816.018,4.227.043,10.369.076,18.11.025,15.531.061,37.478.1,63.226l-.265-.265,52.226-.02,99.008.083,30.01.091,8.159.054,2.123.027c.478.01.723.03.723.03" transform="translate(13.958 3.169)" fill="#263238"/>
            <g id="Grupo_1064475" data-name="Grupo 1064475" transform="translate(255.479 57.86)" opacity="0.3">
              <g id="Grupo_1064474" data-name="Grupo 1064474">
                <g id="Grupo_1064473" data-name="Grupo 1064473" clip-path="url(#clip-path-4)">
                  <path id="Trazado_797956" data-name="Trazado 797956" d="M304.219,52.745l-71.325,65.8h35.663L311.5,78.79Z" transform="translate(-232.894 -52.745)" fill="#fff"/>
                </g>
              </g>
            </g>
            <g id="Grupo_1064478" data-name="Grupo 1064478" transform="translate(214.622 83.92)" opacity="0.3">
              <g id="Grupo_1064477" data-name="Grupo 1064477">
                <g id="Grupo_1064476" data-name="Grupo 1064476" clip-path="url(#clip-path-5)">
                  <path id="Trazado_797957" data-name="Trazado 797957" d="M245,82.08l-39.24,34.158H195.65L241.989,76.5l4.037,6.839" transform="translate(-195.649 -76.501)" fill="#fff"/>
                </g>
              </g>
            </g>
            <path id="Trazado_797958" data-name="Trazado 797958" d="M144.178,120.151a126.645,126.645,0,0,1,6.6-13.121,149.154,149.154,0,0,1,9.334-14.5,18.438,18.438,0,0,1,3.665-3.744,8.318,8.318,0,0,1,5.289-1.7,10.069,10.069,0,0,1,5.495,2.141,17.006,17.006,0,0,1,4.164,4.625c2.318,3.56,3.8,7.864,6.867,11.274a12.135,12.135,0,0,0,5.758,3.676,7.575,7.575,0,0,0,3.489.043,8.412,8.412,0,0,0,3.212-1.553,13.652,13.652,0,0,0,4.275-5.991,62.433,62.433,0,0,0,2.174-7.479,161.331,161.331,0,0,1,4.89-15.606q1.453-3.939,3.156-7.892a56.238,56.238,0,0,1,3.9-7.794,23.128,23.128,0,0,1,5.91-6.675,12.252,12.252,0,0,1,4.122-1.981,10.962,10.962,0,0,1,4.623-.134,13.792,13.792,0,0,1,7.761,4.957,24.666,24.666,0,0,1,4.437,8.285c1.007,3,1.7,6.095,2.576,9.145a31.1,31.1,0,0,0,3.678,8.746,16.025,16.025,0,0,0,7.023,6.111,9.671,9.671,0,0,0,8.848-.721,16.213,16.213,0,0,0,5.944-6.851,58.467,58.467,0,0,0,3.157-8.587l5.369-17.089c.892-2.785,1.7-5.567,2.691-8.269a29.329,29.329,0,0,1,3.9-7.589,14.393,14.393,0,0,1,2.978-3,13.853,13.853,0,0,1,3.713-1.907,16.379,16.379,0,0,1,4.032-.812,14.763,14.763,0,0,1,4.049.338,12.405,12.405,0,0,1,6.608,4.226,19.45,19.45,0,0,1,3.419,6.813c1.471,4.773,2.273,9.525,3.457,13.972.574,2.231,1.243,4.385,1.881,6.506s1.24,4.2,1.837,6.226a190.583,190.583,0,0,0,7.312,21.58,74.33,74.33,0,0,0,8.319,15.008,30.683,30.683,0,0,0,7.674,7.6,17.878,17.878,0,0,0,2.493,1.316c.585.253.88.4.88.4s-.308-.107-.9-.344a16.408,16.408,0,0,1-2.533-1.272,30.279,30.279,0,0,1-7.792-7.565,73.727,73.727,0,0,1-8.434-15.014,188.457,188.457,0,0,1-7.407-21.592q-.907-3.038-1.855-6.218c-.643-2.114-1.321-4.279-1.9-6.517-1.2-4.469-2.013-9.21-3.484-13.946a18.983,18.983,0,0,0-3.342-6.639,11.9,11.9,0,0,0-6.352-4.05,14.245,14.245,0,0,0-3.9-.318,15.917,15.917,0,0,0-3.9.791,13.007,13.007,0,0,0-6.439,4.735,28.841,28.841,0,0,0-3.82,7.456c-.98,2.673-1.785,5.46-2.674,8.247Q277.789,66.283,275.059,75a58.878,58.878,0,0,1-3.187,8.673,16.767,16.767,0,0,1-6.156,7.084,10.2,10.2,0,0,1-9.355.762,16.583,16.583,0,0,1-7.284-6.324,31.594,31.594,0,0,1-3.752-8.905c-.878-3.073-1.571-6.161-2.566-9.121a24.081,24.081,0,0,0-4.332-8.1,13.242,13.242,0,0,0-7.433-4.771,10.417,10.417,0,0,0-4.38.124,11.691,11.691,0,0,0-3.938,1.891,22.628,22.628,0,0,0-5.769,6.515,55.612,55.612,0,0,0-3.869,7.717q-1.7,3.934-3.155,7.862a161.578,161.578,0,0,0-4.9,15.548,62.985,62.985,0,0,1-2.206,7.535,14.137,14.137,0,0,1-4.443,6.186,8.869,8.869,0,0,1-3.394,1.63,8.027,8.027,0,0,1-3.7-.053,12.569,12.569,0,0,1-5.973-3.822c-3.144-3.521-4.6-7.839-6.884-11.355a16.592,16.592,0,0,0-4.053-4.535,9.7,9.7,0,0,0-5.281-2.085,7.975,7.975,0,0,0-5.072,1.616,18.169,18.169,0,0,0-3.612,3.662,152.678,152.678,0,0,0-9.393,14.411c-2.361,4.094-4.018,7.372-5.125,9.6q-.808,1.665-1.235,2.548c-.278.575-.432.863-.432.863" transform="translate(13.981 3.505)" fill="#263238"/>
          </g>
        </g>
        <rect id="Rectángulo_373939" data-name="Rectángulo 373939" width="203.476" height="152.105" transform="translate(0.927 130.597)" fill="#fff"/>
        <rect id="Rectángulo_373940" data-name="Rectángulo 373940" width="203.476" height="18.801" transform="translate(0.285 130.597)" fill="#e0e0e0"/>
        <g id="Grupo_1064482" data-name="Grupo 1064482">
          <g id="Grupo_1064481" data-name="Grupo 1064481" clip-path="url(#clip-path)">
            <path id="Trazado_797959" data-name="Trazado 797959" d="M13.364,127.862a2.71,2.71,0,1,1-2.71-2.71,2.71,2.71,0,0,1,2.71,2.71" transform="translate(0.77 12.136)" fill="#fff"/>
            <path id="Trazado_797960" data-name="Trazado 797960" d="M21.692,127.862a2.71,2.71,0,1,1-2.71-2.71,2.71,2.71,0,0,1,2.71,2.71" transform="translate(1.578 12.136)" fill="#fff"/>
            <path id="Trazado_797961" data-name="Trazado 797961" d="M30.02,127.862a2.71,2.71,0,1,1-2.71-2.71,2.71,2.71,0,0,1,2.71,2.71" transform="translate(2.386 12.136)" fill="#fff"/>
            <path id="Trazado_797962" data-name="Trazado 797962" d="M203.762,271.182s-.018-.954-.025-2.783-.015-4.543-.027-8.079c-.013-7.079-.034-17.463-.059-30.726-.03-26.5-.071-64.5-.123-110.517l.235.235L.3,119.364H.286l.285-.286C.562,173.743.552,225.522.544,271.182l-.258-.258,146.869.128,41.715.069,11.064.031,2.852.014c.642.005.975.015.975.015s-.314.01-.946.015l-2.823.014-11.014.031-41.655.069L.286,271.44H.027v-.258C.02,225.522.01,173.743,0,119.077v-.285H.3l203.459.052H204v.234c-.05,46.076-.092,84.125-.122,110.664-.025,13.24-.046,23.607-.06,30.674-.011,3.517-.02,6.211-.026,8.034s-.025,2.734-.025,2.734" transform="translate(0 11.52)" fill="#263238"/>
            <path id="Trazado_797963" data-name="Trazado 797963" d="M191.521,202.641c0,.158-40.494.285-90.432.285-49.957,0-90.442-.127-90.442-.285s40.485-.285,90.442-.285c49.939,0,90.432.127,90.432.285" transform="translate(1.032 19.623)" fill="#e0e0e0"/>
            <path id="Trazado_797964" data-name="Trazado 797964" d="M191.521,188.406c0,.158-40.494.285-90.432.285-49.957,0-90.442-.127-90.442-.285s40.485-.285,90.442-.285c49.939,0,90.432.127,90.432.285" transform="translate(1.032 18.243)" fill="#e0e0e0"/>
            <path id="Trazado_797965" data-name="Trazado 797965" d="M191.521,174.172c0,.158-40.494.285-90.432.285-49.957,0-90.442-.127-90.442-.285s40.485-.285,90.442-.285c49.939,0,90.432.127,90.432.285" transform="translate(1.032 16.862)" fill="#e0e0e0"/>
            <path id="Trazado_797966" data-name="Trazado 797966" d="M191.521,159.937c0,.158-40.494.285-90.432.285-49.957,0-90.442-.127-90.442-.285s40.485-.285,90.442-.285c49.939,0,90.432.127,90.432.285" transform="translate(1.032 15.482)" fill="#e0e0e0"/>
            <rect id="Rectángulo_373941" data-name="Rectángulo 373941" width="15.047" height="30.262" transform="translate(26.986 215.187)" fill="#00a9ff"/>
            <rect id="Rectángulo_373942" data-name="Rectángulo 373942" width="15.047" height="30.262" transform="translate(80.994 215.187)" fill="#0050db"/>
            <rect id="Rectángulo_373943" data-name="Rectángulo 373943" width="15.047" height="19.946" transform="translate(162.916 225.503)" fill="#0050db"/>
            <rect id="Rectángulo_373944" data-name="Rectángulo 373944" width="15.047" height="44.594" transform="translate(135.001 200.855)" fill="#94e435"/>
            <rect id="Rectángulo_373945" data-name="Rectángulo 373945" width="15.047" height="61.955" transform="translate(107.39 183.494)" fill="#00a9ff"/>
            <rect id="Rectángulo_373946" data-name="Rectángulo 373946" width="15.047" height="44.594" transform="translate(52.913 200.855)" fill="#94e435"/>
            <path id="Trazado_797967" data-name="Trazado 797967" d="M189.411,230.978s-.228.02-.674.03l-1.976.027-7.6.054-27.938.091-92.172.083-48.619-.02h-.265v-.265c.042-23.969.078-44.4.1-58.86.032-7.2.058-12.921.076-16.859.018-1.942.032-3.445.042-4.483.01-.494.016-.875.022-1.154.008-.259.022-.391.022-.391s.015.132.023.391c.005.279.012.66.022,1.154.01,1.039.023,2.542.042,4.483.018,3.938.043,9.654.076,16.859.025,14.461.061,34.891.1,58.86l-.265-.265,48.619-.02,92.172.083,27.938.091,7.6.054,1.976.027c.445.01.674.03.674.03" transform="translate(0.986 14.471)" fill="#263238"/>
            <rect id="Rectángulo_373947" data-name="Rectángulo 373947" width="6.611" height="6.611" transform="translate(43.051 260.801)" fill="#00a9ff"/>
            <rect id="Rectángulo_373948" data-name="Rectángulo 373948" width="6.611" height="6.611" transform="translate(83.465 260.59)" fill="#94e435"/>
            <rect id="Rectángulo_373949" data-name="Rectángulo 373949" width="6.611" height="6.611" transform="translate(127.185 260.801)" fill="#0050db"/>
            <path id="Trazado_797968" data-name="Trazado 797968" d="M66.828,240.593a71.2,71.2,0,0,1-9,.285,71.193,71.193,0,0,1-9-.285,71.2,71.2,0,0,1,9-.285,71.2,71.2,0,0,1,9,.285" transform="translate(4.734 23.303)" fill="#263238"/>
            <path id="Trazado_797969" data-name="Trazado 797969" d="M103.389,240.593a71.2,71.2,0,0,1-9,.285,71.193,71.193,0,0,1-9-.285,71.2,71.2,0,0,1,9-.285,71.2,71.2,0,0,1,9,.285" transform="translate(8.28 23.303)" fill="#263238"/>
            <path id="Trazado_797970" data-name="Trazado 797970" d="M142.313,240.593a71.2,71.2,0,0,1-9,.285,71.193,71.193,0,0,1-9-.285,71.2,71.2,0,0,1,9-.285,71.2,71.2,0,0,1,9,.285" transform="translate(12.054 23.303)" fill="#263238"/>
          </g>
        </g>
        <rect id="Rectángulo_373951" data-name="Rectángulo 373951" width="70.308" height="70.308" transform="translate(105.984 83.066)" fill="#fff"/>
        <g id="Grupo_1064484" data-name="Grupo 1064484">
          <g id="Grupo_1064483" data-name="Grupo 1064483" clip-path="url(#clip-path)">
            <path id="Trazado_797971" data-name="Trazado 797971" d="M166.949,146.057s-.009-.12-.014-.34c0-.237-.008-.559-.013-.978-.007-.878-.016-2.142-.03-3.788-.014-3.323-.036-8.163-.064-14.312-.031-12.3-.075-29.849-.126-50.889l.247.247-70.3.038H96.64l.286-.285c-.014,25.744-.027,49.868-.038,70.307l-.248-.247,50.892.126,14.311.064,3.787.03.979.013c.221,0,.34.014.34.014a2.428,2.428,0,0,1-.313.014l-.951.013-3.74.03-14.255.064-51.05.126h-.247v-.248c-.011-20.439-.024-44.563-.038-70.307v-.286h.293l70.3.038h.248v.248c-.052,21.1-.1,38.7-.126,51.047-.027,6.125-.049,10.947-.065,14.256-.012,1.624-.022,2.874-.029,3.741-.005.407-.01.721-.013.951a2.724,2.724,0,0,1-.014.313" transform="translate(9.344 7.318)" fill="#263238"/>
            <path id="Trazado_797972" data-name="Trazado 797972" d="M134.377,109.805a11.333,11.333,0,0,0,6.753-10.484c.025-6.26-4.713-11.357-10.582-11.384S119.9,92.962,119.874,99.223a11.313,11.313,0,0,0,6.772,10.583c-16.356,2.464-15.613,20.24-15.613,20.24l38.676.178s.882-17.97-15.331-20.418" transform="translate(10.767 8.528)" fill="#00a9ff"/>
          </g>
        </g>
        <g id="Grupo_1064492" data-name="Grupo 1064492">
          <g id="Grupo_1064491" data-name="Grupo 1064491" clip-path="url(#clip-path)">
            <path id="Trazado_797973" data-name="Trazado 797973" d="M267.414,77.345a2.745,2.745,0,0,0-1.878-.813,9.957,9.957,0,0,0-5.84,1.13,8.534,8.534,0,0,0,1.18-10.215,9.638,9.638,0,0,0-9.529-4.319,11.092,11.092,0,0,0-8.294,6.634,13.093,13.093,0,0,0,.468,10.746l6.1,1.6a17.077,17.077,0,0,0,9.593,2.95,5.025,5.025,0,0,0,3.778-1.242c.92-1.008.766-2.986-.535-3.4a6.33,6.33,0,0,0,3.8.054c1.187-.5,1.97-2.12,1.162-3.123" transform="translate(23.479 6.112)" fill="#263238"/>
            <path id="Trazado_797974" data-name="Trazado 797974" d="M240.94,68.975a14.884,14.884,0,0,0-11.464,1.185A8.848,8.848,0,0,0,214.2,72.5a7.488,7.488,0,0,0-7.52,12.759,9.618,9.618,0,0,0-4.023,14.628c-2.882,1.4-3.375,5.3-2.95,8.473s1.339,6.575-.084,9.445c-1.1,2.216-3.367,3.586-4.918,5.513s-2.093,5.247.008,6.552a6.691,6.691,0,1,0,2.421,13.145,8.2,8.2,0,0,0,.872,7.867,13.213,13.213,0,0,0,6.577,4.795,19.658,19.658,0,0,0,21.475-6.056l23.673-73.194a14.883,14.883,0,0,0-8.794-7.448" transform="translate(18.321 6.473)" fill="#263238"/>
            <path id="Trazado_797975" data-name="Trazado 797975" d="M250.248,88.152l.316-3.949-23.475-5.946c-7.275-1.215-15.634,5.647-16.539,12.967-1.006,8.133-1.912,18.1-1.312,24.252,1.209,12.366,10.5,14.49,10.5,14.49l-.679,12.162,27.068,1.97Z" transform="translate(20.272 7.575)" fill="#ae7461"/>
            <path id="Trazado_797976" data-name="Trazado 797976" d="M213.033,100.06a1.574,1.574,0,0,0,1.419,1.676,1.505,1.505,0,0,0,1.7-1.319,1.573,1.573,0,0,0-1.416-1.677,1.506,1.506,0,0,0-1.707,1.32" transform="translate(20.658 9.574)" fill="#263238"/>
            <path id="Trazado_797977" data-name="Trazado 797977" d="M212.494,95.082c.182.216,1.426-.592,3.115-.486,1.69.081,2.878,1.026,3.074.829.1-.086-.08-.467-.6-.894a4.312,4.312,0,0,0-2.445-.917,4.143,4.143,0,0,0-2.5.643c-.544.367-.742.727-.652.825" transform="translate(20.604 9.077)" fill="#263238"/>
            <path id="Trazado_797978" data-name="Trazado 797978" d="M227.022,100.818a1.575,1.575,0,0,0,1.419,1.676,1.507,1.507,0,0,0,1.7-1.319,1.575,1.575,0,0,0-1.418-1.677,1.506,1.506,0,0,0-1.706,1.32" transform="translate(22.014 9.648)" fill="#263238"/>
            <path id="Trazado_797979" data-name="Trazado 797979" d="M227.624,96.281c.183.216,1.427-.592,3.115-.487,1.69.082,2.878,1.027,3.075.83.094-.087-.079-.467-.6-.893a4.3,4.3,0,0,0-2.445-.918,4.143,4.143,0,0,0-2.5.643c-.542.367-.742.727-.652.825" transform="translate(22.071 9.194)" fill="#263238"/>
            <path id="Trazado_797980" data-name="Trazado 797980" d="M221.716,108.483a11.254,11.254,0,0,0-2.716-.66c-.429-.07-.833-.181-.887-.479a2.21,2.21,0,0,1,.365-1.263l1.474-3.21c2.055-4.573,3.57-8.344,3.384-8.425s-2,3.56-4.054,8.133q-.744,1.692-1.422,3.233a2.5,2.5,0,0,0-.326,1.681,1.086,1.086,0,0,0,.672.674,2.91,2.91,0,0,0,.726.146,11.033,11.033,0,0,0,2.783.171" transform="translate(21.09 9.159)" fill="#263238"/>
            <path id="Trazado_797981" data-name="Trazado 797981" d="M218.814,125.713a32.5,32.5,0,0,0,17.088-3.389s-4.653,8.327-17.263,6.443Z" transform="translate(21.202 11.862)" fill="#6f4439"/>
            <path id="Trazado_797982" data-name="Trazado 797982" d="M227.979,90.944c.167.461,1.858.242,3.845.482,1.991.2,3.594.781,3.857.369.117-.2-.161-.631-.81-1.077A6.737,6.737,0,0,0,229,90.07c-.729.294-1.1.656-1.025.874" transform="translate(22.107 8.696)" fill="#263238"/>
            <path id="Trazado_797983" data-name="Trazado 797983" d="M212.868,91.273c.271.4,1.462.086,2.863.163,1.4.029,2.567.437,2.867.054.133-.186-.027-.584-.52-.983a4.155,4.155,0,0,0-4.617-.176c-.522.361-.712.745-.593.941" transform="translate(20.639 8.7)" fill="#263238"/>
            <path id="Trazado_797984" data-name="Trazado 797984" d="M210.829,82.715a20.567,20.567,0,0,1,11.183-7.383l19.832,2.495,1.688-.03c.372-1.249,2.479-1.9,2.479-1.9,1.864-1.429,8.319-1.507,12.818,3.2,1.624,1.7,2.776,5.964,2.814,8.312.014.889-.938,2.107-.2,2.6a22.719,22.719,0,0,0,2.707.192c5.044,1.1,8.2,5.577,7.283,12.264a3.4,3.4,0,0,0-.109,1.009,2.761,2.761,0,0,0,.884,1.314,8.754,8.754,0,0,1,1.39,9.741,10.364,10.364,0,0,0-1.349,2.923c-.306,1.908,1.087,3.608,2.167,5.21,3.236,4.8,3.93,11.785.133,16.157-.924,1.064-2.114,2.012-2.459,3.376a8.088,8.088,0,0,0-.109,2.056c.024,3.489-1.817,7.395-5.227,8.131-1.894.408-4.194-.126-5.541,1.266a8.22,8.22,0,0,0-1.209,2.21,7.079,7.079,0,0,1-8.156,3.51c-3.077-.95-4.1-13.435-3.652-16.625-3.726-1.354-6.485-1.594-6.311-5.556,0,0,.576-6.819-.528-10.14s1.11-10.391,2.373-13.824-.242-11.425-.58-14.6a11.569,11.569,0,0,1,.263-2.718v0l0-.01c.137-.772.318-1.642.531-2.575.078-.869.793-5.507.781-6.319-.049-3-3.778-1.4-6.626-.441a7.3,7.3,0,0,1-2.136.385,7.6,7.6,0,0,1-6.124-2.9,10.949,10.949,0,0,1-10.807,2.955,29.8,29.8,0,0,1-5.126,5.963,10.041,10.041,0,0,1-7.264,2.5,20.569,20.569,0,0,1,4.181-12.731" transform="translate(20.039 7.276)" fill="#263238"/>
            <path id="Trazado_797985" data-name="Trazado 797985" d="M222.471,111.089a2.992,2.992,0,0,1,2.622-1.244,2.731,2.731,0,0,1,1.934.916,1.73,1.73,0,0,1,.231,1.969,2.007,2.007,0,0,1-2.146.658,6.281,6.281,0,0,1-2.183-1.157,1.842,1.842,0,0,1-.5-.467.554.554,0,0,1-.029-.617" transform="translate(21.559 10.652)" fill="#6f4439"/>
            <path id="Trazado_797986" data-name="Trazado 797986" d="M226.584,108.192c-.27,0-.183,1.8-1.66,3.152s-3.4,1.253-3.4,1.505c-.02.114.444.328,1.255.309A4.488,4.488,0,0,0,225.622,112a3.908,3.908,0,0,0,1.277-2.637c.031-.756-.192-1.191-.315-1.175" transform="translate(21.482 10.492)" fill="#263238"/>
            <path id="Trazado_797987" data-name="Trazado 797987" d="M193.9,402.422l2.231,23.244s-25.335,9.465-25.61,14.148l47.9.131-.027-3.5-2.009-11.958-2.961-23.226Z" transform="translate(16.536 38.911)" fill="#455a64"/>
            <path id="Trazado_797988" data-name="Trazado 797988" d="M207.22,420.227a2,2,0,0,1,1.39,2.281,1.923,1.923,0,0,1-2.249,1.4,2.111,2.111,0,0,1-1.459-2.423,2,2,0,0,1,2.5-1.195" transform="translate(19.863 40.743)" fill="#e0e0e0"/>
            <path id="Trazado_797989" data-name="Trazado 797989" d="M218.419,436.834l-.027-3.5-45.941.881s-2.18.955-1.93,2.491Z" transform="translate(16.534 42.022)" fill="#263238"/>
            <path id="Trazado_797990" data-name="Trazado 797990" d="M193.141,423.3c.009.239,1.206.344,2.385,1.111,1.2.736,1.81,1.772,2.029,1.676.221-.047-.139-1.478-1.584-2.38s-2.883-.626-2.83-.407" transform="translate(18.729 41.027)" fill="#263238"/>
            <path id="Trazado_797991" data-name="Trazado 797991" d="M188.459,425.242c-.054.233.983.636,1.8,1.647.845.986,1.053,2.081,1.291,2.069.225.038.387-1.365-.651-2.6s-2.435-1.343-2.44-1.115" transform="translate(18.275 41.228)" fill="#263238"/>
            <path id="Trazado_797992" data-name="Trazado 797992" d="M185.982,431.214c.217.05.547-1.146-.07-2.455s-1.739-1.829-1.84-1.629c-.135.2.593.9,1.085,1.981.516,1.071.587,2.08.825,2.1" transform="translate(17.849 41.416)" fill="#263238"/>
            <path id="Trazado_797993" data-name="Trazado 797993" d="M191.593,418.265c.1.218,1.2-.115,2.552-.026,1.355.06,2.409.512,2.533.307.138-.174-.892-1.057-2.488-1.139s-2.715.67-2.6.858" transform="translate(18.579 40.477)" fill="#263238"/>
            <path id="Trazado_797994" data-name="Trazado 797994" d="M247.539,403.009l2.052,22.848S224.645,435,224.346,439.6l47.055.417-.005-3.441-1.9-11.76-2.769-22.836Z" transform="translate(21.756 38.982)" fill="#455a64"/>
            <path id="Trazado_797995" data-name="Trazado 797995" d="M260.5,420.6a1.966,1.966,0,0,1,1.352,2.249,1.889,1.889,0,0,1-2.217,1.359,2.074,2.074,0,0,1-1.419-2.389,1.962,1.962,0,0,1,2.464-1.158" transform="translate(25.033 40.779)" fill="#e0e0e0"/>
            <path id="Trazado_797996" data-name="Trazado 797996" d="M271.4,436.96l-.005-3.441-45.138.588s-2.147.925-1.91,2.436Z" transform="translate(21.754 42.04)" fill="#263238"/>
            <path id="Trazado_797997" data-name="Trazado 797997" d="M246.649,423.54c.007.236,1.183.346,2.337,1.106,1.174.731,1.766,1.752,1.983,1.659.217-.045-.128-1.451-1.542-2.348s-2.828-.633-2.778-.417" transform="translate(23.918 41.051)" fill="#263238"/>
            <path id="Trazado_797998" data-name="Trazado 797998" d="M242.038,425.417c-.055.227.962.631,1.757,1.629.824.974,1.022,2.05,1.256,2.04.22.038.388-1.339-.623-2.56s-2.384-1.333-2.39-1.109" transform="translate(23.471 41.245)" fill="#263238"/>
            <path id="Trazado_797999" data-name="Trazado 797999" d="M239.567,431.269c.214.05.545-1.122-.054-2.412s-1.7-1.807-1.8-1.611c-.133.193.578.886,1.054,1.953.5,1.055.564,2.047.8,2.071" transform="translate(23.05 41.428)" fill="#263238"/>
            <path id="Trazado_798000" data-name="Trazado 798000" d="M245.159,418.58c.1.215,1.178-.105,2.507-.011,1.331.068,2.363.519,2.487.317.136-.17-.87-1.043-2.437-1.133s-2.671.642-2.556.827" transform="translate(23.773 40.51)" fill="#263238"/>
            <path id="Trazado_798001" data-name="Trazado 798001" d="M191.945,218.045s-11.354,32.881-11.744,57.341-.783,63.356,4.306,106.262,7.439,60.148,7.439,60.148h25.838s2.74-26.866,2.349-50.926-2.272-31.677.038-58.143,5.968-42.362,9.817-50.381c0,0,10.665-12.678,11.448-30.069a84.812,84.812,0,0,0-5.372-32.337Z" transform="translate(17.454 21.145)" fill="#263238"/>
            <path id="Trazado_798002" data-name="Trazado 798002" d="M211.819,264.044c.43,1.321,8.1,55.228,13.69,79.005s11.817,30.07,12.908,49.412c1.255,22.247,7.363,49.2,7.363,49.2h27.513s-3.869-41.12-7.738-73.264-9.458-71.773-8.6-83.661,3.009-26.571,0-43.227-9.515-21.048-9.515-21.048L224.1,219.408Z" transform="translate(20.541 21.277)" fill="#263238"/>
            <path id="Trazado_798003" data-name="Trazado 798003" d="M237.107,231.99a5.772,5.772,0,0,1,.427.837,16.581,16.581,0,0,1,.934,2.531,33.525,33.525,0,0,1,.907,9.854,65,65,0,0,1-2.262,14.506,46.622,46.622,0,0,1-3,8.161,58.127,58.127,0,0,1-4.971,7.888c-3.74,5.151-5.587,11.019-6.986,16.319a116.293,116.293,0,0,0-2.611,14.384c-.508,4.138-.813,7.5-1.041,9.823q-.168,1.68-.269,2.674a5.684,5.684,0,0,1-.132.929,5.782,5.782,0,0,1,.016-.938q.059-1,.161-2.683c.159-2.329.4-5.7.859-9.853a110.58,110.58,0,0,1,2.5-14.467,70.343,70.343,0,0,1,2.6-8.289,41.11,41.11,0,0,1,1.921-4.194,43.377,43.377,0,0,1,2.5-4.031,58.486,58.486,0,0,0,4.939-7.813,46.656,46.656,0,0,0,3-8.053,66.612,66.612,0,0,0,2.367-14.381,35.041,35.041,0,0,0-.717-9.782,19.641,19.641,0,0,0-.824-2.541,5.84,5.84,0,0,1-.319-.883" transform="translate(21.149 22.497)" fill="#455a64"/>
            <path id="Trazado_798004" data-name="Trazado 798004" d="M136.483,159.174c4.744,2.838,13.314,5.493,13.314,5.493l9.606-7.678s-6.871-12.558-9.084-16.117a19.02,19.02,0,0,1-1.791-3.8c-.743-2.673-2.7-1.536-3.066.57a11.453,11.453,0,0,0,.6,3.389,9.934,9.934,0,0,1,.67,4.072s-.7-.6-2.428-1.758c-1.88-1.266-8.238-6.566-10.924-8.786-4.012-3.316-6.034-1.26-5.51.021.651,1.594,10.61,8.567,10.253,9.761,0,0-1.917,1.089-2.188,2.331a6.3,6.3,0,0,0,.019,2.47s-1.8.176-2.277,1.33a4.484,4.484,0,0,0,.136,2.779s-1.665.156-1.857,1.061.961,2.728,4.529,4.862" transform="translate(12.392 12.875)" fill="#ae7461"/>
            <path id="Trazado_798005" data-name="Trazado 798005" d="M156.4,153.706c.145.434,20.6,21.376,20.6,21.376s17.069-19.228,22.264-26.3,13.077-15.747,19.861-17.371,16.21,2.746,16.21,2.746L223.32,158.865l-15.17,20.857s-16.392,20.589-24.186,23.765-15.43-1.385-18.749-4.85-23.014-33.4-23.014-33.4Z" transform="translate(13.79 12.708)" fill="#ffc401"/>
            <path id="Trazado_798006" data-name="Trazado 798006" d="M265.7,139.535l-47.067-8.156s-13.068,23.008-17.957,47.184-10.461,48.329-10.461,48.329l43.475,5.357a50.105,50.105,0,0,0,13.618-.188l4.531-.684-3.724-15.351c6.214-15.516,10.748-28.771,13.441-39.718,5.843-23.752,4.144-36.773,4.144-36.773" transform="translate(18.446 12.74)" fill="#ffc401"/>
            <path id="Trazado_798007" data-name="Trazado 798007" d="M216.962,159.771a5.508,5.508,0,0,1-.765,1.03l-2.207,2.7c-1.865,2.275-4.391,5.457-7.19,8.972s-5.382,6.663-7.33,8.877c-.972,1.108-1.775,1.99-2.35,2.581a5.531,5.531,0,0,1-.934.882,5.449,5.449,0,0,1,.766-1.03l2.206-2.7c1.865-2.275,4.392-5.457,7.191-8.973s5.382-6.662,7.329-8.876c.972-1.108,1.775-1.99,2.351-2.581a5.508,5.508,0,0,1,.932-.882" transform="translate(19.025 15.493)" fill="#263238"/>
            <path id="Trazado_798008" data-name="Trazado 798008" d="M244.177,209.182a12.762,12.762,0,0,1-2.953.849,43.763,43.763,0,0,1-14.77.569,12.784,12.784,0,0,1-3.009-.619,22.714,22.714,0,0,1,3.052.217,59.153,59.153,0,0,0,14.653-.565,22.738,22.738,0,0,1,3.027-.452" transform="translate(21.668 20.283)" fill="#263238"/>
            <path id="Trazado_798009" data-name="Trazado 798009" d="M173.525,183.611a31.283,31.283,0,0,1-.2-5.963,31.343,31.343,0,0,1,.371-5.957,31.3,31.3,0,0,1,.2,5.964,31.338,31.338,0,0,1-.371,5.955" transform="translate(16.807 16.649)" fill="#263238"/>
            <g id="Grupo_1064487" data-name="Grupo 1064487" transform="translate(252.883 154.992)" opacity="0.3">
              <g id="Grupo_1064486" data-name="Grupo 1064486">
                <g id="Grupo_1064485" data-name="Grupo 1064485" clip-path="url(#clip-path-9)">
                  <path id="Trazado_798010" data-name="Trazado 798010" d="M260.276,143.914l-29.409-2.623a4.907,4.907,0,0,0,3.114,6.409,9.52,9.52,0,0,0,7.555,14.2,8.8,8.8,0,0,1,2.344.292c1.63.587,2.41,2.377,3.389,3.807a8.906,8.906,0,0,0,5.483,3.8,6.5,6.5,0,0,0,6.187-2.052c1.441-1.753,1.682-4.175,1.794-6.441a114.647,114.647,0,0,0-.456-17.39" transform="translate(-230.528 -141.291)"/>
                </g>
              </g>
            </g>
            <g id="Grupo_1064490" data-name="Grupo 1064490" transform="translate(217.343 176.975)" opacity="0.3">
              <g id="Grupo_1064489" data-name="Grupo 1064489">
                <g id="Grupo_1064488" data-name="Grupo 1064488" clip-path="url(#clip-path-10)">
                  <path id="Trazado_798011" data-name="Trazado 798011" d="M198.13,182.573a20.771,20.771,0,0,0,16.627-21.243c-6.156,6.675-11.348,15.228-16.627,21.243" transform="translate(-198.13 -161.33)"/>
                </g>
              </g>
            </g>
            <path id="Trazado_798012" data-name="Trazado 798012" d="M267.081,129.627l-25.1-27.929c.918,7.088-1.753,14.14-4.962,20.525-1.826,3.634-3.865,7.957-1.946,11.545a23.787,23.787,0,0,0-4.145,5.661,8.044,8.044,0,0,0-.27,6.808c1.033,2.109,3.652,3.492,5.844,2.649a7.655,7.655,0,0,0,10.558,9.5,12.139,12.139,0,0,0,4.693,7.311,8.053,8.053,0,0,0,8.406.55c2.553-1.505,3.847-5.042,2.478-7.669,5.521-1.221,8.971-7.172,9.135-12.825s-2.21-11.043-4.7-16.123" transform="translate(22.306 9.862)" fill="#263238"/>
            <path id="Trazado_798013" data-name="Trazado 798013" d="M217.029,86.606c.007.019-.134.075-.415.166a3.5,3.5,0,0,1-1.278.089,5.075,5.075,0,0,1-3.8-2.614,4.907,4.907,0,0,1-.525-3.239,6.573,6.573,0,0,1,1.724-3.347,7.147,7.147,0,0,1,3.6-2.069,9.673,9.673,0,0,1,4.449.045,12.4,12.4,0,0,1,2.444.868l-.386.15a10.282,10.282,0,0,1,5.257-5.417,9.906,9.906,0,0,1,9.784,1.011,6.608,6.608,0,0,1,.841.708c.177.179.262.278.25.291-.033.036-.417-.32-1.208-.827a10.358,10.358,0,0,0-3.681-1.441,9.489,9.489,0,0,0-5.776.719,9.879,9.879,0,0,0-4.941,5.169l-.113.279-.273-.129a12.019,12.019,0,0,0-2.329-.823,9.218,9.218,0,0,0-4.188-.057,6.658,6.658,0,0,0-3.351,1.888,6.14,6.14,0,0,0-1.638,3.067,4.512,4.512,0,0,0,.415,2.965,4.933,4.933,0,0,0,3.471,2.584,5.846,5.846,0,0,0,1.664-.034" transform="translate(20.455 6.825)" fill="#455a64"/>
            <path id="Trazado_798014" data-name="Trazado 798014" d="M267.17,103.724c-.045-.022.211-.518.478-1.48a9.931,9.931,0,0,0,.222-4.192,9.048,9.048,0,0,0-2.939-5.412,9.525,9.525,0,0,0-7.186-2.34l-.42.044.118-.408a11.276,11.276,0,0,0,.431-2.578,11.7,11.7,0,0,0-2.725-8.09,11.235,11.235,0,0,0-6.036-3.611,12.1,12.1,0,0,0-4.826-.149c-1.134.2-1.739.44-1.757.387a1.476,1.476,0,0,1,.424-.205,8.409,8.409,0,0,1,1.289-.4,11.772,11.772,0,0,1,11.3,3.636,12.1,12.1,0,0,1,2.9,8.461,11.779,11.779,0,0,1-.46,2.713l-.3-.363a9.942,9.942,0,0,1,7.583,2.527A9.316,9.316,0,0,1,268.247,98a9.516,9.516,0,0,1-.4,4.308,6.585,6.585,0,0,1-.459,1.076c-.128.234-.2.351-.218.343" transform="translate(23.519 7.274)" fill="#455a64"/>
            <path id="Trazado_798015" data-name="Trazado 798015" d="M229.507,85.266c-.014.024-.29-.077-.7-.4a4.9,4.9,0,0,1-1.342-1.758,5.754,5.754,0,0,1-.452-3.262,6.127,6.127,0,0,1,1.968-3.519,6.965,6.965,0,0,1,3.635-1.731,7.977,7.977,0,0,1,5.285,1.088c.44.274.648.473.63.5a20.989,20.989,0,0,0-2.741-.983,8.054,8.054,0,0,0-3.088-.086,6.689,6.689,0,0,0-3.337,1.634,5.781,5.781,0,0,0-1.833,3.183,5.586,5.586,0,0,0,.3,3.014,7.011,7.011,0,0,0,1.671,2.321" transform="translate(22.008 7.225)" fill="#455a64"/>
            <path id="Trazado_798016" data-name="Trazado 798016" d="M243.516,147.493c-.012.015-.132-.058-.35-.215a7.158,7.158,0,0,1-.892-.766,10.3,10.3,0,0,1-2.527-10.045,10.571,10.571,0,0,1,4.931-6.045,10.006,10.006,0,0,1,3.083-1.126l-.158.467a7.98,7.98,0,0,1-1.916-6.383,7.445,7.445,0,0,1,2.621-4.676,7.563,7.563,0,0,1,3.192-1.6,5.053,5.053,0,0,1,.953-.137c.219-.008.333,0,.335.014,0,.046-.452.083-1.236.317a7.956,7.956,0,0,0-3,1.692,7.168,7.168,0,0,0-2.373,4.461,7.546,7.546,0,0,0,1.841,5.937l.34.375-.5.093a9.529,9.529,0,0,0-2.9,1.07,10.167,10.167,0,0,0-4.708,5.7,9.931,9.931,0,0,0,.1,6.1,10.779,10.779,0,0,0,2.083,3.636c.666.747,1.113,1.089,1.079,1.132" transform="translate(23.209 11.342)" fill="#455a64"/>
            <path id="Trazado_798017" data-name="Trazado 798017" d="M243.706,89.089l-.783-3.541a25.871,25.871,0,0,0-2.521,16.62c.485,2.61,1.354,5.409.224,7.81-.772,1.64-2.354,2.763-3.259,4.333-1.146,1.987-.3,7.219-.6,8.249-.67,2.348-2.943,3.846-3.479,6.682s.146,6.262,2.693,7.617c4.8-7.91,9.7-16.13,10.833-25.312.929-7.561-.794-15.2-3.112-22.459" transform="translate(22.607 8.296)" fill="#263238"/>
            <path id="Trazado_798018" data-name="Trazado 798018" d="M256.93,107.917a1.078,1.078,0,0,1-.409.023,8.8,8.8,0,0,1-1.165-.122,8.008,8.008,0,0,1-3.928-1.767,6.088,6.088,0,0,1-1.717-2.495,4.645,4.645,0,0,1,.059-3.488,4.259,4.259,0,0,1,2.961-2.467,3.108,3.108,0,0,1,2.114.3,1.977,1.977,0,0,1,1.023,1.992,1.611,1.611,0,0,1-.643,1.036,2.129,2.129,0,0,1-1.1.349,4.106,4.106,0,0,1-2.045-.488,9.822,9.822,0,0,1-3-2.369,9.707,9.707,0,0,1-1.617-10.152,7.878,7.878,0,0,1,.541-1.04c.147-.224.233-.336.249-.326.045.025-.245.507-.582,1.447a10.178,10.178,0,0,0-.561,4.134,9.6,9.6,0,0,0,5.223,7.806,3.58,3.58,0,0,0,1.763.421A1.167,1.167,0,0,0,255.3,99.8a1.41,1.41,0,0,0-.743-1.409,2.566,2.566,0,0,0-1.724-.245,3.75,3.75,0,0,0-2.588,2.135,4.184,4.184,0,0,0-.091,3.114,5.76,5.76,0,0,0,1.54,2.352,8.26,8.26,0,0,0,3.7,1.85c.973.226,1.534.268,1.529.316" transform="translate(23.923 8.427)" fill="#455a64"/>
          </g>
        </g>
      </g>
    </g>
    <path id="Trazado_798334" data-name="Trazado 798334" d="M190.5,32.153H130.917a7.319,7.319,0,1,1,0-14.639H190.5a7.319,7.319,0,0,1,0,14.639" transform="translate(597.514 2605.678) rotate(90)" fill="#94e435"/>
    <path id="Trazado_798336" data-name="Trazado 798336" d="M190.5,32.153H130.917a7.319,7.319,0,1,1,0-14.639H190.5a7.319,7.319,0,0,1,0,14.639" transform="translate(411.211 2497.22) rotate(180)" fill="#ff3e72"/>
    <path id="Trazado_798335" data-name="Trazado 798335" d="M317.363,27.785A21.984,21.984,0,1,1,295.38,5.8a21.984,21.984,0,0,1,21.983,21.984" transform="translate(-66.861 2696.635)" fill="#ffc401"/>
    <path id="Trazado_798337" data-name="Trazado 798337" d="M297.8,18A12.2,12.2,0,1,1,285.6,5.8,12.2,12.2,0,0,1,297.8,18" transform="translate(251.703 2765.199)" fill="#00a9ff"/>
  </g>
</svg>
