<svg xmlns="http://www.w3.org/2000/svg" width="374" height="347.922" viewBox="0 0 374 347.922">
  <g id="SEO-bro" transform="translate(-12.5 -34.81)">
    <g id="freepik--Floor--inject-2" transform="translate(13 343.482)">
      <line id="Línea_1618" data-name="Línea 1618" x2="365.353" fill="none" stroke="#263238" stroke-linecap="round" stroke-linejoin="round" stroke-width="1"/>
    </g>
    <g id="freepik--Cloud--inject-2" transform="translate(313.473 35.321)">
      <path id="Trazado_798977" data-name="Trazado 798977" d="M429.582,50.448v-.664a14.448,14.448,0,0,0-28.366-3.891,9.2,9.2,0,0,0-.063,18.291v.055h28.287a6.9,6.9,0,0,0,.111-13.792Z" transform="translate(-392.957 -35.321)" fill="#fff" stroke="#263238" stroke-linecap="round" stroke-linejoin="round" stroke-width="1"/>
      <path id="Trazado_798978" data-name="Trazado 798978" d="M426.117,65.187,417.569,53.61,409.02,65.187h3.337v5.7H422.78v-5.7Z" transform="translate(-396.317 -39.147)" fill="#263238" stroke="#263238" stroke-linecap="round" stroke-linejoin="round" stroke-width="1"/>
    </g>
    <g id="freepik--Gears--inject-2" transform="translate(26.23 45.13)">
      <path id="Trazado_798979" data-name="Trazado 798979" d="M65.467,102.291H62.161a13.23,13.23,0,0,0-1.7-4.017l2.428-2.436a3.014,3.014,0,0,0-4.262-4.262l-2.459,2.459a13.665,13.665,0,0,0-3.954-1.582V88.832a3.021,3.021,0,0,0-6.034,0v3.6a13.127,13.127,0,0,0-3.859,1.582l-2.594-2.594a3.021,3.021,0,0,0-4.27,0h0a3.029,3.029,0,0,0,0,4.262L38,98.219a13.286,13.286,0,0,0-1.684,3.843H32.751a3.021,3.021,0,0,0-3.021,3.021h0a3.021,3.021,0,0,0,3.021,3.013h3.456a13.1,13.1,0,0,0,1.582,4.017l-2.467,2.428a3.014,3.014,0,0,0,4.262,4.262l2.325-2.317a13.3,13.3,0,0,0,4.065,1.787v3.306a3.021,3.021,0,1,0,6.034,0v-3.163a13.159,13.159,0,0,0,4.183-1.677l2.27,2.27a3.013,3.013,0,0,0,4.262,0h0a3.021,3.021,0,0,0,0-4.27l-2.246-2.246a13.27,13.27,0,0,0,1.716-4.136h3.274a3.021,3.021,0,0,0,0-6.034Zm-16.243,10.28a2.99,2.99,0,1,1,0,.024Z" transform="translate(-29.73 -55.725)" fill="none" stroke="#263238" stroke-linecap="round" stroke-linejoin="round" stroke-width="1"/>
      <path id="Trazado_798980" data-name="Trazado 798980" d="M90.7,64.051H87.423a13.23,13.23,0,0,0-1.7-4.017L88.159,57.6a3.017,3.017,0,1,0-4.27-4.262L81.429,55.8a13.444,13.444,0,0,0-3.954-1.582V50.592a3.021,3.021,0,0,0-6.034,0v3.6a13.127,13.127,0,0,0-3.859,1.582l-2.594-2.594a3.013,3.013,0,0,0-4.262,0h0a3.013,3.013,0,0,0,0,4.262l2.538,2.538a13.286,13.286,0,0,0-1.684,3.843h-3.6A3.021,3.021,0,0,0,55,66.835h0a3.021,3.021,0,0,0,3.021,3.013h3.456a13.294,13.294,0,0,0,1.582,4.017L60.536,76.3a3.017,3.017,0,0,0,4.27,4.262l2.325-2.317a13.175,13.175,0,0,0,4.057,1.787v3.274a3.021,3.021,0,1,0,6.034,0V80.144a13.08,13.08,0,0,0,4.183-1.677l2.27,2.27a3.013,3.013,0,0,0,4.262,0h0a3.021,3.021,0,0,0,0-4.27l-2.246-2.246a13.27,13.27,0,0,0,1.732-4.136H90.7a3.021,3.021,0,0,0,0-6.034ZM74.462,74.332a2.989,2.989,0,1,1,0,.024Z" transform="translate(-35.016 -47.725)" fill="none" stroke="#263238" stroke-linecap="round" stroke-linejoin="round" stroke-width="1"/>
    </g>
    <g id="freepik--Codes--inject-2" transform="translate(15.135 177.555)">
      <path id="Trazado_798981" data-name="Trazado 798981" d="M18.049,215.18H47.427a2.372,2.372,0,0,1,2.372,2.372v34.574a4.262,4.262,0,0,1-4.262,4.262H19.962a4.262,4.262,0,0,1-4.262-4.262v-34.6A2.372,2.372,0,0,1,18.049,215.18Z" transform="translate(-15.7 -215.18)" fill="#fff" stroke="#263238" stroke-linecap="round" stroke-linejoin="round" stroke-width="1"/>
      <path id="Trazado_798982" data-name="Trazado 798982" d="M18.051,215.18H47.429a2.372,2.372,0,0,1,2.372,2.372v1.811H15.71v-1.811a2.372,2.372,0,0,1,2.341-2.372Z" transform="translate(-15.702 -215.18)" fill="#263238" stroke="#263238" stroke-linecap="round" stroke-linejoin="round" stroke-width="1"/>
      <path id="Trazado_798983" data-name="Trazado 798983" d="M47.7,217.617a1.107,1.107,0,1,0-1.107,1.107,1.107,1.107,0,0,0,1.107-1.107Z" transform="translate(-21.932 -215.458)" fill="#fff" stroke="#263238" stroke-linecap="round" stroke-linejoin="round" stroke-width="1"/>
      <path id="Trazado_798984" data-name="Trazado 798984" d="M52.184,217.617a1.107,1.107,0,1,0-1.107,1.107A1.107,1.107,0,0,0,52.184,217.617Z" transform="translate(-22.869 -215.458)" fill="#fff" stroke="#263238" stroke-linecap="round" stroke-linejoin="round" stroke-width="1"/>
      <path id="Trazado_798985" data-name="Trazado 798985" d="M56.67,217.613a1.115,1.115,0,1,0-1.115,1.107,1.115,1.115,0,0,0,1.115-1.107Z" transform="translate(-23.804 -215.454)" fill="#fff" stroke="#263238" stroke-linecap="round" stroke-linejoin="round" stroke-width="1"/>
      <path id="Trazado_798986" data-name="Trazado 798986" d="M30.526,226.42l-5.836,4.618,5.836,4.618" transform="translate(-17.581 -217.531)" fill="none" stroke="#263238" stroke-linecap="round" stroke-linejoin="round" stroke-width="3"/>
      <path id="Trazado_798987" data-name="Trazado 798987" d="M42.2,226.42l5.836,4.618L42.2,235.657" transform="translate(-21.244 -217.531)" fill="none" stroke="#263238" stroke-linecap="round" stroke-linejoin="round" stroke-width="3"/>
      <line id="Línea_1619" data-name="Línea 1619" x1="1.763" y2="11.135" transform="translate(15.935 7.805)" fill="none" stroke="#263238" stroke-linecap="round" stroke-linejoin="round" stroke-width="3"/>
      <line id="Línea_1620" data-name="Línea 1620" x2="6.445" transform="translate(24.128 24.215)" fill="none" stroke="#263238" stroke-linecap="round" stroke-linejoin="round" stroke-width="1"/>
      <line id="Línea_1621" data-name="Línea 1621" x2="8.383" transform="translate(14.567 24.215)" fill="none" stroke="#263238" stroke-linecap="round" stroke-linejoin="round" stroke-width="1"/>
      <line id="Línea_1622" data-name="Línea 1622" x2="5.204" transform="translate(7.521 24.215)" fill="none" stroke="#263238" stroke-linecap="round" stroke-linejoin="round" stroke-width="1"/>
      <line id="Línea_1623" data-name="Línea 1623" x2="2.436" transform="translate(3.914 24.215)" fill="none" stroke="#263238" stroke-linecap="round" stroke-linejoin="round" stroke-width="1"/>
      <line id="Línea_1624" data-name="Línea 1624" x2="3.764" transform="translate(26.808 28.018)" fill="none" stroke="#263238" stroke-linecap="round" stroke-linejoin="round" stroke-width="1"/>
      <line id="Línea_1625" data-name="Línea 1625" x2="16.939" transform="translate(8.027 28.018)" fill="none" stroke="#263238" stroke-linecap="round" stroke-linejoin="round" stroke-width="1"/>
      <line id="Línea_1626" data-name="Línea 1626" x2="2.096" transform="translate(3.914 28.018)" fill="none" stroke="#263238" stroke-linecap="round" stroke-linejoin="round" stroke-width="1"/>
      <line id="Línea_1627" data-name="Línea 1627" x2="12.819" transform="translate(17.754 31.83)" fill="none" stroke="#263238" stroke-linecap="round" stroke-linejoin="round" stroke-width="1"/>
      <line id="Línea_1628" data-name="Línea 1628" x2="8.383" transform="translate(7.022 31.83)" fill="none" stroke="#263238" stroke-linecap="round" stroke-linejoin="round" stroke-width="1"/>
      <line id="Línea_1629" data-name="Línea 1629" x2="1.763" transform="translate(3.914 31.83)" fill="none" stroke="#263238" stroke-linecap="round" stroke-linejoin="round" stroke-width="1"/>
      <line id="Línea_1630" data-name="Línea 1630" x2="3.598" transform="translate(26.974 35.642)" fill="none" stroke="#263238" stroke-linecap="round" stroke-linejoin="round" stroke-width="1"/>
      <line id="Línea_1631" data-name="Línea 1631" x2="10.233" transform="translate(14.733 35.642)" fill="none" stroke="#263238" stroke-linecap="round" stroke-linejoin="round" stroke-width="1"/>
      <line id="Línea_1632" data-name="Línea 1632" x2="8.81" transform="translate(3.914 35.642)" fill="none" stroke="#263238" stroke-linecap="round" stroke-linejoin="round" stroke-width="1"/>
      <path id="Trazado_798988" data-name="Trazado 798988" d="M32.9,224.7H62.277a2.372,2.372,0,0,1,2.372,2.372v34.606a4.262,4.262,0,0,1-4.262,4.262H34.812a4.262,4.262,0,0,1-4.262-4.262V227.049A2.372,2.372,0,0,1,32.9,224.7Z" transform="translate(-18.807 -217.172)" fill="#fff" stroke="#263238" stroke-linecap="round" stroke-linejoin="round" stroke-width="1"/>
      <path id="Trazado_798989" data-name="Trazado 798989" d="M32.9,224.7H62.277a2.372,2.372,0,0,1,2.372,2.372v1.819H30.55V227.08A2.372,2.372,0,0,1,32.9,224.7Z" transform="translate(-18.807 -217.172)" fill="#263238" stroke="#263238" stroke-linecap="round" stroke-linejoin="round" stroke-width="1"/>
      <circle id="Elipse_4792" data-name="Elipse 4792" cx="1.107" cy="1.107" r="1.107" transform="translate(35.302 8.58)" fill="#fff" stroke="#263238" stroke-linecap="round" stroke-linejoin="round" stroke-width="1"/>
      <path id="Trazado_798990" data-name="Trazado 798990" d="M67.034,227.137a1.107,1.107,0,1,0-1.107,1.107A1.107,1.107,0,0,0,67.034,227.137Z" transform="translate(-25.976 -217.45)" fill="#fff" stroke="#263238" stroke-linecap="round" stroke-linejoin="round" stroke-width="1"/>
      <circle id="Elipse_4793" data-name="Elipse 4793" cx="1.107" cy="1.107" r="1.107" transform="translate(42.387 8.58)" fill="#fff" stroke="#263238" stroke-linecap="round" stroke-linejoin="round" stroke-width="1"/>
      <path id="Trazado_798991" data-name="Trazado 798991" d="M45.374,235.94l-5.844,4.618,5.844,4.618" transform="translate(-20.685 -219.523)" fill="none" stroke="#263238" stroke-linecap="round" stroke-linejoin="round" stroke-width="3"/>
      <path id="Trazado_798992" data-name="Trazado 798992" d="M57.05,235.94l5.836,4.618-5.836,4.618" transform="translate(-24.35 -219.523)" fill="none" stroke="#263238" stroke-linecap="round" stroke-linejoin="round" stroke-width="3"/>
      <line id="Línea_1633" data-name="Línea 1633" x1="1.771" y2="11.135" transform="translate(27.67 15.334)" fill="none" stroke="#263238" stroke-linecap="round" stroke-linejoin="round" stroke-width="3"/>
      <line id="Línea_1634" data-name="Línea 1634" x2="6.453" transform="translate(35.863 31.743)" fill="none" stroke="#263238" stroke-linecap="round" stroke-linejoin="round" stroke-width="1"/>
      <line id="Línea_1635" data-name="Línea 1635" x2="8.383" transform="translate(26.31 31.743)" fill="none" stroke="#263238" stroke-linecap="round" stroke-linejoin="round" stroke-width="1"/>
      <line id="Línea_1636" data-name="Línea 1636" x2="5.196" transform="translate(19.264 31.743)" fill="none" stroke="#263238" stroke-linecap="round" stroke-linejoin="round" stroke-width="1"/>
      <line id="Línea_1637" data-name="Línea 1637" x2="2.444" transform="translate(15.65 31.743)" fill="none" stroke="#263238" stroke-linecap="round" stroke-linejoin="round" stroke-width="1"/>
      <line id="Línea_1638" data-name="Línea 1638" x2="3.764" transform="translate(38.552 35.555)" fill="none" stroke="#263238" stroke-linecap="round" stroke-linejoin="round" stroke-width="1"/>
      <line id="Línea_1639" data-name="Línea 1639" x2="16.931" transform="translate(19.77 35.555)" fill="none" stroke="#263238" stroke-linecap="round" stroke-linejoin="round" stroke-width="1"/>
      <line id="Línea_1640" data-name="Línea 1640" x2="2.104" transform="translate(15.65 35.555)" fill="none" stroke="#263238" stroke-linecap="round" stroke-linejoin="round" stroke-width="1"/>
      <line id="Línea_1641" data-name="Línea 1641" x2="12.819" transform="translate(29.497 39.358)" fill="none" stroke="#263238" stroke-linecap="round" stroke-linejoin="round" stroke-width="1"/>
      <line id="Línea_1642" data-name="Línea 1642" x2="8.39" transform="translate(18.758 39.358)" fill="none" stroke="#263238" stroke-linecap="round" stroke-linejoin="round" stroke-width="1"/>
      <line id="Línea_1643" data-name="Línea 1643" x2="1.771" transform="translate(15.65 39.358)" fill="none" stroke="#263238" stroke-linecap="round" stroke-linejoin="round" stroke-width="1"/>
      <line id="Línea_1644" data-name="Línea 1644" x2="3.598" transform="translate(38.718 43.17)" fill="none" stroke="#263238" stroke-linecap="round" stroke-linejoin="round" stroke-width="1"/>
      <line id="Línea_1645" data-name="Línea 1645" x2="10.225" transform="translate(26.476 43.17)" fill="none" stroke="#263238" stroke-linecap="round" stroke-linejoin="round" stroke-width="1"/>
      <line id="Línea_1646" data-name="Línea 1646" x2="8.81" transform="translate(15.65 43.17)" fill="none" stroke="#263238" stroke-linecap="round" stroke-linejoin="round" stroke-width="1"/>
    </g>
    <g id="freepik--Speedometer--inject-2" transform="translate(17.792 312)">
      <path id="Trazado_798993" data-name="Trazado 798993" d="M44.318,385.19A25.258,25.258,0,0,0,19.06,410.44H69.577A25.258,25.258,0,0,0,44.318,385.19Z" transform="translate(-19.06 -385.19)" fill="#fff" stroke="#263238" stroke-linecap="round" stroke-linejoin="round" stroke-width="1"/>
      <path id="Trazado_798994" data-name="Trazado 798994" d="M49.308,405.405l12.408-13.246A25.25,25.25,0,0,0,19.06,410.451H49.221Z" transform="translate(-19.06 -385.192)" fill="#00a9ff" stroke="#263238" stroke-linecap="round" stroke-linejoin="round" stroke-width="1"/>
      <path id="Trazado_798995" data-name="Trazado 798995" d="M46.992,398A15.152,15.152,0,0,0,31.84,413.152h30.3A15.152,15.152,0,0,0,46.992,398Z" transform="translate(-21.733 -387.87)" fill="none" stroke="#263238" stroke-linecap="round" stroke-linejoin="round" stroke-width="1"/>
      <path id="Trazado_798996" data-name="Trazado 798996" d="M49.092,408a7.212,7.212,0,0,0-7.212,7.212H56.3A7.212,7.212,0,0,0,49.092,408Z" transform="translate(-23.834 -389.962)" fill="#263238" stroke="#263238" stroke-linecap="round" stroke-linejoin="round" stroke-width="1"/>
      <path id="Trazado_798997" data-name="Trazado 798997" d="M52.344,412.368l-1.684-1.676L65.448,396.75l.838.838Z" transform="translate(-25.67 -387.608)" fill="#263238" stroke="#263238" stroke-linecap="round" stroke-linejoin="round" stroke-width="1"/>
    </g>
    <g id="freepik--Charts--inject-2" transform="translate(346.982 256.833)">
      <path id="Trazado_798998" data-name="Trazado 798998" d="M447.7,315.43a10.281,10.281,0,1,0,10.281,10.281A10.281,10.281,0,0,0,447.7,315.43Zm0,16.48a6.176,6.176,0,1,1,4.372-1.806A6.184,6.184,0,0,1,447.7,331.91Z" transform="translate(-435.767 -315.43)" fill="none" stroke="#263238" stroke-linecap="round" stroke-linejoin="round" stroke-width="1"/>
      <path id="Trazado_798999" data-name="Trazado 798999" d="M453.389,334.326l-2.436-3.337a6.113,6.113,0,0,1-3.242.925,6.184,6.184,0,0,1,0-12.36,6.1,6.1,0,0,1,3.163.862l2.151-3.511a10.28,10.28,0,1,0,.4,17.4Z" transform="translate(-435.777 -315.433)" fill="#00a9ff" stroke="#263238" stroke-linecap="round" stroke-linejoin="round" stroke-width="1"/>
      <path id="Trazado_799000" data-name="Trazado 799000" d="M447.7,351a10.281,10.281,0,1,0,10.281,10.281A10.281,10.281,0,0,0,447.7,351Zm0,16.473a2.561,2.561,0,1,1,0,.024Z" transform="translate(-435.767 -322.871)" fill="none" stroke="#263238" stroke-linecap="round" stroke-linejoin="round" stroke-width="1"/>
      <path id="Trazado_799001" data-name="Trazado 799001" d="M455.324,363.563a6.176,6.176,0,0,1-9.292,5.33l-1.732,3.756a10.28,10.28,0,0,0,15.136-9.086,10.043,10.043,0,0,0-.174-1.843l-4.128.221A6.326,6.326,0,0,1,455.324,363.563Z" transform="translate(-437.206 -325.114)" fill="#00a9ff" stroke="#263238" stroke-linecap="round" stroke-linejoin="round" stroke-width="1"/>
      <rect id="Rectángulo_374404" data-name="Rectángulo 374404" width="3.693" height="9.64" transform="translate(0 62.252)" fill="#263238" stroke="#263238" stroke-linecap="round" stroke-linejoin="round" stroke-width="1"/>
      <rect id="Rectángulo_374405" data-name="Rectángulo 374405" width="3.693" height="8.96" transform="translate(7.117 62.925)" fill="#00a9ff" stroke="#263238" stroke-linecap="round" stroke-linejoin="round" stroke-width="1"/>
      <rect id="Rectángulo_374406" data-name="Rectángulo 374406" width="3.693" height="13.412" transform="translate(14.235 58.472)" fill="#263238" stroke="#263238" stroke-linecap="round" stroke-linejoin="round" stroke-width="1"/>
      <rect id="Rectángulo_374407" data-name="Rectángulo 374407" width="3.693" height="18.268" transform="translate(21.352 53.617)" fill="#00a9ff" stroke="#263238" stroke-linecap="round" stroke-linejoin="round" stroke-width="1"/>
    </g>
    <g id="freepik--Files--inject-2" transform="translate(349.093 138.821)">
      <path id="Trazado_799002" data-name="Trazado 799002" d="M445.837,168.019V166.2H438v12.764h16.5V168.019Z" transform="translate(-438 -166.2)" fill="#fff" stroke="#263238" stroke-linecap="round" stroke-linejoin="round" stroke-width="1"/>
      <path id="Trazado_799003" data-name="Trazado 799003" d="M471.637,168.019V166.2H463.8v12.764h16.5V168.019Z" transform="translate(-443.397 -166.2)" fill="#fff" stroke="#263238" stroke-linecap="round" stroke-linejoin="round" stroke-width="1"/>
      <path id="Trazado_799004" data-name="Trazado 799004" d="M445.837,191.077V189.25H438v12.772h16.5V191.077Z" transform="translate(-438 -171.022)" fill="#fff" stroke="#263238" stroke-linecap="round" stroke-linejoin="round" stroke-width="1"/>
      <path id="Trazado_799005" data-name="Trazado 799005" d="M471.637,191.077V189.25H463.8v12.772h16.5V191.077Z" transform="translate(-443.397 -171.022)" fill="#fff" stroke="#263238" stroke-linecap="round" stroke-linejoin="round" stroke-width="1"/>
      <path id="Trazado_799006" data-name="Trazado 799006" d="M445.837,214.137V212.31H438v12.772h16.5V214.137Z" transform="translate(-438 -175.846)" fill="#fff" stroke="#263238" stroke-linecap="round" stroke-linejoin="round" stroke-width="1"/>
      <path id="Trazado_799007" data-name="Trazado 799007" d="M471.637,214.137V212.31H463.8v12.772h16.5V214.137Z" transform="translate(-443.397 -175.846)" fill="#00a9ff" stroke="#263238" stroke-linecap="round" stroke-linejoin="round" stroke-width="1"/>
      <path id="Trazado_799008" data-name="Trazado 799008" d="M445.837,237.2V235.37H438v12.772h16.5V237.2Z" transform="translate(-438 -180.67)" fill="#fff" stroke="#263238" stroke-linecap="round" stroke-linejoin="round" stroke-width="1"/>
      <path id="Trazado_799009" data-name="Trazado 799009" d="M471.637,237.2V235.37H463.8v12.772h16.5V237.2Z" transform="translate(-443.397 -180.67)" fill="#fff" stroke="#263238" stroke-linecap="round" stroke-linejoin="round" stroke-width="1"/>
      <path id="Trazado_799010" data-name="Trazado 799010" d="M445.837,260.257V258.43H438v12.764h16.5V260.257Z" transform="translate(-438 -185.494)" fill="#fff" stroke="#263238" stroke-linecap="round" stroke-linejoin="round" stroke-width="1"/>
      <path id="Trazado_799011" data-name="Trazado 799011" d="M471.637,260.257V258.43H463.8v12.764h16.5V260.257Z" transform="translate(-443.397 -185.494)" fill="#fff" stroke="#263238" stroke-linecap="round" stroke-linejoin="round" stroke-width="1"/>
    </g>
    <g id="freepik--Stars--inject-2" transform="translate(251.357 76.648)">
      <path id="Trazado_799012" data-name="Trazado 799012" d="M322.152,87.58l1.827,5.631h5.915l-4.784,3.472,1.827,5.631-4.784-3.48-4.784,3.48,1.827-5.631-4.784-3.472h5.915Z" transform="translate(-314.41 -87.58)" fill="#00a9ff" stroke="#263238" stroke-linecap="round" stroke-linejoin="round" stroke-width="1"/>
      <path id="Trazado_799013" data-name="Trazado 799013" d="M346.842,87.58l1.827,5.631h5.915L349.8,96.682l1.827,5.631-4.784-3.48-4.784,3.48,1.827-5.631L339.1,93.211h5.915Z" transform="translate(-319.575 -87.58)" fill="#00a9ff" stroke="#263238" stroke-linecap="round" stroke-linejoin="round" stroke-width="1"/>
      <path id="Trazado_799014" data-name="Trazado 799014" d="M371.532,87.58l1.827,5.631h5.915l-4.784,3.472,1.827,5.631-4.784-3.48-4.784,3.48,1.827-5.631-4.784-3.472h5.915Z" transform="translate(-324.74 -87.58)" fill="#00a9ff" stroke="#263238" stroke-linecap="round" stroke-linejoin="round" stroke-width="1"/>
      <path id="Trazado_799015" data-name="Trazado 799015" d="M396.222,87.58l1.827,5.631h5.915l-4.784,3.472,1.827,5.631-4.784-3.48-4.792,3.48,1.835-5.631-4.784-3.472h5.907Z" transform="translate(-329.905 -87.58)" fill="#00a9ff" stroke="#263238" stroke-linecap="round" stroke-linejoin="round" stroke-width="1"/>
      <path id="Trazado_799016" data-name="Trazado 799016" d="M420.9,87.58l1.835,5.631h5.915l-4.792,3.472,1.835,5.631-4.792-3.48-4.784,3.48,1.827-5.631-4.784-3.472h5.915Z" transform="translate(-335.068 -87.58)" fill="#00a9ff" stroke="#263238" stroke-linecap="round" stroke-linejoin="round" stroke-width="1"/>
    </g>
    <g id="freepik--Device--inject-2" transform="translate(68.57 109.403)">
      <ellipse id="Elipse_4794" data-name="Elipse 4794" cx="130.088" cy="4.349" rx="130.088" ry="4.349" transform="translate(2.95 238.824)" fill="#263238" stroke="#263238" stroke-linecap="round" stroke-linejoin="round" stroke-width="1"/>
      <rect id="Rectángulo_374408" data-name="Rectángulo 374408" width="265.877" height="199.41" rx="8.48" fill="#263238" stroke="#263238" stroke-linecap="round" stroke-linejoin="round" stroke-width="1"/>
      <path id="Trazado_799017" data-name="Trazado 799017" d="M273.076,394.659V372.2H206.917v22.459a32.557,32.557,0,0,1-7.022,20.2L197,418.51h86l-2.9-3.654A32.557,32.557,0,0,1,273.076,394.659Z" transform="translate(-107.062 -179.876)" fill="#fff" stroke="#263238" stroke-linecap="round" stroke-linejoin="round" stroke-width="1"/>
      <rect id="Rectángulo_374409" data-name="Rectángulo 374409" width="66.151" height="18.03" transform="translate(99.855 192.324)" fill="#263238" stroke="#263238" stroke-linecap="round" stroke-linejoin="round" stroke-width="1"/>
      <rect id="Rectángulo_374410" data-name="Rectángulo 374410" width="86.016" height="4.009" transform="translate(89.938 238.634)" fill="#fff" stroke="#263238" stroke-linecap="round" stroke-linejoin="round" stroke-width="1"/>
      <path id="Trazado_799018" data-name="Trazado 799018" d="M83.27,342H349.147v24.286a6.706,6.706,0,0,1-6.706,6.706H89.976a6.706,6.706,0,0,1-6.706-6.706V342Z" transform="translate(-83.27 -173.558)" fill="#fff" stroke="#263238" stroke-linecap="round" stroke-linejoin="round" stroke-width="1"/>
      <rect id="Rectángulo_374411" data-name="Rectángulo 374411" width="239.132" height="140.882" transform="translate(13.373 12.408)" fill="#00a9ff" stroke="#263238" stroke-linecap="round" stroke-linejoin="round" stroke-width="1"/>
      <g id="Grupo_1064948" data-name="Grupo 1064948" transform="translate(39.538 27.046)" opacity="0.2">
        <path id="Trazado_799019" data-name="Trazado 799019" d="M149.821,203.443s-1.336,2.372-3.163.9-6.326-4.523-9.158-3.472-3.835,4.531-2.5,5.583,1.661,2.262-.506,3.772-1.162,3.472.672,3.954,3.163-.3,3,.791,0,1.653-2.831,2.863-2.665,2.262,1,1.21,4.168-3.472,5.828-5.132,8.833,1.661,10.834,5.132,1.835,6.935,1.835,9.656,3.827,3.013,4.658,5.433,2.372,4.674,2.665,4.073-.166-1.36-.166-2.111,2.5,1.653,2.839,3.313,3.163,3.622,4.658,3.622a8.09,8.09,0,0,1,4.666,1.51c1,.9,3.337,3.021,4.168,3.021s.83-.459,1.336,0,.5,1.811.166,3.163-1.669,1.811.166,4.531,4.476,4.009,4.476,6.564-2.831,11.917-2.831,14.638,2.665,5.884,3.669,5.583.166-1.811.166-3.163,1.669-2.412,1.669-3.622,1.163-2.562,2.159-3.472,2.665-1.5,3.669-3.013,2.665-2.871,3.329-3.954a36.379,36.379,0,0,1,2.333-3.163c1.5-1.961,1.5-3.472,2.372-4.832s1-4.073-1-4.674-4.832-1.51-5.536-2.412-4.326-2.42-5-2.57-1.661-1.352-3-1.5a19.044,19.044,0,0,0-2.665-.15,18.348,18.348,0,0,0-3,.6h-2.167l-1.835-1.21s.672-1.961-.664-2.262a10.233,10.233,0,0,0-2-.3s1-1.811,0-1.961-2.831,1.052-3.329,1.052-2.167-2.562-1.336-3.772,1.5-2.262,3.163-2.562,3.163-1.51,4.16,0,3.337,4.223,3.337,2.562-1.17-2.562-1-3.614,2.333-.609,2.333-2.72.838-3.321,1.835-3.772,3.835-.15,3.661-2.262-1.495-.15-2.5-.909,1-2.562,3.005-2.562,3.661-.451,3.163-1.961-2.665-2.412-3.669-4.373-1.993.15-3.163-.909-3.163-2.372-3.329-.451,1,4.373.5,5.583-2.831,2.412-3.5,1.06,0-1.961-1.835-3.021-3.835-1.961-4-3.954,1.17-3.321,2.831-4.523,3.835-2.27,3.669-4.231-1.5-2.712-1.835-1.2a1.5,1.5,0,0,1-2.831.3c-.664-1.21-2.167-1.811-2.167-.751s-.332,2.111-1.669,2.111-3.329-1.06-4.16-.909-1.17.909-2.167.909-2.665.3-3-.791-2.5-1.352-4-1.661a16.608,16.608,0,0,0-4.168-.451A8.1,8.1,0,0,1,149.821,203.443Z" transform="translate(-133.267 -171.036)"/>
        <path id="Trazado_799020" data-name="Trazado 799020" d="M196.481,251.158a11.073,11.073,0,0,1-3.5-1.2c-2.665-1.2-4.832-.791-3.5-.158s3.827,1.51,3.827,1.51-2.831-.15-.332.609S198.814,252.068,196.481,251.158Z" transform="translate(-144.942 -181.188)"/>
        <path id="Trazado_799021" data-name="Trazado 799021" d="M238.748,230.572a17.782,17.782,0,0,1-1.336,3.321c-.5.6-2.5,1.51-3,3.163a7.434,7.434,0,0,0,1,5.583c1,1.51,1.835,1.661,4.168,2.27s5.828,0,7.165.15-.5,2.562-.5,3.313,3.329,2.27,3.5,3.622-1.329,4.231,0,6.034,1.835,3.021,1.835,4.081-.5,2.712,2.831,3.163,5.662-.9,6.168-2.863.5-3.954,1.993-4.682a3.954,3.954,0,0,0,2-4.223c-.332-1.661-.664-4.073.664-4.982s4-2.562,4.168-4.223-1.329-.15-3.5-1.661-4.5-6.034-5-7.236-.5-2.27,1.329,0,2.333,6.785,5.164,6.785,6.833-3.163,7-4.674-1.661-.609-3.661-1.961-3.337-4.682-.838-3.772,5.836,3.954,7.165,3.954,5.33-1.36,5.5,1.052-.791,6.326,1.5,6.493,1.669-2.42,2.333-3.321,4.334-3.622,5.164-3.021.332,3.021,2.5,3.163,3,.6,2.333,1.36-.83,3.313,0,3.013-.166-2.863,1.336-2.111,3.828-.751,3.828-1.51-2.831-1.653-2-3.013,3.5-1.661,5.33-1.811,3.5-2.72,2.673-4.223-1.5-2.57-.506-2.871-.664-1.2-.664-1.661,1.5-1.661,2.5-.751.5,2.111,1.336,3.021,1.827.751,1.827-.459a16.914,16.914,0,0,0-.5-3.163s1.5-1.21,2.333-1.06,3.163-2.562,3.835-4.523.166-3.163-.838-3.163-2.665-2.111-.83-3.321,4.666-2.111,5.994-1.661a2.6,2.6,0,0,0,3.163-1.352c.791-1.2,2.831-1.21,3.828-1.21s2-2.262,2.167-1.052-3.5,3.772-4.168,5.425-1.329,4.231.166,4.381,2.167-2.42,2.5-3.622.506-3.321,1.5-3.472,1.5.451,3-.6,3.5-1.21,3.835-2.72,1-4.824-.838-6.485-3-.6-5,0-4.326-2.871-4.326-2.871a26.834,26.834,0,0,0-3.835-.3c-2,0-2.831-2.111-4.168-2.262s-1.162,1.811-2.5,2.262a5.533,5.533,0,0,1-2.665.15c-1,0-1.993.3-2.333-.6s-1.162-2.412-2.325-2.562-2.5.451-3.163.451-3-.791-3.661-.791-3.163.459-3.163.459,3.661-4.682,3-5.884-3.337-1.51-4.832-1.06-3,.3-4,.909-3.828,1.052-4.666,2.262-.664,1.661-1.827,2.412-1.17,1.961-1,3.163-1.495-1.36-2.665-.609-1.835,1.21-1.5,2.262,1.669,2.27,1.336,3.321-2.831,1.961-2.831.451,1.329-7.386-.5-7.236-2.333,2.262-1.835,3.772.83,2.111-.166,2.111-2.372-1.961-3.329-.909-3.835,1.21-5.172,1.36-3.329,2.111-4.326,2.863-1.336,1.969-3.163,2.119-3-3.163-2.159-3.163,3.828,1.51,3.828-.3-4.666-3.622-7-3.954-5.994.6-6.659,2.562-.34,4.832-2.5,6.793-3.5,4.223-1.835,4.223,2.665-2.262,2.831-.451a1.447,1.447,0,0,0,2.665.751c.5-.9.5-2.712.5-4.373s3-4.682,3.5-3.321-1.669,3.472-1.669,4.824,2.5.308,3.835.308,2.325.9.166,1.2-2.333.3-2.839,1.661.174,2.262-1.827,2.72-6.833-.308-7.829,1.352-1.5,2.57-2.5,2.871-3.005.15-2.673,1.51,1.336.6.838,1.961-2.167-.791-2.831.3,1,5.884,2.5,4.523a10.715,10.715,0,0,0,2.333-3.472s1.495-.15,1.827-.791,2.5-1.961,3.163,0,1.661,1.51,1.661,2.412-1.661,1.961-.166,1.36,2.372-.451,1.835-2.262-2.372-3.954-1.336-3.472a7.118,7.118,0,0,1,2.673,3.013c.5,1.06,3,4.081,3.329,2.871s-.332-3.321.166-3.321,1.5-1.2,1.835-2.372,4.492.15,5.33,1.21-.838,2.111-2.633,2.111-4.168,1.2-2.665,2.262,3.827-1.21,4.16.451-.5,3.163-1.827,3.163-3.005-.609-4.168-.609-1.336,1.51-3.5,1.06-2.673-2.262-4.334-3.321-3.163-.3-4.5.15S239.587,229.363,238.748,230.572Z" transform="translate(-154.391 -168.447)"/>
        <path id="Trazado_799022" data-name="Trazado 799022" d="M289.245,187.65a7.536,7.536,0,0,1-2.167,2.712c-1.329.909-4.832,3.772-4.832,5.433s1.5,3.163-.83,2.562.5-6.635,2.167-8.145,1.669-.751,3-1.51S289.079,186.44,289.245,187.65Z" transform="translate(-164.074 -168.22)"/>
        <path id="Trazado_799023" data-name="Trazado 799023" d="M322.627,260.694a3.071,3.071,0,0,0-2.665,1.51c-.672,1.51,2,2.863,2.831,1.811s.506-2.42.838-3.163S323.631,259.784,322.627,260.694Z" transform="translate(-172.3 -183.479)"/>
        <path id="Trazado_799024" data-name="Trazado 799024" d="M314.492,263.339s-1.162-5.536-1.669-3.954a4.61,4.61,0,0,0,0,2.871s-4.492-3.321-3.994-1.36,3.994,3.163,5.662,4.381,1.835,1.052,4.168,1.8,3.828-.451,2-.791a31.7,31.7,0,0,1-5.536-2.111,1.06,1.06,0,0,1-.633-.838Z" transform="translate(-169.986 -183.262)"/>
        <path id="Trazado_799025" data-name="Trazado 799025" d="M339.28,265.015s-7.5-2.562-6.667-1.06,3.5,1.06,4,1.811.83,2.262,2,2.262,2.167-.451,2.831.308,2.167,1.811,2.665,1.052-.664-1.661-1.5-2.712S339.28,265.015,339.28,265.015Z" transform="translate(-174.956 -184.178)"/>
        <path id="Trazado_799026" data-name="Trazado 799026" d="M337.12,271.229s-.166,2.27-1.835,2.111-.332-2.412-2.5-2.111-1.827,1.811-3,1.811-3.163.609-3.329,1.21-1.5,1.21-2.5,1.21-2,1.961-1.669,3.013a13.583,13.583,0,0,1,1,3.472c0,1.06,0,1.961,1.835,1.51s4.666-2.57,6.833-1.811,4,3.321,5.33,4.073,2.167,1.51,3.329-.451,2.839-3.954,2.839-6.326-1.835-2.562-3.337-4.824S337.619,270.027,337.12,271.229Z" transform="translate(-172.797 -185.719)"/>
        <path id="Trazado_799027" data-name="Trazado 799027" d="M360.789,291.405s.5.3-1.17,1.052-2,1.811-.791,2.42,2.665-1.661,3.163-2.42S362.948,289.895,360.789,291.405Z" transform="translate(-180.301 -189.897)"/>
        <path id="Trazado_799028" data-name="Trazado 799028" d="M277.587,272.063s-.791-.15-2,.9-.166,1.661-.5,3.021,0,2.863,1.336,1.961,2.665-4.073,2.665-5.283S278.75,270.4,277.587,272.063Z" transform="translate(-162.91 -185.794)"/>
        <path id="Trazado_799029" data-name="Trazado 799029" d="M259.477,178.6s.166.6-2,.15-2.831.751-3.329.9-3.005-1.352-2.839.459,2.333,4.223,3.163,2.863.166,0-.838,1.36,1.17,3.163,2.167,1.961,1-5.283,1.5-3.954,1.329,3.772,2.372,2.712-1.669-3.954-1.669-4.824.5.6,1.835-.3S260.972,178.453,259.477,178.6Z" transform="translate(-157.959 -166.417)"/>
        <path id="Trazado_799030" data-name="Trazado 799030" d="M315.26,182.859s.664-2.111-1-1.961-3.5,1.36-2,2.372S315.26,182.859,315.26,182.859Z" transform="translate(-170.596 -166.901)"/>
        <path id="Trazado_799031" data-name="Trazado 799031" d="M311.614,177.215c-.332-.609-1.669-4.832-2.665-3.622s.5,4.373.5,4.373-.664,1.21.83,1.36S311.614,177.215,311.614,177.215Z" transform="translate(-169.947 -165.329)"/>
        <path id="Trazado_799032" data-name="Trazado 799032" d="M209.557,169.2c-.791.142-4.16-2.111-5.994-.609s-2,2.42-3,4.531,0,3.472-.34,3.954.174-.3-1.827.9-2.372.791-1.17,2.42-.5,1.653,1.336,3.163,2.5-1.2,4.5.609,1,4.073,2.372,8.6,1.993,11.767,3,12.977,2.665,1.51,3.5-.451,2.372-5.433,4.832-6.643,6-2.712,6-4.373-1.336-2.412-.838-3.622,1.669-.3,1.669-2.262v-4.073c0-1.661-.332-5.583,0-6.042a11.861,11.861,0,0,0,1.495-2.863c0-.451,1.17-1.811,1.5-2.262a4.6,4.6,0,0,0,.664-1.961c0-.459.838-1.51-.664-.909s-1.5,1.961-2.665,2.72-2.665,1.2-2.665-.3,1.669-3.321,0-3.472a10.123,10.123,0,0,0-3.5.451s1.661-.791,2.159-1.06,2.167-.451,2.665-.9a3.069,3.069,0,0,0,.672-1.51,3.274,3.274,0,0,0-1.5-.9c-1-.308-1-1.36-2-1.661a27.8,27.8,0,0,0-3.954-.451s-3.163.9-3.835,1.2a19.429,19.429,0,0,0-1.937,1.012s-.5,1.5,0,2.111S211.2,168.9,209.557,169.2Z" transform="translate(-146.504 -163.2)"/>
        <path id="Trazado_799033" data-name="Trazado 799033" d="M195.69,170.912s-.791,1.661-1.336,2.72a24.01,24.01,0,0,1-1.993,3.313c-.838,1.21-1.336,1.811-1.336,2.27s.791,1.352-.5,2.412a21.565,21.565,0,0,1-3.163,1.961,1.447,1.447,0,0,1-1.835.9c-1.336-.451-.5-2.712,0-3.464s0-2.871-1-2.42-1.669,1.36-2.673.15-1.329-3.614-1.329-4.824,0-2.871,1-2.262,4.168,2.372,4.666,2.111-.664-1.51-1.329-2.412-2.167-1.961-.332-2.871,3.827-1.06,5.164-1.811,2.159-1.36,3.827-.9,3.163,0,3.669,1.2a7.694,7.694,0,0,1,.5,2.57Z" transform="translate(-143.154 -163.708)"/>
        <path id="Trazado_799034" data-name="Trazado 799034" d="M186.263,190.2a12.092,12.092,0,0,1-2-.9c-1.827-.909-2.831-4.231-3.329-2.27s2,4.231,3.163,4.832,6,.6,5.33-1.06S186.263,190.2,186.263,190.2Z" transform="translate(-143.225 -168.057)"/>
        <path id="Trazado_799035" data-name="Trazado 799035" d="M193.824,199a19.714,19.714,0,0,1-4.334-2.111c-1.162-.909-3.163-2.42-3.954-1.21s-.34,4.832,1,5.583,3.329-.909,4.5.6,2.665,3.021,2.372,4.073-1,1.961.332,3.472,3.163,1.661,3.163-.3-1.669-3.163-.332-3.321,2.665,1.36,2-.751a10.391,10.391,0,0,0-2.167-3.622A19.96,19.96,0,0,0,193.824,199Z" transform="translate(-144.12 -169.9)"/>
        <path id="Trazado_799036" data-name="Trazado 799036" d="M173,201.32a2.42,2.42,0,0,1-1.669-2.412c0-1.961-1.669-4.373-2.167-3.021s-1.669,1.811-3,.791-2.665-3.321-4-2.27-5.33,3.321-1.993,4.381,4.492-1.06,4.824-.609-.332.308,0,2.119a3.627,3.627,0,0,0,3.669,2.712c1.5,0,1.835-1.51,2.5-.9S173.668,203.432,173,201.32Z" transform="translate(-138.625 -169.672)"/>
      </g>
      <path id="Trazado_799037" data-name="Trazado 799037" d="M254.976,360.263a4.9,4.9,0,1,0-4.9,4.9A4.9,4.9,0,0,0,254.976,360.263Z" transform="translate(-117.138 -176.353)" fill="#263238" stroke="#263238" stroke-linecap="round" stroke-linejoin="round" stroke-width="1"/>
      <path id="Trazado_799038" data-name="Trazado 799038" d="M327.678,166.437H119.316a5.979,5.979,0,0,1-5.986-5.979h0a5.986,5.986,0,0,1,5.986-5.979H327.678a5.986,5.986,0,0,1,5.978,5.978h0A5.978,5.978,0,0,1,327.678,166.437Z" transform="translate(-89.558 -134.33)" fill="#fff" stroke="#263238" stroke-linecap="round" stroke-linejoin="round" stroke-width="1"/>
      <path id="Trazado_799039" data-name="Trazado 799039" d="M381.629,166.437h-10.4V154.48h10.4a5.986,5.986,0,0,1,5.978,5.978h0a5.978,5.978,0,0,1-5.978,5.979Z" transform="translate(-143.509 -134.33)" fill="#263238" stroke="#263238" stroke-linecap="round" stroke-linejoin="round" stroke-width="1"/>
      <path id="Trazado_799040" data-name="Trazado 799040" d="M379.922,156.155a3.424,3.424,0,1,0,1.089,2.395A3.432,3.432,0,0,0,379.922,156.155Zm-.356,4.429a2.76,2.76,0,1,1-.127-3.9,2.76,2.76,0,0,1,.127,3.9Z" transform="translate(-144.119 -134.487)" fill="#fff"/>
      <path id="Trazado_799041" data-name="Trazado 799041" d="M384.052,163.754a.554.554,0,0,0-.561-.087l-1.242-1.162a.34.34,0,0,0-.475,0l-.111.119a.324.324,0,0,0,0,.467l1.226,1.155a.569.569,0,0,0,.15.609l2.1,2.064a.743.743,0,0,0,1.044,0h0a.743.743,0,0,0,0-1.052Z" transform="translate(-145.671 -135.989)" fill="#fff"/>
    </g>
    <g id="freepik--magnifying-glass--inject-2" transform="translate(81.958 46.138)">
      <path id="Trazado_799042" data-name="Trazado 799042" d="M329.7,305.68a8.833,8.833,0,0,1-8.651-6.943l-1.866-8.643a10.407,10.407,0,0,0-10.2-8.185h0a10.415,10.415,0,0,0-10.012,7.449l-1.265,4.286a7.956,7.956,0,0,1-15.1.443l-4.175-11.57a17.754,17.754,0,0,0-30.889-4.531l-7.979,10.7a8.485,8.485,0,0,1-6.809,3.408h0a8.438,8.438,0,0,1-8.47-8.406V276.1h-9.577v7.584a8.485,8.485,0,0,1-15.278,5l-7.979-10.7a17.754,17.754,0,0,0-30.889,4.531l-4.175,11.57a7.963,7.963,0,0,1-15.1-.443l-1.257-4.286a10.454,10.454,0,0,0-20.213.735l-1.866,8.643a8.841,8.841,0,0,1-8.651,6.943H100.2v6.287H338.794V305.68Z" transform="translate(-100.2 -95.412)" fill="#fff" stroke="#263238" stroke-linecap="round" stroke-linejoin="round" stroke-width="1"/>
      <path id="Trazado_799043" data-name="Trazado 799043" d="M242.127,51.85a39.952,39.952,0,1,1-40.2,39.706,39.952,39.952,0,0,1,40.2-39.706Zm-.443,72.011A32.067,32.067,0,1,0,209.822,91.6,32.067,32.067,0,0,0,241.684,123.861Z" transform="translate(-121.481 -49.595)" fill="#fff" stroke="#263238" stroke-linecap="round" stroke-linejoin="round" stroke-width="1"/>
      <path id="Trazado_799044" data-name="Trazado 799044" d="M242.157,49A39.952,39.952,0,1,1,202,88.667,39.952,39.952,0,0,1,242.157,49Zm-.443,71.963a32.059,32.059,0,1,0-31.862-32.257A32.059,32.059,0,0,0,241.714,120.963Z" transform="translate(-121.496 -48.999)" fill="#fff" stroke="#263238" stroke-linecap="round" stroke-linejoin="round" stroke-width="1"/>
      <rect id="Rectángulo_374412" data-name="Rectángulo 374412" width="9.672" height="35.626" rx="2.88" transform="translate(124.503 116.425) rotate(-179.65)" fill="#fff" stroke="#263238" stroke-linecap="round" stroke-linejoin="round" stroke-width="1"/>
      <path id="Trazado_799045" data-name="Trazado 799045" d="M254.272,274.907h-9.64l-1.2-11.617h12.044Z" transform="translate(-130.163 -93.827)" fill="#fff" stroke="#263238" stroke-linecap="round" stroke-linejoin="round" stroke-width="1"/>
      <path id="Trazado_799046" data-name="Trazado 799046" d="M239.759,215.45l-8.7,12.732v18.79a1.083,1.083,0,0,0,1.083,1.083h0a1.091,1.091,0,0,0,1.091-1.083v-5.441l6.516-2.483Z" transform="translate(-127.575 -83.82)" fill="#fff" stroke="#263238" stroke-linecap="round" stroke-linejoin="round" stroke-width="1"/>
      <path id="Trazado_799047" data-name="Trazado 799047" d="M261.48,215.45l8.7,12.732v18.79a1.091,1.091,0,0,1-1.091,1.083h0A1.083,1.083,0,0,1,268,246.972v-5.441l-6.524-2.483Z" transform="translate(-133.939 -83.82)" fill="#fff" stroke="#263238" stroke-linecap="round" stroke-linejoin="round" stroke-width="1"/>
      <path id="Trazado_799048" data-name="Trazado 799048" d="M5,0H12.3a4.982,4.982,0,0,1,4.982,4.982v61.39a3.9,3.9,0,0,1-3.9,3.9H3.9a3.9,3.9,0,0,1-3.9-3.9V4.99A4.982,4.982,0,0,1,5,0Z" transform="matrix(-1, -0.006, 0.006, -1, 128.216, 173.944)" fill="#263238" stroke="#263238" stroke-linecap="round" stroke-linejoin="round" stroke-width="1"/>
      <path id="Trazado_799049" data-name="Trazado 799049" d="M240.52,256.72v4.516a5.037,5.037,0,0,0,5.014,5.077l7.173.047a5.053,5.053,0,0,0,5.085-5.022V256.72Z" transform="translate(-129.554 -92.453)" fill="#fff" stroke="#263238" stroke-linecap="round" stroke-linejoin="round" stroke-width="1"/>
      <path id="Trazado_799050" data-name="Trazado 799050" d="M251.072,247.961h0a1.582,1.582,0,0,1-1.582-1.582v-29.8A1.582,1.582,0,0,1,251.072,215h0a1.582,1.582,0,0,1,1.582,1.582V246.4A1.582,1.582,0,0,1,251.072,247.961Z" transform="translate(-131.43 -83.726)" fill="#fff" stroke="#263238" stroke-linecap="round" stroke-linejoin="round" stroke-width="1"/>
      <path id="Trazado_799051" data-name="Trazado 799051" d="M224.162,95.427V95.7h-1.068v-.34c0-.9-.348-1.423-1.139-1.423s-1.147.522-1.147,1.408c0,2.23,3.353,2.444,3.353,5.251,0,1.51-.728,2.491-2.254,2.491s-2.238-.981-2.238-2.491v-.569h1.052v.625c0,.9.372,1.423,1.17,1.423s1.162-.522,1.162-1.423c0-2.222-3.329-2.436-3.329-5.235,0-1.582.712-2.491,2.206-2.491S224.162,93.916,224.162,95.427Z" transform="translate(-125.192 -58.187)" fill="#263238"/>
      <path id="Trazado_799052" data-name="Trazado 799052" d="M230.135,97.473v1h-2.428v3.551H230.7v1.012h-4.1V93.06h4.1v1.012h-2.989v3.4Z" transform="translate(-126.642 -58.217)" fill="#263238"/>
      <path id="Trazado_799053" data-name="Trazado 799053" d="M234.118,101.023l-.387,2.009h-1.02l1.906-9.972H236.2l1.906,9.972h-1.115l-.38-2.009Zm.142-.957h2.222l-1.123-5.749Z" transform="translate(-127.92 -58.217)" fill="#263238"/>
      <path id="Trazado_799054" data-name="Trazado 799054" d="M242.88,93.06c1.582,0,2.222.791,2.222,2.278v.791c0,1.1-.38,1.779-1.234,2.048.909.269,1.249,1.012,1.249,2.08v1.582a2.57,2.57,0,0,0,.2,1.2h-1.123a2.657,2.657,0,0,1-.182-1.21v-1.582c0-1.131-.53-1.487-1.455-1.487h-.791v4.262H240.65V93.06Zm-.285,4.7c.886,0,1.416-.285,1.416-1.36V95.44c0-.894-.332-1.368-1.155-1.368h-1.083v3.685Z" transform="translate(-129.581 -58.217)" fill="#263238"/>
      <path id="Trazado_799055" data-name="Trazado 799055" d="M252.128,95.447v.894h-1.044V95.36c0-.894-.356-1.431-1.17-1.431s-1.2.561-1.2,1.431v5.275c0,.894.372,1.431,1.17,1.431s1.17-.538,1.17-1.431v-1.3H252.1v1.234c0,1.51-.712,2.507-2.254,2.507s-2.23-1-2.23-2.507V95.447c0-1.51.712-2.507,2.23-2.507S252.128,93.936,252.128,95.447Z" transform="translate(-131.039 -58.191)" fill="#263238"/>
      <path id="Trazado_799056" data-name="Trazado 799056" d="M255.707,98.548v4.492H254.6V93.06h1.107v4.484h2.451V93.06h1.107v9.972h-1.107V98.548Z" transform="translate(-132.499 -58.217)" fill="#263238"/>
      <path id="Trazado_799057" data-name="Trazado 799057" d="M263.047,93.06v9.972H261.94V93.06Z" transform="translate(-134.035 -58.217)" fill="#263238"/>
      <path id="Trazado_799058" data-name="Trazado 799058" d="M265.736,103.032h-1V93.06h1.408l2.309,7.2v-7.2h.981v9.972h-1.155l-2.546-8.058Z" transform="translate(-134.621 -58.217)" fill="#263238"/>
      <path id="Trazado_799059" data-name="Trazado 799059" d="M276.524,95.447V96.3h-1.052V95.36c0-.894-.356-1.431-1.17-1.431s-1.17.538-1.17,1.431v5.275c0,.894.372,1.431,1.17,1.431s1.17-.538,1.17-1.431V98.642h-1.028v-.981h2.08V100.6c0,1.51-.712,2.507-2.254,2.507s-2.23-1-2.23-2.507V95.447c0-1.51.712-2.507,2.23-2.507S276.524,93.936,276.524,95.447Z" transform="translate(-136.148 -58.191)" fill="#263238"/>
      <path id="Trazado_799060" data-name="Trazado 799060" d="M279.928,103.92V105.3H278.86V103.92Z" transform="translate(-137.574 -60.488)" fill="#263238"/>
      <path id="Trazado_799061" data-name="Trazado 799061" d="M282.718,103.92V105.3H281.65V103.92Z" transform="translate(-138.158 -60.488)" fill="#263238"/>
      <path id="Trazado_799062" data-name="Trazado 799062" d="M285.508,103.92V105.3H284.44V103.92Z" transform="translate(-138.742 -60.488)" fill="#263238"/>
    </g>
    <g id="freepik--Character--inject-2" transform="translate(272.606 193.752)">
      <ellipse id="Elipse_4795" data-name="Elipse 4795" cx="30.446" cy="5.536" rx="30.446" ry="5.536" transform="translate(12.431 177.409)" fill="#263238" stroke="#263238" stroke-linecap="round" stroke-linejoin="round" stroke-width="1"/>
      <path id="Trazado_799063" data-name="Trazado 799063" d="M347.6,350l1.447,2.175a26.289,26.289,0,0,0,.577,3.622c.293.72,1.02,1.882.728,2.752s-1.3,1.882-1.3.142a9.011,9.011,0,0,0-.142-2.175l-3.045-1.582Z" transform="translate(-342.238 -259.58)" fill="#fff" stroke="#263238" stroke-linecap="round" stroke-linejoin="round" stroke-width="1"/>
      <path id="Trazado_799064" data-name="Trazado 799064" d="M341.86,358.539s.633,2.325.949,3.274a4.194,4.194,0,0,0,2.428,2.009c.846.324,1.265.047.949-.482a8.051,8.051,0,0,0-1.684-1.423l-2.641-4.856Z" transform="translate(-341.401 -261.057)" fill="#fff" stroke="#263238" stroke-linecap="round" stroke-linejoin="round" stroke-width="1"/>
      <path id="Trazado_799065" data-name="Trazado 799065" d="M361.4,301.682l-7.07-2.262-3.108,14.14s-4.523,10.178-5.093,14.416a95.117,95.117,0,0,1-2.151,10.059l-1.542,2.7L341.28,345.8l2.151,4.057a10.78,10.78,0,0,0,2.459.435c1.012,0,1.162-.285,1.012-.72s-.87-.728-.87-.728,1.74-.142,2.032-.728-1.74-1.3-1.74-1.3,1.74-.285,1.582-.87-1.969-.467-1.969-.467a15.816,15.816,0,0,0,1.242-6.326c1.526-2.618,9.656-16.7,9.656-18.236C356.875,319.214,361.4,301.682,361.4,301.682Z" transform="translate(-341.28 -248.999)" fill="#fff" stroke="#263238" stroke-linecap="round" stroke-linejoin="round" stroke-width="1"/>
      <path id="Trazado_799066" data-name="Trazado 799066" d="M346.251,361.259a7.765,7.765,0,0,1-1.439-.459,8.351,8.351,0,0,1-1.582-1.89" transform="translate(-341.688 -261.444)" fill="none" stroke="#263238" stroke-linecap="round" stroke-linejoin="round" stroke-width="1"/>
      <path id="Trazado_799067" data-name="Trazado 799067" d="M347.021,359.049l-1.423-.087-1.107-1.052" transform="translate(-341.952 -261.235)" fill="none" stroke="#263238" stroke-linecap="round" stroke-linejoin="round" stroke-width="1"/>
      <path id="Trazado_799068" data-name="Trazado 799068" d="M412.32,300.85l2.546,18.1L406.943,336.2l-3.393-3.677,3.962-15.271-3.393-15.27Z" transform="translate(-354.306 -249.298)" fill="#fff" stroke="#263238" stroke-linecap="round" stroke-linejoin="round" stroke-width="1"/>
      <path id="Trazado_799069" data-name="Trazado 799069" d="M375.824,272.157l-14.274,6.659,5.947,30.209,24.736.712,7.441-31.711-15.049-6.105Z" transform="translate(-345.52 -243.246)" fill="#263238" stroke="#263238" stroke-linecap="round" stroke-linejoin="round" stroke-width="1"/>
      <path id="Trazado_799070" data-name="Trazado 799070" d="M375.476,258.917s-.34,1.914,1.882,5.03c.546.791.838.419.838.419l-.838,5.03a6.825,6.825,0,0,0,6.192,3.353c2.633,0,3.954-3.875,3.954-3.875a51.578,51.578,0,0,1-.712-5.354l-7.117-11.53-5.243,1.044s-2.325-.609-1.906,2.958S375.476,258.917,375.476,258.917Z" transform="translate(-347.806 -239.077)" fill="#fff" stroke="#263238" stroke-linecap="round" stroke-linejoin="round" stroke-width="1"/>
      <path id="Trazado_799071" data-name="Trazado 799071" d="M393.193,245.743s-2.056-7.022-7.117-9.332-10.486,1.052-12.376,5.457,1.89,13.634,1.89,13.634,2.3,5.243,5.03,6.5,5.393-.83,7.908-4.183S393.407,249.1,393.193,245.743Z" transform="translate(-347.951 -235.661)" fill="#263238" stroke="#263238" stroke-linecap="round" stroke-linejoin="round" stroke-width="1"/>
      <ellipse id="Elipse_4796" data-name="Elipse 4796" cx="7.441" cy="6.92" rx="7.441" ry="6.92" transform="translate(39.414 2.016)" fill="#263238" stroke="#263238" stroke-linecap="round" stroke-linejoin="round" stroke-width="1"/>
      <path id="Trazado_799072" data-name="Trazado 799072" d="M361.868,365.51s2.515,24.515,2.515,31.458.633,18.457,1.052,23.906,1.882,13.634,1.882,13.634-1.044-.419-1.463,1.471-.633,2.3-2.515,2.934-3.361,1.89-2.523,2.934,5.457,1.471,8.81,2.309,3.78-.214,3.78-2.515v-6.714s2.3-35.65,2.3-36.915.838-31.245.838-31.245Z" transform="translate(-345.317 -262.825)" fill="#fff" stroke="#263238" stroke-linecap="round" stroke-linejoin="round" stroke-width="1"/>
      <path id="Trazado_799073" data-name="Trazado 799073" d="M369.8,368.132l8.256,6.129c.119-4.262.206-7.37.206-7.37l-9.49-.791Z" transform="translate(-347.031 -262.948)" fill="#263238" stroke="#263238" stroke-linecap="round" stroke-linejoin="round" stroke-width="1"/>
      <path id="Trazado_799074" data-name="Trazado 799074" d="M369.606,462.437c3.361.838,3.78-.214,3.78-2.515v-6.714c-2.728-1.471-3.954,2.934-4.824,2.515s-1.265-2.934-1.265-2.934-1.044-.419-1.463,1.471-.633,2.3-2.515,2.934-3.361,1.89-2.523,2.934S366.269,461.568,369.606,462.437Z" transform="translate(-345.312 -281.075)" fill="#fff" stroke="#263238" stroke-linecap="round" stroke-linejoin="round" stroke-width="1"/>
      <path id="Trazado_799075" data-name="Trazado 799075" d="M388.2,365.3s2.515,20.561,2.728,24.752,13,42.364,13,42.364,1.257,6.326,1.89,8.177,1.044,2.309,2.3,2.309,5.243,0,5.67-1.676-2.1-6.714-2.728-8.39-1.677-3.353-1.677-4.191-3.163-21.186-4.618-28.105a37.467,37.467,0,0,0-3.567-10.486l4.239-28.524Z" transform="translate(-351.095 -261.992)" fill="#fff" stroke="#263238" stroke-linecap="round" stroke-linejoin="round" stroke-width="1"/>
      <path id="Trazado_799076" data-name="Trazado 799076" d="M404.839,365.79l-7.457-2.04-9.181,2.017s.419,3.416.925,7.742l15.579-6.8Z" transform="translate(-351.095 -262.457)" fill="#263238" stroke="#263238" stroke-linecap="round" stroke-linejoin="round" stroke-width="1"/>
      <path id="Trazado_799077" data-name="Trazado 799077" d="M412.285,460.669c1.265,0,5.243,0,5.67-1.676s-2.1-6.714-2.728-8.39c-.53-1.416-1.36-2.831-1.582-3.741-5.346-1.882-5.536,3.321-5.536,3.321s1.257,6.326,1.89,8.177S411.028,460.669,412.285,460.669Z" transform="translate(-355.26 -279.757)" fill="#fff" stroke="#263238" stroke-linecap="round" stroke-linejoin="round" stroke-width="1"/>
      <path id="Trazado_799078" data-name="Trazado 799078" d="M414.254,457.964c-2.681.221-3.551,1.534-3.764,2.768.625,1.85,1.044,2.27,2.293,2.27s5.243,0,5.67-1.677a2.91,2.91,0,0,0-4.2-3.361Z" transform="translate(-355.758 -282.09)" fill="#fff" stroke="#263238" stroke-linecap="round" stroke-linejoin="round" stroke-width="1"/>
      <path id="Trazado_799079" data-name="Trazado 799079" d="M370.725,273.947s2.183,20.15,1.344,22.878-8.81,12.582-8.81,12.582l.214,6.508a22.206,22.206,0,0,0-3.954,9.853c-1.052,6.326-2.309,21.186-2.309,21.186s7.971,1.677,12.8,2.515,7.117.206,7.117.206l2.1-6.92,1.044,6.92a77.5,77.5,0,0,0,10.905.846c5.67,0,9.861-4.618,9.861-4.618s-2.072-13.634-2.072-15.1-4.824-17.4-4.824-17.4l.2-5.694a25.878,25.878,0,0,0-3.321-4.152c-2.515-2.728-4.642-9.869-4.642-9.869l1.8-20.1-1.582-.791-2.515,20.474-9.229-.206-2.151-19.976Z" transform="translate(-344.612 -243.43)" fill="#fff" stroke="#263238" stroke-linecap="round" stroke-linejoin="round" stroke-width="1"/>
      <line id="Línea_1647" data-name="Línea 1647" y1="3.076" x2="18.995" transform="translate(27.37 71.551)" fill="#fff" stroke="#263238" stroke-linecap="round" stroke-linejoin="round" stroke-width="1"/>
      <line id="Línea_1648" data-name="Línea 1648" y1="1.028" x2="5.82" transform="translate(25.828 71.037)" fill="#fff" stroke="#263238" stroke-linecap="round" stroke-linejoin="round" stroke-width="1"/>
      <line id="Línea_1649" data-name="Línea 1649" y1="4.61" transform="translate(34.59 94.714)" fill="#fff" stroke="#263238" stroke-linecap="round" stroke-linejoin="round" stroke-width="1"/>
      <line id="Línea_1650" data-name="Línea 1650" x2="7.758" transform="translate(30.604 94.295)" fill="#fff" stroke="#263238" stroke-linecap="round" stroke-linejoin="round" stroke-width="1"/>
      <path id="Trazado_799080" data-name="Trazado 799080" d="M360.015,280.64l-5.8,15.7,11.024,3.116" transform="translate(-343.985 -245.071)" fill="#263238" stroke="#263238" stroke-linecap="round" stroke-linejoin="round" stroke-width="1"/>
      <path id="Trazado_799081" data-name="Trazado 799081" d="M408.612,279.64l6.682,17.619-11.024,1.985" transform="translate(-354.457 -244.861)" fill="#263238" stroke="#263238" stroke-linecap="round" stroke-linejoin="round" stroke-width="1"/>
    </g>
  </g>
</svg>
