<svg xmlns="http://www.w3.org/2000/svg" xmlns:xlink="http://www.w3.org/1999/xlink" width="67" height="67" viewBox="0 0 67 67">
  <defs>
    <clipPath id="clip-path">
      <rect id="Rectángulo_374176" data-name="Rectángulo 374176" width="67" height="67" transform="translate(8518 -5654)" fill="#fff"/>
    </clipPath>
  </defs>
  <g id="Enmascarar_grupo_1059015" data-name="Enmascarar grupo 1059015" transform="translate(-8518 5654)" clip-path="url(#clip-path)">
    <g id="puesta-en-marcha" transform="translate(8518 -5654)">
      <path id="Trazado_798213" data-name="Trazado 798213" d="M65.659,1.309a57.306,57.306,0,0,1-3.18,15.326L50.333,4.489A57.306,57.306,0,0,1,65.659,1.309Z" fill="#ff5249"/>
      <path id="Trazado_798214" data-name="Trazado 798214" d="M50.333,4.489,62.479,16.635A42.9,42.9,0,0,1,52.705,32.77,51.152,51.152,0,0,1,37.289,43.262L23.705,29.679a51.943,51.943,0,0,1,7.013-11.538,48.588,48.588,0,0,1,3.48-3.879A42.9,42.9,0,0,1,50.333,4.489Z" fill="#fff"/>
      <path id="Trazado_798215" data-name="Trazado 798215" d="M50.853,16.114a5.235,5.235,0,1,1-7.4,0A5.235,5.235,0,0,1,50.853,16.114Z" fill="#7bd8e8"/>
      <g id="Grupo_1064859" data-name="Grupo 1064859">
        <path id="Trazado_798216" data-name="Trazado 798216" d="M49,36.471c6.744,10.117-5.881,16.656-12.954,16.656a9.723,9.723,0,0,0,2.62-8.484l-1.381-1.381a51.943,51.943,0,0,0,11.538-7.013Z" fill="#ff5249"/>
        <path id="Trazado_798217" data-name="Trazado 798217" d="M22.185,39.263l-.212-.212a2.537,2.537,0,0,1-.713-2.393,45.6,45.6,0,0,1,2.446-6.979L37.289,43.262a45.6,45.6,0,0,1-6.979,2.446,2.537,2.537,0,0,1-2.393-.713l-.212-.212Z" fill="#ff5249"/>
        <path id="Trazado_798218" data-name="Trazado 798218" d="M30.5,17.964l.221.177a51.943,51.943,0,0,0-7.013,11.538L22.325,28.3a9.723,9.723,0,0,0-8.484,2.62C13.841,23.845,20.38,11.22,30.5,17.964Z" fill="#ff5249"/>
      </g>
      <path id="Trazado_798219" data-name="Trazado 798219" d="M22.185,39.263l5.52,5.52a10.313,10.313,0,0,1-2.76,4.643c-3.066,3.066-11.1,3.7-11.1,3.7s.635-8.037,3.7-11.1A10.313,10.313,0,0,1,22.185,39.263Z" fill="#ffdd78"/>
      <path id="Trazado_798220" data-name="Trazado 798220" d="M35.157,33.7a1.309,1.309,0,1,0-1.852,0A1.309,1.309,0,0,0,35.157,33.7Z"/>
      <path id="Trazado_798221" data-name="Trazado 798221" d="M51.811,24.442a6.543,6.543,0,1,0-9.253,0A6.54,6.54,0,0,0,51.811,24.442Zm-7.4-7.4a3.926,3.926,0,1,1,0,5.552A3.924,3.924,0,0,1,44.409,17.039Z"/>
      <path id="Trazado_798222" data-name="Trazado 798222" d="M13.373,32.127a1.308,1.308,0,0,0,1.426-.284,8.331,8.331,0,0,1,6.928-2.324l.458.458a46.027,46.027,0,0,0-2.161,6.356,3.7,3.7,0,0,0,.158,2.273A12.392,12.392,0,0,0,16.649,41.1c-3.368,3.369-4.052,11.578-4.08,11.926a1.308,1.308,0,0,0,1.3,1.412q.051,0,.1,0c.348-.027,8.557-.711,11.926-4.08a12.393,12.393,0,0,0,2.491-3.533,3.7,3.7,0,0,0,2.274.157,46.033,46.033,0,0,0,6.355-2.161l.458.458A8.331,8.331,0,0,1,35.156,52.2a1.309,1.309,0,0,0,.925,2.234c5.179,0,12.42-3.084,15.087-8.068,1.158-2.164,1.947-5.588-.568-9.86,1.066-.9,2.093-1.843,3.062-2.812A43.816,43.816,0,0,0,63.745,17.071,58.132,58.132,0,0,0,67,1.356,1.308,1.308,0,0,0,65.644,0,58.133,58.133,0,0,0,49.929,3.255,43.813,43.813,0,0,0,33.3,13.337c-.968.968-1.91,1.995-2.812,3.062-4.272-2.515-7.7-1.726-9.86-.568-4.983,2.667-8.068,9.908-8.068,15.088A1.309,1.309,0,0,0,13.373,32.127ZM24.052,48.5c-1.8,1.8-6.02,2.748-8.688,3.136.388-2.668,1.337-6.889,3.136-8.688a9.43,9.43,0,0,1,3.35-2.2l4.4,4.4A9.429,9.429,0,0,1,24.052,48.5Zm5.966-4.06a1.228,1.228,0,0,1-1.143-.371l-5.943-5.943a1.229,1.229,0,0,1-.372-1.144,42.491,42.491,0,0,1,1.634-5L35.015,42.807A42.463,42.463,0,0,1,30.018,44.44Zm18.844.692c-1.715,3.2-6.031,5.565-9.965,6.377a11.138,11.138,0,0,0,1.073-7.187,1.367,1.367,0,0,0-.4-.661,52.93,52.93,0,0,0,8.962-5.5A6.973,6.973,0,0,1,48.862,45.132ZM61.937,14.21,52.791,5.063A58.832,58.832,0,0,1,64.273,2.727,58.842,58.842,0,0,1,61.937,14.21Zm-26.781.978A40.8,40.8,0,0,1,50.031,6L61,16.97a40.8,40.8,0,0,1-9.183,14.875,47.5,47.5,0,0,1-3.774,3.386A50.276,50.276,0,0,1,37.607,41.7l-12.3-12.3A50.268,50.268,0,0,1,31.77,18.962,47.488,47.488,0,0,1,35.156,15.188Zm-13.288,2.95a6.972,6.972,0,0,1,6.969.329,52.91,52.91,0,0,0-5.5,8.962,1.38,1.38,0,0,0-.693-.407A11.185,11.185,0,0,0,15.491,28.1C16.3,24.17,18.665,19.853,21.868,18.138Z"/>
      <path id="Trazado_798223" data-name="Trazado 798223" d="M27.754,59.6l3.7-3.7a1.309,1.309,0,0,0-1.851-1.85l-3.7,3.7a1.309,1.309,0,1,0,1.851,1.85Z"/>
      <path id="Trazado_798224" data-name="Trazado 798224" d="M9.247,41.1l3.7-3.7a1.309,1.309,0,1,0-1.85-1.851l-3.7,3.7A1.309,1.309,0,1,0,9.247,41.1Z"/>
      <path id="Trazado_798225" data-name="Trazado 798225" d="M20.351,55.9l-8.864,8.863a1.309,1.309,0,1,0,1.85,1.851L22.2,57.754a1.309,1.309,0,0,0-1.85-1.851Z"/>
      <path id="Trazado_798226" data-name="Trazado 798226" d="M9.883,55.9,1.018,64.766a1.309,1.309,0,1,0,1.85,1.851l8.864-8.863A1.309,1.309,0,0,0,9.883,55.9Z"/>
      <path id="Trazado_798227" data-name="Trazado 798227" d="M2.234,55.513,11.1,46.649A1.309,1.309,0,1,0,9.247,44.8L.383,53.663a1.309,1.309,0,1,0,1.851,1.851Z"/>
      <path id="Trazado_798228" data-name="Trazado 798228" d="M38.858,29.993l1.85-1.85a1.309,1.309,0,1,0-1.851-1.851l-1.85,1.85a1.309,1.309,0,0,0,1.851,1.851Z"/>
    </g>
  </g>
</svg>
