<svg xmlns="http://www.w3.org/2000/svg" xmlns:xlink="http://www.w3.org/1999/xlink" width="85" height="85" viewBox="0 0 85 85">
  <defs>
    <clipPath id="clip-path">
      <rect id="Rectángulo_374165" data-name="Rectángulo 374165" width="85" height="85" transform="translate(180 4111)" fill="#ffc401"/>
    </clipPath>
  </defs>
  <g id="Enmascarar_grupo_1059025" data-name="Enmascarar grupo 1059025" transform="translate(-180 -4111)" clip-path="url(#clip-path)">
    <g id="kpi" transform="translate(180.009 4111.001)">
      <circle id="Elipse_4789" data-name="Elipse 4789" cx="41.081" cy="41.081" r="41.081" transform="translate(1.417 1.417)" fill="#c4ddf0"/>
      <circle id="Elipse_4790" data-name="Elipse 4790" cx="35.415" cy="35.415" r="35.415" transform="translate(7.083 7.083)" fill="#e4f1ff"/>
      <path id="Trazado_798725" data-name="Trazado 798725" d="M29.493,29.493A18.233,18.233,0,0,0,24.252,40,2.833,2.833,0,0,1,21.49,42.5H7.083A35.273,35.273,0,0,1,17.467,17.467L25.5,21.249Z" fill="#a54759"/>
      <path id="Trazado_798726" data-name="Trazado 798726" d="M42.5,7.083l1.417,8.5-1.417,8.5a18.307,18.307,0,0,0-13,5.411L17.467,17.467A35.273,35.273,0,0,1,42.5,7.083Z" fill="#cd596b"/>
      <path id="Trazado_798727" data-name="Trazado 798727" d="M67.529,17.467l-3.782,6.615-8.315,5.5L53.873,28.02A18.36,18.36,0,0,0,42.5,24.082v-17A35.273,35.273,0,0,1,67.529,17.467Z" fill="#69c784"/>
      <path id="Trazado_798728" data-name="Trazado 798728" d="M77.913,42.5H63.506A2.833,2.833,0,0,1,60.744,40a18.4,18.4,0,0,0-3.768-8.882l-1.544-1.544,12.1-12.112A35.273,35.273,0,0,1,77.913,42.5Z" fill="#78e096"/>
      <path id="Trazado_798729" data-name="Trazado 798729" d="M46.514,46.5A5.667,5.667,0,1,1,38.5,38.482c2.975-2.975,14.216-9.816,19.832-13.159a.973.973,0,0,1,1.334,1.334C56.329,32.28,49.49,43.519,46.514,46.5Z" fill="#708693"/>
      <g id="Grupo_1064937" data-name="Grupo 1064937">
        <path id="Trazado_798730" data-name="Trazado 798730" d="M42.5,0A42.131,42.131,0,0,0,11.724,13.188a1.417,1.417,0,0,0,2.051,1.955,39.6,39.6,0,1,1-4.108,5.084,1.417,1.417,0,0,0-2.343-1.594A42.5,42.5,0,1,0,42.5,0Z" fill="#373737"/>
        <path id="Trazado_798731" data-name="Trazado 798731" d="M42.5,79.329A36.831,36.831,0,1,0,5.666,42.5,36.831,36.831,0,0,0,42.5,79.329ZM57.555,27.441C51.828,37,47.467,43.539,45.514,45.494A4.249,4.249,0,1,1,39.5,39.486c1.952-1.958,8.494-6.318,18.05-12.045Zm3.335-.059A2.367,2.367,0,0,0,61.2,25.8L67.5,19.494a33.871,33.871,0,0,1,8.956,21.587H63.506a1.417,1.417,0,0,1-1.359-1.268,19.832,19.832,0,0,0-3.466-8.757c.8-1.323,1.554-2.574,2.208-3.675ZM59.19,23.8a2.377,2.377,0,0,0-1.58.31c-1.1.654-2.357,1.407-3.683,2.211a19.9,19.9,0,0,0-10.012-3.592V8.535A33.864,33.864,0,0,1,65.5,17.491ZM41.081,22.731a19.832,19.832,0,0,0-11.554,4.794L19.494,17.491A33.871,33.871,0,0,1,41.081,8.535Zm-13.548,6.8A19.662,19.662,0,0,0,22.85,39.806a1.417,1.417,0,0,1-1.36,1.275H8.535a33.871,33.871,0,0,1,8.956-21.587ZM42.5,76.5A34.037,34.037,0,0,1,8.535,43.914H21.49A4.275,4.275,0,0,0,25.656,40.2,16.968,16.968,0,0,1,51.262,27.954C45.7,31.389,39.646,35.336,37.5,37.48A7.082,7.082,0,1,0,47.511,47.5c2.143-2.145,6.091-8.2,9.529-13.768a17.009,17.009,0,0,1,2.3,6.474,4.272,4.272,0,0,0,4.169,3.709H76.461A34.037,34.037,0,0,1,42.5,76.5Z" fill="#373737"/>
        <path id="Trazado_798732" data-name="Trazado 798732" d="M36.416,54.246a1.417,1.417,0,0,0-2,0l-3.248,3.248V55.247a1.417,1.417,0,1,0-2.833,0V66.58a1.417,1.417,0,0,0,2.833,0V64.333l3.248,3.248a1.416,1.416,0,1,0,2-2l-4.665-4.665,4.665-4.665A1.417,1.417,0,0,0,36.416,54.246Z" fill="#373737"/>
        <path id="Trazado_798733" data-name="Trazado 798733" d="M52.414,53.831A1.417,1.417,0,0,0,51,55.247V66.58a1.417,1.417,0,0,0,2.833,0V55.247A1.417,1.417,0,0,0,52.414,53.831Z" fill="#373737"/>
        <path id="Trazado_798734" data-name="Trazado 798734" d="M43.914,53.831H41.081a1.417,1.417,0,0,0-1.417,1.417V66.58a1.417,1.417,0,0,0,2.833,0V62.33h1.417a4.25,4.25,0,0,0,0-8.5Zm0,5.666H42.5V56.664h1.417a1.417,1.417,0,1,1,0,2.833Z" fill="#373737"/>
      </g>
    </g>
  </g>
</svg>
