<svg xmlns="http://www.w3.org/2000/svg" xmlns:xlink="http://www.w3.org/1999/xlink" width="85" height="85" viewBox="0 0 85 85">
  <defs>
    <clipPath id="clip-path">
      <rect id="Rectángulo_374203" data-name="Rectángulo 374203" width="85" height="85" transform="translate(390 4838)" fill="#fff"/>
    </clipPath>
  </defs>
  <g id="Enmascarar_grupo_1059022" data-name="Enmascarar grupo 1059022" transform="translate(-390 -4838)" clip-path="url(#clip-path)">
    <g id="crm" transform="translate(388.629 4836.629)">
      <g id="Grupo_1064894" data-name="Grupo 1064894">
        <g id="Grupo_1064881" data-name="Grupo 1064881">
          <path id="Trazado_798265" data-name="Trazado 798265" d="M2.742,35.645V82.258A2.75,2.75,0,0,0,5.484,85h71.29a2.75,2.75,0,0,0,2.742-2.742V35.645Z" fill="#e6e9ed"/>
        </g>
        <g id="Grupo_1064882" data-name="Grupo 1064882">
          <path id="Trazado_798266" data-name="Trazado 798266" d="M24.677,54.839h13.71a13.708,13.708,0,0,1-23.4,9.693Z" fill="#b4dd7f"/>
        </g>
        <g id="Grupo_1064883" data-name="Grupo 1064883">
          <path id="Trazado_798267" data-name="Trazado 798267" d="M38.387,54.839H24.677l9.693-9.693A13.667,13.667,0,0,1,38.387,54.839Z" fill="#4fc1e9"/>
        </g>
        <g id="Grupo_1064884" data-name="Grupo 1064884">
          <path id="Trazado_798268" data-name="Trazado 798268" d="M34.37,45.146l-9.693,9.693-9.693-9.693a13.7,13.7,0,0,1,19.385,0Z" fill="#fcd770"/>
        </g>
        <g id="Grupo_1064885" data-name="Grupo 1064885">
          <path id="Trazado_798269" data-name="Trazado 798269" d="M24.677,54.839l-9.693,9.693a13.7,13.7,0,0,1,0-19.385Z" fill="#ff826e"/>
        </g>
        <g id="Grupo_1064886" data-name="Grupo 1064886">
          <path id="Trazado_798270" data-name="Trazado 798270" d="M50.726,65.806H69.919V71.29H50.726Z" fill="#ff826e"/>
        </g>
        <g id="Grupo_1064887" data-name="Grupo 1064887">
          <path id="Trazado_798271" data-name="Trazado 798271" d="M50.726,52.1H69.919v5.484H50.726Z" fill="#ff826e"/>
        </g>
        <g id="Grupo_1064888" data-name="Grupo 1064888">
          <path id="Trazado_798272" data-name="Trazado 798272" d="M74.032,74.032v2.742a2.75,2.75,0,0,1-2.742,2.742H49.355a2.75,2.75,0,0,1-2.742-2.742V74.032a2.75,2.75,0,0,1,2.742-2.742H71.29A2.75,2.75,0,0,1,74.032,74.032Z" fill="#fcd770"/>
        </g>
        <g id="Grupo_1064889" data-name="Grupo 1064889">
          <path id="Trazado_798273" data-name="Trazado 798273" d="M74.032,60.323v2.742a2.75,2.75,0,0,1-2.742,2.742H49.355a2.75,2.75,0,0,1-2.742-2.742V60.323a2.75,2.75,0,0,1,2.742-2.742H71.29A2.75,2.75,0,0,1,74.032,60.323Z" fill="#fcd770"/>
        </g>
        <g id="Grupo_1064890" data-name="Grupo 1064890">
          <path id="Trazado_798274" data-name="Trazado 798274" d="M74.032,46.613v2.742A2.75,2.75,0,0,1,71.29,52.1H49.355a2.75,2.75,0,0,1-2.742-2.742V46.613a2.75,2.75,0,0,1,2.742-2.742H71.29A2.75,2.75,0,0,1,74.032,46.613Z" fill="#fcd770"/>
        </g>
        <g id="Grupo_1064891" data-name="Grupo 1064891">
          <path id="Trazado_798275" data-name="Trazado 798275" d="M2.742,35.645V27.419a2.75,2.75,0,0,1,2.742-2.742H35.645a5.482,5.482,0,0,0,5.484,5.484h5.484l4.565,5.484Z" fill="#b4dd7f"/>
        </g>
        <g id="Grupo_1064892" data-name="Grupo 1064892">
          <path id="Trazado_798276" data-name="Trazado 798276" d="M79.516,30.161v5.484H57.581V30.161Z" fill="#b4dd7f"/>
        </g>
        <g id="Grupo_1064893" data-name="Grupo 1064893">
          <path id="Trazado_798277" data-name="Trazado 798277" d="M85,8.226V24.677a5.482,5.482,0,0,1-5.484,5.484H57.581v5.484a2.8,2.8,0,0,1-4.949,1.727l-1.453-1.727-4.565-5.484H41.129a5.482,5.482,0,0,1-5.484-5.484V8.226a5.482,5.482,0,0,1,5.484-5.484H79.516A5.482,5.482,0,0,1,85,8.226Z" fill="#f0d0b4"/>
        </g>
      </g>
      <g id="Grupo_1064895" data-name="Grupo 1064895">
        <path id="Trazado_798278" data-name="Trazado 798278" d="M45.242,12.339a2.745,2.745,0,0,1,2.742,2.742h2.742a5.484,5.484,0,0,0-10.968,0v2.742a5.484,5.484,0,0,0,10.968,0H47.984a2.742,2.742,0,1,1-5.484,0V15.081A2.745,2.745,0,0,1,45.242,12.339Z"/>
        <path id="Trazado_798279" data-name="Trazado 798279" d="M60.323,9.6H53.468v13.71H56.21V17.823h4.113a1.373,1.373,0,0,1,1.371,1.371v4.113h2.742V19.194a4.086,4.086,0,0,0-1.069-2.742A4.1,4.1,0,0,0,60.323,9.6ZM56.21,15.081V12.339h4.113a1.371,1.371,0,0,1,0,2.742Z"/>
        <path id="Trazado_798280" data-name="Trazado 798280" d="M74.415,17.823H73.65L70.908,9.6h-3.73v13.71h2.742v-8l1.753,5.262h4.719L78.145,15.3v8h2.742V9.6h-3.73Z"/>
        <path id="Trazado_798281" data-name="Trazado 798281" d="M17.823,28.79h2.742v2.742H17.823Z"/>
        <path id="Trazado_798282" data-name="Trazado 798282" d="M6.855,28.79H9.6v2.742H6.855Z"/>
        <path id="Trazado_798283" data-name="Trazado 798283" d="M12.339,28.79h2.742v2.742H12.339Z"/>
        <path id="Trazado_798284" data-name="Trazado 798284" d="M71.29,42.5H49.355a4.118,4.118,0,0,0-4.113,4.113v2.742a4.118,4.118,0,0,0,4.113,4.113V56.21a4.118,4.118,0,0,0-4.113,4.113v2.742a4.118,4.118,0,0,0,4.113,4.113v2.742a4.118,4.118,0,0,0-4.113,4.113v2.742a4.118,4.118,0,0,0,4.113,4.113H71.29A4.118,4.118,0,0,0,75.4,76.774V74.032a4.118,4.118,0,0,0-4.113-4.113V67.177A4.118,4.118,0,0,0,75.4,63.065V60.323A4.118,4.118,0,0,0,71.29,56.21V53.468A4.118,4.118,0,0,0,75.4,49.355V46.613A4.118,4.118,0,0,0,71.29,42.5Zm1.371,31.532v2.742a1.372,1.372,0,0,1-1.371,1.371H49.355a1.372,1.372,0,0,1-1.371-1.371V74.032a1.372,1.372,0,0,1,1.371-1.371H71.29A1.372,1.372,0,0,1,72.661,74.032Zm-4.113-4.113H52.1V67.177H68.548Zm4.113-9.6v2.742a1.372,1.372,0,0,1-1.371,1.371H49.355a1.372,1.372,0,0,1-1.371-1.371V60.323a1.372,1.372,0,0,1,1.371-1.371H71.29A1.372,1.372,0,0,1,72.661,60.323ZM68.548,56.21H52.1V53.468H68.548Zm4.113-6.855a1.372,1.372,0,0,1-1.371,1.371H49.355a1.372,1.372,0,0,1-1.371-1.371V46.613a1.372,1.372,0,0,1,1.371-1.371H71.29a1.372,1.372,0,0,1,1.371,1.371Z"/>
        <path id="Trazado_798285" data-name="Trazado 798285" d="M79.516,1.371H41.129a6.863,6.863,0,0,0-6.855,6.855V23.306H5.484a4.118,4.118,0,0,0-4.113,4.113V82.258a4.118,4.118,0,0,0,4.113,4.113h71.29a4.118,4.118,0,0,0,4.113-4.113V31.394a6.867,6.867,0,0,0,5.484-6.716V8.226a6.863,6.863,0,0,0-6.855-6.855ZM5.484,26.048H34.413a6.867,6.867,0,0,0,6.716,5.484h4.842l2.285,2.742H4.113V27.419A1.373,1.373,0,0,1,5.484,26.048Zm71.29,57.581H5.484a1.372,1.372,0,0,1-1.371-1.371V37.016H50.541l1.034,1.241a4.158,4.158,0,0,0,7.108-1.241H78.145V82.258a1.372,1.372,0,0,1-1.371,1.371ZM58.952,34.274V31.532H78.145v2.742Zm24.677-9.6a4.118,4.118,0,0,1-4.113,4.113H56.21v6.8a1.431,1.431,0,0,1-2.529.916L47.255,28.79H41.129a4.118,4.118,0,0,1-4.113-4.113V8.226a4.118,4.118,0,0,1,4.113-4.113H79.516a4.118,4.118,0,0,1,4.113,4.113Z"/>
        <path id="Trazado_798286" data-name="Trazado 798286" d="M24.677,69.919A15.081,15.081,0,1,0,9.6,54.839,15.1,15.1,0,0,0,24.677,69.919Zm0-2.742a12.267,12.267,0,0,1-7.693-2.708l8.26-8.26h11.69A12.353,12.353,0,0,1,24.677,67.177Zm9.631-20.031a12.279,12.279,0,0,1,2.627,6.322H27.987ZM32.37,45.208,24.677,52.9l-7.693-7.692a12.281,12.281,0,0,1,15.385,0ZM15.046,47.146l7.693,7.693-7.693,7.692a12.281,12.281,0,0,1,0-15.385Z"/>
        <path id="Trazado_798287" data-name="Trazado 798287" d="M6.855,72.661H9.6V75.4H6.855Z"/>
        <path id="Trazado_798288" data-name="Trazado 798288" d="M12.339,72.661H42.5V75.4H12.339Z"/>
        <path id="Trazado_798289" data-name="Trazado 798289" d="M6.855,78.145h8.226v2.742H6.855Z"/>
        <path id="Trazado_798290" data-name="Trazado 798290" d="M17.823,78.145H42.5v2.742H17.823Z"/>
      </g>
    </g>
  </g>
</svg>
