<svg xmlns="http://www.w3.org/2000/svg" xmlns:xlink="http://www.w3.org/1999/xlink" width="67" height="67" viewBox="0 0 67 67">
  <defs>
    <clipPath id="clip-path">
      <rect id="Rectángulo_374171" data-name="Rectángulo 374171" width="67" height="67" transform="translate(218 6046)" fill="#fff"/>
    </clipPath>
  </defs>
  <g id="Enmascarar_grupo_1059013" data-name="Enmascarar grupo 1059013" transform="translate(-218 -6046)" clip-path="url(#clip-path)">
    <g id="metrica" transform="translate(218 6046)">
      <path id="Trazado_798202" data-name="Trazado 798202" d="M52.475,1.309H7.459A2.617,2.617,0,0,0,4.842,3.926V63.074a2.617,2.617,0,0,0,2.617,2.617H52.475a2.617,2.617,0,0,0,2.617-2.617V3.926A2.617,2.617,0,0,0,52.475,1.309Z" fill="#fff"/>
      <path id="Trazado_798203" data-name="Trazado 798203" d="M33.636,23.195l-8.918-8.918L11.646,27.35V33.5H48.287V8.544Z" fill="#ade5ff"/>
      <circle id="Elipse_4783" data-name="Elipse 4783" cx="12.563" cy="12.563" r="12.563" transform="translate(37.033 40.566)" fill="#ff5d5d"/>
      <circle id="Elipse_4784" data-name="Elipse 4784" cx="7.285" cy="7.285" r="7.285" transform="translate(42.311 45.844)" fill="#fff"/>
      <circle id="Elipse_4785" data-name="Elipse 4785" cx="2.617" cy="2.617" r="2.617" transform="translate(46.979 50.512)" fill="#ff5d5d"/>
      <path id="Trazado_798204" data-name="Trazado 798204" d="M37.033,64.383H7.459A1.31,1.31,0,0,1,6.15,63.074V3.926A1.31,1.31,0,0,1,7.459,2.617H52.475a1.31,1.31,0,0,1,1.309,1.309v26.1a1.309,1.309,0,0,0,2.617,0V3.926A3.93,3.93,0,0,0,52.475,0H7.459A3.93,3.93,0,0,0,3.533,3.926V63.074A3.93,3.93,0,0,0,7.459,67H37.033a1.309,1.309,0,0,0,0-2.617Z"/>
      <path id="Trazado_798205" data-name="Trazado 798205" d="M55.092,33.238a1.309,1.309,0,1,0,.925.383A1.318,1.318,0,0,0,55.092,33.238Z"/>
      <path id="Trazado_798206" data-name="Trazado 798206" d="M11.646,9.684a1.309,1.309,0,1,0-.925-.384A1.318,1.318,0,0,0,11.646,9.684Z"/>
      <path id="Trazado_798207" data-name="Trazado 798207" d="M49.3,9.385a1.309,1.309,0,0,0-1.851-1.851l-13.81,13.81-7.992-7.992a1.309,1.309,0,0,0-1.851,0L12.955,24.19V13.649a1.309,1.309,0,0,0-2.617,0V33.5a1.309,1.309,0,0,0,1.309,1.309H48.287A1.309,1.309,0,0,0,49.6,33.5V16.75a1.309,1.309,0,0,0-2.617,0V32.191H42.268V16.414ZM32.322,32.191H27.611V19.021l4.711,4.711Zm-7.6-16.064.275.275V32.191H20.283V20.564ZM12.955,27.892l4.711-4.711v9.011H12.955Zm26.7,4.3H34.939V23.742l4.711-4.711Z"/>
      <path id="Trazado_798208" data-name="Trazado 798208" d="M23.555,38.473H11.646a1.309,1.309,0,0,0,0,2.617H23.555a1.309,1.309,0,0,0,0-2.617Z"/>
      <path id="Trazado_798209" data-name="Trazado 798209" d="M23.555,44.754H11.646a1.309,1.309,0,0,0,0,2.617H23.555a1.309,1.309,0,0,0,0-2.617Z"/>
      <path id="Trazado_798210" data-name="Trazado 798210" d="M23.555,51.035H11.646a1.309,1.309,0,0,0,0,2.617H23.555a1.309,1.309,0,0,0,0-2.617Z"/>
      <path id="Trazado_798211" data-name="Trazado 798211" d="M23.555,57.316H11.646a1.309,1.309,0,0,0,0,2.617H23.555a1.309,1.309,0,0,0,0-2.617Z"/>
      <path id="Trazado_798212" data-name="Trazado 798212" d="M49.6,39.258a13.808,13.808,0,0,0-8.835,3.186l-.02-.02V39.61a1.309,1.309,0,0,0-2.617,0v.2L37,38.685a1.309,1.309,0,0,0-1.851,1.851l1.121,1.121h-.2a1.309,1.309,0,0,0,0,2.617H38.89l.02.02A13.866,13.866,0,1,0,49.6,39.258Zm0,25.125a11.245,11.245,0,0,1-8.824-18.227l1.865,1.865a8.648,8.648,0,1,0,1.851-1.851l-1.865-1.865A11.251,11.251,0,1,1,49.6,64.383ZM46.054,51.437A3.927,3.927,0,1,0,47.9,49.587l-1.535-1.535A6.028,6.028,0,1,1,44.518,49.9Zm2.318,1.776a1.306,1.306,0,0,0,1.3-1.389,1.308,1.308,0,1,1-1.385,1.385C48.318,53.211,48.345,53.213,48.372,53.213Z"/>
    </g>
  </g>
</svg>
