<svg xmlns="http://www.w3.org/2000/svg" xmlns:xlink="http://www.w3.org/1999/xlink" width="67" height="67" viewBox="0 0 67 67">
  <defs>
    <clipPath id="clip-path">
      <rect id="Rectángulo_374178" data-name="Rectángulo 374178" width="67" height="67" transform="translate(8098 -5654)" fill="#fff"/>
    </clipPath>
    <clipPath id="clip-path-2">
      <path id="path3134" d="M0-67H67V0H0Z"/>
    </clipPath>
  </defs>
  <g id="Enmascarar_grupo_1059014" data-name="Enmascarar grupo 1059014" transform="translate(-8098 5654)" clip-path="url(#clip-path)">
    <g id="g3120" transform="translate(8098 -5587)">
      <g id="g3122" transform="translate(47.727 -48.293)">
        <path id="path3124" d="M0,0,5.031,4.564,9.6-.464,4.567-5.029Z" fill="#ffda8f"/>
      </g>
      <g id="g3126" transform="translate(19.443 -48.293)">
        <path id="path3128" d="M0,0-5.031,4.564-9.6-.464l5.031-4.564Z" fill="#ffda8f"/>
      </g>
      <g id="g3130">
        <g id="g3132" clip-path="url(#clip-path-2)">
          <g id="g3138" transform="translate(59.018 -26.794)">
            <path id="path3140" d="M0,0A25.511,25.511,0,0,1-25.518,25.5,25.51,25.51,0,0,1-51.035,0,25.51,25.51,0,0,1-25.518-25.5,25.51,25.51,0,0,1,0,0" fill="#ffda8f"/>
          </g>
          <g id="g3142" transform="translate(53.783 -26.794)">
            <path id="path3144" d="M0,0A20.277,20.277,0,0,1-20.283,20.272,20.277,20.277,0,0,1-40.566,0,20.277,20.277,0,0,1-20.283-20.272,20.277,20.277,0,0,1,0,0" fill="#fff"/>
          </g>
          <g id="g3146" transform="translate(25.006 -62.957)">
            <path id="path3148" d="M0,0V4.075l3.4,1.7,1.7,5.093h6.8l1.7-5.093,3.4-1.7V0a2.717,2.717,0,0,0-2.718-2.717H2.718A2.717,2.717,0,0,0,0,0" fill="#ffda8f"/>
          </g>
          <g id="g3150" transform="translate(53.783 -26.793)">
            <path id="path3152" d="M0,0A20.253,20.253,0,0,1-9.444,17.137L-20.283-.037V-20.272A20.277,20.277,0,0,1,0,0" fill="#ff7a7a"/>
          </g>
          <g id="g3154" transform="translate(32.191 -45.711)">
            <path id="path3156" d="M0,0V19.259L10.316,35.6A18.971,18.971,0,0,1-17.666,18.917,19.022,19.022,0,0,1,0,0M20.283,18.917A18.944,18.944,0,0,1,12.526,34.2L3.243,19.5l12.438-5.16a1.309,1.309,0,0,0-1-2.417l-12.061,5V0A19.022,19.022,0,0,1,20.283,18.917M1.309,40.5a21.58,21.58,0,1,0,0-43.161,21.58,21.58,0,1,0,0,43.161"/>
          </g>
          <g id="g3158" transform="translate(49.576 -48.383)">
            <path id="path3160" d="M0,0,2.807-3.091,5.9-.285,3.093,2.806ZM-21.09-10.221l-2.183-1.088v-3.266A1.436,1.436,0,0,1-21.852-16H-10.3a1.436,1.436,0,0,1,1.422,1.426v3.266l-2.192,1.094a16.155,16.155,0,0,0-10.02-.006m7.469,5.213H-18.53l-.98-2.943a13.736,13.736,0,0,1,6.867.008ZM-35.044,2.631l-.1.1-2.74-3.017,3.093-2.806L-31.982,0a27.018,27.018,0,0,0-3.061,2.631M10.2,16.185a26.683,26.683,0,0,0-1.562-5.033A26.844,26.844,0,0,0,6.169,6.6c-.42-.621-.869-1.225-1.341-1.81L8.718.5a1.309,1.309,0,0,0,.338-.943,1.309,1.309,0,0,0-.428-.906L3.6-5.908a1.309,1.309,0,0,0-1.848.089L-2.265-1.4a26.833,26.833,0,0,0-3.37-1.716A26.655,26.655,0,0,0-10.67-4.678l-.286-.055L-9.91-7.871l2.919-1.457a1.316,1.316,0,0,0,.73-1.172v-4.075A4.056,4.056,0,0,0-10.3-18.617H-21.852a4.056,4.056,0,0,0-4.039,4.043V-10.5a1.314,1.314,0,0,0,.73,1.171l2.916,1.456L-21.2-4.731c-.094.018-.19.034-.283.053a26.655,26.655,0,0,0-5.036,1.562,26.914,26.914,0,0,0-3.26,1.651l-3.955-4.354a1.308,1.308,0,0,0-1.848-.089L-40.61-1.344a1.308,1.308,0,0,0-.428.906A1.307,1.307,0,0,0-40.7.5l3.8,4.184c-.5.616-.977,1.253-1.42,1.909a26.834,26.834,0,0,0-2.473,4.554,26.683,26.683,0,0,0-1.562,5.033,26.947,26.947,0,0,0-.546,5.4,26.666,26.666,0,0,0,1.837,9.77,1.3,1.3,0,0,0,.49.61,1.317,1.317,0,0,0,1.206.132,1.311,1.311,0,0,0,.741-1.7,24.079,24.079,0,0,1-1.657-8.816,24.043,24.043,0,0,1,7.09-17.109A24.052,24.052,0,0,1-19.311-2.391h6.47A24.052,24.052,0,0,1,1.043,4.481a24.045,24.045,0,0,1,7.09,17.109A24.038,24.038,0,0,1,1.043,38.7a24.068,24.068,0,0,1-17.119,7.087,24.171,24.171,0,0,1-16.26-6.271,1.309,1.309,0,0,0-.88-.339,1.315,1.315,0,0,0-.97.429,1.312,1.312,0,0,0,.09,1.849,26.977,26.977,0,0,0,3.849,2.906A26.769,26.769,0,0,0-25.9,46.536a26.7,26.7,0,0,0,9.822,1.846h0a26.954,26.954,0,0,0,5.406-.536,26.565,26.565,0,0,0,5.035-1.558A26.783,26.783,0,0,0-1.078,43.82a26.963,26.963,0,0,0,3.97-3.273A27.1,27.1,0,0,0,6.169,36.58a26.9,26.9,0,0,0,2.473-4.555A26.627,26.627,0,0,0,10.2,26.992a26.936,26.936,0,0,0,.546-5.4,26.947,26.947,0,0,0-.546-5.4"/>
          </g>
          <g id="g3162" transform="translate(18.45 -28.085)">
            <path id="path3164" d="M0,0A1.309,1.309,0,0,0,0,2.617,1.309,1.309,0,0,0,1.31,1.307,1.308,1.308,0,0,0,0,0"/>
          </g>
          <g id="g3166" transform="translate(33.509 -10.445)">
            <path id="path3168" d="M0,0A1.309,1.309,0,0,0,1.309-1.309,1.31,1.31,0,0,0,0-2.617a1.308,1.308,0,0,0-1.307,1.31A1.307,1.307,0,0,0,0,0"/>
          </g>
          <g id="g3170" transform="translate(47.24 -26.825)">
            <path id="path3172" d="M0,0V.031a1.309,1.309,0,0,0,2.617,0V-.007a1.306,1.306,0,0,0-1.311-1.3A1.308,1.308,0,0,0,0,0"/>
          </g>
          <g id="g3174" transform="translate(12.488 -13.626)">
            <path id="path3176" d="M0,0A1.309,1.309,0,0,0,0,2.617,1.309,1.309,0,0,0,1.309,1.309,1.309,1.309,0,0,0,0,0"/>
          </g>
        </g>
      </g>
    </g>
  </g>
</svg>
