<svg xmlns="http://www.w3.org/2000/svg" xmlns:xlink="http://www.w3.org/1999/xlink" width="334.752" height="344.673" viewBox="0 0 334.752 344.673">
  <defs>
    <clipPath id="clip-path">
      <rect id="Rectángulo_374416" data-name="Rectángulo 374416" width="151.783" height="296.198" rx="14.52" fill="#263238" stroke="#263238" stroke-linecap="round" stroke-linejoin="round" stroke-width="1"/>
    </clipPath>
    <clipPath id="clip-path-2">
      <path id="Trazado_799159" data-name="Trazado 799159" d="M385.831,153.27H224.2v47.946a61.118,61.118,0,1,0,56.791,97.127H385.831Z" transform="translate(-170.851 -153.27)" fill="none"/>
    </clipPath>
    <clipPath id="clip-path-3">
      <path id="Trazado_799114" data-name="Trazado 799114" d="M164,337.8s16.921-58.919,20.116-71.513,8.027-20.79,18-22.789,28.376-3.853,28.376-3.853,16-1.605,27.589-.8,22.195,7,27.79,11.238,21.793,18.791,21.793,18.791l-2-33.585,14.593,1.2s10.6,46.782,11.992,55.387,1.4,12.4,0,13.4,1,1.605-11.792-2.6-27.79-9.994-35.985-12.394-9.2-2.8-9.2-2.8-20.068,30.2-26.449,39.2a155.268,155.268,0,0,0-11.655,20.068" transform="translate(-164 -235.29)" fill="#fff" stroke="#263238" stroke-linecap="round" stroke-linejoin="round" stroke-width="1"/>
    </clipPath>
    <clipPath id="clip-path-4">
      <path id="Trazado_799123" data-name="Trazado 799123" d="M259.951,218.53s-3.4,10.4-6.213,14.023-4.014,4.2-4.993,12.594,3.4,27.388,4.816,26.987,15.2-22.387,19.795-25.992,9.4-7.393,9.4-7.393-11.2-3.4-14.995-8.2a107.084,107.084,0,0,1-7.81-12.025Z" transform="translate(-248.604 -218.53)" fill="#fff" stroke="#263238" stroke-linecap="round" stroke-linejoin="round" stroke-width="1"/>
    </clipPath>
    <clipPath id="clip-path-5">
      <path id="Trazado_799127" data-name="Trazado 799127" d="M304.18,182.923s-.594,13.4-.2,17.788,2,12.041-1.605,19.193-6.6,11.8-9.994,13-14.393-1.2-23.19-7.794-10.4-20.188-11.8-24.587.2-19.393,9.2-24.194a31.747,31.747,0,0,1,23.591-2.2C294.989,175.723,304.18,182.923,304.18,182.923Z" transform="translate(-256.944 -172.805)" fill="#fff" stroke="#263238" stroke-linecap="round" stroke-linejoin="round" stroke-width="1"/>
    </clipPath>
    <clipPath id="clip-path-6">
      <path id="Trazado_799138" data-name="Trazado 799138" d="M257.952,203.342s1.8-7.794,6.2-10.6,8.6-2.2,6-6-4.014-7.6,1.605-9.4,16.592,1.2,22.989,3.6,18.791,3.211,21.994-5.8c1.975-5.555-3.8-9.978-8.027-12.249a23.526,23.526,0,0,0-15.211-2.817c-3.211.554-6.269,1.814-9.48,2.135-5.434.554-10.226-1.967-15.645-.658a21.544,21.544,0,0,0-11.6,7.224C251.755,174.95,250.35,186.148,257.952,203.342Z" transform="translate(-252.63 -159.776)" fill="#263238" stroke="#263238" stroke-linecap="round" stroke-linejoin="round" stroke-width="1"/>
    </clipPath>
    <clipPath id="clip-path-7">
      <path id="Trazado_799148" data-name="Trazado 799148" d="M217.587,256.316l14.673,45.826s33.714-19.634,41.612-29.877,12.458-21.793,15.251-22.877,12.651,1.605,14.1,3.211,1.108,3.363-.642,5.017a7.218,7.218,0,0,1-2.745,1.886s-.088,3.6-.875,4.23-.6-.185-.8.618a6.237,6.237,0,0,1-.923,2.408c-.578.8-.8,1.22-1.357,1.437A18.4,18.4,0,0,1,292.3,269.3a47.057,47.057,0,0,1-6.566,1.2c-1.389.241-10.435,18.117-18.928,28.769s-35.319,35.078-39.533,35.207-28.97-40.761-34.275-50.8" transform="translate(-193 -249.138)" fill="#fff" stroke="#263238" stroke-linecap="round" stroke-linejoin="round" stroke-width="1"/>
    </clipPath>
    <clipPath id="clip-path-8">
      <path id="Trazado_799153" data-name="Trazado 799153" d="M312.427,269.288A18.4,18.4,0,0,0,316,268.18c.594-.217.8-.618,1.357-1.437a6.237,6.237,0,0,0,.923-2.408c.177-.8.7-1.076,1.477-1.7s.177-3.147.177-3.147a7.218,7.218,0,0,0,2.745-1.886c1.75-1.654,2.1-3.46.642-5.017s-11.326-4.254-14.1-3.211-6.959,11.7-14.224,21.593l6.759,5.539c2.119-3.532,3.628-5.924,4.126-6.012a47.054,47.054,0,0,0,6.542-1.2Z" transform="translate(-295 -249.139)" fill="#fff" stroke="#263238" stroke-linecap="round" stroke-linejoin="round" stroke-width="1"/>
    </clipPath>
  </defs>
  <g id="Mobile_Marketing-bro" data-name="Mobile Marketing-bro" transform="translate(-31.91 -30.057)">
    <g id="freepik--Icons--inject-6" transform="translate(31.91 30.056)">
      <path id="Trazado_799084" data-name="Trazado 799084" d="M126.72,74.92,227.7,239.892l122.7-116.24" transform="translate(-50.616 -39.352)" fill="none" stroke="#263238" stroke-linecap="round" stroke-linejoin="round" stroke-width="1"/>
      <path id="Trazado_799085" data-name="Trazado 799085" d="M60.58,276.258l154.071-7.505L102.521,221.2" transform="translate(-37.566 -68.212)" fill="none" stroke="#263238" stroke-linecap="round" stroke-linejoin="round" stroke-width="1"/>
      <path id="Trazado_799086" data-name="Trazado 799086" d="M277.7,50.58,254.77,238.975l140.618,27.9" transform="translate(-75.879 -34.55)" fill="none" stroke="#263238" stroke-linecap="round" stroke-linejoin="round" stroke-width="1"/>
      <path id="Trazado_799087" data-name="Trazado 799087" d="M115.75,397.852,225.536,280.44l113.888,86.3" transform="translate(-48.451 -79.9)" fill="none" stroke="#263238" stroke-linecap="round" stroke-linejoin="round" stroke-width="1"/>
      <path id="Trazado_799088" data-name="Trazado 799088" d="M51.5,263.8a19.586,19.586,0,1,0,19.586,19.586A19.586,19.586,0,0,0,51.5,263.8Z" transform="translate(-31.91 -76.617)" fill="#263238"/>
      <path id="Trazado_799089" data-name="Trazado 799089" d="M65.641,285a11.238,11.238,0,0,0-22.4-.2v.49a11.053,11.053,0,0,0,1.605,5.747L42.82,297l6.213-1.975a11.238,11.238,0,0,0,16.624-9.737C65.649,285.2,65.649,285.1,65.641,285ZM54.4,294.636a9.423,9.423,0,0,1-5.185-1.549l-3.62,1.156,1.18-3.476a9.231,9.231,0,0,1-1.8-5.482,8.468,8.468,0,0,1,.048-.907,9.432,9.432,0,0,1,18.807.169v.73a9.408,9.408,0,0,1-9.4,9.368Z" transform="translate(-34.062 -78.74)" fill="#fff" fill-rule="evenodd"/>
      <path id="Trazado_799090" data-name="Trazado 799090" d="M61.1,288.925c-.281-.136-1.605-.8-1.886-.883s-.433-.136-.618.136-.714.883-.867,1.068-.321.2-.6.064a7.369,7.369,0,0,1-2.207-1.357,7.97,7.97,0,0,1-1.525-1.878c-.161-.273,0-.425.12-.562s.273-.313.409-.474l.1-.128a2.514,2.514,0,0,0,.169-.329.49.49,0,0,0,0-.474c-.072-.136-.618-1.485-.851-2.031s-.458-.45-.618-.45h-.53a1,1,0,0,0-.73.337,3.05,3.05,0,0,0-.963,2.28,3.363,3.363,0,0,0,.144.931,6.132,6.132,0,0,0,.979,1.886,11.272,11.272,0,0,0,4.7,4.118c2.793,1.092,2.793.73,3.3.682a2.761,2.761,0,0,0,1.854-1.3,2.336,2.336,0,0,0,.161-1.292A1.938,1.938,0,0,0,61.1,288.925Z" transform="translate(-35.578 -80.133)" fill="#fff" fill-rule="evenodd"/>
      <path id="Trazado_799091" data-name="Trazado 799091" d="M116.184,46.639a19.592,19.592,0,1,0,0,39.184v0a19.592,19.592,0,1,0,0-39.184Z" transform="translate(-44.671 -33.772)" fill="#263238"/>
      <path id="Trazado_799092" data-name="Trazado 799092" d="M130.236,62.518a3.211,3.211,0,0,0-2.288-2.312c-2.031-.546-10.146-.546-10.146-.546s-8.115,0-10.138.546a3.259,3.259,0,0,0-2.3,2.312,37,37,0,0,0,0,12.57,3.275,3.275,0,0,0,2.3,2.312c2.023.546,10.138.546,10.138.546s8.115,0,10.146-.546a3.259,3.259,0,0,0,2.288-2.312A36.459,36.459,0,0,0,130.236,62.518Z" transform="translate(-46.297 -36.341)" fill="#fff"/>
      <path id="Trazado_799093" data-name="Trazado 799093" d="M117.69,73.962V66.24l6.783,3.861Z" transform="translate(-48.834 -37.64)" fill="#263238"/>
      <path id="Trazado_799094" data-name="Trazado 799094" d="M111.217,396A25.687,25.687,0,1,0,136.9,421.687,25.687,25.687,0,0,0,111.217,396Z" transform="translate(-42.489 -102.7)" fill="#263238"/>
      <path id="Trazado_799095" data-name="Trazado 799095" d="M111.29,440.4h6.646v-16.64h4.632l.5-5.571h-5.129v-3.211c0-1.316.257-1.83,1.533-1.83h3.6V407.36h-4.6c-4.945,0-7.176,2.183-7.176,6.349v4.439h-3.46v5.619h3.46Z" transform="translate(-46.889 -104.941)" fill="#fff"/>
      <path id="Trazado_799096" data-name="Trazado 799096" d="M390.442,364.11A19.594,19.594,0,1,0,410.028,383.7a19.594,19.594,0,0,0-19.586-19.589Z" transform="translate(-98.779 -96.408)" fill="#263238"/>
      <path id="Trazado_799097" data-name="Trazado 799097" d="M392.464,376.355c3.05,0,3.411,0,4.616.064a6.366,6.366,0,0,1,2.119.393,3.653,3.653,0,0,1,1.308.851,3.484,3.484,0,0,1,.851,1.316,6.116,6.116,0,0,1,.393,2.119c.056,1.2.072,1.605.072,4.607s0,3.411-.072,4.616a6.116,6.116,0,0,1-.393,2.119,3.4,3.4,0,0,1-.851,1.308,3.572,3.572,0,0,1-1.308.859,6.366,6.366,0,0,1-2.119.393c-1.2.056-1.565.064-4.616.064s-3.411,0-4.616-.064a6.422,6.422,0,0,1-2.119-.393,3.572,3.572,0,0,1-1.308-.859,3.4,3.4,0,0,1-.851-1.308,6.116,6.116,0,0,1-.393-2.119c-.056-1.2-.072-1.565-.072-4.616s0-3.4.072-4.607a6.117,6.117,0,0,1,.393-2.119,3.484,3.484,0,0,1,.851-1.317,3.653,3.653,0,0,1,1.308-.851,6.422,6.422,0,0,1,2.119-.393c1.2-.056,1.565-.064,4.616-.064m0-2.055c-3.1,0-3.492,0-4.7.064a8.373,8.373,0,0,0-2.729.5,5.828,5.828,0,0,0-3.339,3.339,8.46,8.46,0,0,0-.53,2.769c-.056,1.22-.072,1.605-.072,4.7s0,3.492.072,4.712a8.46,8.46,0,0,0,.53,2.769,5.827,5.827,0,0,0,3.339,3.379,8.372,8.372,0,0,0,2.769.53c1.212.056,1.605.064,4.7.064s3.492,0,4.7-.064a8.373,8.373,0,0,0,2.769-.53,5.827,5.827,0,0,0,3.339-3.339,8.46,8.46,0,0,0,.53-2.769c.056-1.22.072-1.605.072-4.712s0-3.484-.072-4.7a8.461,8.461,0,0,0-.53-2.769,5.828,5.828,0,0,0-3.339-3.339,8.374,8.374,0,0,0-2.769-.53c-1.212-.056-1.605-.064-4.7-.064" transform="translate(-100.801 -98.418)" fill="#fff"/>
      <path id="Trazado_799098" data-name="Trazado 799098" d="M393.816,381.21a5.868,5.868,0,1,0,5.86,5.86,5.868,5.868,0,0,0-5.86-5.86m0,9.632a3.8,3.8,0,1,1,3.8-3.8,3.8,3.8,0,0,1-3.8,3.8" transform="translate(-102.153 -99.782)" fill="#fff"/>
      <path id="Trazado_799099" data-name="Trazado 799099" d="M403.885,380.585a1.373,1.373,0,1,1-1.373-1.365,1.373,1.373,0,0,1,1.373,1.365" transform="translate(-104.757 -99.389)" fill="#fff"/>
      <path id="Trazado_799100" data-name="Trazado 799100" d="M396.88,155.04h0a29.7,29.7,0,0,1-29.7-29.7h0a29.7,29.7,0,0,1,29.7-29.7h0a29.7,29.7,0,0,1,29.7,29.7h0a29.7,29.7,0,0,1-29.7,29.7Z" transform="translate(-98.057 -43.44)" fill="#263238" stroke="#263238" stroke-linecap="round" stroke-linejoin="round" stroke-width="1"/>
      <path id="Trazado_799101" data-name="Trazado 799101" d="M384.48,139.455a18.382,18.382,0,0,0,9.946,2.914c12.041,0,18.856-10.178,18.462-19.305a13.39,13.39,0,0,0,3.211-3.355,12.931,12.931,0,0,1-3.725,1.019,6.51,6.51,0,0,0,2.85-3.588,13.043,13.043,0,0,1-4.118,1.605,6.494,6.494,0,0,0-11.061,5.916,18.4,18.4,0,0,1-13.373-6.775,6.494,6.494,0,0,0,2.007,8.661,6.51,6.51,0,0,1-2.938-.8,6.5,6.5,0,0,0,5.2,6.422,6.373,6.373,0,0,1-2.922.1,6.486,6.486,0,0,0,6.06,4.511,13.084,13.084,0,0,1-9.6,2.673Z" transform="translate(-101.47 -47.594)" fill="#fff"/>
      <path id="Trazado_799102" data-name="Trazado 799102" d="M110.348,200.73A15.468,15.468,0,1,0,125.816,216.2a15.468,15.468,0,0,0-15.468-15.468Z" transform="translate(-44.334 -64.174)" fill="gray"/>
      <rect id="Rectángulo_374413" data-name="Rectángulo 374413" width="3.403" height="10.989" transform="translate(58.1 147.971)" fill="#fff"/>
      <path id="Trazado_799103" data-name="Trazado 799103" d="M105.895,212.162a2.031,2.031,0,1,0-2.015-2.031,2.031,2.031,0,0,0,2.015,2.031Z" transform="translate(-46.109 -65.628)" fill="#fff"/>
      <path id="Trazado_799104" data-name="Trazado 799104" d="M114.5,220.1c0-1.549.706-2.464,2.071-2.464s1.846.883,1.846,2.464v5.763h3.387v-6.935c0-2.938-1.67-4.367-4.014-4.367a3.821,3.821,0,0,0-3.307,1.822v-1.469H111.22V225.9h3.267Z" transform="translate(-47.557 -66.902)" fill="#fff"/>
      <path id="Trazado_799105" data-name="Trazado 799105" d="M424.994,329.448h0a16.054,16.054,0,0,1-16.054-16.054h0a16.054,16.054,0,0,1,16.054-16.054h0a16.054,16.054,0,0,1,16.054,16.054h0a16.054,16.054,0,0,1-16.054,16.054Z" transform="translate(-106.296 -83.234)" fill="gray"/>
      <path id="Trazado_799106" data-name="Trazado 799106" d="M424.364,322.188a3.075,3.075,0,0,0,1.276-.562,3.138,3.138,0,0,0,.8-.891,3.259,3.259,0,0,0,.506-1.79,3.026,3.026,0,0,0-.441-1.654,2.5,2.5,0,0,0-1.3-1,2.682,2.682,0,0,0,.859-.634,2.528,2.528,0,0,0,.522-1.662,2.866,2.866,0,0,0-.522-1.718,3.428,3.428,0,0,0-2.914-1.2H417.71v11.238h5.049a7.632,7.632,0,0,0,1.605-.136Zm-4.415-9.151H422.4a4.181,4.181,0,0,1,1.332.177,1,1,0,0,1,.6,1.036,1.075,1.075,0,0,1-.458,1,2.264,2.264,0,0,1-1.188.273H419.95Zm0,7.353v-3h2.769a2.793,2.793,0,0,1,1.124.185,1.22,1.22,0,0,1,.722,1.212,1.421,1.421,0,0,1-.747,1.4,2.689,2.689,0,0,1-1.14.2Z" transform="translate(-108.026 -85.944)" fill="#fff"/>
      <path id="Trazado_799107" data-name="Trazado 799107" d="M431.222,322.27a4.535,4.535,0,0,0,2.93,1.019,4.013,4.013,0,0,0,3.139-1.212,2.673,2.673,0,0,0,.8-1.5H435.87a1.822,1.822,0,0,1-.441.57,1.846,1.846,0,0,1-1.212.385,2.239,2.239,0,0,1-1.2-.313,2,2,0,0,1-.867-1.758h6.06a10.431,10.431,0,0,0-.064-1.654,4.238,4.238,0,0,0-.666-1.726,3.411,3.411,0,0,0-1.437-1.228,4.816,4.816,0,0,0-1.959-.393,4.013,4.013,0,0,0-2.978,1.156,4.527,4.527,0,0,0-1.108,3.291,4.014,4.014,0,0,0,1.228,3.363Zm1.557-5.539a1.734,1.734,0,0,1,1.3-.474,1.934,1.934,0,0,1,1.292.449,1.822,1.822,0,0,1,.578,1.316H432.2a2.247,2.247,0,0,1,.578-1.292Z" transform="translate(-110.445 -86.611)" fill="#fff"/>
      <rect id="Rectángulo_374414" data-name="Rectángulo 374414" width="4.897" height="1.14" transform="translate(321.042 225.785)" fill="#fff"/>
      <path id="Trazado_799108" data-name="Trazado 799108" d="M279.384,62.718h0A16.054,16.054,0,0,1,263.33,46.664h0A16.054,16.054,0,0,1,279.384,30.61h0a16.054,16.054,0,0,1,16.054,16.054h0A16.054,16.054,0,0,1,279.384,62.718Z" transform="translate(-77.568 -30.61)" fill="gray"/>
      <path id="Trazado_799109" data-name="Trazado 799109" d="M290.322,53.15h0a2.127,2.127,0,0,0-.6-.217h0a5.194,5.194,0,0,1-2.48-1.806,5.531,5.531,0,0,1-.883-1.5h0a.722.722,0,0,1,0-.634h0a1.734,1.734,0,0,1,.851-.538h0a3.339,3.339,0,0,0,1.148-.594h0a.619.619,0,0,0,.169-.217.192.192,0,0,0,0-.072.4.4,0,0,0,0-.305h0a.907.907,0,0,0-.4-.385h0a.8.8,0,0,0-.69-.064h0a3.492,3.492,0,0,1-.61.177,1.549,1.549,0,0,1-.7,0v-.153h0V45.533h0a12.144,12.144,0,0,0-.048-2.087h0a4.688,4.688,0,0,0-1.959-2.906,4.945,4.945,0,0,0-2.408-.851h-.859a5.025,5.025,0,0,0-4.864,3.114h0a5.731,5.731,0,0,0-.257,2.537h0a13.1,13.1,0,0,1,.04,1.67h0a2.352,2.352,0,0,1-.8,0h0a2.825,2.825,0,0,1-.634-.177h0a.8.8,0,0,0-.618.144h0a.634.634,0,0,0-.337.506v.048h0a.554.554,0,0,0,.209.337l.217.161h0a6.372,6.372,0,0,0,1.292.562h0a.931.931,0,0,1,.578.546,1.606,1.606,0,0,1-.233,1h0a6.028,6.028,0,0,1-1.926,2.207,4.816,4.816,0,0,1-1.445.658h0a.843.843,0,0,0-.514.3v.056a.425.425,0,0,0,.08.4.634.634,0,0,0,.217.169h0a5.121,5.121,0,0,0,1.324.466h0a4.013,4.013,0,0,1,.8.209l.088.225c.08.241.112.514.2.8a.249.249,0,0,0,.185.161.409.409,0,0,0,.313,0h0a5.153,5.153,0,0,1,2.1-.072h0a8.164,8.164,0,0,1,2.007,1.084h0a3.275,3.275,0,0,0,1.605.578h0a10.435,10.435,0,0,0,1.332,0h0a2.48,2.48,0,0,0,1.052-.353h0c.714-.409,1.341-.891,2.039-1.2h0a3.38,3.38,0,0,1,.8-.088h0a10.315,10.315,0,0,1,1.726.08.072.072,0,0,0,.056,0,.321.321,0,0,0,.2-.1.305.305,0,0,0,.056-.12h0a.112.112,0,0,0,0-.048,2.36,2.36,0,0,1,.337-.8.466.466,0,0,1,.353-.112h0a5.988,5.988,0,0,0,1.365-.385h0a1.2,1.2,0,0,0,.554-.377h0a.393.393,0,0,0-.112-.562Z" transform="translate(-79.187 -32.4)" fill="#fff" fill-rule="evenodd"/>
    </g>
    <g id="freepik--Device--inject-6" transform="translate(130.827 74.189)">
      <rect id="Rectángulo_374415" data-name="Rectángulo 374415" width="151.783" height="296.198" rx="14.52" fill="#263238"/>
      <g id="Grupo_1064949" data-name="Grupo 1064949" clip-path="url(#clip-path)">
        <path id="Trazado_799110" data-name="Trazado 799110" d="M168.216,85.59A13.076,13.076,0,0,0,155.14,98.666V368.7a13.052,13.052,0,0,0,4.688,10.034L248.382,85.59Z" transform="translate(-155.14 -85.59)" fill="#fff" opacity="0.2"/>
        <path id="Trazado_799111" data-name="Trazado 799111" d="M253.563,442.641a5.153,5.153,0,1,0-1.507,3.649A5.161,5.161,0,0,0,253.563,442.641Z" transform="translate(-172.522 -155.016)" fill="none" stroke="#fff" stroke-linecap="round" stroke-linejoin="round" stroke-width="1"/>
      </g>
      <rect id="Rectángulo_374417" data-name="Rectángulo 374417" width="151.783" height="296.198" rx="14.52" fill="none" stroke="#263238" stroke-linecap="round" stroke-linejoin="round" stroke-width="1"/>
      <rect id="Rectángulo_374418" data-name="Rectángulo 374418" width="138.282" height="258.503" transform="translate(6.743 20.116)" fill="#94e435" stroke="#263238" stroke-linecap="round" stroke-linejoin="round" stroke-width="1"/>
      <circle id="Elipse_4797" data-name="Elipse 4797" cx="63.406" cy="63.406" r="63.406" transform="translate(10.307 99.487)" fill="#263238"/>
      <rect id="Rectángulo_374419" data-name="Rectángulo 374419" width="129.276" height="29.435" transform="translate(11.527 51.14)" fill="#fff"/>
      <rect id="Rectángulo_374420" data-name="Rectángulo 374420" width="129.276" height="29.435" transform="translate(11.527 244.408)" fill="#fff"/>
      <rect id="Rectángulo_374421" data-name="Rectángulo 374421" width="129.276" height="1.276" transform="translate(11.527 234.173)" fill="#fff"/>
      <rect id="Rectángulo_374422" data-name="Rectángulo 374422" width="129.276" height="1.276" transform="translate(11.527 239.929)" fill="#fff"/>
      <rect id="Rectángulo_374423" data-name="Rectángulo 374423" width="11.463" height="6.285" transform="translate(128.858 22.797)" fill="none" stroke="#263238" stroke-linecap="round" stroke-linejoin="round" stroke-width="0.821"/>
      <rect id="Rectángulo_374424" data-name="Rectángulo 374424" width="8.942" height="6.285" transform="translate(128.858 22.797)" fill="#263238" stroke="#263238" stroke-linecap="round" stroke-linejoin="round" stroke-width="0.725"/>
      <rect id="Rectángulo_374425" data-name="Rectángulo 374425" width="1.613" height="2.769" transform="translate(140.297 24.555)" fill="#263238" stroke="#263238" stroke-linecap="round" stroke-linejoin="round" stroke-width="0.725"/>
      <rect id="Rectángulo_374426" data-name="Rectángulo 374426" width="2.103" height="3.604" transform="translate(9.857 24.747)" fill="#263238" stroke="#263238" stroke-linecap="round" stroke-linejoin="round" stroke-width="0.883"/>
      <rect id="Rectángulo_374427" data-name="Rectángulo 374427" width="2.103" height="4.872" transform="translate(13.164 23.479)" fill="#263238" stroke="#263238" stroke-linecap="round" stroke-linejoin="round" stroke-width="0.883"/>
      <rect id="Rectángulo_374428" data-name="Rectángulo 374428" width="2.103" height="6.365" transform="translate(16.463 21.986)" fill="#263238" stroke="#263238" stroke-linecap="round" stroke-linejoin="round" stroke-width="0.883"/>
      <rect id="Rectángulo_374429" data-name="Rectángulo 374429" width="132.783" height="9.986" transform="translate(8.974 32.574)" fill="#263238"/>
    </g>
    <g id="freepik--Character--inject-6" transform="translate(143.438 128.516)">
      <g id="Grupo_1064956" data-name="Grupo 1064956" clip-path="url(#clip-path-2)">
        <path id="Trazado_799112" data-name="Trazado 799112" d="M164,337.8s16.921-58.919,20.116-71.513,8.027-20.79,18-22.789,28.376-3.853,28.376-3.853,16-1.605,27.589-.8,22.195,7,27.79,11.238,21.793,18.791,21.793,18.791l-2-33.585,14.593,1.2s10.6,46.782,11.992,55.387,1.4,12.4,0,13.4,1,1.605-11.792-2.6-27.79-9.994-35.985-12.394-9.2-2.8-9.2-2.8-20.068,30.2-26.449,39.2a155.268,155.268,0,0,0-11.655,20.068" transform="translate(-169.499 -169.452)" fill="#fff"/>
        <g id="Grupo_1064950" data-name="Grupo 1064950" transform="translate(-5.499 65.838)" clip-path="url(#clip-path-3)">
          <path id="Trazado_799113" data-name="Trazado 799113" d="M335.664,308.31c1.4-1,1.4-4.816,0-13.4-.8-5.129-4.937-23.84-8.115-38.112,1.26,16.857,1.75,33.328-.8,36.4-5.619,6.646-13.831-2.087-13.831-2.087L311.35,278.16s-27.982-20.638-38.482-24.137-21.673-4.2-32.534-.7-19.939,7-26.586,13.646-29.7,59.818-29.7,59.818l-2.609,15.789,59.143,7.16a155.258,155.258,0,0,1,11.655-20.068c6.422-9,26.449-39.2,26.449-39.2s1,.4,9.2,2.8,23.19,8.2,35.985,12.394S334.267,309.313,335.664,308.31Z" transform="translate(-167.441 -238.394)" opacity="0.2"/>
        </g>
        <path id="Trazado_799115" data-name="Trazado 799115" d="M164,337.8s16.921-58.919,20.116-71.513,8.027-20.79,18-22.789,28.376-3.853,28.376-3.853,16-1.605,27.589-.8,22.195,7,27.79,11.238,21.793,18.791,21.793,18.791l-2-33.585,14.593,1.2s10.6,46.782,11.992,55.387,1.4,12.4,0,13.4,1,1.605-11.792-2.6-27.79-9.994-35.985-12.394-9.2-2.8-9.2-2.8-20.068,30.2-26.449,39.2a155.268,155.268,0,0,0-11.655,20.068" transform="translate(-169.499 -169.452)" fill="none" stroke="#263238" stroke-linecap="round" stroke-linejoin="round" stroke-width="1"/>
        <path id="Trazado_799116" data-name="Trazado 799116" d="M308.3,288.67l-5.707,9.279,16.889-9.279" transform="translate(-196.842 -179.984)" fill="none" stroke="#263238" stroke-linecap="round" stroke-linejoin="round" stroke-width="1"/>
        <path id="Trazado_799117" data-name="Trazado 799117" d="M342.94,277.06s.8,16.592,1.8,19.193,5.4,3.8,5.4,3.8" transform="translate(-204.803 -177.693)" fill="#fff" stroke="#263238" stroke-linecap="round" stroke-linejoin="round" stroke-width="1"/>
        <path id="Trazado_799118" data-name="Trazado 799118" d="M232.847,270.047s-2.183,5.177-1.092,5.177,8.18-2.721,11.455-2.721,6.815,5.723,6.815,5.723,9.544-7.088,12.546-6.269a10.949,10.949,0,0,1,3.957,2.344,1.333,1.333,0,0,0,2.207-.955c.056-1.469.1-3.476.1-6.028,0-6-5.177-22.355-14.722-23.174s-11.182,6-15.251,14.176S232.847,270.047,232.847,270.047Z" transform="translate(-182.806 -171.186)" fill="#263238"/>
        <path id="Trazado_799119" data-name="Trazado 799119" d="M253.115,232.48s-9.2,1.22-13.4,5.234-2.8,10.4-5,16.191-6,17.6-4.014,17.395,9-5.8,11-4.4,6.6,7.224,7.4,7.594,11-6.992,12.394-7.794,8.2,8.027,8.4,5.619.6-16.592-.8-25.189S257.715,232.681,253.115,232.48Z" transform="translate(-182.55 -168.898)" fill="#fff" stroke="#263238" stroke-linecap="round" stroke-linejoin="round" stroke-width="1"/>
        <path id="Trazado_799120" data-name="Trazado 799120" d="M259.951,218.53s-3.4,10.4-6.213,14.023-4.014,4.2-4.993,12.594,3.4,27.388,4.816,26.987,15.2-22.387,19.795-25.992,9.4-7.393,9.4-7.393-11.2-3.4-14.995-8.2a107.084,107.084,0,0,1-7.81-12.025Z" transform="translate(-186.191 -166.145)" fill="#fff"/>
        <g id="Grupo_1064951" data-name="Grupo 1064951" transform="translate(62.413 52.385)" clip-path="url(#clip-path-4)">
          <path id="Trazado_799121" data-name="Trazado 799121" d="M277.128,244.6c3.893-3.058,7.409-5.836,7.409-5.836s-11.2-3.4-14.995-8.2a107.078,107.078,0,0,1-7.8-12,100.257,100.257,0,0,1-4.07,10.339C259.364,233.653,264.084,241.391,277.128,244.6Z" transform="translate(-250.392 -218.538)" opacity="0.2"/>
          <path id="Trazado_799122" data-name="Trazado 799122" d="M269.893,230.53a107.083,107.083,0,0,1-7.8-12s-1.14,3.492-2.641,7.128c1.244,3.6,3.741,8.966,8.212,12.129a37.229,37.229,0,0,0,11.848,5.2l5.378-4.238S273.69,235.323,269.893,230.53Z" transform="translate(-250.744 -218.53)" fill="#263238"/>
        </g>
        <path id="Trazado_799124" data-name="Trazado 799124" d="M259.951,218.53s-3.4,10.4-6.213,14.023-4.014,4.2-4.993,12.594,3.4,27.388,4.816,26.987,15.2-22.387,19.795-25.992,9.4-7.393,9.4-7.393-11.2-3.4-14.995-8.2a107.084,107.084,0,0,1-7.81-12.025Z" transform="translate(-186.191 -166.145)" fill="none" stroke="#263238" stroke-linecap="round" stroke-linejoin="round" stroke-width="1"/>
        <path id="Trazado_799125" data-name="Trazado 799125" d="M304.18,182.923s-.594,13.4-.2,17.788,2,12.041-1.605,19.193-6.6,11.8-9.994,13-14.393-1.2-23.19-7.794-10.4-20.188-11.8-24.587.2-19.393,9.2-24.194a31.747,31.747,0,0,1,23.591-2.2C294.989,175.723,304.18,182.923,304.18,182.923Z" transform="translate(-187.836 -157.124)" fill="#fff"/>
        <g id="Grupo_1064952" data-name="Grupo 1064952" transform="translate(69.107 15.681)" clip-path="url(#clip-path-5)">
          <path id="Trazado_799126" data-name="Trazado 799126" d="M268.154,176.319a13.582,13.582,0,0,0-3.444,2.657l4.632,3.291s5.948-5.948,19.265,2.448c6.871,4.335,12.8,5.033,16.929,4.688.1-3.564.225-6.486.225-6.486s-9.191-7.224-13.991-8.83A31.747,31.747,0,0,0,268.154,176.319Z" transform="translate(-258.476 -172.798)" opacity="0.2"/>
        </g>
        <path id="Trazado_799128" data-name="Trazado 799128" d="M304.18,182.923s-.594,13.4-.2,17.788,2,12.041-1.605,19.193-6.6,11.8-9.994,13-14.393-1.2-23.19-7.794-10.4-20.188-11.8-24.587.2-19.393,9.2-24.194a31.747,31.747,0,0,1,23.591-2.2C294.989,175.723,304.18,182.923,304.18,182.923Z" transform="translate(-187.836 -157.124)" fill="none" stroke="#263238" stroke-linecap="round" stroke-linejoin="round" stroke-width="1"/>
        <path id="Trazado_799129" data-name="Trazado 799129" d="M291.662,207.285c0,1.421-.554,2.577-1.236,2.577s-1.236-1.156-1.236-2.577.554-2.585,1.236-2.585S291.662,205.856,291.662,207.285Z" transform="translate(-194.198 -163.417)" fill="#263238"/>
        <path id="Trazado_799130" data-name="Trazado 799130" d="M309.852,208.957c0,1.429-.554,2.585-1.236,2.585s-1.236-1.156-1.236-2.585.554-2.577,1.236-2.577S309.852,207.536,309.852,208.957Z" transform="translate(-197.787 -163.748)" fill="#263238"/>
        <path id="Trazado_799131" data-name="Trazado 799131" d="M303.615,204.84s-3.8,3.8-2.8,5.394,3.323,2.5,2.6,4.816-6,3.211-7.794,0" transform="translate(-195.467 -163.445)" fill="none" stroke="#263238" stroke-linecap="round" stroke-linejoin="round" stroke-width="1"/>
        <path id="Trazado_799132" data-name="Trazado 799132" d="M281.1,220.28a16.5,16.5,0,0,0,12.2,6s-8.2,5.394-11.8,4.816S281.1,220.28,281.1,220.28Z" transform="translate(-192.344 -166.491)" fill="#263238" stroke="#263238" stroke-linecap="round" stroke-linejoin="round" stroke-width="1"/>
        <path id="Trazado_799133" data-name="Trazado 799133" d="M283.81,197.731s3.484-4.816,10.435-1.822" transform="translate(-193.137 -161.489)" fill="none" stroke="#263238" stroke-linecap="round" stroke-linejoin="round" stroke-width="1"/>
        <path id="Trazado_799134" data-name="Trazado 799134" d="M307.32,198.584s4.4-1.011,6,3.211" transform="translate(-197.775 -162.189)" fill="none" stroke="#263238" stroke-linecap="round" stroke-linejoin="round" stroke-width="1"/>
        <path id="Trazado_799135" data-name="Trazado 799135" d="M257.952,203.342s1.8-7.794,6.2-10.6,8.6-2.2,6-6-4.014-7.6,1.605-9.4,16.592,1.2,22.989,3.6,18.791,3.211,21.994-5.8c1.975-5.555-3.8-9.978-8.027-12.249a23.526,23.526,0,0,0-15.211-2.817c-3.211.554-6.269,1.814-9.48,2.135-5.434.554-10.226-1.967-15.645-.658a21.544,21.544,0,0,0-11.6,7.224C251.755,174.95,250.35,186.148,257.952,203.342Z" transform="translate(-186.985 -154.554)" fill="#263238"/>
        <g id="Grupo_1064953" data-name="Grupo 1064953" transform="translate(65.644 5.222)" clip-path="url(#clip-path-6)">
          <path id="Trazado_799136" data-name="Trazado 799136" d="M303.246,159.69s10.387,5.619,3.115,14.954-14.12,2.914-31.37-.409-27.42,5.194-27.42,5.194" transform="translate(-251.631 -159.759)" fill="none" stroke="gray" stroke-linecap="round" stroke-linejoin="round" stroke-width="1"/>
          <path id="Trazado_799137" data-name="Trazado 799137" d="M249.38,194.738s3.323-6.422,14.128-8.308,11.431-.209,11.431-.209" transform="translate(-251.988 -164.858)" fill="none" stroke="gray" stroke-linecap="round" stroke-linejoin="round" stroke-width="1"/>
        </g>
        <path id="Trazado_799139" data-name="Trazado 799139" d="M257.952,203.342s1.8-7.794,6.2-10.6,8.6-2.2,6-6-4.014-7.6,1.605-9.4,16.592,1.2,22.989,3.6,18.791,3.211,21.994-5.8c1.975-5.555-3.8-9.978-8.027-12.249a23.526,23.526,0,0,0-15.211-2.817c-3.211.554-6.269,1.814-9.48,2.135-5.434.554-10.226-1.967-15.645-.658a21.544,21.544,0,0,0-11.6,7.224C251.755,174.95,250.35,186.148,257.952,203.342Z" transform="translate(-186.985 -154.554)" fill="none" stroke="#263238" stroke-linecap="round" stroke-linejoin="round" stroke-width="1"/>
        <path id="Trazado_799140" data-name="Trazado 799140" d="M262.169,208.673s-5.185-11.872-9.753-5.691,3.709,14,9.921,12.482" transform="translate(-186.683 -162.726)" fill="#fff" stroke="#263238" stroke-linecap="round" stroke-linejoin="round" stroke-width="1"/>
        <path id="Trazado_799141" data-name="Trazado 799141" d="M334.061,208.777s-3.4-.4-4.014,2.408-1.2,7.224,0,7.224,3.4-.594,4.2-2.408,1.605-7.4,1.605-7.4Z" transform="translate(-202.121 -164.186)" fill="#fff" stroke="#263238" stroke-linecap="round" stroke-linejoin="round" stroke-width="1"/>
        <path id="Trazado_799142" data-name="Trazado 799142" d="M340.366,207.526s-4.816-.8-5.394,1-1.4,8.027-.8,8.2,4.2-1.4,4.2-1.4Z" transform="translate(-203.032 -163.939)" fill="#fff" stroke="#263238" stroke-linecap="round" stroke-linejoin="round" stroke-width="1"/>
        <path id="Trazado_799143" data-name="Trazado 799143" d="M347.846,207.5s-5.619-3.6-6.992-1.8-1.4,9.2-1.4,9.2a3.058,3.058,0,0,0,2.8-.8c1-1.2,2.2-2.793,2.2-2.793s4.014,1,4.6.8,2,0,1.605-2S347.846,207.5,347.846,207.5Z" transform="translate(-204.114 -163.516)" fill="#fff" stroke="#263238" stroke-linecap="round" stroke-linejoin="round" stroke-width="1"/>
        <path id="Trazado_799144" data-name="Trazado 799144" d="M356.825,210.048a18.815,18.815,0,0,1-6-6.8c-2-4.2-3-4.014-4.014-2.2s.193,3.6,1,5.194a43.455,43.455,0,0,0,4.2,5.4Z" transform="translate(-205.491 -162.456)" fill="#fff" stroke="#263238" stroke-linecap="round" stroke-linejoin="round" stroke-width="1"/>
        <path id="Trazado_799145" data-name="Trazado 799145" d="M313.967,247.4s-2.9,24.747-2.448,26.088,5.346,2.9,6.462,2.007.45-2.673,0-3.789,3.789-21.85,3.789-21.85Z" transform="translate(-198.594 -171.841)" fill="#94e435" stroke="#263238" stroke-linecap="round" stroke-linejoin="round" stroke-width="1"/>
        <path id="Trazado_799146" data-name="Trazado 799146" d="M217.587,256.316l14.673,45.826s33.714-19.634,41.612-29.877,12.458-21.793,15.251-22.877,12.651,1.605,14.1,3.211,1.108,3.363-.642,5.017a7.218,7.218,0,0,1-2.745,1.886s-.088,3.6-.875,4.23-.6-.185-.8.618a6.237,6.237,0,0,1-.923,2.408c-.578.8-.8,1.22-1.357,1.437A18.4,18.4,0,0,1,292.3,269.3a47.057,47.057,0,0,1-6.566,1.2c-1.389.241-10.435,18.117-18.928,28.769s-35.319,35.078-39.533,35.207-28.97-40.761-34.275-50.8" transform="translate(-175.221 -172.184)" fill="#fff"/>
        <g id="Grupo_1064954" data-name="Grupo 1064954" transform="translate(17.779 76.954)" clip-path="url(#clip-path-7)">
          <path id="Trazado_799147" data-name="Trazado 799147" d="M300.459,266.743a6.238,6.238,0,0,0,.923-2.408c.177-.8,0,0,.8-.618s.875-4.23.875-4.23a7.218,7.218,0,0,0,2.745-1.886c1.75-1.654,2.1-3.46.642-5.017s-11.326-4.254-14.1-3.211a7.147,7.147,0,0,0-2.569,2.793c1.469,2.408,3.211,3.877,1.605,8.083-2.408,6.422-8.027,14.449-12.843,21.272s-44.951,44.55-49.768,43.747c-3.933-.658-15.356-14.449-19.417-19.45,8.7,13.959,18.655,28.7,21.183,28.632,4.2-.128,31.057-24.547,39.533-35.207s17.5-28.544,18.888-28.753a47.053,47.053,0,0,0,6.566-1.2,18.4,18.4,0,0,0,3.572-1.108C299.7,267.963,299.881,267.562,300.459,266.743Z" transform="translate(-196.228 -249.138)" opacity="0.2"/>
        </g>
        <path id="Trazado_799149" data-name="Trazado 799149" d="M217.587,256.316l14.673,45.826s33.714-19.634,41.612-29.877,12.458-21.793,15.251-22.877,12.651,1.605,14.1,3.211,1.108,3.363-.642,5.017a7.218,7.218,0,0,1-2.745,1.886s-.088,3.6-.875,4.23-.6-.185-.8.618a6.237,6.237,0,0,1-.923,2.408c-.578.8-.8,1.22-1.357,1.437A18.4,18.4,0,0,1,292.3,269.3a47.057,47.057,0,0,1-6.566,1.2c-1.389.241-10.435,18.117-18.928,28.769s-35.319,35.078-39.533,35.207-28.97-40.761-34.275-50.8" transform="translate(-175.221 -172.184)" fill="none" stroke="#263238" stroke-linecap="round" stroke-linejoin="round" stroke-width="1"/>
        <path id="Trazado_799150" data-name="Trazado 799150" d="M240.164,315.17s-3.845.161-7.1,10.435" transform="translate(-183.124 -185.212)" fill="none" stroke="#263238" stroke-linecap="round" stroke-linejoin="round" stroke-width="1"/>
        <path id="Trazado_799151" data-name="Trazado 799151" d="M312.427,269.288A18.4,18.4,0,0,0,316,268.18c.594-.217.8-.618,1.357-1.437a6.237,6.237,0,0,0,.923-2.408c.177-.8.7-1.076,1.477-1.7s.177-3.147.177-3.147a7.218,7.218,0,0,0,2.745-1.886c1.75-1.654,2.1-3.46.642-5.017s-11.326-4.254-14.1-3.211-6.959,11.7-14.224,21.593l6.759,5.539c2.119-3.532,3.628-5.924,4.126-6.012a47.054,47.054,0,0,0,6.542-1.2Z" transform="translate(-195.345 -172.184)" fill="#fff"/>
        <g id="Grupo_1064955" data-name="Grupo 1064955" transform="translate(99.655 76.954)" clip-path="url(#clip-path-8)">
          <path id="Trazado_799152" data-name="Trazado 799152" d="M300.459,266.743a6.238,6.238,0,0,0,.923-2.408c.177-.8,0,0,.8-.618s.875-4.23.875-4.23a7.218,7.218,0,0,0,2.745-1.886c1.75-1.654,2.1-3.46.642-5.017s-11.326-4.254-14.1-3.211a7.147,7.147,0,0,0-2.569,2.793c1.469,2.408,3.211,3.877,1.605,8.083-2.408,6.422-8.027,14.449-12.843,21.272s-44.951,44.55-49.768,43.747c-3.933-.658-15.356-14.449-19.417-19.45,8.7,13.959,18.655,28.7,21.183,28.632,4.2-.128,31.057-24.547,39.533-35.207s17.5-28.544,18.888-28.753a47.053,47.053,0,0,0,6.566-1.2,18.4,18.4,0,0,0,3.572-1.108C299.7,267.963,299.881,267.562,300.459,266.743Z" transform="translate(-278.104 -249.139)" opacity="0.2"/>
        </g>
        <path id="Trazado_799154" data-name="Trazado 799154" d="M312.427,269.288A18.4,18.4,0,0,0,316,268.18c.594-.217.8-.618,1.357-1.437a6.237,6.237,0,0,0,.923-2.408c.177-.8.7-1.076,1.477-1.7s.177-3.147.177-3.147a7.218,7.218,0,0,0,2.745-1.886c1.75-1.654,2.1-3.46.642-5.017s-11.326-4.254-14.1-3.211-6.959,11.7-14.224,21.593l6.759,5.539c2.119-3.532,3.628-5.924,4.126-6.012a47.054,47.054,0,0,0,6.542-1.2Z" transform="translate(-195.345 -172.184)" fill="none" stroke="#263238" stroke-linecap="round" stroke-linejoin="round" stroke-width="1"/>
        <path id="Trazado_799155" data-name="Trazado 799155" d="M304.844,223.466c-2.207,0-4.014,3.211-4.014,7.1s1.79,7.1,4.014,7.1l48.965,14.794V208.07Z" transform="translate(-196.495 -164.082)" fill="#94e435" stroke="#263238" stroke-linecap="round" stroke-linejoin="round" stroke-width="1"/>
        <line id="Línea_1651" data-name="Línea 1651" x1="19.104" y2="5.499" transform="translate(116.793 53.476)" fill="none" stroke="#263238" stroke-linecap="round" stroke-linejoin="round" stroke-width="1"/>
        <line id="Línea_1652" data-name="Línea 1652" x1="3.997" y2="1.156" transform="translate(138.29 51.638)" fill="none" stroke="#263238" stroke-linecap="round" stroke-linejoin="round" stroke-width="1"/>
        <path id="Trazado_799156" data-name="Trazado 799156" d="M311.113,224.79l-6.269,1.975c-2.207,0-4.014,3.211-4.014,7.1s1.79,7.1,4.014,7.1l5.659,1.71A19.522,19.522,0,0,1,311.113,224.79Z" transform="translate(-196.495 -167.381)" fill="#263238" stroke="#263238" stroke-linecap="round" stroke-linejoin="round" stroke-width="1"/>
        <ellipse id="Elipse_4798" data-name="Elipse 4798" cx="16.793" cy="29.804" rx="16.793" ry="29.804" transform="translate(144.735 36.676)" fill="#d6d6d6" stroke="#263238" stroke-linecap="round" stroke-linejoin="round" stroke-width="1"/>
        <path id="Trazado_799157" data-name="Trazado 799157" d="M367.8,226.8l-16-4.278-1.4,11.4,1.8,11.591,15.6-5.482.6-12.908" transform="translate(-206.277 -166.933)" fill="#d6d6d6" stroke="#263238" stroke-linecap="round" stroke-linejoin="round" stroke-width="1"/>
        <path id="Trazado_799158" data-name="Trazado 799158" d="M367.582,195.62c-10.106,0-18.3,14.545-18.3,32.485s8.2,32.485,18.3,32.485,18.3-14.545,18.3-32.485S377.688,195.62,367.582,195.62Zm.45,60.363c-8.42,0-15.251-12.482-15.251-27.878s6.831-27.87,15.251-27.87,15.251,12.474,15.251,27.87-6.823,27.878-15.251,27.878Z" transform="translate(-206.054 -161.625)" fill="#263238" stroke="#263238" stroke-linecap="round" stroke-linejoin="round" stroke-width="1"/>
        <ellipse id="Elipse_4799" data-name="Elipse 4799" cx="3.725" cy="6.614" rx="3.725" ry="6.614" transform="translate(157.803 59.866)" fill="#94e435" stroke="#263238" stroke-linecap="round" stroke-linejoin="round" stroke-width="1"/>
        <line id="Línea_1653" data-name="Línea 1653" y1="1.156" x2="3.717" transform="translate(208.727 31.627)" fill="none" stroke="#263238" stroke-linecap="round" stroke-linejoin="round" stroke-width="1"/>
        <line id="Línea_1654" data-name="Línea 1654" y1="6.823" x2="22.026" transform="translate(182.117 34.195)" fill="none" stroke="#263238" stroke-linecap="round" stroke-linejoin="round" stroke-width="1"/>
        <line id="Línea_1655" data-name="Línea 1655" x2="20.212" y2="0.722" transform="translate(185.007 64.843)" fill="none" stroke="#263238" stroke-linecap="round" stroke-linejoin="round" stroke-width="1"/>
        <line id="Línea_1656" data-name="Línea 1656" x2="4.19" y2="1.349" transform="translate(201.751 94.535)" fill="none" stroke="#263238" stroke-linecap="round" stroke-linejoin="round" stroke-width="1"/>
        <line id="Línea_1657" data-name="Línea 1657" x2="14.866" y2="4.8" transform="translate(183.562 88.667)" fill="none" stroke="#263238" stroke-linecap="round" stroke-linejoin="round" stroke-width="1"/>
        <line id="Línea_1658" data-name="Línea 1658" y1="1.445" x2="10.828" transform="translate(184.285 50.402)" fill="none" stroke="#263238" stroke-linecap="round" stroke-linejoin="round" stroke-width="1"/>
        <line id="Línea_1659" data-name="Línea 1659" x2="7.947" y2="6.502" transform="translate(179.228 96.606)" fill="none" stroke="#263238" stroke-linecap="round" stroke-linejoin="round" stroke-width="1"/>
      </g>
    </g>
  </g>
</svg>
