<svg xmlns="http://www.w3.org/2000/svg" xmlns:xlink="http://www.w3.org/1999/xlink" width="67" height="67" viewBox="0 0 67 67">
  <defs>
    <clipPath id="clip-path">
      <rect id="Rectángulo_374179" data-name="Rectángulo 374179" width="67" height="67" transform="translate(354 6694)" fill="#0050db"/>
    </clipPath>
  </defs>
  <g id="Enmascarar_grupo_1059016" data-name="Enmascarar grupo 1059016" transform="translate(-354 -6694)" clip-path="url(#clip-path)">
    <g id="sem_1_" data-name="sem (1)" transform="translate(354 6693.94)">
      <path id="Trazado_798229" data-name="Trazado 798229" d="M62.872.065H4.128A4.133,4.133,0,0,0,0,4.194V62.926a4.133,4.133,0,0,0,4.128,4.128H62.872A4.133,4.133,0,0,0,67,62.926V4.194A4.133,4.133,0,0,0,62.872.065ZM26.616,2.028A1.675,1.675,0,0,1,28.286,3.7a3.639,3.639,0,0,0,3.632,3.638H54.374a.981.981,0,1,0,0-1.962H31.918A1.675,1.675,0,0,1,30.248,3.7a3.621,3.621,0,0,0-.41-1.676H62.872a2.168,2.168,0,0,1,2.165,2.166V5.38H59.18a.981.981,0,1,0,0,1.962h5.857V10.2H1.962V7.342h9.531A3.64,3.64,0,0,0,15.125,3.7,1.675,1.675,0,0,1,16.8,2.028Zm-22.488,0h9.445a3.615,3.615,0,0,0-.41,1.676,1.675,1.675,0,0,1-1.67,1.676H1.962V4.194A2.168,2.168,0,0,1,4.128,2.028ZM62.872,65.091H6.614V56.664H43.252l-.042,5.282a.981.981,0,0,0,.973.989h.008a.981.981,0,0,0,.981-.973l.045-5.607A1.656,1.656,0,0,0,43.564,54.7H6.306a1.656,1.656,0,0,0-1.654,1.654v8.736H4.128a2.168,2.168,0,0,1-2.166-2.166V12.158H65.037V50.9l-5.178-5.177a1.788,1.788,0,0,0-2.5-.032L54.3,42.624A15.481,15.481,0,0,0,52.4,23.052q-.466-.466-.962-.883H60.9a1.238,1.238,0,0,0,1.238-1.237V16.248A1.239,1.239,0,0,0,60.9,15.011H6.2a1.552,1.552,0,0,0-1.55,1.551v4.056A1.552,1.552,0,0,0,6.2,22.169H31.471q-.495.418-.962.883a15.669,15.669,0,0,0-1.67,1.97H6.357a1.708,1.708,0,0,0-1.705,1.707V37.341a1.708,1.708,0,0,0,1.705,1.706h20.46a15.256,15.256,0,0,0,.963,2.212H6.268a1.618,1.618,0,0,0-1.616,1.616v8a1.618,1.618,0,0,0,1.616,1.617H43.6a1.619,1.619,0,0,0,1.617-1.617V49a15.375,15.375,0,0,0,4.864-2.159L53.146,49.9a1.787,1.787,0,0,0,.033,2.5l5.875,5.874a4.325,4.325,0,0,0,5.983.121v4.533a2.168,2.168,0,0,1-2.166,2.166ZM26.751,29.133H9.815a.981.981,0,1,0,0,1.963H26.246a15.684,15.684,0,0,0,.037,5.989H6.614v-10.1H27.647a15.207,15.207,0,0,0-.9,2.148Zm3.758,15.8q.508.508,1.051.957H9.815a.981.981,0,0,0,0,1.963H34.573a15.539,15.539,0,0,0,8.683,1.5v1.172H6.614V43.221H29.026a15.682,15.682,0,0,0,1.483,1.714ZM31.9,43.548A13.733,13.733,0,0,1,30.351,41.7l-.017-.025A13.338,13.338,0,0,1,28.5,37.864a.982.982,0,0,0-.037-.129,13.644,13.644,0,0,1-.051-7.3.971.971,0,0,0,.034-.123,13.347,13.347,0,0,1,1.723-3.755l0-.006A13.663,13.663,0,0,1,31.9,24.44,13.514,13.514,0,0,1,52.262,42.1c-.009.01-.016.02-.024.031a13.751,13.751,0,0,1-1.231,1.412,13.531,13.531,0,0,1-19.112,0ZM50.961,16.973h9.005v3.233H50.961ZM49,20.207h-.519a15.55,15.55,0,0,0-14.053,0H6.614V16.973H49Zm3.4,24.729q.363-.363.7-.745l2.881,2.881-.318.317-1.124,1.124L51.65,45.632Q52.031,45.3,52.4,44.935ZM55.218,50.6l.009-.009,1.736-1.736,1.631-1.63,5.753,5.752a2.358,2.358,0,0,1,0,3.335l-.57.57a2.36,2.36,0,0,1-3.334,0l-5.754-5.753Zm0,0" fill="#0050db"/>
      <path id="Trazado_798230" data-name="Trazado 798230" d="M9.815,34.936h4.349a.981.981,0,0,0,0-1.962H9.815a.981.981,0,1,0,0,1.962Zm0,0" fill="#0050db"/>
      <path id="Trazado_798231" data-name="Trazado 798231" d="M40.062,59.9H9.816a.981.981,0,1,0,0,1.962H40.062a.981.981,0,1,0,0-1.962Zm0,0" fill="#0050db"/>
      <path id="Trazado_798232" data-name="Trazado 798232" d="M35.875,33.627a7.567,7.567,0,0,0-.968-.6,9.759,9.759,0,0,0-.968-.443,2.722,2.722,0,0,1-.74-.411.683.683,0,0,1-.3-.532.646.646,0,0,1,.316-.538,1.662,1.662,0,0,1,.949-.221,2.447,2.447,0,0,1,1.088.241,2.068,2.068,0,0,0,.646.24.641.641,0,0,0,.576-.36,1.385,1.385,0,0,0,.209-.695.768.768,0,0,0-.285-.6,1.731,1.731,0,0,0-.734-.359,6.259,6.259,0,0,0-.81-.15,6.4,6.4,0,0,0-.69-.039,3.894,3.894,0,0,0-2.291.665,2.286,2.286,0,0,0-.949,2.006,2.43,2.43,0,0,0,.411,1.417,2.893,2.893,0,0,0,1.006.918q.594.323,1.183.582a4.855,4.855,0,0,1,1,.576.916.916,0,0,1,.411.734.678.678,0,0,1-.367.627,1.708,1.708,0,0,1-.861.209,1.86,1.86,0,0,1-.747-.153,1.884,1.884,0,0,1-.551-.34,3.036,3.036,0,0,0-.43-.34.794.794,0,0,0-.424-.154.741.741,0,0,0-.6.355,1.193,1.193,0,0,0-.26.708q0,.633.911,1.139a4.337,4.337,0,0,0,2.139.506,3.463,3.463,0,0,0,2.291-.727,2.5,2.5,0,0,0,.874-2.032,2.887,2.887,0,0,0-.3-1.329,2.509,2.509,0,0,0-.741-.9Zm0,0" fill="#0050db"/>
      <path id="Trazado_798233" data-name="Trazado 798233" d="M43.254,30.963a.49.49,0,0,0,.437-.254,1.267,1.267,0,0,0,.007-1.215.487.487,0,0,0-.443-.253H38.748a1.124,1.124,0,0,0-.607.158.5.5,0,0,0-.254.449v8.038a.5.5,0,0,0,.254.449,1.12,1.12,0,0,0,.607.158h4.506a.487.487,0,0,0,.443-.253,1.267,1.267,0,0,0-.007-1.215.49.49,0,0,0-.437-.254H39.861V34.621h1.9a.5.5,0,0,0,.443-.228.913.913,0,0,0,.152-.519.931.931,0,0,0-.158-.544.5.5,0,0,0-.437-.228h-1.9V30.963Zm0,0" fill="#0050db"/>
      <path id="Trazado_798234" data-name="Trazado 798234" d="M52.063,38.336a.492.492,0,0,0,.291-.449V30.229a.923.923,0,0,0-.285-.747,1.051,1.051,0,0,0-.7-.241,1.775,1.775,0,0,0-.867.171,2.2,2.2,0,0,0-.665.817l-1.3,2.278-1.3-2.278a2.206,2.206,0,0,0-.665-.817,1.775,1.775,0,0,0-.867-.171,1.052,1.052,0,0,0-.7.241.923.923,0,0,0-.285.747v7.658a.491.491,0,0,0,.291.449,1.612,1.612,0,0,0,1.392,0,.493.493,0,0,0,.291-.449V33.013l1.2,2.2a.646.646,0,0,0,.62.367.711.711,0,0,0,.658-.367l1.215-2.076v4.746a.491.491,0,0,0,.291.449,1.611,1.611,0,0,0,1.392,0Zm0,0" fill="#0050db"/>
    </g>
  </g>
</svg>
