<svg xmlns="http://www.w3.org/2000/svg" xmlns:xlink="http://www.w3.org/1999/xlink" width="67" height="67" viewBox="0 0 67 67">
  <defs>
    <clipPath id="clip-path">
      <rect id="Rectángulo_374180" data-name="Rectángulo 374180" width="67" height="67" transform="translate(767 6694)" fill="#0050db"/>
    </clipPath>
  </defs>
  <g id="Enmascarar_grupo_1059017" data-name="Enmascarar grupo 1059017" transform="translate(-767 -6694)" opacity="0.5" clip-path="url(#clip-path)">
    <path id="segmentacion" d="M61.148,25.517a12.962,12.962,0,1,0-17.5-17.5,28.124,28.124,0,0,0-7.983-1.473V1.081H33.5v5.46a28.086,28.086,0,0,0-7.983,1.473,12.962,12.962,0,1,0-17.5,17.5A27.92,27.92,0,0,0,6.532,33.5H1.081v2.161H6.532a27.92,27.92,0,0,0,1.48,7.983,12.962,12.962,0,1,0,17.5,17.5,27.921,27.921,0,0,0,7.983,1.48v5.452h2.161V62.629a27.92,27.92,0,0,0,7.983-1.48,12.962,12.962,0,1,0,17.5-17.5,27.921,27.921,0,0,0,1.48-7.983h5.452V33.5H62.629a27.921,27.921,0,0,0-1.48-7.983ZM60.467,33.5H58.3a23.55,23.55,0,0,0-1.267-6.643,12.974,12.974,0,0,0,2.117-.494A25.777,25.777,0,0,1,60.467,33.5ZM54.8,42.161a13.041,13.041,0,0,0-2.439.285,19.35,19.35,0,0,0,1.638-6.785h2.147A21.494,21.494,0,0,1,54.8,42.161ZM42.161,54.794a21.593,21.593,0,0,1-6.5,1.34v-2.14a19.35,19.35,0,0,0,6.785-1.638,13.019,13.019,0,0,0-.285,2.438ZM27,54.794a13.019,13.019,0,0,0-.285-2.438A19.35,19.35,0,0,0,33.5,53.994v2.14a21.626,21.626,0,0,1-6.5-1.34ZM14.366,42.161a21.448,21.448,0,0,1-1.346-6.5h2.147a19.35,19.35,0,0,0,1.638,6.785,12.931,12.931,0,0,0-2.439-.285Zm-3.56-31.355a3.242,3.242,0,1,1,3.242,3.242,3.246,3.246,0,0,1-3.242-3.242ZM27,14.367a21.593,21.593,0,0,1,6.5-1.34v2.14a19.35,19.35,0,0,0-6.785,1.638A13.019,13.019,0,0,0,27,14.367Zm15.161,0a13.019,13.019,0,0,0,.285,2.438,19.35,19.35,0,0,0-6.785-1.638v-2.14A21.593,21.593,0,0,1,42.161,14.367Zm9.71-3.561a3.242,3.242,0,1,1,3.242,3.242A3.246,3.246,0,0,1,51.871,10.806Zm3.242,14.048a10.756,10.756,0,0,1-7.332-2.891,7.548,7.548,0,0,1,14.664,0A10.756,10.756,0,0,1,55.113,24.855Zm-5.753.8A17.227,17.227,0,0,1,51.833,33.5H47.494A12.976,12.976,0,0,0,35.661,21.668V17.329A17.231,17.231,0,0,1,43.509,19.8a13.027,13.027,0,0,0,5.851,5.85ZM34.581,45.387A10.756,10.756,0,0,1,27.248,42.5a7.548,7.548,0,0,1,14.664,0A10.756,10.756,0,0,1,34.581,45.387ZM31.339,31.339a3.242,3.242,0,1,1,3.242,3.242A3.246,3.246,0,0,1,31.339,31.339Zm12.217,9.252a9.669,9.669,0,0,0-5.322-5.3,5.4,5.4,0,1,0-7.305,0,9.663,9.663,0,0,0-5.322,5.3,10.806,10.806,0,1,1,17.95,0ZM25.652,19.8A17.227,17.227,0,0,1,33.5,17.328v4.339A12.976,12.976,0,0,0,21.668,33.5H17.329A17.231,17.231,0,0,1,19.8,25.652a13.027,13.027,0,0,0,5.85-5.851Zm-11.6,5.053a10.756,10.756,0,0,1-7.332-2.891,7.548,7.548,0,0,1,14.664,0,10.756,10.756,0,0,1-7.332,2.891ZM14.366,27a13.041,13.041,0,0,0,2.439-.285A19.35,19.35,0,0,0,15.167,33.5H13.02A21.494,21.494,0,0,1,14.366,27ZM19.8,43.509a17.227,17.227,0,0,1-2.474-7.848h4.339A12.974,12.974,0,0,0,33.5,47.493v4.339a17.231,17.231,0,0,1-7.848-2.474,13.019,13.019,0,0,0-5.85-5.85ZM43.509,49.36a17.227,17.227,0,0,1-7.848,2.474V47.494A12.974,12.974,0,0,0,47.493,35.662h4.339a17.231,17.231,0,0,1-2.474,7.848A13.019,13.019,0,0,0,43.509,49.36ZM53.994,33.5a19.35,19.35,0,0,0-1.638-6.785A12.951,12.951,0,0,0,54.8,27a21.448,21.448,0,0,1,1.346,6.5ZM55.113,3.242a10.8,10.8,0,0,1,8.975,16.817,9.669,9.669,0,0,0-5.322-5.3,5.4,5.4,0,1,0-7.305,0,9.663,9.663,0,0,0-5.322,5.3A10.8,10.8,0,0,1,55.113,3.242ZM42.8,10.009a12.767,12.767,0,0,0-.494,2.118,23.726,23.726,0,0,0-6.643-1.26V8.7A25.9,25.9,0,0,1,42.8,10.009ZM33.5,8.7v2.165a23.733,23.733,0,0,0-6.643,1.26,12.986,12.986,0,0,0-.494-2.118A25.9,25.9,0,0,1,33.5,8.7ZM14.048,3.242a10.8,10.8,0,0,1,8.975,16.817,9.669,9.669,0,0,0-5.322-5.3,5.4,5.4,0,1,0-7.305,0,9.663,9.663,0,0,0-5.322,5.3A10.8,10.8,0,0,1,14.048,3.242ZM10.008,26.363a12.754,12.754,0,0,0,2.117.494A23.55,23.55,0,0,0,10.858,33.5H8.694a25.777,25.777,0,0,1,1.314-7.137Zm-1.314,9.3h2.165A23.55,23.55,0,0,0,12.125,42.3a12.974,12.974,0,0,0-2.117.494,25.777,25.777,0,0,1-1.314-7.137Zm5.355,8.645a10.8,10.8,0,0,1,8.975,16.817,9.669,9.669,0,0,0-5.322-5.3,5.4,5.4,0,1,0-7.305,0,9.663,9.663,0,0,0-5.322,5.3,10.8,10.8,0,0,1,8.975-16.817Zm-3.242,7.565a3.242,3.242,0,1,1,3.242,3.242A3.246,3.246,0,0,1,10.806,51.871ZM6.716,63.029a7.548,7.548,0,0,1,14.664,0,10.744,10.744,0,0,1-14.664,0Zm19.647-3.876a12.85,12.85,0,0,0,.494-2.116A23.55,23.55,0,0,0,33.5,58.3V60.46A25.941,25.941,0,0,1,26.363,59.152Zm9.3,1.306V58.3A23.55,23.55,0,0,0,42.3,57.035a12.851,12.851,0,0,0,.494,2.116A25.861,25.861,0,0,1,35.661,60.459Zm12.119,2.57a7.548,7.548,0,0,1,14.664,0,10.744,10.744,0,0,1-14.664,0Zm4.09-11.158a3.242,3.242,0,1,1,3.242,3.242A3.246,3.246,0,0,1,51.871,51.871Zm14.048,3.242a10.747,10.747,0,0,1-1.832,6.011,9.669,9.669,0,0,0-5.322-5.3,5.4,5.4,0,1,0-7.305,0,9.663,9.663,0,0,0-5.322,5.3,10.8,10.8,0,1,1,19.781-6.011ZM59.153,42.8a12.754,12.754,0,0,0-2.117-.494A23.55,23.55,0,0,0,58.3,35.661h2.165A25.777,25.777,0,0,1,59.153,42.8Z" transform="translate(765.919 6692.919)" fill="#0050db"/>
  </g>
</svg>
