<svg xmlns="http://www.w3.org/2000/svg" xmlns:xlink="http://www.w3.org/1999/xlink" width="400" height="404.388" viewBox="0 0 400 404.388">
  <defs>
    <clipPath id="clip-path">
      <rect id="Rectángulo_374224" data-name="Rectángulo 374224" width="400" height="404.387" fill="none"/>
    </clipPath>
    <clipPath id="clip-path-2">
      <path id="Trazado_798417" data-name="Trazado 798417" d="M156.657,58.121a17.9,17.9,0,0,0-17.9,17.9v302.7a17.9,17.9,0,0,0,17.9,17.9H292.226a17.9,17.9,0,0,0,17.909-17.9V272.392l96.491-26.766V99.973L310.135,102.1V76.02a17.9,17.9,0,0,0-17.909-17.9Z" transform="translate(-138.757 -58.121)" fill="none"/>
    </clipPath>
    <clipPath id="clip-path-4">
      <path id="Trazado_798428" data-name="Trazado 798428" d="M282.471,0l-92.33,63.5L174.593,83.4H157.129a4.972,4.972,0,0,0-4.972,4.972v91.07a4.973,4.973,0,0,0,4.972,4.973h137.31a4.974,4.974,0,0,0,4.973-4.973V153.371l27.479-5.285,52.39-7.751,34.128-43.5L393.3,54.3,345.515,9.937Z" transform="translate(-152.157 0.001)" fill="none"/>
    </clipPath>
  </defs>
  <g id="Grupo_1064915" data-name="Grupo 1064915" transform="translate(0 0.001)">
    <g id="Grupo_1064906" data-name="Grupo 1064906" transform="translate(0 0)">
      <g id="Grupo_1064905" data-name="Grupo 1064905" clip-path="url(#clip-path)">
        <path id="Trazado_798367" data-name="Trazado 798367" d="M160.269,378.038s-2.827,25.331,15.5,37.472,26.763,7.869,26.763,11.66c0,2.386-14.088,4.009-29.892,1.489s-18.1-6.414-18.1-6.414v7.564H142.861l-1.834-14.436s-2.059-6.641-.458-11.91,4.277-16.951,2.673-24.509Z" transform="translate(-12.334 -33.316)" fill="#34234d"/>
        <path id="Trazado_798368" data-name="Trazado 798368" d="M166.888,427.227c-7.371-3.289-12.718-6.956-16.826-11.539-2.984-3.328-2.335-7.087-1.65-11.066a40.79,40.79,0,0,0,.6-4.481,69.648,69.648,0,0,0-.585-12.128l.857-.126a70.86,70.86,0,0,1,.592,12.306,42.524,42.524,0,0,1-.613,4.574c-.677,3.932-1.262,7.328,1.442,10.342,4.024,4.49,9.278,8.09,16.535,11.326Z" transform="translate(-13.028 -34.184)" fill="#fff"/>
        <path id="Trazado_798369" data-name="Trazado 798369" d="M188.111,431.875c-8.284,0-18.2-.371-24.957-1.843l.183-.844c13.452,2.929,39.638,1.454,39.9,1.439l.049.864c-.132.007-6.825.385-15.175.385" transform="translate(-14.378 -37.823)" fill="#fff"/>
        <path id="Trazado_798370" data-name="Trazado 798370" d="M41.762,367.014s-10.84,16.26-12.81,27.756-2.188,20.082-5.585,25.127-4.486,7.272-5.419,8.211H1.36a27.772,27.772,0,0,1-.409-15.027c2.135-7.883,17.3-44.332,18.714-55.138Z" transform="translate(-0.009 -31.545)" fill="#34234d"/>
        <rect id="Rectángulo_374220" data-name="Rectángulo 374220" width="20.557" height="0.865" transform="translate(0 392.842)" fill="#fff"/>
        <path id="Trazado_798371" data-name="Trazado 798371" d="M22.468,421.655l-.688-.526c4.566-5.976,4.516-13.042,4.475-18.719a31.26,31.26,0,0,1,.3-6.007c1.1-5.349,6.868-13.891,7.114-14.251l.716.484c-.058.087-5.916,8.761-6.983,13.94a30.789,30.789,0,0,0-.281,5.828c.039,5.5.09,13.037-4.653,19.251" transform="translate(-1.919 -33.678)" fill="#fff"/>
        <path id="Trazado_798372" data-name="Trazado 798372" d="M88.684,38.615c.3-5.468,11.979-10.449,21.949.216,14.191,15.178,12.492,92.655,14.072,96.876,0,0-26.924,5.769-33.457-5.112,0,0-4.572-55.373-2.564-91.981" transform="translate(-7.771 -2.868)" fill="#34234d"/>
        <path id="Trazado_798373" data-name="Trazado 798373" d="M182.452,129.547c-6.072,5.584-38.9,4.62-52.979-1.3S99.209,89.375,118.207,91.56c8.785,1.011,57.5,14.539,63.8,18.581,9.047,5.8,3.721,16.388.44,19.406" transform="translate(-9.655 -8.06)" fill="#94e435"/>
        <path id="Trazado_798374" data-name="Trazado 798374" d="M112.433,170.079s27.036,22.458,33.857,58.47,19.1,151.146,24.416,160.25c0,0-29.235,12.437-64.013,7.736L93.607,173.6Z" transform="translate(-8.249 -14.989)" fill="#0050db"/>
        <path id="Trazado_798375" data-name="Trazado 798375" d="M105.045,221.8s4.961,2.12,11.989-7c0,0,2.124,25.866-15.545,44.638,0,0,4.308-31.523,3.555-37.634" transform="translate(-8.944 -18.93)" fill="#34234d"/>
        <path id="Trazado_798376" data-name="Trazado 798376" d="M62.791,171.977s-15.339,25.1-25.253,64.249S18.163,337.634,7.317,366.746c0,0,30.74,26.476,62.534,28.05,0,0,18.4-106.484,25.335-141.163s1.963-62.231,3.188-75.3Z" transform="translate(-0.645 -15.156)" fill="#0050db"/>
        <path id="Trazado_798377" data-name="Trazado 798377" d="M14.514,370.075l-.838-.213c.212-.828,21.229-83.2,26.908-115.686,5.686-32.539,19.813-70.19,19.955-70.567l.809.305c-.141.375-14.24,37.954-19.913,70.41-5.683,32.514-26.71,114.922-26.921,115.75" transform="translate(-1.205 -16.181)" fill="#34234d"/>
        <path id="Trazado_798378" data-name="Trazado 798378" d="M84.963,367.069l-.84-.21C89.4,345.733,93,318.079,96.18,293.682c1.945-14.933,3.625-27.829,5.353-36.465,2.592-12.968,4.431-34.994,4.915-43.629l.864.048c-.485,8.656-2.329,30.737-4.93,43.75-1.722,8.607-3.4,21.49-5.344,36.409-3.182,24.42-6.787,52.1-12.074,73.274" transform="translate(-7.414 -18.823)" fill="#34234d"/>
        <path id="Trazado_798379" data-name="Trazado 798379" d="M68,401.593c-34.307-6.575-53.843-24.908-54.035-25.093l.6-.626c.191.182,19.559,18.345,53.6,24.869Z" transform="translate(-1.23 -33.125)" fill="#34234d"/>
        <path id="Trazado_798380" data-name="Trazado 798380" d="M123.689,405.072a81.354,81.354,0,0,1-14.612-1.113l.176-.847c.259.053,26.306,5.206,58.637-7.29l.312.808a124.255,124.255,0,0,1-44.513,8.442" transform="translate(-9.613 -34.883)" fill="#34234d"/>
        <path id="Trazado_798381" data-name="Trazado 798381" d="M128.45,384.212l-.7-.51c12.085-16.562,16.266-36.041,16.306-36.235l.847.177c-.042.2-4.256,19.851-16.454,36.568" transform="translate(-11.258 -30.622)" fill="#34234d"/>
        <path id="Trazado_798382" data-name="Trazado 798382" d="M101.921,90.018c-5.459.2-16.542.035-20.637,1.253-18.614,5.537-17.323,18.843-16.262,33.385,2.2,30.146-3.613,51-3.613,51s33.871,9.489,62.286,2.391c0,0-12.689-21.726,1.133-42.857,10.487-16.031-4.552-30.107-6.383-39.4-1.21-6.148-13.636-5.877-16.524-5.772" transform="translate(-5.412 -7.93)" fill="#94e435"/>
        <path id="Trazado_798383" data-name="Trazado 798383" d="M67,177.709c-3.591-.772-5.74-1.371-5.762-1.378l-.416-.117.116-.416c.058-.208,5.767-21.141,3.6-50.856l-.053-.71c-.946-12.9-1.838-25.084,11.9-31.374l.359.787c-13.194,6.04-12.361,17.386-11.4,30.524l.052.709c2.011,27.553-2.723,47.613-3.517,50.73.78.207,2.64.682,5.3,1.255Z" transform="translate(-5.36 -8.183)" fill="#34234d"/>
        <path id="Trazado_798384" data-name="Trazado 798384" d="M125.068,170.017c-2.327-8.509-3.372-21.293,4.861-33.879,7.338-11.216,1.895-21.546-2.478-29.846-.456-.864-.9-1.708-1.319-2.53l.772-.393c.415.819.857,1.659,1.311,2.52,4.479,8.5,10.054,19.08,2.437,30.722-8.056,12.318-7.031,24.84-4.751,33.178Z" transform="translate(-10.875 -9.11)" fill="#34234d"/>
        <path id="Trazado_798385" data-name="Trazado 798385" d="M117.22,143.4l-.063-.863c.045,0,.137-.005.271-.008,4.87-.088,8.97-1.391,11.545-3.67l.572.647c-2.767,2.451-6.951,3.8-12.1,3.888-.109,0-.185,0-.223.005" transform="translate(-10.325 -12.237)" fill="#34234d"/>
        <path id="Trazado_798386" data-name="Trazado 798386" d="M103.2,141.861l-.647-.574c6.178-6.96,3.613-16.2,3.586-16.3l.831-.24c.028.1,2.73,9.788-3.77,17.111" transform="translate(-9.037 -10.994)" fill="#34234d"/>
        <path id="Trazado_798387" data-name="Trazado 798387" d="M108.978,88.141c-.459-.006-2.551-.225-5.848-.315l-1.069-15.091a154.131,154.131,0,0,1-17.505-5.2l1.5,21.221c-1.141.154-2.305.329-3.5.533A20.359,20.359,0,0,0,75.9,92.044c12.034,15.114,36.96,16.544,38.4,5.139.591-4.686-.595-8.976-5.318-9.042" transform="translate(-6.689 -5.952)" fill="#fff"/>
        <path id="Trazado_798388" data-name="Trazado 798388" d="M101.88,104.985A35.118,35.118,0,0,1,75.6,92.2l-.233-.293.586-.327a19.787,19.787,0,0,1,6.507-2.643c1.039-.178,2.092-.339,3.213-.494L84.156,67.015l.468.181a155.555,155.555,0,0,0,17.466,5.184l.226.055,1.064,15.037c2.189.065,3.844.187,4.751.253.4.03.671.05.8.052a5.315,5.315,0,0,1,4.134,1.744c1.776,2.044,1.795,5.291,1.5,7.656-.432,3.418-2.952,5.94-7.1,7.1a20.836,20.836,0,0,1-5.59.706M76.333,92.091c8.325,10.191,22.5,13.953,30.964,11.576,3.882-1.089,6.239-3.422,6.636-6.57s-.078-5.7-1.344-7.158a4.711,4.711,0,0,0-3.662-1.526h0c-.138,0-.423-.023-.843-.053-1.007-.075-2.693-.2-5.009-.261l-.287-.008-1.073-15.148a162.749,162.749,0,0,1-16.853-4.98l1.488,21.026-.294.04c-1.226.166-2.366.34-3.489.531a19.128,19.128,0,0,0-6.234,2.531" transform="translate(-6.642 -5.906)" fill="#34234d"/>
        <path id="Trazado_798389" data-name="Trazado 798389" d="M103.233,77.46l.233,3.266c-9.026.821-16.826-5.278-17.626-6.881,0,0-.466-6.015-.424-5.987,10.837,5.479,16.558,9.829,17.817,9.6" transform="translate(-7.527 -5.98)" fill="#34234d"/>
        <path id="Trazado_798390" data-name="Trazado 798390" d="M179.625,53.762c-6.227,2.542-4.011,8.763-4.011,8.763l.056.034c.628,11.663-13.428,45.822-8.348,58.2a12.541,12.541,0,0,0,12.611,8.058c7.569-.546,13.778-7.735,13.457-16.705-.35-9.759-8.092-39.028-9.7-45.014.744-1.073,3.954-5.45,11.114-12.1Z" transform="translate(-14.648 -4.738)" fill="#fff"/>
        <path id="Trazado_798391" data-name="Trazado 798391" d="M179.067,129.143a12.909,12.909,0,0,1-12.082-8.292c-3.1-7.558.8-22.992,4.245-36.609,2.2-8.72,4.289-16.962,4.085-21.574l-.044-.066c-.023-.066-2.246-6.547,4.2-9.178l.072-.03.078.007,15.921,1.3-.547.508a81.545,81.545,0,0,0-10.98,11.92c1.649,6.144,9.322,35.214,9.671,44.939.316,8.828-5.856,16.474-13.761,17.045-.279.02-.565.031-.857.031m-3.212-66.868.045.027.065.207c.253,4.687-1.861,13.045-4.1,21.895-3.418,13.519-7.292,28.841-4.273,36.2a12.192,12.192,0,0,0,12.284,7.856c7.556-.546,13.457-7.888,13.151-16.366-.349-9.735-8.131-39.144-9.688-44.94L183.3,67l.088-.125A78.882,78.882,0,0,1,194,55.235l-14.357-1.172c-5.4,2.257-4.051,7.378-3.79,8.211" transform="translate(-14.616 -4.706)" fill="#34234d"/>
        <path id="Trazado_798392" data-name="Trazado 798392" d="M102.42,77.516c-4.909.313-14.332-5.737-16.633-10.083-.822-1.549-.739-5.719-.891-7.869C84.351,51.824,88.237,47,93.1,44.881c2.053-.887,8.8-1.216,10.768-.953,6.474.885,6.692,6.517,7.192,13.028.564,7.305.008,20.007-8.645,20.56" transform="translate(-7.477 -3.864)" fill="#fff"/>
        <path id="Trazado_798393" data-name="Trazado 798393" d="M102.009,77.816c-5.237,0-14.3-6.047-16.533-10.265-.661-1.247-.761-4-.843-6.2-.024-.669-.047-1.287-.083-1.792-.5-6.994,2.567-12.461,8.4-15,2.1-.908,8.908-1.247,10.936-.976,6.526.892,6.94,6.365,7.421,12.7l.047.616c.3,3.917.564,13.534-3.505,18.22a7.6,7.6,0,0,1-5.437,2.681c-.129.009-.265.013-.4.013m-.083-33.687c-2.781,0-7.185.348-8.726,1.014-5.569,2.422-8.491,7.66-8.016,14.368.036.512.059,1.136.084,1.813.078,2.143.178,4.811.77,5.93,2.164,4.089,11.455,10.216,16.332,9.915a6.984,6.984,0,0,0,5-2.463c3.912-4.5,3.646-13.917,3.35-17.755l-.047-.616c-.478-6.312-.855-11.3-6.871-12.121a15.747,15.747,0,0,0-1.873-.085" transform="translate(-7.447 -3.833)" fill="#34234d"/>
        <path id="Trazado_798394" data-name="Trazado 798394" d="M86.4,36.331c-6.579.72-9.735,6.936-11.4,12.861-6.875,24.385,5.985,58.15,3.817,60.294a25.3,25.3,0,0,0,6.726,2.591c.51.116.023-8.457.023-8.457s3.9,9.032,5.134,8.995a14.754,14.754,0,0,0,9.177-3.4S77.194,51.242,87.237,55.759C91.421,57.641,96.7,35.2,86.4,36.331" transform="translate(-6.43 -3.198)" fill="#34234d"/>
        <path id="Trazado_798395" data-name="Trazado 798395" d="M86.724,72.438c-.074-.067-7.426-6.879-10.4-20.768l.845-.181C80.086,65.109,87.233,71.733,87.3,71.8Z" transform="translate(-6.726 -4.538)" fill="#fff"/>
        <path id="Trazado_798396" data-name="Trazado 798396" d="M106.793,66.826l-.286-.817c1.12-.391,2.4-1.1,2.515-1.559.009-.035.024-.092-.077-.2a8.787,8.787,0,0,1-1.911-6.531l.015-.1.059-.086a4.264,4.264,0,0,1,4.519-1.492l-.219.837a3.378,3.378,0,0,0-3.528,1.068,7.954,7.954,0,0,0,1.7,5.724,1.041,1.041,0,0,1,.276,1c-.287,1.142-2.606,2-3.068,2.165" transform="translate(-9.386 -4.924)" fill="#34234d"/>
        <path id="Trazado_798397" data-name="Trazado 798397" d="M111.032,49.94c.967-2.41-.183-7.122-6.543-10.036-7.795-3.574-12.627.93-13.34,6.132,5.039-2.47,14.666,5,19.882,3.9" transform="translate(-8.033 -3.404)" fill="#34234d"/>
        <path id="Trazado_798398" data-name="Trazado 798398" d="M88.519,61.078a4.6,4.6,0,1,1-4.91-4.26,4.6,4.6,0,0,1,4.91,4.26" transform="translate(-6.992 -5.006)" fill="#fff"/>
        <path id="Trazado_798399" data-name="Trazado 798399" d="M83.9,66.286a4.915,4.915,0,0,1-.34-9.817,4.926,4.926,0,0,1,5.25,4.556,4.914,4.914,0,0,1-4.555,5.249c-.119.008-.237.013-.355.013m.009-9.194c-.1,0-.2,0-.3.011a4.276,4.276,0,1,0,.3-.011" transform="translate(-6.961 -4.975)" fill="#34234d"/>
        <path id="Trazado_798400" data-name="Trazado 798400" d="M84.942,64.721a3.17,3.17,0,0,1-1.308-.345l.4-.768a1.8,1.8,0,0,0,1.13.216.343.343,0,0,0,.211-.2c.078-.171.083-.182-.2-.45a1.9,1.9,0,0,1-.711-1.761,3.682,3.682,0,0,1,.606-1.556c.364-.6.385-.639-.085-.931-.845-.525-2.283.885-2.722,1.421L81.6,59.8c.088-.108,2.188-2.638,3.847-1.607,1.2.742.719,1.534.37,2.113a2.892,2.892,0,0,0-.489,1.2,1.071,1.071,0,0,0,.447,1.04,1.13,1.13,0,0,1,.391,1.436,1.207,1.207,0,0,1-.716.658,1.556,1.556,0,0,1-.5.077" transform="translate(-7.191 -5.107)" fill="#34234d"/>
        <path id="Trazado_798401" data-name="Trazado 798401" d="M108.193,70.846c1.885-3.751-4.33,2.658-7.445.207,0,0,3.117,8.4,7.445-.207" transform="translate(-8.879 -6.137)" fill="#34234d"/>
        <path id="Trazado_798402" data-name="Trazado 798402" d="M98.8,60.268a1.19,1.19,0,0,0-.007.19,1.221,1.221,0,0,0,2.437-.172,1.2,1.2,0,0,0-.322-.735,8.118,8.118,0,0,1-2.107.718" transform="translate(-8.706 -5.248)" fill="#34234d"/>
        <path id="Trazado_798403" data-name="Trazado 798403" d="M109.283,59.526a1.194,1.194,0,0,0-.006.19,1.221,1.221,0,1,0,2.436-.172,1.2,1.2,0,0,0-.322-.735,8.2,8.2,0,0,1-2.107.718" transform="translate(-9.63 -5.183)" fill="#34234d"/>
        <path id="Trazado_798404" data-name="Trazado 798404" d="M97.069,58.353l-.45-.739c4.329-2.638,5.852-.553,5.916-.462l-.706.5c-.01-.015-1.181-1.481-4.761.7" transform="translate(-8.515 -4.96)" fill="#34234d"/>
        <path id="Trazado_798405" data-name="Trazado 798405" d="M291.734,52.509H156.164a23.047,23.047,0,0,0-23.021,23.022V378.218A23.049,23.049,0,0,0,154.788,401.2h76.4v.045h60.547a23.049,23.049,0,0,0,23.021-23.022V75.531a23.048,23.048,0,0,0-23.021-23.022" transform="translate(-11.734 -4.628)" fill="#34234d"/>
        <path id="Trazado_798406" data-name="Trazado 798406" d="M310.135,76.021v302.7a17.9,17.9,0,0,1-17.909,17.9H156.658a17.9,17.9,0,0,1-17.9-17.9V76.021a17.9,17.9,0,0,1,17.9-17.9H292.226a17.9,17.9,0,0,1,17.909,17.9" transform="translate(-12.228 -5.122)" fill="#fff"/>
        <path id="Trazado_798407" data-name="Trazado 798407" d="M251.9,61.392H209.69a1.705,1.705,0,0,0,0,3.41H251.9a1.705,1.705,0,1,0,0-3.41" transform="translate(-18.329 -5.41)" fill="#34234d"/>
        <rect id="Rectángulo_374221" data-name="Rectángulo 374221" width="7.998" height="1.013" transform="translate(142.133 74.561) rotate(-45.038)" fill="#34234d"/>
        <rect id="Rectángulo_374222" data-name="Rectángulo 374222" width="1.013" height="7.998" transform="translate(142.131 69.619) rotate(-45)" fill="#34234d"/>
        <rect id="Rectángulo_374223" data-name="Rectángulo 374223" width="9.072" height="1.013" transform="translate(272.763 73.449)" fill="#34234d"/>
      </g>
    </g>
    <g id="Grupo_1064908" data-name="Grupo 1064908" transform="translate(126.529 52.999)">
      <g id="Grupo_1064907" data-name="Grupo 1064907" clip-path="url(#clip-path-2)">
        <path id="Trazado_798408" data-name="Trazado 798408" d="M368.03,169.543l-1.75,2.491-2.854,4.065-.592.844L337.972,212.36l-7.448,10.611h0v0l-5.3,7.553-.374-.144-1.089-.422-9.291-3.6-25.825-10-7.062-2.736L270.84,265.041v0L268.97,274l-2.747,1.8-4.923,3.23-24.038,15.784-4.565,3-2.245,4.641-.53,1.1-1.447,2.994h0L207.8,349.285l-5.127,10.6-.326-.174-10.311-5.552-28.974-15.6-1.671-.9-5.478-2.948-.431-.233-1.6,3.19-1,2-21.632,43.071-3.853,7.667-.386.324-6.205,5.253L93.549,419.055l-4.193-3.549,27.814-23.554,5.822-4.931,1.111-2.209,2.294-4.568.4-.805,21.478-42.763,4.721-9.4,1.014.544,9.72,5.236h0l29.808,16.048,2.144,1.155,4.348,2.341.088.046,3.165-6.54.69-1.429L223.515,304.3l4.745-9.808.152-.315,5.221-3.428,4.578-3,19.949-13.1,5.963-3.914,1.453-6.968,11.958-57.244,39.013,15.106,6.5,2.518,3.209-4.569,1.235-1.757,4.889-6.969,25.981-37,3.445-4.9,1.749-2.491Z" transform="translate(-134.403 -67.667)" fill="#94e435"/>
        <path id="Trazado_798409" data-name="Trazado 798409" d="M410.995,190.595l3.975-62.358-57.505,25.221Z" transform="translate(-158.031 -64.3)" fill="#94e435"/>
        <path id="Trazado_798410" data-name="Trazado 798410" d="M136.3,407.5a8.181,8.181,0,0,1-6.2,10.278,9.3,9.3,0,0,1-10.831-6.554,8.179,8.179,0,0,1,6.2-10.278A9.3,9.3,0,0,1,136.3,407.5" transform="translate(-137.012 -88.316)" fill="#00b5f4"/>
        <path id="Trazado_798411" data-name="Trazado 798411" d="M169.008,344.66a8.18,8.18,0,0,1-6.2,10.278,9.3,9.3,0,0,1-10.83-6.554,8.179,8.179,0,0,1,6.2-10.278,9.3,9.3,0,0,1,10.831,6.554" transform="translate(-139.895 -82.777)" fill="#00a9ff"/>
        <path id="Trazado_798412" data-name="Trazado 798412" d="M219.285,369.729a8.18,8.18,0,0,1-6.2,10.278,9.3,9.3,0,0,1-10.831-6.555,8.181,8.181,0,0,1,6.2-10.279,9.3,9.3,0,0,1,10.831,6.555" transform="translate(-144.325 -84.987)" fill="#00a9ff"/>
        <path id="Trazado_798413" data-name="Trazado 798413" d="M250.407,308.018a8.18,8.18,0,0,1-6.2,10.278,9.3,9.3,0,0,1-10.831-6.555,8.18,8.18,0,0,1,6.2-10.278,9.3,9.3,0,0,1,10.831,6.555" transform="translate(-147.068 -79.548)" fill="#00a9ff"/>
        <path id="Trazado_798414" data-name="Trazado 798414" d="M291.335,279.9a8.18,8.18,0,0,1-6.2,10.278,9.3,9.3,0,0,1-10.83-6.554,8.179,8.179,0,0,1,6.2-10.278,9.3,9.3,0,0,1,10.831,6.554" transform="translate(-150.675 -77.071)" fill="#00a9ff"/>
        <path id="Trazado_798415" data-name="Trazado 798415" d="M353.526,230.733a8.18,8.18,0,0,1-6.2,10.278,9.3,9.3,0,0,1-10.831-6.554,8.179,8.179,0,0,1,6.2-10.278,9.3,9.3,0,0,1,10.831,6.554" transform="translate(-156.156 -72.737)" fill="#00a9ff"/>
        <path id="Trazado_798416" data-name="Trazado 798416" d="M307.713,214.431a8.179,8.179,0,0,1-6.2,10.277,9.3,9.3,0,0,1-10.831-6.554,8.181,8.181,0,0,1,6.2-10.279,9.3,9.3,0,0,1,10.831,6.555" transform="translate(-152.118 -71.3)" fill="#00a9ff"/>
        <rect id="Rectángulo_374225" data-name="Rectángulo 374225" width="26.835" height="62.401" transform="translate(19.624 288.01)" fill="#00a9ff"/>
        <rect id="Rectángulo_374226" data-name="Rectángulo 374226" width="26.834" height="46.505" transform="translate(55.763 303.906)" fill="#94e435"/>
        <rect id="Rectángulo_374227" data-name="Rectángulo 374227" width="26.834" height="91.187" transform="translate(91.901 259.224)" fill="#0050db"/>
        <rect id="Rectángulo_374228" data-name="Rectángulo 374228" width="26.835" height="131.905" transform="translate(128.039 218.506)" fill="#94e435"/>
      </g>
    </g>
    <g id="Grupo_1064910" data-name="Grupo 1064910" transform="translate(0 0)">
      <g id="Grupo_1064909" data-name="Grupo 1064909" clip-path="url(#clip-path)">
        <path id="Trazado_798418" data-name="Trazado 798418" d="M294.439,192.472H157.13a4.973,4.973,0,0,1-4.973-4.973V96.43a4.973,4.973,0,0,1,4.973-4.973H294.439a4.973,4.973,0,0,1,4.972,4.973V187.5a4.973,4.973,0,0,1-4.972,4.973" transform="translate(-13.409 -8.06)" fill="#e6e6e6"/>
        <path id="Trazado_798419" data-name="Trazado 798419" d="M294.413,192.709H157.1a5.241,5.241,0,0,1-5.235-5.235V96.4a5.241,5.241,0,0,1,5.235-5.236H294.413a5.241,5.241,0,0,1,5.235,5.236v91.069a5.241,5.241,0,0,1-5.235,5.235M157.1,91.693a4.717,4.717,0,0,0-4.712,4.712v91.069a4.716,4.716,0,0,0,4.712,4.711H294.413a4.716,4.716,0,0,0,4.712-4.711V96.4a4.717,4.717,0,0,0-4.712-4.712Z" transform="translate(-13.384 -8.035)" fill="#34234d"/>
      </g>
    </g>
    <g id="Grupo_1064912" data-name="Grupo 1064912" transform="translate(138.748 -0.001)">
      <g id="Grupo_1064911" data-name="Grupo 1064911" clip-path="url(#clip-path-4)">
        <path id="Trazado_798420" data-name="Trazado 798420" d="M249.855,197.745c3.593,4.893,9.212,12.779,7.826,18.5s-22.862-1.872-22.862-1.872L198.6,122.513l34.851.466s12.816,69.872,16.408,74.766" transform="translate(-156.25 -10.796)" fill="#34234d"/>
        <rect id="Rectángulo_374230" data-name="Rectángulo 374230" width="1.131" height="74.446" transform="translate(53.664 124.385) rotate(-20.627)" fill="#221733"/>
        <path id="Trazado_798421" data-name="Trazado 798421" d="M175.893,90.891,283.852,21.826l28.975,106.93L185.16,125.09c-5.321,1.442-11.708-5.045-14.266-14.489s-.321-18.268,5-19.71" transform="translate(-153.715 -1.923)" fill="#94e435"/>
        <path id="Trazado_798422" data-name="Trazado 798422" d="M175.893,96.711l13.823-8.843c-2.145,8.566-3.956,26.214,10.188,43.465l-14.745-.423c-5.321,1.442-11.708-5.045-14.266-14.489s-.321-18.268,5-19.71" transform="translate(-153.715 -7.743)" fill="#00a9ff"/>
        <path id="Trazado_798423" data-name="Trazado 798423" d="M293.108,17.608a25.812,25.812,0,0,1,10.5-.6C321.027,19.536,338,39.039,344.887,64.444c8.612,31.792-.632,61.033-21.048,66.572a25.813,25.813,0,0,1-10.5.6c-17.417-2.523-34.387-22.031-41.275-47.435-8.614-31.8.633-61.037,21.047-66.569" transform="translate(-162.44 -1.474)" fill="#00a9ff"/>
        <path id="Trazado_798424" data-name="Trazado 798424" d="M294.692,22.345c17.851-4.837,38.679,14.7,46.521,43.638s-.274,56.319-18.123,61.156-38.68-14.7-46.522-43.639.274-56.317,18.124-61.155" transform="translate(-162.858 -1.904)" fill="#fff"/>
        <path id="Trazado_798425" data-name="Trazado 798425" d="M317.519,128.344c-16.654,0-34.416-18.582-41.508-44.757-7.9-29.172.393-56.9,18.495-61.8s39.263,14.838,47.168,44.008-.392,56.9-18.494,61.8a21.616,21.616,0,0,1-5.66.749M294.782,22.8c-17.542,4.754-25.507,31.9-17.754,60.509s28.349,48.021,45.875,43.268c17.543-4.754,25.507-31.9,17.753-60.51S312.312,18.053,294.782,22.8" transform="translate(-162.808 -1.853)" fill="#34234d"/>
        <path id="Trazado_798426" data-name="Trazado 798426" d="M297.6,70.575,301.8,89.62l-19.519,13.416a84.919,84.919,0,0,1-5.7-15.23,83.213,83.213,0,0,1-2.841-17.4l22.867-.053Z" transform="translate(-162.872 -6.199)" fill="#34234d"/>
        <path id="Trazado_798427" data-name="Trazado 798427" d="M298.477,70.347c3-.812,6.594,2.841,8.035,8.16s.181,10.288-2.815,11.1-6.593-2.841-8.035-8.159-.18-10.288,2.815-11.1" transform="translate(-164.751 -6.189)" fill="#00b5f4"/>
        <rect id="Rectángulo_374231" data-name="Rectángulo 374231" width="21.714" height="2.211" transform="matrix(0.873, -0.488, 0.488, 0.873, 180.308, 44.981)" fill="#34234d"/>
        <rect id="Rectángulo_374232" data-name="Rectángulo 374232" width="2.212" height="41.479" transform="translate(186.819 106.076) rotate(-72.958)" fill="#34234d"/>
        <rect id="Rectángulo_374233" data-name="Rectángulo 374233" width="15.766" height="2.211" transform="translate(193.358 82.235) rotate(-1.158)" fill="#34234d"/>
        <rect id="Rectángulo_374234" data-name="Rectángulo 374234" width="38.993" height="2.211" transform="translate(192.411 75.147) rotate(-10.959)" fill="#34234d"/>
      </g>
    </g>
    <g id="Grupo_1064914" data-name="Grupo 1064914" transform="translate(0 0)">
      <g id="Grupo_1064913" data-name="Grupo 1064913" clip-path="url(#clip-path)">
        <rect id="Rectángulo_374235" data-name="Rectángulo 374235" width="70.641" height="3.65" transform="translate(138.747 229.049)" fill="#34234d"/>
        <rect id="Rectángulo_374236" data-name="Rectángulo 374236" width="22.501" height="3.65" transform="translate(138.747 216.208)" fill="#34234d"/>
        <rect id="Rectángulo_374237" data-name="Rectángulo 374237" width="15.751" height="3.65" transform="translate(170.982 216.208)" fill="#34234d"/>
        <rect id="Rectángulo_374238" data-name="Rectángulo 374238" width="47.171" height="3.65" transform="translate(138.747 203.367)" fill="#34234d"/>
        <rect id="Rectángulo_374239" data-name="Rectángulo 374239" width="23.289" height="3.65" transform="translate(192.242 203.367)" fill="#34234d"/>
        <rect id="Rectángulo_374240" data-name="Rectángulo 374240" width="63.141" height="3.65" transform="translate(138.747 268.476)" fill="#34234d"/>
        <rect id="Rectángulo_374241" data-name="Rectángulo 374241" width="22.501" height="3.65" transform="translate(138.747 255.635)" fill="#34234d"/>
        <rect id="Rectángulo_374242" data-name="Rectángulo 374242" width="41.508" height="3.65" transform="translate(170.982 255.635)" fill="#34234d"/>
        <rect id="Rectángulo_374243" data-name="Rectángulo 374243" width="47.171" height="3.65" transform="translate(138.747 242.794)" fill="#34234d"/>
        <rect id="Rectángulo_374244" data-name="Rectángulo 374244" width="23.289" height="3.65" transform="translate(192.242 242.794)" fill="#34234d"/>
        <path id="Trazado_798429" data-name="Trazado 798429" d="M181.815,49.312s-1.828-3.467-5.363.434-1.433,6.731.22,6.316,2.745-.559,3.617-3.323c0,0,.367,2.494,2.291,2.3a4.286,4.286,0,0,0,2.956-1.81s-.13,2.282.786,2.646,3.269-.458,4.235-2.778c0,0,.664,2.48,3.306.963s1.761-1.978,1.761-1.978,2.143-4.545-3.286-2.952c0,0-2.232-2.9-4.983.4,0,0-2.671-4.259-5.539-.22" transform="translate(-15.381 -4.192)" fill="#fff"/>
        <path id="Trazado_798430" data-name="Trazado 798430" d="M176.316,56.382a2.058,2.058,0,0,1-1.722-1.062c-.343-.572-1.241-2.681,1.6-5.812,1.3-1.43,2.54-2.08,3.695-1.936a2.938,2.938,0,0,1,1.912,1.174,3.4,3.4,0,0,1,2.68-1.514A4.14,4.14,0,0,1,187.349,49a3.7,3.7,0,0,1,2.732-1.388,3.407,3.407,0,0,1,2.331,1.137c1.735-.479,2.913-.372,3.5.319.755.882.256,2.387.042,2.923a.621.621,0,0,1,.086.308c.011.553-.643,1.188-2.056,2a2.771,2.771,0,0,1-2.47.384,2.17,2.17,0,0,1-1-.892c-1.18,2.069-3.395,2.716-4.339,2.342-.708-.28-.916-1.324-.971-2.1a4.372,4.372,0,0,1-2.627,1.282,2.307,2.307,0,0,1-2.354-1.615,3.846,3.846,0,0,1-3.278,2.568l-.23.057a1.667,1.667,0,0,1-.4.049m3.251-8.21a4.31,4.31,0,0,0-2.915,1.752c-2.028,2.237-2.116,4.089-1.526,5.076a1.364,1.364,0,0,0,1.44.73l.233-.058c1.487-.367,2.385-.59,3.165-3.057l.4-1.278.2,1.326c.012.089.331,2.2,1.952,2.041a3.982,3.982,0,0,0,2.726-1.668l.639-1-.067,1.186c-.038.671.056,2.127.589,2.339.723.285,2.916-.4,3.834-2.608l.347-.832.24.87a1.86,1.86,0,0,0,.934,1.126,2.213,2.213,0,0,0,1.918-.351c1.783-1.024,1.747-1.451,1.746-1.454l-.263-.138.152-.249c.219-.468.67-1.821.13-2.45-.432-.505-1.487-.53-3.05-.072l-.2.06-.13-.169a2.913,2.913,0,0,0-2-1.059h-.036a3.358,3.358,0,0,0-2.467,1.465l-.274.328-.228-.362c-.012-.017-1.134-1.774-2.6-1.814a3.041,3.041,0,0,0-2.422,1.609l-.29.409-.237-.443a2.53,2.53,0,0,0-1.706-1.24,1.871,1.871,0,0,0-.237-.015" transform="translate(-15.351 -4.162)" fill="#34234d"/>
        <path id="Trazado_798431" data-name="Trazado 798431" d="M186.649,53.282c.066-.309.151-.611.243-.909a8.842,8.842,0,0,1,.326-.876,6.572,6.572,0,0,1,.425-.829,6.787,6.787,0,0,1,.543-.767,3.54,3.54,0,0,0-.646.7,4.473,4.473,0,0,0-.467.833,5.058,5.058,0,0,0-.423,1.848" transform="translate(-16.449 -4.398)" fill="#34234d"/>
        <path id="Trazado_798432" data-name="Trazado 798432" d="M192.129,53.017c.067-.309.151-.611.243-.91a8.909,8.909,0,0,1,.325-.875,6.7,6.7,0,0,1,.425-.829,6.79,6.79,0,0,1,.543-.767,3.588,3.588,0,0,0-.646.7,4.51,4.51,0,0,0-.467.834,5.04,5.04,0,0,0-.423,1.848" transform="translate(-16.932 -4.374)" fill="#34234d"/>
        <path id="Trazado_798433" data-name="Trazado 798433" d="M180.846,52.911c.066-.309.15-.611.243-.909a8.622,8.622,0,0,1,.326-.876,6.652,6.652,0,0,1,.425-.83,6.861,6.861,0,0,1,.543-.766,3.592,3.592,0,0,0-.647.7,4.505,4.505,0,0,0-.466.834,5.041,5.041,0,0,0-.423,1.848" transform="translate(-15.938 -4.365)" fill="#34234d"/>
        <path id="Trazado_798434" data-name="Trazado 798434" d="M99.475,195.308s-21.721-16.892-27.308-46.516S98.976,150.7,98.976,150.7l10.864,17.486Z" transform="translate(-6.303 -11.995)" fill="#fff"/>
        <path id="Trazado_798435" data-name="Trazado 798435" d="M99.593,195.809l-.35-.273c-.218-.17-21.884-17.308-27.43-46.714-1.3-6.915-.63-11.137,2-12.549,6.888-3.7,24.611,13.435,25.361,14.165l11,17.687ZM76.15,136.392a4.222,4.222,0,0,0-2.026.46c-2.35,1.261-2.91,5.248-1.665,11.849,5.115,27.119,24.037,43.707,26.84,46.035l10.145-26.541L98.666,150.847c-.119-.1-14.959-14.455-22.516-14.455" transform="translate(-6.272 -11.963)" fill="#34234d"/>
        <path id="Trazado_798436" data-name="Trazado 798436" d="M181.485,136.4c-6.761-1.019-16.078-1.69-18.359-1.045-1.862.526-4.737.759-7,9.7-2.483,9.832-.713,11.4-4.144,14.349h0c-6.768,2.806-35.7,2.494-49.438,6.214-12.472,3.38-8.289,30.561,3.009,30.966,12.022.431,47.251-22.277,55.388-31.116l0,0s5.247-2.768,3.366-8.285c-.985-2.883-.515-5.128,1.364-5.355a40.583,40.583,0,0,1,4.568.568c2.133.307,3.28.056,4.01-1.971,1.02-2.831,2.2-6.3,2.175-7.075-.055-1.349-7.733-3.824-7.733-3.824s8.542.856,12.6-.582c1.041-.37,1.277-2.383.183-2.548" transform="translate(-8.367 -11.907)" fill="#fff"/>
        <path id="Trazado_798437" data-name="Trazado 798437" d="M105.851,196.9c-.115,0-.227,0-.337-.006-6.244-.223-9.954-7.875-10.76-14.889-.753-6.551.806-14.861,7.677-16.722,7.167-1.942,18.526-2.795,28.547-3.547,9.025-.678,17.554-1.319,20.8-2.631,1.961-1.7,2.111-2.906,2.469-5.795a62.7,62.7,0,0,1,1.535-8.355c2.174-8.6,5.012-9.35,6.89-9.847l.337-.091c2.311-.656,11.674.008,18.5,1.038a1.188,1.188,0,0,1,.988,1.168,1.961,1.961,0,0,1-1.111,2.013c-2.74.97-7.383.924-10.248.779,2.444.9,5.551,2.258,5.6,3.306.009.248.039,1-2.195,7.2-.81,2.249-2.155,2.5-4.366,2.185l-.824-.119a33.653,33.653,0,0,0-3.656-.448,1.563,1.563,0,0,0-1.195.738c-.547.87-.51,2.4.1,4.185,1.853,5.432-2.947,8.353-3.477,8.655-8.356,9.026-43.108,31.183-55.264,31.184m46.62-37.537.14.1-.531.222c-3.3,1.368-11.526,1.986-21.054,2.7-9.991.75-21.317,1.6-28.424,3.526-6.053,1.64-7.976,9.224-7.2,16.012.8,6.958,4.536,14.108,10.13,14.308.108,0,.22.006.333.006,12.032,0,46.574-22.08,54.8-31.016l.2-.218.067.05c.89-.535,4.625-3.109,3.03-7.787-.676-1.977-.689-3.708-.036-4.747a2.224,2.224,0,0,1,1.673-1.04,26.688,26.688,0,0,1,3.829.45l.824.119c1.986.286,2.985.1,3.654-1.757,1.976-5.485,2.166-6.688,2.155-6.951-.024-.606-3.461-2.221-7.506-3.525l-2.935-.947,3.069.307c.084.007,8.518.831,12.463-.566a1.319,1.319,0,0,0,.675-1.33c-.022-.239-.116-.534-.43-.582-6.757-1.019-15.984-1.686-18.221-1.055l-.347.094c-1.833.485-4.342,1.15-6.42,9.373a62.056,62.056,0,0,0-1.52,8.275c-.354,2.849-.525,4.224-2.424,5.972" transform="translate(-8.335 -11.875)" fill="#34234d"/>
        <path id="Trazado_798438" data-name="Trazado 798438" d="M181.4,150.512l-9.868-2.908a77.5,77.5,0,0,1,9.868,2.908" transform="translate(-15.117 -13.008)" fill="#34234d"/>
        <path id="Trazado_798439" data-name="Trazado 798439" d="M182.372,147.125,171,142.8s7.986,2.51,11.368,4.327" transform="translate(-15.07 -12.584)" fill="#34234d"/>
        <path id="Trazado_798440" data-name="Trazado 798440" d="M82.611,181.647c-7.745-5.319-17.952-33.336-21.993-48.065-6.383-23.264,9.368-41,14.194-37.87,20.4,13.211,35.152,52.564,35.687,60.035.765,10.719-23.707,28.772-27.889,25.9" transform="translate(-5.21 -8.403)" fill="#94e435"/>
        <path id="Trazado_798441" data-name="Trazado 798441" d="M82.927,182.348c-16.031-10.7-23.234-50.134-23.533-51.807l.852-.151c.073.406,7.437,40.745,23.161,51.239Z" transform="translate(-5.234 -11.491)" fill="#34234d"/>
        <path id="Trazado_798442" data-name="Trazado 798442" d="M113.357,157.174c-.057-.181-5.694-18.3-12.089-29.231l.77-.45c6.448,11.016,12.115,29.236,12.173,29.418Z" transform="translate(-8.925 -11.236)" fill="#34234d"/>
        <path id="Trazado_798443" data-name="Trazado 798443" d="M94.528,186.356c-2.241,1.119.4,5.545.4,5.545l2.08,2.925s5.271,6.607,9.818,5.36,10.008-12.37,10.008-12.37l-5.361-3.955s-6.116-2.843-7.938-3.074-6.77,4.449-9.011,5.568" transform="translate(-8.251 -15.932)" fill="#fff"/>
        <path id="Trazado_798444" data-name="Trazado 798444" d="M107.473,181.973l-.878-.16c.915-5.016,6.566-15.093,6.806-15.52l.779.439c-.059.1-5.819,10.373-6.707,15.242" transform="translate(-9.394 -14.655)" fill="#34234d"/>
        <path id="Trazado_798445" data-name="Trazado 798445" d="M100.018,113.772a14.706,14.706,0,0,1-9.173,3.4c-1.24.036-5.133-8.991-5.133-8.991s.482,8.572-.028,8.453a25.013,25.013,0,0,1-6.72-2.59c1.2-1.195-2.261-12.237-4.377-26L91.775,91c4,11.936,8.243,22.769,8.243,22.769" transform="translate(-6.573 -7.759)" fill="#34234d"/>
      </g>
    </g>
  </g>
</svg>
