<svg xmlns="http://www.w3.org/2000/svg" xmlns:xlink="http://www.w3.org/1999/xlink" width="85" height="85" viewBox="0 0 85 85">
  <defs>
    <clipPath id="clip-path">
      <rect id="Rectángulo_373518" data-name="Rectángulo 373518" width="85" height="85" transform="translate(390 4837)" fill="#fff"/>
    </clipPath>
  </defs>
  <g id="Enmascarar_grupo_1059007" data-name="Enmascarar grupo 1059007" transform="translate(-390 -4837)" clip-path="url(#clip-path)">
    <g id="tienda-online" transform="translate(390 4837)">
      <path id="Trazado_797282" data-name="Trazado 797282" d="M29.746,73.063c-.336,2.849-2.558,3.556-3.133,4.115H50.376c-.524-.509-2.8-1.279-3.133-4.115l-.764-6.656H30.51Z" fill="#ddd"/>
      <path id="Trazado_797283" data-name="Trazado 797283" d="M35.778,73.063l.764-6.656H30.51l-.764,6.656c-.336,2.849-2.558,3.556-3.133,4.115h6.032l1.363-.952A4.611,4.611,0,0,0,35.778,73.063Z" fill="#ceccca"/>
      <path id="Trazado_797284" data-name="Trazado 797284" d="M52.921,77.032H24.068a2.414,2.414,0,0,0-2.407,2.407h0a2.414,2.414,0,0,0,2.407,2.407H52.921a2.414,2.414,0,0,0,2.407-2.407h0A2.414,2.414,0,0,0,52.921,77.032Z" fill="#efefef"/>
      <path id="Trazado_797285" data-name="Trazado 797285" d="M30.626,79.439a2.414,2.414,0,0,1,2.407-2.407H24.068a2.407,2.407,0,1,0,0,4.814h8.965A2.414,2.414,0,0,1,30.626,79.439Z" fill="#ddd"/>
      <path id="Trazado_797286" data-name="Trazado 797286" d="M55.909,42.34a4.322,4.322,0,0,1,4.322-4.322h15.6V7.972a4.833,4.833,0,0,0-4.819-4.819H6.108A4.833,4.833,0,0,0,1.289,7.972V61.754a4.833,4.833,0,0,0,4.819,4.819h49.8V42.34Z" fill="#efefef"/>
      <path id="Trazado_797287" data-name="Trazado 797287" d="M10.254,61.754V7.972a4.833,4.833,0,0,1,4.819-4.819H6.108A4.833,4.833,0,0,0,1.289,7.972V61.754a4.833,4.833,0,0,0,4.819,4.819h8.965A4.833,4.833,0,0,1,10.254,61.754Z" fill="#ddd"/>
      <path id="Trazado_797288" data-name="Trazado 797288" d="M55.909,42.34a4.322,4.322,0,0,1,4.322-4.322h15.6V7.972a4.833,4.833,0,0,0-4.819-4.819H6.108A4.833,4.833,0,0,0,1.289,7.972V56.778h54.62V42.34h0Z" fill="#647892"/>
      <path id="Trazado_797289" data-name="Trazado 797289" d="M10.254,7.972a4.833,4.833,0,0,1,4.819-4.819H6.108A4.836,4.836,0,0,0,1.289,7.972V56.778h8.965Z" fill="#4d6682"/>
      <path id="Trazado_797290" data-name="Trazado 797290" d="M6.1,16.933V50.975a.822.822,0,0,0,.822.822H55.743V42.34a4.322,4.322,0,0,1,4.322-4.322H70.851V16.933Z" fill="#a4d9f4"/>
      <path id="Trazado_797291" data-name="Trazado 797291" d="M10.254,16.933H6.1V50.975a.822.822,0,0,0,.822.822h3.328Z" fill="#77cff2"/>
      <path id="Trazado_797292" data-name="Trazado 797292" d="M27.3,27.226l2.746,11.621H45.913a1.051,1.051,0,0,0,1.02-.8l2.5-10.159a.546.546,0,0,0-.533-.663Z" fill="#fac149"/>
      <path id="Trazado_797293" data-name="Trazado 797293" d="M70.029,7.968H6.926A.822.822,0,0,0,6.1,8.79v8.641H70.851V8.79A.822.822,0,0,0,70.029,7.968Z" fill="#efefef"/>
      <path id="Trazado_797294" data-name="Trazado 797294" d="M10.254,7.972s0,0,0,0H6.926A.822.822,0,0,0,6.1,8.79v8.641h4.151V7.972Z" fill="#ddd"/>
      <path id="Trazado_797295" data-name="Trazado 797295" d="M79.312,37.519H59.567a4.322,4.322,0,0,0-4.322,4.322V77.524a4.322,4.322,0,0,0,4.322,4.322H79.312a4.322,4.322,0,0,0,4.322-4.322V41.841A4.322,4.322,0,0,0,79.312,37.519Z" fill="#efefef"/>
      <path id="Trazado_797296" data-name="Trazado 797296" d="M59.576,77.524V41.841A4.322,4.322,0,0,1,63.9,37.519h-4.33a4.322,4.322,0,0,0-4.322,4.322V77.524a4.322,4.322,0,0,0,4.322,4.322H63.9A4.322,4.322,0,0,1,59.576,77.524Z" fill="#ddd"/>
      <path id="Trazado_797297" data-name="Trazado 797297" d="M79.484,77.025a.5.5,0,0,1-.5.5H60.066a.5.5,0,0,1-.5-.5V42.341a.5.5,0,0,1,.5-.5h3.854a.622.622,0,0,1,.622.622V44.08a1.243,1.243,0,0,0,1.243,1.243h7.878a1.172,1.172,0,0,0,1.172-1.172V42.463a.627.627,0,0,1,.627-.627h3.517a.5.5,0,0,1,.5.5V77.025Z" fill="#3997ee"/>
      <path id="Trazado_797298" data-name="Trazado 797298" d="M63.8,77.025V42.341a.5.5,0,0,1,.323-.469.615.615,0,0,0-.2-.035H60.067a.5.5,0,0,0-.5.5V77.025a.5.5,0,0,0,.5.5H64.3A.505.505,0,0,1,63.8,77.025Z" fill="#1e88d8"/>
      <g id="Grupo_1064049" data-name="Grupo 1064049">
        <circle id="Elipse_4746" data-name="Elipse 4746" cx="2.158" cy="2.158" r="2.158" transform="translate(30.84 42.665)" fill="#647892"/>
        <circle id="Elipse_4747" data-name="Elipse 4747" cx="2.158" cy="2.158" r="2.158" transform="translate(43.125 42.665)" fill="#647892"/>
      </g>
      <path id="Trazado_797299" data-name="Trazado 797299" d="M63.8,40.485H60.044a1.752,1.752,0,0,0-1.75,1.75V77.076a1.752,1.752,0,0,0,1.75,1.75H79a1.752,1.752,0,0,0,1.75-1.75V42.235A1.752,1.752,0,0,0,79,40.485h-3.58a1.874,1.874,0,0,0-1.872,1.872v1.689l-7.88,0v-1.7A1.87,1.87,0,0,0,63.8,40.485Zm9.819,6.052a2.42,2.42,0,0,0,2.418-2.418V42.976h2.222v33.36H60.785V42.976h2.392V44.05a2.491,2.491,0,0,0,2.488,2.488Z"/>
      <path id="Trazado_797300" data-name="Trazado 797300" d="M70.528,42.805a1.245,1.245,0,1,0,0-2.49h-1.9a1.245,1.245,0,0,0,0,2.49Z"/>
      <path id="Trazado_797301" data-name="Trazado 797301" d="M37.344,62.122a1.163,1.163,0,0,0,.113.216,1.331,1.331,0,0,0,.156.189,1.219,1.219,0,0,0,.189.154,1.256,1.256,0,0,0,.214.115,1.312,1.312,0,0,0,.232.071,1.293,1.293,0,0,0,.488,0,1.293,1.293,0,0,0,.232-.071,1.255,1.255,0,0,0,.214-.115,1.228,1.228,0,0,0,.189-.154,1.254,1.254,0,0,0,.365-.882,1.213,1.213,0,0,0-.025-.242,1.3,1.3,0,0,0-.07-.234,1.238,1.238,0,0,0-.27-.4,1.22,1.22,0,0,0-.189-.154,1.255,1.255,0,0,0-.214-.115,1.311,1.311,0,0,0-.232-.071,1.271,1.271,0,0,0-.488,0,1.3,1.3,0,0,0-.232.071,1.268,1.268,0,0,0-.214.115,1.227,1.227,0,0,0-.189.154,1.3,1.3,0,0,0-.156.189,1.27,1.27,0,0,0-.209.69,1.22,1.22,0,0,0,.025.244A1.141,1.141,0,0,0,37.344,62.122Z"/>
      <path id="Trazado_797302" data-name="Trazado 797302" d="M69.918,71.593a1.245,1.245,0,1,0,1,1.222A1.246,1.246,0,0,0,69.918,71.593Z"/>
      <path id="Trazado_797303" data-name="Trazado 797303" d="M74.348,61.053H65a1.245,1.245,0,1,0,0,2.49h9.345a1.245,1.245,0,1,0,0-2.49Z"/>
      <path id="Trazado_797304" data-name="Trazado 797304" d="M74.348,66.679H65a1.245,1.245,0,0,0,0,2.49h9.345a1.245,1.245,0,0,0,0-2.49Z"/>
      <path id="Trazado_797305" data-name="Trazado 797305" d="M63.757,51.046A1.245,1.245,0,0,0,65,52.292h9.345a1.245,1.245,0,0,0,0-2.49H65A1.245,1.245,0,0,0,63.757,51.046Z"/>
      <path id="Trazado_797306" data-name="Trazado 797306" d="M74.348,55.427H65a1.245,1.245,0,1,0,0,2.49h9.345a1.245,1.245,0,1,0,0-2.49Z"/>
      <path id="Trazado_797307" data-name="Trazado 797307" d="M22.341,23.7h2.93C25.4,24.259,29.6,42,29.605,42.03h0a2.554,2.554,0,0,0,.547,1.069,3.372,3.372,0,1,0,6.113.889h5.8a3.369,3.369,0,1,0,3.747-2.449,1.244,1.244,0,0,0-.311-.041H32.09a.065.065,0,0,1-.063-.05l-.351-1.462h15.01a1.245,1.245,0,0,0,1.209-.948l2.679-10.892c0-.01,0-.021.007-.032a1.788,1.788,0,0,0-1.747-2.169H28.354l-.884-3.773a1.245,1.245,0,0,0-1.212-.961H22.341a1.245,1.245,0,0,0,0,2.49ZM45.32,43.988a.88.88,0,1,1-.88.88A.881.881,0,0,1,45.32,43.988Zm-12.3,0a.88.88,0,1,1-.88.88A.881.881,0,0,1,33.016,43.988ZM47.939,28.436,45.71,37.5H31.081L28.94,28.436Z"/>
      <path id="Trazado_797308" data-name="Trazado 797308" d="M12.7,14.136a1.244,1.244,0,1,0-1.245-1.245A1.246,1.246,0,0,0,12.7,14.136Z"/>
      <path id="Trazado_797309" data-name="Trazado 797309" d="M17.4,14.136a1.245,1.245,0,1,0-1.245-1.245A1.245,1.245,0,0,0,17.4,14.136Z"/>
      <path id="Trazado_797310" data-name="Trazado 797310" d="M22.111,14.136a1.245,1.245,0,1,0-1.245-1.245A1.247,1.247,0,0,0,22.111,14.136Z"/>
      <path id="Trazado_797311" data-name="Trazado 797311" d="M27.779,14.136H63.885a1.245,1.245,0,0,0,0-2.49H27.779a1.245,1.245,0,0,0,0,2.49Z"/>
      <path id="Trazado_797312" data-name="Trazado 797312" d="M1.245,41.083A1.245,1.245,0,0,0,2.49,39.838V7.986A3.578,3.578,0,0,1,6.064,4.413h51.91a1.245,1.245,0,0,0,0-2.49H6.064A6.07,6.07,0,0,0,0,7.986V39.838A1.245,1.245,0,0,0,1.245,41.083Z"/>
      <path id="Trazado_797313" data-name="Trazado 797313" d="M83.755,66.264A1.245,1.245,0,0,0,85,65.019V41.8a5.574,5.574,0,0,0-5.567-5.567H76.987V7.986a6.07,6.07,0,0,0-6.064-6.064H63.785a1.245,1.245,0,0,0,0,2.49h7.139A3.577,3.577,0,0,1,74.5,7.986V36.234H72.116V8.827a2.07,2.07,0,0,0-2.067-2.067H6.938A2.07,2.07,0,0,0,4.871,8.827h0V51.05a2.07,2.07,0,0,0,2.067,2.067h47.1V55.49H2.49V45.649a1.245,1.245,0,0,0-2.49,0v16a6.071,6.071,0,0,0,6.064,6.064H29.076l-.6,5.1a3.24,3.24,0,0,1-1.239,2.2l-1.053.714H23.92a3.677,3.677,0,1,0,0,7.354H53.067a3.671,3.671,0,0,0,2.873-1.387,5.543,5.543,0,0,0,3.671,1.387H79.433A5.574,5.574,0,0,0,85,77.51V70.83a1.245,1.245,0,1,0-2.49,0v6.68a3.08,3.08,0,0,1-3.077,3.077H59.611a3.08,3.08,0,0,1-3.077-3.077V41.8a3.08,3.08,0,0,1,3.077-3.077H79.433A3.08,3.08,0,0,1,82.51,41.8V65.019A1.245,1.245,0,0,0,83.755,66.264ZM6.064,65.223A3.578,3.578,0,0,1,2.49,61.649V57.981H54.043v7.242Zm47.979,2.49v8.143a3.668,3.668,0,0,0-.977-.133H50.805l-1.053-.714a3.239,3.239,0,0,1-1.239-2.2l-.6-5.1Zm-7.016,8.011H29.96a5.962,5.962,0,0,0,.986-2.617v0l.637-5.391H45.4l.638,5.394A5.966,5.966,0,0,0,47.027,75.724Zm6.04,4.864H23.92a1.187,1.187,0,1,1,0-2.373H53.067a1.187,1.187,0,0,1,0,2.373ZM69.626,36.234H59.611A5.574,5.574,0,0,0,54.043,41.8v8.825H7.361V18.682H69.626Zm0-20.042H7.361V9.249H69.626Z"/>
    </g>
  </g>
</svg>
