<svg xmlns="http://www.w3.org/2000/svg" xmlns:xlink="http://www.w3.org/1999/xlink" width="360.334" height="340.273" viewBox="0 0 360.334 340.273">
  <defs>
    <clipPath id="clip-path">
      <path id="Trazado_798746" data-name="Trazado 798746" d="M310.926,310.576,262,306.171v-69.1l48.965-.11Z" transform="translate(-262 -236.96)" fill="#0050db"/>
    </clipPath>
    <clipPath id="clip-path-2">
      <path id="Trazado_798749" data-name="Trazado 798749" d="M373.505,314.961l-48.965-4.4V236.972l48.965-.1Z" transform="translate(-324.54 -236.87)" fill="#0050db"/>
    </clipPath>
    <clipPath id="clip-path-3">
      <path id="Trazado_798752" data-name="Trazado 798752" d="M436.087,319.326l-48.957-4.4V236.8l48.957-.11Z" transform="translate(-387.13 -236.69)" fill="#0050db"/>
    </clipPath>
    <clipPath id="clip-path-4">
      <path id="Trazado_798827" data-name="Trazado 798827" d="M170.377,185.619l-48.957,1.134V106.37l48.957-5.64Z" transform="translate(-121.42 -100.73)" fill="#0050db"/>
    </clipPath>
    <clipPath id="clip-path-5">
      <path id="Trazado_798830" data-name="Trazado 798830" d="M233,182.923l-49,1.127V99.16l48.965-5.64Z" transform="translate(-184 -93.52)" fill="#0050db"/>
    </clipPath>
    <clipPath id="clip-path-6">
      <path id="Trazado_798833" data-name="Trazado 798833" d="M295.6,180.227l-48.965,1.127V91.95L295.6,86.31Z" transform="translate(-246.63 -86.31)" fill="#0050db"/>
    </clipPath>
    <clipPath id="clip-path-7">
      <path id="Trazado_798898" data-name="Trazado 798898" d="M214.783,295.506s4.17,21.764,0,43.09-6.744,89.81-6.744,89.81H182.09V292.1l31.386-1.1Z" transform="translate(-182.09 -291)" fill="#999" stroke="#263238" stroke-linecap="round" stroke-linejoin="round" stroke-width="1"/>
    </clipPath>
    <clipPath id="clip-path-8">
      <path id="Trazado_798922" data-name="Trazado 798922" d="M198.743,203.222l-4.475-1.612-5.038,1.612s3.387,5.085,4.756,5.328c0,0,4.905,38.083,6.454,55.865s1.04,19.425,1.04,19.425l6.775,5.547,4.952-6.994s-2.605-27.968-5.993-44.592a138.469,138.469,0,0,0-9.646-29.5S199.564,205.741,198.743,203.222Z" transform="translate(-189.23 -201.61)" fill="#0050db" stroke="#263238" stroke-linecap="round" stroke-linejoin="round" stroke-width="1"/>
    </clipPath>
    <clipPath id="clip-path-9">
      <path id="Trazado_798926" data-name="Trazado 798926" d="M197.061,182.109s-.884,5.719,1.314,9.638c0,0-4.756,2.081-6.8,2.347s-12.517-5.977-12.517-5.977a75.751,75.751,0,0,0,1.455-20c-.673-11.031,11.836,6.892,11.836,6.892l6.016,5.476Z" transform="translate(-179.06 -164.533)" fill="#fff" stroke="#263238" stroke-linecap="round" stroke-linejoin="round" stroke-width="1"/>
    </clipPath>
  </defs>
  <g id="Business_analytics-bro" data-name="Business analytics-bro" transform="translate(-20.3 -32.333)">
    <g id="freepik--background-simple--inject-7" transform="translate(39.68 32.332)">
      <path id="Trazado_798735" data-name="Trazado 798735" d="M338.611,75.757C296.844,49.6,204.734,13.172,141.327,44.316,73.876,77.447,46.4,158.651,45.064,210.823c-1.393,54.191,8.246,100.136,34.946,121.3C108,354.355,177.635,356.279,220.349,294.3c23.657-34.328,3.325-73.991,19.159-87.557,23.4-20.043,85.327,1.838,127.236-45.1C399.507,124.957,363.5,91.348,338.611,75.757Z" transform="translate(-44.933 -32.333)" fill="#0050db"/>
      <path id="Trazado_798736" data-name="Trazado 798736" d="M338.611,75.757C296.844,49.6,204.734,13.172,141.327,44.316,73.876,77.447,46.4,158.651,45.064,210.823c-1.393,54.191,8.246,100.136,34.946,121.3C108,354.355,177.635,356.279,220.349,294.3c23.657-34.328,3.325-73.991,19.159-87.557,23.4-20.043,85.327,1.838,127.236-45.1C399.507,124.957,363.5,91.348,338.611,75.757Z" transform="translate(-44.933 -32.333)" fill="#fff" opacity="0.7"/>
    </g>
    <g id="freepik--Board--inject-7" transform="translate(80.225 37.515)">
      <path id="Trazado_798737" data-name="Trazado 798737" d="M290.719,375.756l-6.259-.884V344.19l6.259.665Z" transform="translate(-137.62 -105.402)" fill="#999" stroke="#263238" stroke-linecap="round" stroke-linejoin="round" stroke-width="1"/>
      <path id="Trazado_798738" data-name="Trazado 798738" d="M392.257,296.735,104.6,266.225V91.769l287.657-37.2Z" transform="translate(-98.467 -42.355)" fill="#fff" stroke="#263238" stroke-linecap="round" stroke-linejoin="round" stroke-width="1"/>
      <path id="Trazado_798739" data-name="Trazado 798739" d="M393.007,50.858,100.421,88.707c-2.018.266-3.661-.782-3.661-2.417V83.622c0-1.565,1.643-3.129,3.661-3.411l292.586-41.22a3.293,3.293,0,0,1,3.661,3.56v3.755a4.561,4.561,0,0,1-3.661,4.553Z" transform="translate(-96.76 -38.957)" fill="#999" stroke="#263238" stroke-linecap="round" stroke-linejoin="round" stroke-width="1"/>
      <path id="Trazado_798740" data-name="Trazado 798740" d="M465.47,44.275l5.116-.735" transform="translate(-177.023 -39.954)" fill="none" stroke="#fff" stroke-linecap="round" stroke-linejoin="round" stroke-width="1"/>
      <path id="Trazado_798741" data-name="Trazado 798741" d="M447.9,46.689l7.823-1.119" transform="translate(-173.198 -40.396)" fill="none" stroke="#fff" stroke-linecap="round" stroke-linejoin="round" stroke-width="1"/>
      <path id="Trazado_798742" data-name="Trazado 798742" d="M135.55,82.015,375.29,47.82" transform="translate(-105.204 -40.886)" fill="none" stroke="#fff" stroke-linecap="round" stroke-linejoin="round" stroke-width="1"/>
      <path id="Trazado_798743" data-name="Trazado 798743" d="M104.89,95.2l17.8-2.543" transform="translate(-98.53 -50.647)" fill="none" stroke="#fff" stroke-linecap="round" stroke-linejoin="round" stroke-width="1"/>
    </g>
    <g id="freepik--chart-3--inject-7" transform="translate(209.494 192.204)">
      <path id="Trazado_798744" data-name="Trazado 798744" d="M310.926,310.576,262,306.171v-69.1l48.965-.11Z" transform="translate(-262 -236.749)" fill="#0050db"/>
      <g id="Grupo_1064939" data-name="Grupo 1064939" transform="translate(0 0.211)" clip-path="url(#clip-path)">
        <path id="Trazado_798745" data-name="Trazado 798745" d="M310.926,310.576,262,306.171v-69.1l48.965-.11Z" transform="translate(-262 -236.96)" fill="#fff" opacity="0.8"/>
      </g>
      <path id="Trazado_798747" data-name="Trazado 798747" d="M373.505,314.961l-48.965-4.4V236.972l48.965-.1Z" transform="translate(-275.614 -236.729)" fill="#0050db"/>
      <g id="Grupo_1064940" data-name="Grupo 1064940" transform="translate(48.926 0.141)" clip-path="url(#clip-path-2)">
        <path id="Trazado_798748" data-name="Trazado 798748" d="M373.505,314.961l-48.965-4.4V236.972l48.965-.1Z" transform="translate(-324.54 -236.87)" fill="#fff" opacity="0.6"/>
      </g>
      <path id="Trazado_798750" data-name="Trazado 798750" d="M436.087,319.326l-48.957-4.4V236.8l48.957-.11Z" transform="translate(-289.239 -236.69)" fill="#0050db"/>
      <g id="Grupo_1064941" data-name="Grupo 1064941" transform="translate(97.891)" clip-path="url(#clip-path-3)">
        <path id="Trazado_798751" data-name="Trazado 798751" d="M436.087,319.326l-48.957-4.4V236.8l48.957-.11Z" transform="translate(-387.13 -236.69)" fill="#fff" opacity="0.4"/>
      </g>
      <path id="Trazado_798753" data-name="Trazado 798753" d="M408.848,236.69,262,237.011" transform="translate(-262 -236.69)" fill="none" stroke="#7f7f7f" stroke-linecap="round" stroke-linejoin="round" stroke-width="1"/>
      <path id="Trazado_798754" data-name="Trazado 798754" d="M262,249.72l146.887,1.612" transform="translate(-262 -239.526)" fill="none" stroke="#7f7f7f" stroke-linecap="round" stroke-linejoin="round" stroke-width="1"/>
      <path id="Trazado_798755" data-name="Trazado 798755" d="M408.848,265.884,262,262.34" transform="translate(-262 -242.274)" fill="none" stroke="#7f7f7f" stroke-linecap="round" stroke-linejoin="round" stroke-width="1"/>
      <path id="Trazado_798756" data-name="Trazado 798756" d="M262,275l146.887,5.476" transform="translate(-262 -245.03)" fill="none" stroke="#7f7f7f" stroke-linecap="round" stroke-linejoin="round" stroke-width="1"/>
      <path id="Trazado_798757" data-name="Trazado 798757" d="M408.848,294.986,262,287.57" transform="translate(-262 -247.766)" fill="none" stroke="#7f7f7f" stroke-linecap="round" stroke-linejoin="round" stroke-width="1"/>
      <path id="Trazado_798758" data-name="Trazado 798758" d="M262,300.19l146.887,9.349" transform="translate(-262 -250.513)" fill="none" stroke="#7f7f7f" stroke-linecap="round" stroke-linejoin="round" stroke-width="1"/>
      <path id="Trazado_798759" data-name="Trazado 798759" d="M408.848,324.091,262,312.81" transform="translate(-262 -253.26)" fill="none" stroke="#7f7f7f" stroke-linecap="round" stroke-linejoin="round" stroke-width="1"/>
      <path id="Trazado_798760" data-name="Trazado 798760" d="M262,325.43l146.887,13.213" transform="translate(-262 -256.007)" fill="none" stroke="#7f7f7f" stroke-linecap="round" stroke-linejoin="round" stroke-width="1"/>
      <path id="Trazado_798761" data-name="Trazado 798761" d="M277.6,307.3V237.06" transform="translate(-265.396 -236.771)" fill="none" stroke="#7f7f7f" stroke-linecap="round" stroke-linejoin="round" stroke-width="1"/>
      <path id="Trazado_798762" data-name="Trazado 798762" d="M262,237.1v69.1" transform="translate(-262 -236.779)" fill="none" stroke="#7f7f7f" stroke-linecap="round" stroke-linejoin="round" stroke-width="1"/>
      <path id="Trazado_798763" data-name="Trazado 798763" d="M308.89,309.481V237" transform="translate(-272.207 -236.757)" fill="none" stroke="#7f7f7f" stroke-linecap="round" stroke-linejoin="round" stroke-width="1"/>
      <path id="Trazado_798764" data-name="Trazado 798764" d="M293.25,237v71.355" transform="translate(-268.803 -236.757)" fill="none" stroke="#7f7f7f" stroke-linecap="round" stroke-linejoin="round" stroke-width="1"/>
      <path id="Trazado_798765" data-name="Trazado 798765" d="M340.19,311.672V236.93" transform="translate(-279.021 -236.742)" fill="none" stroke="#7f7f7f" stroke-linecap="round" stroke-linejoin="round" stroke-width="1"/>
      <path id="Trazado_798766" data-name="Trazado 798766" d="M324.54,237v73.616" transform="translate(-275.614 -236.757)" fill="none" stroke="#7f7f7f" stroke-linecap="round" stroke-linejoin="round" stroke-width="1"/>
      <path id="Trazado_798767" data-name="Trazado 798767" d="M371.48,313.855v-77" transform="translate(-285.832 -236.727)" fill="none" stroke="#7f7f7f" stroke-linecap="round" stroke-linejoin="round" stroke-width="1"/>
      <path id="Trazado_798768" data-name="Trazado 798768" d="M355.83,236.89v75.884" transform="translate(-282.425 -236.734)" fill="none" stroke="#7f7f7f" stroke-linecap="round" stroke-linejoin="round" stroke-width="1"/>
      <path id="Trazado_798769" data-name="Trazado 798769" d="M402.77,316.046V236.79" transform="translate(-292.644 -236.712)" fill="none" stroke="#7f7f7f" stroke-linecap="round" stroke-linejoin="round" stroke-width="1"/>
      <path id="Trazado_798770" data-name="Trazado 798770" d="M387.13,236.83v78.122" transform="translate(-289.239 -236.72)" fill="none" stroke="#7f7f7f" stroke-linecap="round" stroke-linejoin="round" stroke-width="1"/>
      <path id="Trazado_798771" data-name="Trazado 798771" d="M434.07,318.229V236.72" transform="translate(-299.457 -236.697)" fill="none" stroke="#7f7f7f" stroke-linecap="round" stroke-linejoin="round" stroke-width="1"/>
      <path id="Trazado_798772" data-name="Trazado 798772" d="M418.42,236.76v80.383" transform="translate(-296.05 -236.705)" fill="none" stroke="#7f7f7f" stroke-linecap="round" stroke-linejoin="round" stroke-width="1"/>
      <path id="Trazado_798773" data-name="Trazado 798773" d="M449.71,236.69v82.636" transform="translate(-302.862 -236.69)" fill="none" stroke="#7f7f7f" stroke-linecap="round" stroke-linejoin="round" stroke-width="1"/>
      <path id="Trazado_798774" data-name="Trazado 798774" d="M262,237.011v69.1l146.887,13.213V236.69Z" transform="translate(-262 -236.69)" fill="none" stroke="#263238" stroke-linecap="round" stroke-linejoin="round" stroke-width="1"/>
      <path id="Trazado_798775" data-name="Trazado 798775" d="M268.757,320.145l-3.677-.329V300l3.677.235Z" transform="translate(-262.67 -250.472)" fill="#263238"/>
      <path id="Trazado_798776" data-name="Trazado 798776" d="M273.449,317.779l-3.669-.336V287.59l3.669.188Z" transform="translate(-263.694 -247.77)" fill="#0050db"/>
      <path id="Trazado_798777" data-name="Trazado 798777" d="M284.4,317.273l-3.669-.329v-35.2l3.669.156Z" transform="translate(-266.077 -246.497)" fill="#263238"/>
      <path id="Trazado_798778" data-name="Trazado 798778" d="M289.1,316.232l-3.677-.329V275.45l3.677.133Z" transform="translate(-267.098 -245.128)" fill="#0050db"/>
      <path id="Trazado_798779" data-name="Trazado 798779" d="M300.049,319.931l-3.669-.329V288.92l3.669.188Z" transform="translate(-269.484 -248.06)" fill="#263238"/>
      <path id="Trazado_798780" data-name="Trazado 798780" d="M304.739,318.9l-3.669-.329V282.58l3.669.156Z" transform="translate(-270.505 -246.68)" fill="#0050db"/>
      <path id="Trazado_798781" data-name="Trazado 798781" d="M315.7,324.122l-3.677-.329V303l3.677.235Z" transform="translate(-272.889 -251.125)" fill="#263238" stroke="#263238" stroke-linecap="round" stroke-linejoin="round" stroke-width="1"/>
      <path id="Trazado_798782" data-name="Trazado 798782" d="M320.389,323.323l-3.669-.329V297.96l3.669.211Z" transform="translate(-273.912 -250.028)" fill="#0050db" stroke="#0050db" stroke-linecap="round" stroke-linejoin="round" stroke-width="1"/>
      <path id="Trazado_798783" data-name="Trazado 798783" d="M331.339,321.357l-3.669-.329V285.41l3.669.164Z" transform="translate(-276.295 -247.296)" fill="#263238"/>
      <path id="Trazado_798784" data-name="Trazado 798784" d="M336.037,323.608l-3.677-.329V294.24l3.677.2Z" transform="translate(-277.316 -249.218)" fill="#0050db"/>
      <path id="Trazado_798785" data-name="Trazado 798785" d="M346.979,324.074l-3.669-.329V292.86l3.669.188Z" transform="translate(-279.7 -248.917)" fill="#263238"/>
      <path id="Trazado_798786" data-name="Trazado 798786" d="M351.679,322.979l-3.669-.329V286.32l3.669.164Z" transform="translate(-280.723 -247.494)" fill="#0050db"/>
      <path id="Trazado_798787" data-name="Trazado 798787" d="M362.637,323.324,358.96,323V284.38l3.677.156Z" transform="translate(-283.107 -247.071)" fill="#263238"/>
      <path id="Trazado_798788" data-name="Trazado 798788" d="M367.329,324.5l-3.669-.329v-35.9l3.669.172Z" transform="translate(-284.13 -247.918)" fill="#0050db"/>
      <path id="Trazado_798789" data-name="Trazado 798789" d="M378.279,322.233l-3.669-.329V274.34l3.669.125Z" transform="translate(-286.514 -244.886)" fill="#263238"/>
      <path id="Trazado_798790" data-name="Trazado 798790" d="M382.977,321.038,379.3,320.7V267.27l3.677.1Z" transform="translate(-287.535 -243.347)" fill="#0050db"/>
      <path id="Trazado_798791" data-name="Trazado 798791" d="M393.979,324.444l-3.669-.329v-44.8l3.669.133Z" transform="translate(-289.931 -245.97)" fill="#263238"/>
      <path id="Trazado_798792" data-name="Trazado 798792" d="M398.63,276.117v47.909l-3.63-.305V276Z" transform="translate(-290.952 -245.247)" fill="#0050db"/>
      <path id="Trazado_798793" data-name="Trazado 798793" d="M409.577,323.955l-3.677-.329V272.15l3.677.11Z" transform="translate(-293.325 -244.409)" fill="#263238"/>
      <path id="Trazado_798794" data-name="Trazado 798794" d="M414.269,324.61l-3.669-.329V273.65l3.669.11Z" transform="translate(-294.348 -244.736)" fill="#0050db"/>
      <path id="Trazado_798795" data-name="Trazado 798795" d="M425.219,323.058l-3.669-.329V263l3.669.078Z" transform="translate(-296.732 -242.417)" fill="#263238"/>
      <path id="Trazado_798796" data-name="Trazado 798796" d="M429.917,322.492l-3.677-.329V258.89l3.677.063Z" transform="translate(-297.753 -241.523)" fill="#0050db"/>
      <path id="Trazado_798797" data-name="Trazado 798797" d="M440.867,321.585l-3.677-.329V251.2l3.677.039Z" transform="translate(-300.136 -239.849)" fill="#263238"/>
      <path id="Trazado_798798" data-name="Trazado 798798" d="M445.559,321.1l-3.669-.329V247.46h3.669Z" transform="translate(-301.16 -239.034)" fill="#0050db"/>
      <path id="Trazado_798799" data-name="Trazado 798799" d="M322.254,281.205l-10.647-.469a2.347,2.347,0,0,1-2.347-2.1v-6.79a2.12,2.12,0,0,1,2.347-1.924l10.647.321a2.3,2.3,0,0,1,2.347,2.1v6.931a2.1,2.1,0,0,1-2.347,1.932Z" transform="translate(-272.288 -243.92)" fill="#fff" stroke="#263238" stroke-linecap="round" stroke-linejoin="round" stroke-width="1"/>
      <path id="Trazado_798800" data-name="Trazado 798800" d="M312.831,278.617a1.455,1.455,0,0,1-1.252-1.518v-.383h1.1v.469c0,.383.227.555.595.571s.595-.141.595-.54-.211-.782-.986-1.322c-.939-.665-1.267-1.173-1.267-1.854a1.306,1.306,0,0,1,1.22-1.4v-.54h.939v.54a1.432,1.432,0,0,1,1.236,1.51v.219h-1.087v-.243a.516.516,0,0,0-.579-.571c-.368,0-.571.149-.571.509s.211.728.986,1.283c.939.681,1.267,1.181,1.267,1.9a1.33,1.33,0,0,1-1.252,1.439v.626h-.939Z" transform="translate(-272.792 -244.398)" fill="#263238"/>
      <path id="Trazado_798801" data-name="Trazado 798801" d="M323.013,276.563v-4.107l-2.55-.086v4.092l-1.823-.063c1.244,1.4,1.862,2.1,3.129,3.513l3.09-3.286Z" transform="translate(-274.33 -244.457)" fill="#999" stroke="#263238" stroke-linecap="round" stroke-linejoin="round" stroke-width="1"/>
      <path id="Trazado_798802" data-name="Trazado 798802" d="M409.092,260.658l-10.655-.243a2.347,2.347,0,0,1-2.347-2.222V250.8a2.253,2.253,0,0,1,2.347-2.151l10.655.094a2.347,2.347,0,0,1,2.347,2.23v7.51a2.238,2.238,0,0,1-2.347,2.175Z" transform="translate(-291.189 -239.293)" fill="#fff" stroke="#263238" stroke-linecap="round" stroke-linejoin="round" stroke-width="1"/>
      <path id="Trazado_798803" data-name="Trazado 798803" d="M399.652,258.08a1.51,1.51,0,0,1-1.244-1.619v-.446H399.5v.516a.548.548,0,0,0,.6.6.524.524,0,0,0,.595-.6c0-.485-.211-.837-.986-1.408-.939-.7-1.267-1.252-1.267-1.987a1.432,1.432,0,0,1,1.213-1.565V251h.947v.595a1.479,1.479,0,0,1,1.236,1.6v.188h-1.087v-.266a.532.532,0,0,0-.579-.61.516.516,0,0,0-.579.579c0,.446.211.782.986,1.369.947.7,1.275,1.252,1.275,2.026a1.455,1.455,0,0,1-1.252,1.565v.673h-.947Z" transform="translate(-291.693 -239.805)" fill="#263238"/>
      <path id="Trazado_798804" data-name="Trazado 798804" d="M407.286,254.78v4.444l2.55.055v-4.459h1.823l-3.129-3.739-3.09,3.646Z" transform="translate(-293.225 -239.822)" fill="#999" stroke="#263238" stroke-linecap="round" stroke-linejoin="round" stroke-width="1"/>
    </g>
    <g id="freepik--chart-2--inject-7" transform="translate(255.249 91.415)">
      <path id="Trazado_798805" data-name="Trazado 798805" d="M353.77,168.934a41.862,41.862,0,0,0,9.951.915c18.815-.508,35.9-14.637,35.986-33.092.055-17.688-17.743-31.191-35.986-28.578v30.839Q358.777,153.992,353.77,168.934Z" transform="translate(-327.732 -107.855)" fill="#0050db" stroke="#263238" stroke-linecap="round" stroke-linejoin="round" stroke-width="1"/>
      <path id="Trazado_798806" data-name="Trazado 798806" d="M356.476,139.109V108.27c-17.563,1.8-36.245,15.576-35.986,33.092.219,13.213,11.985,25.2,26,27.663Q351.539,154.074,356.476,139.109Z" transform="translate(-320.487 -107.946)" fill="#999" stroke="#263238" stroke-linecap="round" stroke-linejoin="round" stroke-width="1"/>
      <path id="Trazado_798807" data-name="Trazado 798807" d="M348.5,131.092a1.987,1.987,0,0,0-2.347-1.792,2.4,2.4,0,0,0-2.347,2.159V132.7a2,2,0,0,0,2.347,1.8,2.4,2.4,0,0,0,2.347-2.159" transform="translate(-325.564 -112.516)" fill="none" stroke="#263238" stroke-linecap="round" stroke-linejoin="round" stroke-width="1"/>
      <path id="Trazado_798808" data-name="Trazado 798808" d="M341.46,159.985v4a1.377,1.377,0,0,0,1.565,1.236h0a1.565,1.565,0,0,0,1.565-1.385V153.766a1.08,1.08,0,0,1,1.009-1,.931.931,0,0,1,1.119.829v10.17a1.377,1.377,0,0,0,1.565,1.244h0a1.565,1.565,0,0,0,1.565-1.393v-9.763" transform="translate(-325.052 -117.627)" fill="none" stroke="#263238" stroke-linecap="round" stroke-linejoin="round" stroke-width="1"/>
      <path id="Trazado_798809" data-name="Trazado 798809" d="M341.46,158.65v1.173" transform="translate(-325.052 -118.913)" fill="none" stroke="#263238" stroke-linecap="round" stroke-linejoin="round" stroke-width="1"/>
      <path id="Trazado_798810" data-name="Trazado 798810" d="M348.866,149.129V141.2a.509.509,0,0,1,.508-.454h0a.43.43,0,0,1,.5.391v4.694A1.087,1.087,0,0,0,351,146.86a1.283,1.283,0,0,0,1.369-1.142v-5.656A2.719,2.719,0,0,0,349.2,137.6l-9.044.657a3.18,3.18,0,0,0-3.129,2.879v5.476a1.08,1.08,0,0,0,1.127,1.017,1.275,1.275,0,0,0,1.369-1.127v-4.694a.516.516,0,0,1,.509-.462h0a.438.438,0,0,1,.5.391v11.14" transform="translate(-324.088 -114.328)" fill="none" stroke="#263238" stroke-linecap="round" stroke-linejoin="round" stroke-width="1"/>
      <path id="Trazado_798811" data-name="Trazado 798811" d="M387.489,128.921c.164.986.407,2.41.407,2.41l-5.586.415s.516-3.129.555-3.364a2.7,2.7,0,0,1,2.237-2.222,2.2,2.2,0,0,1,2.237,1.87" transform="translate(-333.945 -111.84)" fill="none" stroke="#263238" stroke-linecap="round" stroke-linejoin="round" stroke-width="1"/>
      <path id="Trazado_798812" data-name="Trazado 798812" d="M394.218,143.209v-5.844a2.74,2.74,0,0,0-3.168-2.558" transform="translate(-335.847 -113.72)" fill="none" stroke="#263238" stroke-linecap="round" stroke-linejoin="round" stroke-width="1"/>
      <path id="Trazado_798813" data-name="Trazado 798813" d="M390.62,153.472v-1.956l1.784-.1c-.712-4.78-1.072-7.174-1.784-11.938a.516.516,0,0,1,.5-.477.438.438,0,0,1,.5.407v4.858a1.1,1.1,0,0,0,1.127,1.072" transform="translate(-335.754 -114.634)" fill="none" stroke="#263238" stroke-linecap="round" stroke-linejoin="round" stroke-width="1"/>
      <path id="Trazado_798814" data-name="Trazado 798814" d="M390.62,160.353V159" transform="translate(-335.754 -118.989)" fill="none" stroke="#263238" stroke-linecap="round" stroke-linejoin="round" stroke-width="1"/>
      <path id="Trazado_798815" data-name="Trazado 798815" d="M379.071,153.76c-.086.579-.125.868-.211,1.447l1.784-.1v7.651a1.4,1.4,0,0,0,1.565,1.291,1.565,1.565,0,0,0,1.565-1.432v-7.682l1.158-.063v7.682a1.4,1.4,0,0,0,1.565,1.291,1.565,1.565,0,0,0,1.565-1.439v-1.831" transform="translate(-333.194 -117.848)" fill="none" stroke="#263238" stroke-linecap="round" stroke-linejoin="round" stroke-width="1"/>
      <path id="Trazado_798816" data-name="Trazado 798816" d="M385.222,135.06l-5.382.391a3.254,3.254,0,0,0-3.129,2.973v5.7a1.1,1.1,0,0,0,1.087,1.056,1.283,1.283,0,0,0,1.377-1.166v-4.85a.524.524,0,0,1,.5-.477h0a.438.438,0,0,1,.5.407l-1.213,8.214" transform="translate(-332.726 -113.777)" fill="none" stroke="#263238" stroke-linecap="round" stroke-linejoin="round" stroke-width="1"/>
      <path id="Trazado_798817" data-name="Trazado 798817" d="M427.366,138.777l-3.974.258a2.5,2.5,0,0,1-2.832-2.347v-3.544a2.957,2.957,0,0,1,2.832-2.754l3.974-.3a2.48,2.48,0,0,1,2.824,2.347v3.606A2.926,2.926,0,0,1,427.366,138.777Z" transform="translate(-342.271 -112.691)" fill="#999" stroke="#263238" stroke-linecap="round" stroke-linejoin="round" stroke-width="1"/>
      <path id="Trazado_798818" data-name="Trazado 798818" d="M440.855,136.071l-2.425.164v-1.056c.931-2.057,1.393-3.082,2.347-5.148l1.385-.1v5h.595v1.056h-.595v1.346l-1.275.086Zm0-1.056v-2.879h0c-.493,1.189-.743,1.784-1.244,2.965Z" transform="translate(-346.161 -112.661)" fill="#263238"/>
      <path id="Trazado_798819" data-name="Trazado 798819" d="M444.677,135.348v-.587l1.2-.078v.665c0,.532.258.7.665.673s.657-.235.657-.782v-1.666c0-.532-.258-.72-.657-.688s-.665.243-.665.782v.063l-1.2.086c.094-1.666.141-2.5.227-4.154l3.348-.25v1.064l-2.214.156c-.039.712-.063,1.072-.1,1.784h0a1.338,1.338,0,0,1,1.1-.618c.931-.063,1.408.508,1.408,1.6v1.682a1.831,1.831,0,0,1-1.893,1.995,1.565,1.565,0,0,1-1.87-1.729Z" transform="translate(-347.518 -112.547)" fill="#263238"/>
      <path id="Trazado_798820" data-name="Trazado 798820" d="M450.538,132.229v-1.862a1.189,1.189,0,0,1,1.228-1.283,1.009,1.009,0,0,1,1.22,1.1v1.87a1.181,1.181,0,0,1-1.22,1.283,1.017,1.017,0,0,1-1.228-1.111Zm1.643-.063V130.2c0-.329-.164-.454-.415-.438a.436.436,0,0,0-.422.5v1.971c0,.329.156.454.422.438s.415-.172.415-.5Zm2.511-3.192.782-.055c-1.252,3.082-1.878,4.623-3.129,7.69l-.782.055c1.252-3.067,1.878-4.6,3.129-7.682Zm-.61,6.431v-1.87a1.173,1.173,0,0,1,1.22-1.275,1.009,1.009,0,0,1,1.228,1.111v1.87a1.181,1.181,0,0,1-1.228,1.275,1.009,1.009,0,0,1-1.22-1.111Zm1.643-.055v-1.979c0-.329-.164-.454-.422-.438s-.415.164-.415.5v1.971c0,.336.156.462.415.446s.422-.164.422-.5Z" transform="translate(-348.795 -112.441)" fill="#263238"/>
      <path id="Trazado_798821" data-name="Trazado 798821" d="M427.366,155.018l-3.974.2a2.543,2.543,0,0,1-2.832-2.4v-3.575a2.9,2.9,0,0,1,2.832-2.707l3.974-.243a2.519,2.519,0,0,1,2.824,2.394v3.63A2.887,2.887,0,0,1,427.366,155.018Z" transform="translate(-342.271 -116.219)" fill="#0050db" stroke="#263238" stroke-linecap="round" stroke-linejoin="round" stroke-width="1"/>
      <path id="Trazado_798822" data-name="Trazado 798822" d="M438.766,152.12v-.587l1.2-.063v.657c0,.532.25.7.657.688s.657-.227.657-.782v-1.659c0-.524-.25-.712-.657-.688s-.657.235-.657.782v.063l-1.2.063.235-4.131,3.348-.2v1.064l-2.214.125c-.047.712-.063,1.064-.11,1.768h0a1.314,1.314,0,0,1,1.1-.6c.939-.055,1.408.524,1.408,1.612V151.9a1.784,1.784,0,0,1-1.893,1.956,1.565,1.565,0,0,1-1.87-1.737Z" transform="translate(-346.231 -116.215)" fill="#263238"/>
      <path id="Trazado_798823" data-name="Trazado 798823" d="M444.675,151.793v-.579l1.2-.07v.673c0,.524.258.7.665.681s.657-.219.657-.782v-1.666c0-.532-.258-.72-.657-.7s-.665.235-.665.782v.063l-1.2.07c.094-1.666.141-2.5.227-4.154l3.348-.2v1.064l-2.214.125c-.039.712-.063,1.072-.1,1.784h0a1.306,1.306,0,0,1,1.1-.6c.931-.055,1.408.524,1.408,1.619v1.682a1.8,1.8,0,0,1-1.893,1.971,1.565,1.565,0,0,1-1.87-1.76Z" transform="translate(-347.517 -116.139)" fill="#263238"/>
      <path id="Trazado_798824" data-name="Trazado 798824" d="M450.538,148.8v-1.862a1.166,1.166,0,0,1,1.228-1.267,1.017,1.017,0,0,1,1.22,1.119v1.87a1.158,1.158,0,0,1-1.22,1.26,1.025,1.025,0,0,1-1.228-1.119Zm1.643-.039v-1.971c0-.336-.164-.462-.415-.446a.429.429,0,0,0-.422.493V148.8c0,.329.156.462.422.446S452.181,149.085,452.181,148.756Zm2.511-3.129.782-.047c-1.252,3.067-1.878,4.6-3.129,7.651l-.782.039c1.252-3.075,1.878-4.608,3.129-7.674Zm-.61,6.423v-1.87a1.158,1.158,0,0,1,1.22-1.26,1.025,1.025,0,0,1,1.228,1.127v1.878a1.158,1.158,0,0,1-1.228,1.26,1.025,1.025,0,0,1-1.22-1.166Zm1.643,0V150.07c0-.329-.164-.462-.422-.446s-.415.164-.415.493V152.1c0,.329.156.462.415.446s.422-.227.422-.555Z" transform="translate(-348.796 -116.067)" fill="#263238"/>
    </g>
    <g id="freepik--chart-1--inject-7" transform="translate(99.516 74.56)">
      <path id="Trazado_798825" data-name="Trazado 798825" d="M170.377,185.619l-48.957,1.134V106.37l48.957-5.64Z" transform="translate(-121.42 -89.449)" fill="#0050db"/>
      <g id="Grupo_1064942" data-name="Grupo 1064942" transform="translate(0 11.281)" clip-path="url(#clip-path-4)">
        <path id="Trazado_798826" data-name="Trazado 798826" d="M170.377,185.619l-48.957,1.134V106.37l48.957-5.64Z" transform="translate(-121.42 -100.73)" fill="#fff" opacity="0.8"/>
      </g>
      <path id="Trazado_798828" data-name="Trazado 798828" d="M233,182.923l-49,1.127V99.16l48.965-5.64Z" transform="translate(-135.043 -87.88)" fill="#0050db"/>
      <g id="Grupo_1064943" data-name="Grupo 1064943" transform="translate(48.957 5.64)" clip-path="url(#clip-path-5)">
        <path id="Trazado_798829" data-name="Trazado 798829" d="M233,182.923l-49,1.127V99.16l48.965-5.64Z" transform="translate(-184 -93.52)" fill="#fff" opacity="0.6"/>
      </g>
      <path id="Trazado_798831" data-name="Trazado 798831" d="M295.6,180.227l-48.965,1.127V91.95L295.6,86.31Z" transform="translate(-148.676 -86.31)" fill="#0050db"/>
      <g id="Grupo_1064944" data-name="Grupo 1064944" transform="translate(97.954 0)" clip-path="url(#clip-path-6)">
        <path id="Trazado_798832" data-name="Trazado 798832" d="M295.6,180.227l-48.965,1.127V91.95L295.6,86.31Z" transform="translate(-246.63 -86.31)" fill="#fff" opacity="0.4"/>
      </g>
      <path id="Trazado_798834" data-name="Trazado 798834" d="M268.347,86.31,121.46,103.231" transform="translate(-121.429 -86.31)" fill="none" stroke="#7f7f7f" stroke-linecap="round" stroke-linejoin="round" stroke-width="1"/>
      <path id="Trazado_798835" data-name="Trazado 798835" d="M121.46,118.449,268.347,103.46" transform="translate(-121.429 -90.043)" fill="none" stroke="#7f7f7f" stroke-linecap="round" stroke-linejoin="round" stroke-width="1"/>
      <path id="Trazado_798836" data-name="Trazado 798836" d="M268.347,120.61,121.46,133.667" transform="translate(-121.429 -93.777)" fill="none" stroke="#7f7f7f" stroke-linecap="round" stroke-linejoin="round" stroke-width="1"/>
      <path id="Trazado_798837" data-name="Trazado 798837" d="M121.46,148.907,268.347,137.79" transform="translate(-121.429 -97.516)" fill="none" stroke="#7f7f7f" stroke-linecap="round" stroke-linejoin="round" stroke-width="1"/>
      <path id="Trazado_798838" data-name="Trazado 798838" d="M268.347,154.91,121.46,164.094" transform="translate(-121.429 -101.243)" fill="none" stroke="#7f7f7f" stroke-linecap="round" stroke-linejoin="round" stroke-width="1"/>
      <path id="Trazado_798839" data-name="Trazado 798839" d="M121.46,179.312l146.887-7.252" transform="translate(-121.429 -104.977)" fill="none" stroke="#7f7f7f" stroke-linecap="round" stroke-linejoin="round" stroke-width="1"/>
      <path id="Trazado_798840" data-name="Trazado 798840" d="M268.347,189.21,121.46,194.522" transform="translate(-121.429 -108.71)" fill="none" stroke="#7f7f7f" stroke-linecap="round" stroke-linejoin="round" stroke-width="1"/>
      <path id="Trazado_798841" data-name="Trazado 798841" d="M121.46,209.747l146.887-3.387" transform="translate(-121.429 -112.443)" fill="none" stroke="#7f7f7f" stroke-linecap="round" stroke-linejoin="round" stroke-width="1"/>
      <path id="Trazado_798842" data-name="Trazado 798842" d="M137.1,187.649V106.14" transform="translate(-124.833 -90.627)" fill="none" stroke="#7f7f7f" stroke-linecap="round" stroke-linejoin="round" stroke-width="1"/>
      <path id="Trazado_798843" data-name="Trazado 798843" d="M121.46,107.94v80.383" transform="translate(-121.429 -91.019)" fill="none" stroke="#7f7f7f" stroke-linecap="round" stroke-linejoin="round" stroke-width="1"/>
      <path id="Trazado_798844" data-name="Trazado 798844" d="M168.4,186.292V102.53" transform="translate(-131.647 -89.841)" fill="none" stroke="#7f7f7f" stroke-linecap="round" stroke-linejoin="round" stroke-width="1"/>
      <path id="Trazado_798845" data-name="Trazado 798845" d="M152.75,104.33V187" transform="translate(-128.24 -90.233)" fill="none" stroke="#7f7f7f" stroke-linecap="round" stroke-linejoin="round" stroke-width="1"/>
      <path id="Trazado_798846" data-name="Trazado 798846" d="M199.69,184.945V98.93" transform="translate(-138.458 -89.057)" fill="none" stroke="#7f7f7f" stroke-linecap="round" stroke-linejoin="round" stroke-width="1"/>
      <path id="Trazado_798847" data-name="Trazado 798847" d="M184,100.73v84.889" transform="translate(-135.043 -89.449)" fill="none" stroke="#7f7f7f" stroke-linecap="round" stroke-linejoin="round" stroke-width="1"/>
      <path id="Trazado_798848" data-name="Trazado 798848" d="M231,183.6V95.32" transform="translate(-145.274 -88.271)" fill="none" stroke="#7f7f7f" stroke-linecap="round" stroke-linejoin="round" stroke-width="1"/>
      <path id="Trazado_798849" data-name="Trazado 798849" d="M215.34,97.13v87.142" transform="translate(-141.865 -88.665)" fill="none" stroke="#7f7f7f" stroke-linecap="round" stroke-linejoin="round" stroke-width="1"/>
      <path id="Trazado_798850" data-name="Trazado 798850" d="M262.28,182.249V91.72" transform="translate(-152.083 -87.488)" fill="none" stroke="#7f7f7f" stroke-linecap="round" stroke-linejoin="round" stroke-width="1"/>
      <path id="Trazado_798851" data-name="Trazado 798851" d="M246.63,93.52v89.4" transform="translate(-148.676 -87.88)" fill="none" stroke="#7f7f7f" stroke-linecap="round" stroke-linejoin="round" stroke-width="1"/>
      <path id="Trazado_798852" data-name="Trazado 798852" d="M293.57,180.9V88.12" transform="translate(-158.895 -86.704)" fill="none" stroke="#7f7f7f" stroke-linecap="round" stroke-linejoin="round" stroke-width="1"/>
      <path id="Trazado_798853" data-name="Trazado 798853" d="M277.92,89.92v91.656" transform="translate(-155.488 -87.096)" fill="none" stroke="#7f7f7f" stroke-linecap="round" stroke-linejoin="round" stroke-width="1"/>
      <path id="Trazado_798854" data-name="Trazado 798854" d="M309.22,86.31v93.917" transform="translate(-162.301 -86.31)" fill="none" stroke="#7f7f7f" stroke-linecap="round" stroke-linejoin="round" stroke-width="1"/>
      <path id="Trazado_798855" data-name="Trazado 798855" d="M121.46,103.242v80.383l146.887-3.387V86.36Z" transform="translate(-121.429 -86.321)" fill="none" stroke="#263238" stroke-linecap="round" stroke-linejoin="round" stroke-width="1"/>
      <path id="Trazado_798856" data-name="Trazado 798856" d="M121.46,196h.876" transform="translate(-121.429 -110.188)" fill="none" stroke="#263238" stroke-linecap="round" stroke-linejoin="round" stroke-width="1"/>
      <path id="Trazado_798857" data-name="Trazado 798857" d="M124.49,195.817l8.246-.3" transform="translate(-122.088 -110.083)" fill="none" stroke="#263238" stroke-linecap="round" stroke-linejoin="round" stroke-width="1" stroke-dasharray="1.714 1.714"/>
      <path id="Trazado_798858" data-name="Trazado 798858" d="M136,195.31h.868l.618-.61" transform="translate(-124.594 -109.905)" fill="none" stroke="#263238" stroke-linecap="round" stroke-linejoin="round" stroke-width="1"/>
      <path id="Trazado_798859" data-name="Trazado 798859" d="M139.46,190.557c3.669-3.638,5.476-5.476,9.169-9.177" transform="translate(-125.347 -107.005)" fill="none" stroke="#263238" stroke-linecap="round" stroke-linejoin="round" stroke-width="1" stroke-dasharray="1.978 1.978"/>
      <path id="Trazado_798860" data-name="Trazado 798860" d="M152,180.416l.618-.626c.25.219.376.336.618.563" transform="translate(-128.077 -106.659)" fill="none" stroke="#263238" stroke-linecap="round" stroke-linejoin="round" stroke-width="1"/>
      <path id="Trazado_798861" data-name="Trazado 798861" d="M154.79,181.65l3.419,3.129" transform="translate(-128.684 -107.064)" fill="none" stroke="#263238" stroke-linecap="round" stroke-linejoin="round" stroke-width="1" stroke-dasharray="1.58 1.58"/>
      <path id="Trazado_798862" data-name="Trazado 798862" d="M159.78,186.193l.618.579c.117-.329.172-.493.282-.821" transform="translate(-129.77 -108)" fill="none" stroke="#263238" stroke-linecap="round" stroke-linejoin="round" stroke-width="1"/>
      <path id="Trazado_798863" data-name="Trazado 798863" d="M161.57,180.016c1.924-5.7,2.887-8.559,4.811-14.316" transform="translate(-130.16 -103.592)" fill="none" stroke="#263238" stroke-linecap="round" stroke-linejoin="round" stroke-width="1" stroke-dasharray="1.831 1.831"/>
      <path id="Trazado_798864" data-name="Trazado 798864" d="M168,164.534c.117-.336.172-.5.282-.829l.868-.055" transform="translate(-131.56 -103.146)" fill="none" stroke="#263238" stroke-linecap="round" stroke-linejoin="round" stroke-width="1"/>
      <path id="Trazado_798865" data-name="Trazado 798865" d="M171.38,163.493l2.183-.133" transform="translate(-132.296 -103.083)" fill="none" stroke="#263238" stroke-linecap="round" stroke-linejoin="round" stroke-width="1" stroke-dasharray="1.667 1.667"/>
      <path id="Trazado_798866" data-name="Trazado 798866" d="M175.1,163.067l.876-.055.391-.782" transform="translate(-133.105 -102.837)" fill="none" stroke="#263238" stroke-linecap="round" stroke-linejoin="round" stroke-width="1"/>
      <path id="Trazado_798867" data-name="Trazado 798867" d="M177.7,157.835l4.193-8.605" transform="translate(-133.671 -100.007)" fill="none" stroke="#263238" stroke-linecap="round" stroke-linejoin="round" stroke-width="1" stroke-dasharray="1.95 1.95"/>
      <path id="Trazado_798868" data-name="Trazado 798868" d="M183.54,148.023l.391-.782.876-.07" transform="translate(-134.943 -99.558)" fill="none" stroke="#263238" stroke-linecap="round" stroke-linejoin="round" stroke-width="1"/>
      <path id="Trazado_798869" data-name="Trazado 798869" d="M187.08,146.826l8.238-.626" transform="translate(-135.713 -99.347)" fill="none" stroke="#263238" stroke-linecap="round" stroke-linejoin="round" stroke-width="1" stroke-dasharray="1.714 1.714"/>
      <path id="Trazado_798870" data-name="Trazado 798870" d="M198.57,145.935l.876-.07.618-.665" transform="translate(-138.214 -99.13)" fill="none" stroke="#263238" stroke-linecap="round" stroke-linejoin="round" stroke-width="1"/>
      <path id="Trazado_798871" data-name="Trazado 798871" d="M201.73,142.816l3.419-3.716" transform="translate(-138.902 -97.802)" fill="none" stroke="#263238" stroke-linecap="round" stroke-linejoin="round" stroke-width="1" stroke-dasharray="1.58 1.58"/>
      <path id="Trazado_798872" data-name="Trazado 798872" d="M206.72,138.211l.618-.681.876-.07" transform="translate(-139.989 -97.445)" fill="none" stroke="#263238" stroke-linecap="round" stroke-linejoin="round" stroke-width="1"/>
      <path id="Trazado_798873" data-name="Trazado 798873" d="M210.86,135.552l9.622-.782c1.956-2.167,2.934-3.247,4.889-5.429" transform="translate(-140.89 -95.677)" fill="none" stroke="#263238" stroke-linecap="round" stroke-linejoin="round" stroke-width="1" stroke-dasharray="1.991 1.991"/>
      <path id="Trazado_798874" data-name="Trazado 798874" d="M230.19,128.256c.25-.282.376-.415.618-.7l.618.587" transform="translate(-145.098 -95.29)" fill="none" stroke="#263238" stroke-linecap="round" stroke-linejoin="round" stroke-width="1"/>
      <path id="Trazado_798875" data-name="Trazado 798875" d="M233.34,129.78c3.661,3.473,5.476,5.226,9.169,8.762" transform="translate(-145.783 -95.773)" fill="none" stroke="#263238" stroke-linecap="round" stroke-linejoin="round" stroke-width="1" stroke-dasharray="1.978 1.978"/>
      <path id="Trazado_798876" data-name="Trazado 798876" d="M245.84,141.712l.618.595c.25-.274.368-.415.618-.7" transform="translate(-148.504 -98.348)" fill="none" stroke="#263238" stroke-linecap="round" stroke-linejoin="round" stroke-width="1"/>
      <path id="Trazado_798877" data-name="Trazado 798877" d="M248.67,139.139c1.369-1.565,2.05-2.3,3.419-3.849" transform="translate(-149.121 -96.972)" fill="none" stroke="#263238" stroke-linecap="round" stroke-linejoin="round" stroke-width="1" stroke-dasharray="1.58 1.58"/>
      <path id="Trazado_798878" data-name="Trazado 798878" d="M253.66,134.374l.618-.7.876-.07" transform="translate(-150.207 -96.604)" fill="none" stroke="#263238" stroke-linecap="round" stroke-linejoin="round" stroke-width="1"/>
      <path id="Trazado_798879" data-name="Trazado 798879" d="M257.72,131.134l9.685-.782c2.449-2.808,3.669-4.217,6.118-7.041l4.4-.391" transform="translate(-151.091 -94.279)" fill="none" stroke="#263238" stroke-linecap="round" stroke-linejoin="round" stroke-width="1" stroke-dasharray="1.927 1.927"/>
      <path id="Trazado_798880" data-name="Trazado 798880" d="M284.63,122.534l.876-.078.391-.876" transform="translate(-156.948 -93.988)" fill="none" stroke="#263238" stroke-linecap="round" stroke-linejoin="round" stroke-width="1"/>
      <path id="Trazado_798881" data-name="Trazado 798881" d="M287.22,116.758c1.674-3.771,2.519-5.664,4.193-9.458" transform="translate(-157.512 -90.879)" fill="none" stroke="#263238" stroke-linecap="round" stroke-linejoin="round" stroke-width="1" stroke-dasharray="1.95 1.95"/>
      <path id="Trazado_798882" data-name="Trazado 798882" d="M293.07,105.944l.391-.884" transform="translate(-158.786 -90.392)" fill="none" stroke="#263238" stroke-linecap="round" stroke-linejoin="round" stroke-width="1"/>
      <path id="Trazado_798883" data-name="Trazado 798883" d="M121.46,161.031l12.235-.6c4.9-2.574,7.346-3.872,12.243-6.509l6.118-.344c2.449-4.889,3.677-7.354,6.126-12.306,2.449-2.566,3.669-3.849,6.118-6.446,2.449-5.007,3.669-7.526,6.118-12.6,4.9,1.995,7.346,3,12.243,5.062,2.449,2.253,3.669,3.387,6.118,5.68,4.9-5.32,7.346-8.011,12.243-13.456,2.449-5.234,3.669-7.823,6.118-13.159,4.9,4.545,7.346,6.853,12.243,11.523,2.449,4.9,3.669,7.354,6.118,12.314l12.243-.931c2.449-2.785,3.669-4.185,6.118-7.041,2.449-8.058,3.677-12.11,6.126-20.262,2.441-5.523,3.669-8.3,6.118-13.878" transform="translate(-121.429 -86.695)" fill="none" stroke="#263238" stroke-linecap="round" stroke-linejoin="round" stroke-width="1"/>
      <path id="Trazado_798884" data-name="Trazado 798884" d="M150.753,220.852a2.284,2.284,0,0,1-.782.125,1.565,1.565,0,0,1-1.745-1.752v-3.732a1.627,1.627,0,0,1,1.745-1.807,1.565,1.565,0,0,1,1.752,1.745v3.724a2.018,2.018,0,0,1-.321,1.166c.078.141.219.164.43.156h.172v1.009h-.3a.884.884,0,0,1-.954-.634Zm-.164-1.565v-3.857c0-.508-.235-.7-.6-.688s-.595.2-.595.712V219.3c0,.508.235.7.595.688s.6-.219.6-.728Z" transform="translate(-127.253 -114.035)" fill="#263238"/>
      <path id="Trazado_798885" data-name="Trazado 798885" d="M155.445,215.425h-1.2v-.782c.978,0,1.322-.227,1.565-.923h.782v7.1h-1.158Z" transform="translate(-128.564 -114.045)" fill="#263238"/>
      <path id="Trazado_798886" data-name="Trazado 798886" d="M212.922,220.013a2.269,2.269,0,0,1-.782.141A1.627,1.627,0,0,1,210.4,218.3v-3.912a1.682,1.682,0,0,1,1.745-1.909,1.62,1.62,0,0,1,1.752,1.846v3.912a2.12,2.12,0,0,1-.321,1.228c.078.149.219.172.43.164h.18v1.08h-.305A.884.884,0,0,1,212.922,220.013Zm-.164-1.666v-4.068c0-.532-.235-.735-.6-.728s-.595.219-.595.782v4.029c0,.532.235.728.595.728s.6-.211.6-.728Z" transform="translate(-140.785 -113.775)" fill="#263238"/>
      <path id="Trazado_798887" data-name="Trazado 798887" d="M215.86,219.186a3.481,3.481,0,0,1,1.158-2.66,3.2,3.2,0,0,0,1.127-2.23c0-.665-.227-.853-.595-.845s-.6.219-.6.782v.782H215.86v-.728c0-1.2.587-1.893,1.721-1.909s1.721.649,1.721,1.846a4.147,4.147,0,0,1-1.432,2.863c-.688.782-.868,1.134-.868,1.651v.164h2.19v1.072l-3.333.039Z" transform="translate(-141.978 -113.754)" fill="#263238"/>
      <path id="Trazado_798888" data-name="Trazado 798888" d="M275.555,219.167a2.12,2.12,0,0,1-.782.149c-1.134,0-1.752-.7-1.752-1.948v-4.115c0-1.252.618-1.979,1.752-2s1.752.688,1.752,1.94v4.123a2.347,2.347,0,0,1-.329,1.291c.086.156.219.18.43.172h.18v1.119H276.5A.884.884,0,0,1,275.555,219.167Zm-.172-1.752v-4.279c0-.563-.227-.782-.595-.782s-.595.227-.595.782v4.279c0,.555.227.782.595.782s.563-.227.563-.782Z" transform="translate(-154.421 -113.507)" fill="#263238"/>
      <path id="Trazado_798889" data-name="Trazado 798889" d="M278.41,217.287v-.641H279.5v.7c0,.555.227.782.595.782s.6-.2.6-.9v-.642c0-.728-.235-.994-.782-.986h-.383V214.47h.415c.43,0,.7-.211.7-.845v-.571c0-.563-.243-.782-.579-.782s-.555.227-.555.743v.516h-1.087v-.415c0-1.26.587-1.971,1.682-1.987s1.69.649,1.69,1.909v.336c0,.845-.25,1.369-.782,1.6h0c.618.235.845.782.845,1.6v.7c0,1.26-.587,1.956-1.721,1.964S278.41,218.562,278.41,217.287Z" transform="translate(-155.594 -113.481)" fill="#263238"/>
    </g>
    <g id="freepik--character-2--inject-7" transform="translate(103.117 103.764)">
      <path id="Trazado_798890" data-name="Trazado 798890" d="M176.293,155.629s-11.649-10.006-3.912-16.616c0,0,3.732-11.735,15.991-10.084s6.118-5.288,6.118-5.288,6.947,3.638,3.755,6.446a5.155,5.155,0,0,0,4.749-2.644s2.136,3.8-1.854,5.476c0,0,5.218,1.322,3.826,4.3,0,0-3.708-1.971-4.694,5.476s-12.783,6.36-12.783,6.36Z" transform="translate(-135.537 -123.64)" fill="#263238" stroke="#263238" stroke-linecap="round" stroke-linejoin="round" stroke-width="1"/>
      <path id="Trazado_798891" data-name="Trazado 798891" d="M178.867,167.7c0-.383-2.769,8.058,2.5,7.346,2.5-.336-1.056-7.346-1.056-7.346Z" transform="translate(-137.368 -133.228)" fill="#263238" stroke="#263238" stroke-linecap="round" stroke-linejoin="round" stroke-width="1"/>
      <path id="Trazado_798892" data-name="Trazado 798892" d="M210.857,138.533s-3.129-.5-3.747,3.129" transform="translate(-143.675 -126.877)" fill="none" stroke="#7f7f7f" stroke-linecap="round" stroke-linejoin="round" stroke-width="1"/>
      <path id="Trazado_798893" data-name="Trazado 798893" d="M202.183,137.43a5.784,5.784,0,0,0-.821,4.005" transform="translate(-142.409 -126.642)" fill="none" stroke="#7f7f7f" stroke-linecap="round" stroke-linejoin="round" stroke-width="1"/>
      <path id="Trazado_798894" data-name="Trazado 798894" d="M209.464,131.88a8.2,8.2,0,0,1-4.694,3.129" transform="translate(-143.165 -125.434)" fill="none" stroke="#7f7f7f" stroke-linecap="round" stroke-linejoin="round" stroke-width="1"/>
      <path id="Trazado_798895" data-name="Trazado 798895" d="M192.4,137.2s5.022-.994,4.357,4.17" transform="translate(-140.472 -126.575)" fill="none" stroke="#7f7f7f" stroke-linecap="round" stroke-linejoin="round" stroke-width="1"/>
      <path id="Trazado_798896" data-name="Trazado 798896" d="M214.783,295.506s4.17,21.764,0,43.09-6.744,89.81-6.744,89.81H182.09V292.1l31.386-1.1Z" transform="translate(-138.228 -160.072)" fill="#999"/>
      <g id="Grupo_1064945" data-name="Grupo 1064945" transform="translate(43.862 130.928)" clip-path="url(#clip-path-7)">
        <path id="Trazado_798897" data-name="Trazado 798897" d="M198.824,334.083s-1.127,7.526,4.5,5.625,9.529-1.244,4.835,3.012-11.2,10.7-12.243,34.015-2.652,61.021-2.652,61.021h-11.3l-2.347-86.587,10.272-15.122,4.78-1.987Z" transform="translate(-181.55 -300.374)" opacity="0.2"/>
      </g>
      <path id="Trazado_798899" data-name="Trazado 798899" d="M214.783,295.506s4.17,21.764,0,43.09-6.744,89.81-6.744,89.81H182.09V292.1l31.386-1.1Z" transform="translate(-138.228 -160.072)" fill="none" stroke="#263238" stroke-linecap="round" stroke-linejoin="round" stroke-width="1"/>
      <path id="Trazado_798900" data-name="Trazado 798900" d="M216.46,341.357s-5.813-1.236-12.29,5.953" transform="translate(-143.035 -171.016)" fill="none" stroke="#263238" stroke-linecap="round" stroke-linejoin="round" stroke-width="1"/>
      <path id="Trazado_798901" data-name="Trazado 798901" d="M196.915,298.264s-.266,24.252-3.4,33.452-7.823,52.368-7.3,97.007H159.4s-1.565-80.633-2.621-92.54-6.517-9.912,1.04-43.763h40.2Z" transform="translate(-132.087 -160.381)" fill="#999" stroke="#263238" stroke-linecap="round" stroke-linejoin="round" stroke-width="1"/>
      <path id="Trazado_798902" data-name="Trazado 798902" d="M202.39,306.4c2.065-.141,3.951-.305,5.664-.477l.227,4c-1.784.18-3.755.352-5.891.493Z" transform="translate(-142.647 -163.32)" fill="#263238"/>
      <path id="Trazado_798903" data-name="Trazado 798903" d="M213.36,305.219c3.239-.383,5.586-.782,6.853-1.009l.54,3.951c-1.471.266-3.99.681-7.393,1.087Z" transform="translate(-145.035 -162.948)" fill="#263238"/>
      <path id="Trazado_798904" data-name="Trazado 798904" d="M157.08,309.452l.61-3.912c4.4.493,8.605.821,12.619,1.009l-.266,3.966C165.951,310.3,161.617,309.968,157.08,309.452Z" transform="translate(-132.784 -163.237)" fill="#263238"/>
      <path id="Trazado_798905" data-name="Trazado 798905" d="M177.855,306.952c6.118.2,11.641.086,16.429-.172v4.005c-3.035.156-6.368.258-9.951.258-2.112,0-4.318-.039-6.6-.117Z" transform="translate(-137.279 -163.507)" fill="#263238"/>
      <path id="Trazado_798906" data-name="Trazado 798906" d="M273.19,247.139l6.6-3.982s2.777-7.276,6.259-9.255,6.947-3.8,7.823-3.309-.172,2.151-2.433,3.8c-1.408,1.033,2.691-.72,7.948-3.129,3.129-1.455,6.744-3.481,7.3-2.605,2.042,3.184-8.4,7.236-8.4,7.236s3.583-.172,2.19,2.472c0,0,.524,2.48-.7,3.309l-1.385,1.69a8.089,8.089,0,0,1-3.129,4.091,23.907,23.907,0,0,1-10.256,2.981l-8.684,6.079Z" transform="translate(-158.059 -146.455)" fill="#fff" stroke="#263238" stroke-linecap="round" stroke-linejoin="round" stroke-width="1"/>
      <path id="Trazado_798907" data-name="Trazado 798907" d="M300.56,238.38s-7.385,1.486-6.994,3.129,2.683.485,2.683.485-2.441.829-2.175,1.737,1.995.892,1.995.892-2.261.516-1.995,1.565,1.768,1.408,3.012,1.244,2.2-.587,2.55.039-3.4-.376-5.562,1.158" transform="translate(-162.491 -148.617)" fill="none" stroke="#263238" stroke-linecap="round" stroke-linejoin="round" stroke-width="1"/>
      <path id="Trazado_798908" data-name="Trazado 798908" d="M293.742,236.79a4.694,4.694,0,0,1-1.1,2.48c-.9.829-.117,3.638-3.419,6.7" transform="translate(-161.549 -148.271)" fill="none" stroke="#263238" stroke-linecap="round" stroke-linejoin="round" stroke-width="1"/>
      <line id="Línea_1615" data-name="Línea 1615" x1="4.107" y2="0.493" transform="translate(135.588 92.61)" fill="none" stroke="#263238" stroke-linecap="round" stroke-linejoin="round" stroke-width="1"/>
      <line id="Línea_1616" data-name="Línea 1616" x1="3.779" y2="0.313" transform="translate(135.588 95.708)" fill="none" stroke="#263238" stroke-linecap="round" stroke-linejoin="round" stroke-width="1"/>
      <path id="Trazado_798909" data-name="Trazado 798909" d="M243.854,247.5c5.734-1.565,12.666-5.844,16-8.058a1.385,1.385,0,0,1,2.151.915c.376,3.028,1.565,8.183,5.57,9.583,5.734,2.018.258,5.132-3.387,6.18s-29.728,13.69-37.551,11.962-10.428-2.981-14.082-10.538-1.831-44.013-1.831-44.013l10.952-2.73s2.863,2.566,4.256,19.753,3.685,19.339,3.685,19.339,6.955-5.14,5.132-.172C234.733,249.72,241.883,248.03,243.854,247.5Z" transform="translate(-144.362 -142.613)" fill="#0050db" stroke="#263238" stroke-linecap="round" stroke-linejoin="round" stroke-width="1"/>
      <path id="Trazado_798910" data-name="Trazado 798910" d="M235.145,264.32s-2.824,9.435-4.952,8.715-1.565-3.294,1.956-8.715" transform="translate(-148.428 -154.264)" fill="none" stroke="#263238" stroke-linecap="round" stroke-linejoin="round" stroke-width="1"/>
      <path id="Trazado_798911" data-name="Trazado 798911" d="M206.657,207.788c-5.077-4.827-12.517-9.669-27.889-10.663s-36.769,2.73-37.551,8.684,8.081,37.864,8.081,66.45c0,4.217.524,8.926,9.388,8.926s49.528,2.973,50.068-6.7-2.081-19.339-1.3-33.225S210.569,211.512,206.657,207.788Z" transform="translate(-129.32 -139.602)" fill="#0050db" stroke="#263238" stroke-linecap="round" stroke-linejoin="round" stroke-width="1"/>
      <path id="Trazado_798912" data-name="Trazado 798912" d="M142.238,203s-6.384,1.9-7.776,11.492-7.471,31.238-5.21,31.738-5.39,4.295-2.613,9.92,15.294,23.8,22.593,21.819,6.947-13.229,4.694-15.208S144,256.628,144,256.628s2.253-1.322-.524-3.8,2.011,1.252,3.473-7.111c1.737-9.912,7.823-24.134,4.17-32.724" transform="translate(-126.023 -140.916)" fill="#0050db" stroke="#263238" stroke-linecap="round" stroke-linejoin="round" stroke-width="1"/>
      <path id="Trazado_798913" data-name="Trazado 798913" d="M143.606,259.95s-9.9-2.347-12.517,1.651,4.115-.821,10.569.829" transform="translate(-127 -153.164)" fill="none" stroke="#263238" stroke-linecap="round" stroke-linejoin="round" stroke-width="1"/>
      <path id="Trazado_798914" data-name="Trazado 798914" d="M161.214,283.718c-1.565-1.119-5.3-3.059-7.729-.782s-8.253,3.63-7.909,5.367,2.519,2.237,6.431.336.681.493,1.385,4.295,1.275,7.26,4.334,6.611c0,0,.274,1.651,3.059.908,0,0,2.081,1.705,5.382.2,0,0,1.831,1.87,4.522-1.353s1.033-4.021,1.033-4.021-1.213-3.732-3.912,0c0,0,.469-4.616-2.253-7.51A41.744,41.744,0,0,0,161.214,283.718Z" transform="translate(-130.276 -158.086)" fill="#fff" stroke="#263238" stroke-linecap="round" stroke-linejoin="round" stroke-width="1"/>
      <path id="Trazado_798915" data-name="Trazado 798915" d="M162.168,301.635s4.4-2.809,3.45-4.459-4.522,1.815-4.522,1.815.524-.892-.516-2.261" transform="translate(-133.546 -161.319)" fill="none" stroke="#263238" stroke-linecap="round" stroke-linejoin="round" stroke-width="1"/>
      <path id="Trazado_798916" data-name="Trazado 798916" d="M166.68,302.861s6.657-2.073,5.132-4.06c-1.353-1.752-4.217.258-4.217.258" transform="translate(-134.873 -161.614)" fill="none" stroke="#263238" stroke-linecap="round" stroke-linejoin="round" stroke-width="1"/>
      <path id="Trazado_798917" data-name="Trazado 798917" d="M176.936,299.89s-.7,1.987-3.826,3.912" transform="translate(-136.273 -162.007)" fill="none" stroke="#263238" stroke-linecap="round" stroke-linejoin="round" stroke-width="1"/>
      <path id="Trazado_798918" data-name="Trazado 798918" d="M163.88,292.41a9.732,9.732,0,0,0,3.8,3.4" transform="translate(-134.264 -160.379)" fill="none" stroke="#263238" stroke-linecap="round" stroke-linejoin="round" stroke-width="1"/>
      <path id="Trazado_798919" data-name="Trazado 798919" d="M144.494,270.154s-5.6-2.73-9.9-.626" transform="translate(-127.888 -155.224)" fill="none" stroke="#263238" stroke-linecap="round" stroke-linejoin="round" stroke-width="1"/>
      <path id="Trazado_798920" data-name="Trazado 798920" d="M198.743,203.222l-4.475-1.612-5.038,1.612s3.387,5.085,4.756,5.328c0,0,4.905,38.083,6.454,55.865s1.04,19.425,1.04,19.425l6.775,5.547,4.952-6.994s-2.605-27.968-5.993-44.592a138.469,138.469,0,0,0-9.646-29.5S199.564,205.741,198.743,203.222Z" transform="translate(-139.782 -140.613)" fill="#0050db"/>
      <g id="Grupo_1064946" data-name="Grupo 1064946" transform="translate(49.448 60.997)" clip-path="url(#clip-path-8)">
        <path id="Trazado_798921" data-name="Trazado 798921" d="M198.743,203.222l-4.475-1.612-5.038,1.612s3.387,5.085,4.756,5.328c0,0,4.905,38.083,6.454,55.865s1.04,19.425,1.04,19.425l6.775,5.547,4.952-6.994s-2.605-27.968-5.993-44.592a138.469,138.469,0,0,0-9.646-29.5S199.564,205.741,198.743,203.222Z" transform="translate(-189.23 -201.61)" opacity="0.3"/>
      </g>
      <path id="Trazado_798923" data-name="Trazado 798923" d="M198.743,203.222l-4.475-1.612-5.038,1.612s3.387,5.085,4.756,5.328c0,0,4.905,38.083,6.454,55.865s1.04,19.425,1.04,19.425l6.775,5.547,4.952-6.994s-2.605-27.968-5.993-44.592a138.469,138.469,0,0,0-9.646-29.5S199.564,205.741,198.743,203.222Z" transform="translate(-139.782 -140.613)" fill="none" stroke="#263238" stroke-linecap="round" stroke-linejoin="round" stroke-width="1"/>
      <path id="Trazado_798924" data-name="Trazado 798924" d="M197.061,182.109s-.884,5.719,1.314,9.638c0,0-4.756,2.081-6.8,2.347s-12.517-5.977-12.517-5.977a75.751,75.751,0,0,0,1.455-20c-.673-11.031,11.836,6.892,11.836,6.892l6.016,5.476Z" transform="translate(-137.568 -132.542)" fill="#fff"/>
      <g id="Grupo_1064947" data-name="Grupo 1064947" transform="translate(41.492 31.992)" clip-path="url(#clip-path-9)">
        <path id="Trazado_798925" data-name="Trazado 798925" d="M199.408,182.8s.125,3.716-5.148,3.591-10.514-7.964-11.4-9.92-1.932-11.156-1.932-11.156l13.3,3.739,6.454,13.221Z" transform="translate(-179.467 -164.705)" fill="#263238" stroke="#263238" stroke-linecap="round" stroke-linejoin="round" stroke-width="1"/>
      </g>
      <path id="Trazado_798927" data-name="Trazado 798927" d="M197.061,182.109s-.884,5.719,1.314,9.638c0,0-4.756,2.081-6.8,2.347s-12.517-5.977-12.517-5.977a75.751,75.751,0,0,0,1.455-20c-.673-11.031,11.836,6.892,11.836,6.892l6.016,5.476Z" transform="translate(-137.568 -132.542)" fill="none" stroke="#263238" stroke-linecap="round" stroke-linejoin="round" stroke-width="1"/>
      <path id="Trazado_798928" data-name="Trazado 798928" d="M196.323,194.729s-2.605,4.467-5.562,4.631-12.861-9.388-14.942-7.933a7.557,7.557,0,0,0-2.7,3.912l8.856,10.491s6.485-5.539,9.09-5.374,8.206,5.374,8.206,5.374v-7.6S197.552,193,196.323,194.729Z" transform="translate(-136.275 -138.364)" fill="#0050db" stroke="#263238" stroke-linecap="round" stroke-linejoin="round" stroke-width="1"/>
      <path id="Trazado_798929" data-name="Trazado 798929" d="M200.5,144.42s3.646,10.694,2.926,13.417c0,0,3.4,20.27-4.694,21.9-6.384,1.267-12.7-4.866-15.106-7.557a7.44,7.44,0,0,1-1.479-2.527l-1.565-4.584s-3.184.235-5.124-4.037,2.011-8.418,5.069-1.948c0,0,2.394-6.54,2.214-9.169s3.27-1.987,3.982-4.584C186.722,145.32,194.905,146.642,200.5,144.42Z" transform="translate(-136.672 -128.163)" fill="#fff"/>
      <path id="Trazado_798930" data-name="Trazado 798930" d="M200.5,144.42s3.646,10.694,2.926,13.417c0,0,3.4,20.27-4.694,21.9-6.384,1.267-12.7-4.866-15.106-7.557a7.44,7.44,0,0,1-1.479-2.527l-1.565-4.584s-3.184.235-5.124-4.037,2.011-8.418,5.069-1.948c0,0,2.394-6.54,2.214-9.169s3.27-1.987,3.982-4.584C186.722,145.32,194.905,146.642,200.5,144.42Z" transform="translate(-136.672 -128.163)" fill="none" stroke="#263238" stroke-linecap="round" stroke-linejoin="round" stroke-width="1"/>
      <path id="Trazado_798931" data-name="Trazado 798931" d="M207.11,163.93l4.318,5.437a1.025,1.025,0,0,1-.493,1.6l-3.067,1.08" transform="translate(-143.675 -132.411)" fill="#fff" stroke="#263238" stroke-linecap="round" stroke-linejoin="round" stroke-width="1"/>
      <path id="Trazado_798932" data-name="Trazado 798932" d="M199.08,177.09s1.338,2.754,5.813.321" transform="translate(-141.926 -135.275)" fill="none" stroke="#263238" stroke-linecap="round" stroke-linejoin="round" stroke-width="1"/>
      <path id="Trazado_798933" data-name="Trazado 798933" d="M204.385,162.738c.133,2.707-1.2,4.96-2.965,5.038s-3.309-2.05-3.442-4.749,1.2-3.481,2.965-3.56S204.252,160.032,204.385,162.738Z" transform="translate(-141.684 -131.438)" fill="none" stroke="#263238" stroke-linecap="round" stroke-linejoin="round" stroke-width="1"/>
      <path id="Trazado_798934" data-name="Trazado 798934" d="M215.129,161.95c.133,2.707-.931,4.952-2.347,5.015s-2.722-2.073-2.855-4.78.947-3.466,2.394-3.536S215,159.243,215.129,161.95Z" transform="translate(-144.285 -131.26)" fill="#fff" stroke="#263238" stroke-linecap="round" stroke-linejoin="round" stroke-width="1"/>
      <path id="Trazado_798935" data-name="Trazado 798935" d="M198,158.21s1.924-2.816,5.335-.665" transform="translate(-141.691 -130.844)" fill="none" stroke="#263238" stroke-linecap="round" stroke-linejoin="round" stroke-width="1"/>
      <path id="Trazado_798936" data-name="Trazado 798936" d="M210,157.394a4,4,0,0,1,2.347-1.314" transform="translate(-144.304 -130.702)" fill="none" stroke="#263238" stroke-linecap="round" stroke-linejoin="round" stroke-width="1"/>
      <path id="Trazado_798937" data-name="Trazado 798937" d="M194.288,163.116a17.164,17.164,0,0,1-3.458.595c-2.652-.258-9.881-3.771-9.881-3.771" transform="translate(-137.98 -131.542)" fill="none" stroke="#263238" stroke-linecap="round" stroke-linejoin="round" stroke-width="1"/>
      <line id="Línea_1617" data-name="Línea 1617" x1="2.769" y2="0.477" transform="translate(62.833 30.479)" fill="none" stroke="#263238" stroke-linecap="round" stroke-linejoin="round" stroke-width="1"/>
      <path id="Trazado_798938" data-name="Trazado 798938" d="M203.629,163.634c-.078.837-.579,1.471-1.127,1.424s-.915-.782-.845-1.565.587-1.471,1.127-1.424S203.707,162.8,203.629,163.634Z" transform="translate(-142.486 -132.005)" fill="#263238"/>
      <path id="Trazado_798939" data-name="Trazado 798939" d="M212.4,162.475c-.078.782-.454,1.447-.845,1.408s-.642-.712-.563-1.526.446-1.439.837-1.408S212.475,161.669,212.4,162.475Z" transform="translate(-144.517 -131.762)" fill="#263238"/>
      <path id="Trazado_798940" data-name="Trazado 798940" d="M173.29,282.519c1.369-3.536,10.561-2.949,10.561-2.949" transform="translate(-136.312 -157.576)" fill="none" stroke="#263238" stroke-linecap="round" stroke-linejoin="round" stroke-width="1"/>
      <path id="Trazado_798941" data-name="Trazado 798941" d="M195.271,285.63c-9.74,2.347-20.34,4.029-21.741.72" transform="translate(-136.365 -158.903)" fill="none" stroke="#263238" stroke-linecap="round" stroke-linejoin="round" stroke-width="1"/>
      <path id="Trazado_798942" data-name="Trazado 798942" d="M222.055,279.58s-1.017.329-2.715.853" transform="translate(-146.337 -157.586)" fill="none" stroke="#263238" stroke-linecap="round" stroke-linejoin="round" stroke-width="1"/>
    </g>
    <g id="freepik--Table--inject-7" transform="translate(35.335 300.531)">
      <path id="Trazado_798943" data-name="Trazado 798943" d="M382.988,446.726H39.38v-45.75s66.583-25.816,152.551-25.816C296.738,375.2,382.988,446.726,382.988,446.726Z" transform="translate(-39.38 -375.16)" fill="#0050db" stroke="#263238" stroke-linecap="round" stroke-linejoin="round" stroke-width="1"/>
      <path id="Trazado_798944" data-name="Trazado 798944" d="M274.862,390,234.3,384.53,193.04,391.5l40.563,5.476Z" transform="translate(-72.83 -377.2)" opacity="0.2"/>
      <path id="Trazado_798945" data-name="Trazado 798945" d="M270.123,389.615l-37.692-5.085-38.341,6.478,37.692,5.085Z" transform="translate(-73.058 -377.2)" fill="#fff" stroke="#263238" stroke-linecap="round" stroke-linejoin="round" stroke-width="1"/>
      <path id="Trazado_798946" data-name="Trazado 798946" d="M276.473,387.665l-37.692-5.085-38.341,6.478,37.692,5.085Z" transform="translate(-74.44 -376.775)" fill="#fff" stroke="#263238" stroke-linecap="round" stroke-linejoin="round" stroke-width="1"/>
      <ellipse id="Elipse_4791" data-name="Elipse 4791" cx="12.947" cy="2.644" rx="12.947" ry="2.644" transform="translate(111.644 33.757)" opacity="0.2"/>
      <path id="Trazado_798947" data-name="Trazado 798947" d="M203.014,415.524c0,.735-4.178,1.33-9.341,1.33s-9.333-.595-9.333-1.33V398c0-.735,4.178-1.33,9.333-1.33s9.341.595,9.341,1.33Z" transform="translate(-70.936 -379.842)" fill="#fff" stroke="#263238" stroke-linecap="round" stroke-linejoin="round" stroke-width="1"/>
      <path id="Trazado_798948" data-name="Trazado 798948" d="M203.014,398c0,.735-4.178,1.33-9.341,1.33s-9.333-.595-9.333-1.33,4.178-1.33,9.333-1.33S203.014,397.265,203.014,398Z" transform="translate(-70.936 -379.842)" fill="#fff" stroke="#263238" stroke-linecap="round" stroke-linejoin="round" stroke-width="1"/>
      <path id="Trazado_798949" data-name="Trazado 798949" d="M206.48,415.048a1.025,1.025,0,0,1-1.033-.861,1,1,0,0,1,.892-1.127c.235,0,5.9-.876,5.9-5.977a2.883,2.883,0,0,0-1.017-2.589c-1.26-.782-3.614-.172-4.342.117a1.072,1.072,0,0,1-1.369-.548.986.986,0,0,1,.571-1.3c.4-.156,3.912-1.455,6.305.078a4.667,4.667,0,0,1,1.948,4.24c0,5.476-5.038,7.6-7.706,7.956Z" transform="translate(-75.528 -381.025)" fill="#fff" stroke="#263238" stroke-linecap="round" stroke-linejoin="round" stroke-width="1"/>
    </g>
    <g id="freepik--character-1--inject-7" transform="translate(20.8 167.688)">
      <path id="Trazado_798950" data-name="Trazado 798950" d="M223.656,403.82c-.618.595-1.04,1.158-.931,1.267s.7-.3,1.33-.892,1.04-1.158.931-1.26S224.282,403.233,223.656,403.82Z" transform="translate(-64.752 -248.36)" fill="#263238" stroke="#263238" stroke-linecap="round" stroke-linejoin="round" stroke-width="1"/>
      <path id="Trazado_798951" data-name="Trazado 798951" d="M227.252,391.912c-2.558,2.433-4.029,4.975-3.286,5.68s3.427-.688,5.985-3.129l16.483-15.685c2.558-2.433,4.029-4.983,3.286-5.687s-3.419.688-5.977,3.129Z" transform="translate(-64.984 -241.827)" fill="#0050db" stroke="#263238" stroke-linecap="round" stroke-linejoin="round" stroke-width="1"/>
      <path id="Trazado_798952" data-name="Trazado 798952" d="M248.712,382.648l-.681.649a18.5,18.5,0,0,1-1.4-1.228c-.454-.446-.892-.884-1.291-1.33l.681-.649c.4.446.829.892,1.291,1.33S248.242,382.265,248.712,382.648Z" transform="translate(-69.679 -243.39)" fill="#263238" stroke="#263238" stroke-linecap="round" stroke-linejoin="round" stroke-width="1"/>
      <path id="Trazado_798953" data-name="Trazado 798953" d="M251.564,373.435s-1.142-.7-3.755,1.22-5.046,5.249-6.259,5.14" transform="translate(-68.854 -241.914)" fill="none" stroke="#263238" stroke-linecap="round" stroke-linejoin="round" stroke-width="1"/>
      <path id="Trazado_798954" data-name="Trazado 798954" d="M213.77,408.194s1.9-4.592,1.9-6.939,4.944-10.256,8.605-11.649,15.991-7.205,16.89-4.85-4.647,5.273-5.813,5.82a25.381,25.381,0,0,0-3.646,2.777s5.64-1.127,6.259-2.91,2.347-4.162,3.286-2.636.509,5.406-.954,8.386V398.2s1.6,2.347-.141,4.295l-1.346,1.385s2.347,2.347-.845,4.3c0,0,1.463,2.081-1.166,4.154a60.43,60.43,0,0,1-9.036,3.466c-3.5.829-6.556,5.828-6.556,5.828Z" transform="translate(-62.807 -244.285)" fill="#fff" stroke="#263238" stroke-linecap="round" stroke-linejoin="round" stroke-width="1"/>
      <path id="Trazado_798955" data-name="Trazado 798955" d="M76.84,294.159l9.137-20.395-5.883-17.086-.587-19.6,16.1-9.028,14.215-2.394,5.8,3.356,2.41,5.586s7.229,14.614,6.11,17.422-1.948,5.476-1.948,5.476,3.411,7.588,5.429,10-4.24.947-4.976,5.288.141,15.865-5.226,16.389-8.605-1.142-9.1,3.387-6,16.03-6,16.03Z" transform="translate(-32.999 -209.773)" fill="#fff" stroke="#263238" stroke-linecap="round" stroke-linejoin="round" stroke-width="1"/>
      <path id="Trazado_798956" data-name="Trazado 798956" d="M119.248,208.206c-.782-2.629-8.316,1.025-9.1,6.657,0,0-.962-8.605-3.45-9.427-2.175-.712-5.179,3.192-4.092,7.823,0,0-8.128-4.271-10.749-3.278-1.94.735-2.621,4.522,1.565,7.823,0,0-25.41-5.648-23.923,16.483,0,0-13.972,10.413,11.876,39.992,0,0,6.133-1.361,7.823-2.347.978-.571,9.153-7.041,9.153-7.041-2.347-.837-6.431-3.231-7.542-6.118-1.408-3.653.477-8.019,3.912-8.605,2.057-.352,3.223.563,4.694,2.206,0,0-3.387-4.279-3.176-5.938.266-2.073,5.382-4.271,5.758-6.329.172-.97-2.1-2.879-1.5-3.685,3.067-4.091,17.719.649,16.217-12.916S120.343,211.891,119.248,208.206Z" transform="translate(-30.581 -205.352)" fill="#263238" stroke="#263238" stroke-linecap="round" stroke-linejoin="round" stroke-width="1"/>
      <path id="Trazado_798957" data-name="Trazado 798957" d="M133.11,264.464c0,1.072-.211,1.948-.555,1.956s-.634-.853-.665-1.924.211-1.948.548-1.956S133.078,263.408,133.11,264.464Z" transform="translate(-44.982 -217.801)" fill="#263238"/>
      <path id="Trazado_798958" data-name="Trazado 798958" d="M130.17,259.266s.892-2.746,2.683-2.926" transform="translate(-44.608 -216.452)" fill="none" stroke="#263238" stroke-linecap="round" stroke-linejoin="round" stroke-width="1"/>
      <path id="Trazado_798959" data-name="Trazado 798959" d="M105.63,229.678c8.778.7,1.518-12.188,1.518-12.188" transform="translate(-39.266 -207.995)" fill="none" stroke="#7f7f7f" stroke-linecap="round" stroke-linejoin="round" stroke-width="1"/>
      <path id="Trazado_798960" data-name="Trazado 798960" d="M77.17,238.755A18.192,18.192,0,0,1,96.8,232.223" transform="translate(-33.071 -211.039)" fill="none" stroke="#7f7f7f" stroke-linecap="round" stroke-linejoin="round" stroke-width="1"/>
      <path id="Trazado_798961" data-name="Trazado 798961" d="M118.148,225.71c.861,4.459,0,10.42-10.248,11.14" transform="translate(-39.76 -209.784)" fill="none" stroke="#7f7f7f" stroke-linecap="round" stroke-linejoin="round" stroke-width="1"/>
      <path id="Trazado_798962" data-name="Trazado 798962" d="M118.76,219.38a16.693,16.693,0,0,1,.923,2.1" transform="translate(-42.125 -208.406)" fill="none" stroke="#7f7f7f" stroke-linecap="round" stroke-linejoin="round" stroke-width="1"/>
      <path id="Trazado_798963" data-name="Trazado 798963" d="M106.917,432.017s7.917-81.533-1.471-96.921S68,301.652,57.96,309.475C23.131,336.746,23.014,360.036,20.8,432Z" transform="translate(-20.8 -227.608)" fill="#263238" stroke="#263238" stroke-linecap="round" stroke-linejoin="round" stroke-width="1"/>
      <path id="Trazado_798964" data-name="Trazado 798964" d="M118.357,339s11.07,2.91,17.211,19.558c5.656,15.279,15.936,35.423,22.8,45.46a5,5,0,0,0,4.913,2.05c3.02-.477,8.778-.845,14.293-3.841,5.109-2.777,9.622-5.82,15.3-4.991s9.239,6.11,8.324,13.737c-.876,7.276-33.585,26.2-52.9,26.2-15.756,0-30.158-43.246-34.969-56.139S103.493,339.853,118.357,339Z" transform="translate(-39.883 -234.446)" fill="#263238" stroke="#263238" stroke-linecap="round" stroke-linejoin="round" stroke-width="1"/>
      <path id="Trazado_798965" data-name="Trazado 798965" d="M113.66,340.737A8.9,8.9,0,0,1,118.62,339" transform="translate(-41.014 -234.446)" fill="none" stroke="#7f7f7f" stroke-linecap="round" stroke-linejoin="round" stroke-width="1"/>
      <path id="Trazado_798966" data-name="Trazado 798966" d="M108.73,348.173a14.983,14.983,0,0,1,1.228-2.973" transform="translate(-39.941 -235.795)" fill="none" stroke="#7f7f7f" stroke-linecap="round" stroke-linejoin="round" stroke-width="1"/>
      <path id="Trazado_798967" data-name="Trazado 798967" d="M124.608,411.2a247.5,247.5,0,0,1-12.392-27.287c-3-8.034-6.079-22.038-4.381-31.653" transform="translate(-39.641 -237.332)" fill="none" stroke="#7f7f7f" stroke-linecap="round" stroke-linejoin="round" stroke-width="1"/>
      <path id="Trazado_798968" data-name="Trazado 798968" d="M110.953,328.091s4.373-6.376,0-11.649-24.33-16.663-31.793-13.855a4.389,4.389,0,0,0-2.738,5.719S91.426,308.964,110.953,328.091Z" transform="translate(-32.847 -226.424)" fill="#263238" stroke="#263238" stroke-linecap="round" stroke-linejoin="round" stroke-width="1"/>
      <path id="Trazado_798969" data-name="Trazado 798969" d="M117.54,333c.618.579,1.244,1.173,1.87,1.792" transform="translate(-41.859 -233.139)" fill="none" stroke="#7f7f7f" stroke-linecap="round" stroke-linejoin="round" stroke-width="1"/>
      <path id="Trazado_798970" data-name="Trazado 798970" d="M83.05,311.52c5.187,1.565,13.573,5.249,23.548,13.753" transform="translate(-34.351 -228.464)" fill="none" stroke="#7f7f7f" stroke-linecap="round" stroke-linejoin="round" stroke-width="1"/>
      <path id="Trazado_798971" data-name="Trazado 798971" d="M75.82,310a18.09,18.09,0,0,1,2.613.391" transform="translate(-32.777 -228.133)" fill="none" stroke="#7f7f7f" stroke-linecap="round" stroke-linejoin="round" stroke-width="1"/>
      <path id="Trazado_798972" data-name="Trazado 798972" d="M176.362,436.77s0-4.569-2.4-5.82-.438,5.82-2.84,11.649" transform="translate(-53.523 -254.43)" fill="none" stroke="#7f7f7f" stroke-linecap="round" stroke-linejoin="round" stroke-width="1"/>
      <path id="Trazado_798973" data-name="Trazado 798973" d="M145.41,374.65s1.971.2,3.716,19.331" transform="translate(-47.926 -242.206)" fill="none" stroke="#7f7f7f" stroke-linecap="round" stroke-linejoin="round" stroke-width="1"/>
      <path id="Trazado_798974" data-name="Trazado 798974" d="M107.365,281.4l1.674.313a16.538,16.538,0,0,0,1.635,6.79c1.565,2.91,3.786,3.466,9,9.13,4.866,5.273,7.1,1.838,7.385,1.346a3.912,3.912,0,0,1-3.051,2.347c-5.359.524-8.605-1.142-9.1,3.387-.861-3.5-3.661-7.721-5.875-12.994a22.93,22.93,0,0,1-1.674-10.319Z" transform="translate(-39.632 -221.907)" fill="#263238" stroke="#263238" stroke-linecap="round" stroke-linejoin="round" stroke-width="1"/>
      <path id="Trazado_798975" data-name="Trazado 798975" d="M109.816,274.547c.618-3.606-3.129-10.952-1.166-9.247s4.522,8,7.581,10.389,2.769,8,7.143,5.648a8.418,8.418,0,0,1,6.259-.782,3.662,3.662,0,0,0-.211.782c-.728,4.365.141,15.865-5.226,16.389a44.393,44.393,0,0,1-4.647.1c-3.035-3.176-7.369-7.894-9.028-10.632C107.836,282.808,109.205,278.153,109.816,274.547Z" transform="translate(-39.799 -218.347)" fill="#263238" opacity="0.3"/>
      <path id="Trazado_798976" data-name="Trazado 798976" d="M133.341,289.708s-2.746-1.2-2.691-2.918" transform="translate(-44.713 -223.08)" fill="none" stroke="#263238" stroke-linecap="round" stroke-linejoin="round" stroke-width="1"/>
    </g>
  </g>
</svg>
