<svg xmlns="http://www.w3.org/2000/svg" width="65.093" height="65.094" viewBox="0 0 65.093 65.094">
  <g id="Grupo_1064032" data-name="Grupo 1064032" transform="translate(12420.799 11963.299)">
    <path id="Trazado_796849" data-name="Trazado 796849" d="M88.431,215.829a23.66,23.66,0,1,1-23.66-23.66,23.66,23.66,0,0,1,23.66,23.66" transform="translate(-12453.023 -12146.581)" fill="#94e435"/>
    <path id="Trazado_796850" data-name="Trazado 796850" d="M64.771,240.489a24.66,24.66,0,1,1,24.66-24.66,24.687,24.687,0,0,1-24.66,24.66m0-47.32a22.66,22.66,0,1,0,22.66,22.66,22.685,22.685,0,0,0-22.66-22.66" transform="translate(-12453.023 -12146.581)" fill="#ffc401"/>
    <path id="Trazado_796851" data-name="Trazado 796851" d="M64.771,248.376a32.584,32.584,0,0,1-32.547-32.547,1,1,0,0,1,2,0,30.547,30.547,0,1,0,30.547-30.547,1,1,0,1,1,0-2,32.547,32.547,0,0,1,0,65.094" transform="translate(-12453.023 -12146.581)" fill="#ffc401"/>
    <path id="Trazado_796852" data-name="Trazado 796852" d="M33.225,216.832a1.015,1.015,0,0,1-1-1,1,1,0,0,1,1.38-.93,1.19,1.19,0,0,1,.33.22,1.015,1.015,0,0,1,.29.71,1.015,1.015,0,0,1-1,1" transform="translate(-12453.023 -12146.581)" fill="#ffc401"/>
    <path id="Trazado_796853" data-name="Trazado 796853" d="M33.635,210.652a1,1,0,1,1,.38-1.96,1,1,0,0,1-.19,1.98,1.224,1.224,0,0,1-.19-.02m1.6-5.98a.993.993,0,0,1-.54-1.3,1,1,0,1,1,1.85.76,1,1,0,0,1-.93.62,1.058,1.058,0,0,1-.38-.08m2.75-5.54a1,1,0,1,1,1.11-1.659,1,1,0,0,1-.56,1.829,1.016,1.016,0,0,1-.55-.17m3.77-4.9a1.008,1.008,0,0,1,0-1.42,1,1,0,0,1,1.41,0,1,1,0,0,1-1.41,1.42m4.65-4.08a1,1,0,0,1,1.66-1.11,1,1,0,0,1-.27,1.391,1.031,1.031,0,0,1-.56.17,1,1,0,0,1-.83-.451m5.36-3.09a1,1,0,1,1,1.3.541,1.015,1.015,0,0,1-.38.08.993.993,0,0,1-.92-.621m5.85-1.98a1,1,0,1,1,1.97-.39,1,1,0,0,1-.79,1.17.68.68,0,0,1-.2.02,1.012,1.012,0,0,1-.98-.8" transform="translate(-12453.023 -12146.581)" fill="#ffc401"/>
    <path id="Trazado_796854" data-name="Trazado 796854" d="M64.774,185.282a1.01,1.01,0,0,1-.93-1.38.955.955,0,0,1,.22-.33,1.034,1.034,0,0,1,1.41,0,1.017,1.017,0,0,1,.3.71,1,1,0,0,1-.3.71.967.967,0,0,1-.7.29" transform="translate(-12453.023 -12146.581)" fill="#ffc401"/>
    <path id="Trazado_796855" data-name="Trazado 796855" d="M81.776,215.829a17.006,17.006,0,1,1-17.006-17,17.006,17.006,0,0,1,17.006,17" transform="translate(-12453.023 -12146.581)" fill="#fff"/>
    <path id="Trazado_796856" data-name="Trazado 796856" d="M64.771,233.835a18.006,18.006,0,1,1,18-18.006,18.026,18.026,0,0,1-18,18.006m0-34.012a16.006,16.006,0,1,0,16,16.006,16.024,16.024,0,0,0-16-16.006" transform="translate(-12453.023 -12146.581)" fill="#ffc401"/>
    <path id="Trazado_796857" data-name="Trazado 796857" d="M71.67,220.772a.988.988,0,0,1-.495-.132l-6.9-3.943a1,1,0,0,1-.5-.868V204.756a1,1,0,0,1,2,0v10.493l6.4,3.655a1,1,0,0,1-.5,1.868" transform="translate(-12453.023 -12146.581)" fill="#ffc401"/>
    <path id="Trazado_796858" data-name="Trazado 796858" d="M64.771,201.842a1,1,0,0,1-1-1v-2.019a1,1,0,0,1,2,0v2.019a1,1,0,0,1-1,1" transform="translate(-12453.023 -12146.581)" fill="#ffc401"/>
    <path id="Trazado_796859" data-name="Trazado 796859" d="M64.771,233.307a1,1,0,0,1-1-1v-2.019a1,1,0,0,1,2,0v2.019a1,1,0,0,1-1,1" transform="translate(-12453.023 -12146.581)" fill="#ffc401"/>
    <path id="Trazado_796860" data-name="Trazado 796860" d="M81.513,216.565H79.494a1,1,0,0,1,0-2h2.019a1,1,0,0,1,0,2" transform="translate(-12453.023 -12146.581)" fill="#ffc401"/>
    <path id="Trazado_796861" data-name="Trazado 796861" d="M50.047,216.565H48.029a1,1,0,0,1,0-2h2.018a1,1,0,0,1,0,2" transform="translate(-12453.023 -12146.581)" fill="#ffc401"/>
  </g>
</svg>
