<svg xmlns="http://www.w3.org/2000/svg" xmlns:xlink="http://www.w3.org/1999/xlink" width="83.976" height="80.06" viewBox="0 0 83.976 80.06">
  <defs>
    <clipPath id="clip-path">
      <path id="Trazado_796875" data-name="Trazado 796875" d="M340.2,266.668a27.906,27.906,0,1,0,27.9-27.907,27.906,27.906,0,0,0-27.9,27.907" fill="none"/>
    </clipPath>
  </defs>
  <g id="Grupo_1064197" data-name="Grupo 1064197" transform="translate(12113.821 11931.066)">
    <path id="Trazado_796867" data-name="Trazado 796867" d="M396.014,266.667a27.906,27.906,0,1,1-27.906-27.906,27.906,27.906,0,0,1,27.906,27.906" transform="translate(-12453.023 -12146.581)" fill="#00a9ff"/>
    <path id="Trazado_796868" data-name="Trazado 796868" d="M368.108,295.574a28.907,28.907,0,1,1,28.906-28.907,28.94,28.94,0,0,1-28.906,28.907m0-55.813a26.907,26.907,0,1,0,26.906,26.906,26.936,26.936,0,0,0-26.906-26.906" transform="translate(-12453.023 -12146.581)" fill="#ffc401"/>
    <path id="Trazado_796869" data-name="Trazado 796869" d="M384.787,266.667c0,15.412-7.467,27.906-16.679,27.906s-16.679-12.494-16.679-27.906,7.468-27.906,16.679-27.906,16.679,12.494,16.679,27.906" transform="translate(-12453.023 -12146.581)" fill="#00a9ff"/>
    <path id="Trazado_796870" data-name="Trazado 796870" d="M368.108,295.574c-9.748,0-17.679-12.968-17.679-28.907s7.931-28.906,17.679-28.906,17.679,12.968,17.679,28.906-7.931,28.907-17.679,28.907m0-55.813c-8.646,0-15.679,12.07-15.679,26.906s7.033,26.907,15.679,26.907,15.679-12.071,15.679-26.907-7.033-26.906-15.679-26.906" transform="translate(-12453.023 -12146.581)" fill="#ffc401"/>
    <line id="Línea_1597" data-name="Línea 1597" y2="55.397" transform="translate(-12084.915 -11907.82)" fill="#80deea"/>
    <path id="Trazado_796871" data-name="Trazado 796871" d="M368.108,295.158a1,1,0,0,1-1-1v-55.4a1,1,0,1,1,2,0v55.4a1,1,0,0,1-1,1" transform="translate(-12453.023 -12146.581)" fill="#ffc401"/>
    <line id="Línea_1598" data-name="Línea 1598" x2="55.812" transform="translate(-12112.821 -11879.914)" fill="#80deea"/>
    <path id="Trazado_796872" data-name="Trazado 796872" d="M396.015,267.667H340.2a1,1,0,0,1,0-2h55.813a1,1,0,0,1,0,2" transform="translate(-12453.023 -12146.581)" fill="#ffc401"/>
    <g id="Grupo_1064029" data-name="Grupo 1064029" transform="translate(-12453.023 -12146.581)">
      <g id="Grupo_1064028" data-name="Grupo 1064028" clip-path="url(#clip-path)">
        <path id="Trazado_796873" data-name="Trazado 796873" d="M368.108,255.238c-15.938,0-28.906-7.93-28.906-17.678s12.968-17.679,28.906-17.679,28.906,7.931,28.906,17.679-12.968,17.678-28.906,17.678m0-33.357c-14.836,0-26.906,7.033-26.906,15.679s12.07,15.678,26.906,15.678,26.906-7.033,26.906-15.678-12.07-15.679-26.906-15.679" fill="#ffc401"/>
        <path id="Trazado_796874" data-name="Trazado 796874" d="M368.108,313.454c-15.938,0-28.906-7.93-28.906-17.678S352.17,278.1,368.108,278.1s28.906,7.931,28.906,17.679-12.968,17.678-28.906,17.678m0-33.357c-14.836,0-26.906,7.033-26.906,15.679s12.07,15.678,26.906,15.678,26.906-7.033,26.906-15.678S382.944,280.1,368.108,280.1" fill="#ffc401"/>
      </g>
    </g>
    <path id="Trazado_796902" data-name="Trazado 796902" d="M422.178,229.044c0,6.92-12.529,22.479-12.529,22.479s-12.53-15.559-12.53-22.479a12.53,12.53,0,0,1,25.059,0" transform="translate(-12453.023 -12146.581)" fill="#94e435"/>
    <path id="Trazado_796903" data-name="Trazado 796903" d="M409.648,252.524a1,1,0,0,1-.779-.373c-.521-.647-12.75-15.917-12.75-23.107a13.53,13.53,0,0,1,27.059,0c0,7.19-12.23,22.46-12.751,23.107a1,1,0,0,1-.779.373m0-35.009a11.542,11.542,0,0,0-11.529,11.529c0,5.018,7.705,15.954,11.529,20.867,3.824-4.914,11.53-15.852,11.53-20.867a11.543,11.543,0,0,0-11.53-11.529" transform="translate(-12453.023 -12146.581)" fill="#ffc401"/>
    <path id="Trazado_796904" data-name="Trazado 796904" d="M415.649,229.044a6,6,0,1,1-6-6,6,6,0,0,1,6,6" transform="translate(-12453.023 -12146.581)" fill="#e0f2f1"/>
    <path id="Trazado_796905" data-name="Trazado 796905" d="M409.648,236.044a7,7,0,1,1,7-7,7.009,7.009,0,0,1-7,7m0-12a5,5,0,1,0,5,5,5.006,5.006,0,0,0-5-5" transform="translate(-12453.023 -12146.581)" fill="#ffc401"/>
  </g>
</svg>
