<svg xmlns="http://www.w3.org/2000/svg" width="925" height="429" viewBox="0 0 925 429">
  <g id="Grupo_1064968" data-name="Grupo 1064968" transform="translate(-337.333 -512)">
    <path id="Trazado_799175" data-name="Trazado 799175" d="M0,0H609V60H0Z" transform="translate(495.333 512)" fill="#00a9ff"/>
    <path id="Trazado_799176" data-name="Trazado 799176" d="M0,0H400V60H0Z" transform="translate(600.333 758)" fill="#94e435"/>
    <path id="Trazado_799177" data-name="Trazado 799177" d="M0,0H295V60H0Z" transform="translate(337.333 881)" fill="#0050db"/>
    <path id="Trazado_799178" data-name="Trazado 799178" d="M0,0H295V60H0Z" transform="translate(652.333 881)" fill="#0050db"/>
    <path id="Trazado_799179" data-name="Trazado 799179" d="M0,0H295V60H0Z" transform="translate(967.333 881)" fill="#0050db"/>
    <path id="Trazado_799180" data-name="Trazado 799180" d="M-120.757-4.824V0h-3.428V-14.219h5.674a6.608,6.608,0,0,1,2.886.6,4.526,4.526,0,0,1,1.943,1.709,4.667,4.667,0,0,1,.688,2.515,4.114,4.114,0,0,1-1.489,3.325,6.179,6.179,0,0,1-4.087,1.245Zm0-2.646h2.246a2.118,2.118,0,0,0,1.519-.5,1.85,1.85,0,0,0,.522-1.406,2.287,2.287,0,0,0-.537-1.592,1.9,1.9,0,0,0-1.465-.605h-2.285ZM-107.847,0h-3.3V-15h3.3Zm7.979,0a3.716,3.716,0,0,1-.312-.947A3.06,3.06,0,0,1-102.72.2a3.749,3.749,0,0,1-2.539-.9A2.875,2.875,0,0,1-106.3-2.979a2.955,2.955,0,0,1,1.27-2.6,6.468,6.468,0,0,1,3.691-.879h1.016v-.559q0-1.462-1.26-1.462a1.03,1.03,0,0,0-1.172,1.158h-3.291a2.95,2.95,0,0,1,1.3-2.487,5.479,5.479,0,0,1,3.325-.956,4.8,4.8,0,0,1,3.193.986,3.429,3.429,0,0,1,1.2,2.705v4.678a4.79,4.79,0,0,0,.449,2.227V0Zm-2.061-2.148a1.836,1.836,0,0,0,1.021-.264,1.653,1.653,0,0,0,.581-.6V-4.7h-.957Q-103-4.7-103-3.154a.942.942,0,0,0,.3.728A1.1,1.1,0,0,0-101.929-2.148Zm9.746-8.418.107,1.24a3.583,3.583,0,0,1,3.018-1.436,3.015,3.015,0,0,1,2.466.986,4.7,4.7,0,0,1,.845,2.969V0h-3.3V-6.67a1.783,1.783,0,0,0-.322-1.177,1.491,1.491,0,0,0-1.172-.376,1.569,1.569,0,0,0-1.436.762V0h-3.291V-10.566ZM-73.833.2a5.432,5.432,0,0,1-3.936-1.45,5.008,5.008,0,0,1-1.5-3.774V-5.3a6.489,6.489,0,0,1,.6-2.861,4.395,4.395,0,0,1,1.753-1.919,5.292,5.292,0,0,1,2.734-.679A4.574,4.574,0,0,1-70.669-9.38,5.43,5.43,0,0,1-69.38-5.527v1.279h-6.543a2.372,2.372,0,0,0,.771,1.4,2.3,2.3,0,0,0,1.543.508,2.958,2.958,0,0,0,2.441-1.094l1.5,1.777A4.2,4.2,0,0,1-71.406-.308,5.891,5.891,0,0,1-73.833.2ZM-74.2-8.223q-1.445,0-1.719,1.914h3.32v-.254A1.63,1.63,0,0,0-73-7.788,1.593,1.593,0,0,0-74.2-8.223Zm11.68,5.254a.76.76,0,0,0-.439-.674,6.685,6.685,0,0,0-1.67-.527,7.615,7.615,0,0,1-2.031-.718,3.4,3.4,0,0,1-1.221-1.079,2.577,2.577,0,0,1-.42-1.455,2.92,2.92,0,0,1,1.2-2.4,4.948,4.948,0,0,1,3.145-.942,5.482,5.482,0,0,1,3.359.947,2.962,2.962,0,0,1,1.27,2.49h-3.3q0-1.27-1.338-1.27a1.326,1.326,0,0,0-.869.288.892.892,0,0,0-.352.718.819.819,0,0,0,.43.713,4.06,4.06,0,0,0,1.372.449,11.857,11.857,0,0,1,1.655.42,3.007,3.007,0,0,1,2.383,2.939A2.767,2.767,0,0,1-60.635-.713,5.632,5.632,0,0,1-63.96.2a5.747,5.747,0,0,1-2.422-.488,4.05,4.05,0,0,1-1.66-1.328,3.007,3.007,0,0,1-.6-1.768h3.076a1.272,1.272,0,0,0,.488,1.069,2.009,2.009,0,0,0,1.2.337,1.58,1.58,0,0,0,1.011-.273A.875.875,0,0,0-62.524-2.969Zm8.545-10.225v2.627h1.738v2.285h-1.738v4.834a1.234,1.234,0,0,0,.215.83,1.152,1.152,0,0,0,.85.234,4.828,4.828,0,0,0,.82-.059V-.088A6.074,6.074,0,0,1-53.95.2a3.448,3.448,0,0,1-2.51-.8,3.282,3.282,0,0,1-.811-2.432V-8.281h-1.348v-2.285h1.348v-2.627Zm9.424,5.605-1.084-.078a1.947,1.947,0,0,0-1.992.977V0h-3.291V-10.566h3.086l.107,1.357a2.548,2.548,0,0,1,2.314-1.553,3.209,3.209,0,0,1,.918.117ZM-37.71,0a3.716,3.716,0,0,1-.312-.947A3.06,3.06,0,0,1-40.562.2a3.749,3.749,0,0,1-2.539-.9,2.875,2.875,0,0,1-1.045-2.271,2.955,2.955,0,0,1,1.27-2.6,6.468,6.468,0,0,1,3.691-.879h1.016v-.559q0-1.462-1.26-1.462A1.03,1.03,0,0,0-40.6-7.319h-3.291a2.95,2.95,0,0,1,1.3-2.487,5.479,5.479,0,0,1,3.325-.956,4.8,4.8,0,0,1,3.193.986,3.429,3.429,0,0,1,1.2,2.705v4.678a4.79,4.79,0,0,0,.449,2.227V0Zm-2.061-2.148a1.836,1.836,0,0,0,1.021-.264,1.653,1.653,0,0,0,.581-.6V-4.7h-.957q-1.719,0-1.719,1.543a.942.942,0,0,0,.3.728A1.1,1.1,0,0,0-39.771-2.148Zm10.557-11.045v2.627h1.738v2.285h-1.738v4.834a1.234,1.234,0,0,0,.215.83,1.152,1.152,0,0,0,.85.234,4.828,4.828,0,0,0,.82-.059V-.088A6.074,6.074,0,0,1-29.185.2a3.448,3.448,0,0,1-2.51-.8A3.282,3.282,0,0,1-32.5-3.037V-8.281h-1.348v-2.285H-32.5v-2.627ZM-21.069.2A5.432,5.432,0,0,1-25-1.255a5.008,5.008,0,0,1-1.5-3.774V-5.3a6.489,6.489,0,0,1,.6-2.861,4.395,4.395,0,0,1,1.753-1.919,5.292,5.292,0,0,1,2.734-.679A4.574,4.574,0,0,1-17.905-9.38a5.43,5.43,0,0,1,1.289,3.853v1.279h-6.543a2.372,2.372,0,0,0,.771,1.4,2.3,2.3,0,0,0,1.543.508A2.958,2.958,0,0,0-18.4-3.437l1.5,1.777A4.2,4.2,0,0,1-18.643-.308,5.891,5.891,0,0,1-21.069.2Zm-.371-8.418q-1.445,0-1.719,1.914h3.32v-.254a1.63,1.63,0,0,0-.4-1.226A1.593,1.593,0,0,0-21.44-8.223Zm-.039-6.787H-18l-2.715,3.066-2.686,0Zm5.8,9.648a7.134,7.134,0,0,1,.527-2.832,4.245,4.245,0,0,1,1.514-1.9,3.99,3.99,0,0,1,2.295-.669A3.173,3.173,0,0,1-8.765-9.648l.117-.918h2.988V-.4a4.455,4.455,0,0,1-.649,2.427,4.167,4.167,0,0,1-1.88,1.582,6.91,6.91,0,0,1-2.852.552,5.961,5.961,0,0,1-2.251-.439,4.063,4.063,0,0,1-1.665-1.143L-13.579.645a3.018,3.018,0,0,0,2.422,1.084A1.96,1.96,0,0,0-8.97-.518V-.85A3.09,3.09,0,0,1-11.362.2a3.819,3.819,0,0,1-3.125-1.479,6.13,6.13,0,0,1-1.191-3.96Zm3.3.205A3.759,3.759,0,0,0-11.89-3.1a1.541,1.541,0,0,0,1.367.757A1.748,1.748,0,0,0-8.97-3.057V-7.5A1.7,1.7,0,0,0-10.5-8.223a1.551,1.551,0,0,0-1.377.786A4.287,4.287,0,0,0-12.378-5.156ZM-.317,0h-3.3V-10.566h3.3Zm-3.5-13.3a1.482,1.482,0,0,1,.508-1.159,1.909,1.909,0,0,1,1.318-.452,1.909,1.909,0,0,1,1.318.452A1.482,1.482,0,0,1-.161-13.3a1.482,1.482,0,0,1-.508,1.159,1.909,1.909,0,0,1-1.318.452,1.909,1.909,0,0,1-1.318-.452A1.482,1.482,0,0,1-3.813-13.3ZM6.177-2.344A1.464,1.464,0,0,0,7.251-2.72a1.379,1.379,0,0,0,.371-1.05h3.086A3.653,3.653,0,0,1,9.463-.918,4.631,4.631,0,0,1,6.255.2,4.689,4.689,0,0,1,2.622-1.25a5.7,5.7,0,0,1-1.328-4v-.137a6.436,6.436,0,0,1,.591-2.827,4.3,4.3,0,0,1,1.7-1.885,5.081,5.081,0,0,1,2.637-.659A4.573,4.573,0,0,1,9.5-9.619a4.053,4.053,0,0,1,1.211,3.1H7.622a1.807,1.807,0,0,0-.4-1.26,1.382,1.382,0,0,0-1.074-.439q-1.279,0-1.494,1.631a11.508,11.508,0,0,0-.068,1.426,4.52,4.52,0,0,0,.381,2.207A1.319,1.319,0,0,0,6.177-2.344Zm5.508-3.037A6.236,6.236,0,0,1,12.3-8.2a4.4,4.4,0,0,1,1.768-1.9,5.323,5.323,0,0,1,2.705-.664,4.858,4.858,0,0,1,3.74,1.47,5.64,5.64,0,0,1,1.367,4v.117a5.472,5.472,0,0,1-1.372,3.921A4.871,4.871,0,0,1,16.792.2a4.927,4.927,0,0,1-3.623-1.353,5.29,5.29,0,0,1-1.475-3.667Zm3.291.205a3.932,3.932,0,0,0,.459,2.148,1.529,1.529,0,0,0,1.357.684q1.758,0,1.8-2.705v-.332q0-2.842-1.816-2.842-1.65,0-1.787,2.451ZM33.423.2a5.432,5.432,0,0,1-3.936-1.45,5.008,5.008,0,0,1-1.5-3.774V-5.3a6.489,6.489,0,0,1,.6-2.861,4.395,4.395,0,0,1,1.753-1.919,5.292,5.292,0,0,1,2.734-.679A4.574,4.574,0,0,1,36.587-9.38a5.43,5.43,0,0,1,1.289,3.853v1.279H31.333a2.372,2.372,0,0,0,.771,1.4,2.3,2.3,0,0,0,1.543.508,2.958,2.958,0,0,0,2.441-1.094l1.5,1.777A4.2,4.2,0,0,1,35.85-.308,5.891,5.891,0,0,1,33.423.2Zm-.371-8.418q-1.445,0-1.719,1.914h3.32v-.254a1.63,1.63,0,0,0-.4-1.226A1.593,1.593,0,0,0,33.052-8.223Zm9.17-2.344.107,1.24a3.583,3.583,0,0,1,3.018-1.436,3.015,3.015,0,0,1,2.466.986,4.7,4.7,0,0,1,.845,2.969V0h-3.3V-6.67a1.783,1.783,0,0,0-.322-1.177,1.491,1.491,0,0,0-1.172-.376,1.569,1.569,0,0,0-1.436.762V0H39.136V-10.566ZM58.931,0h-3.3V-15h3.3Zm7.979,0A3.716,3.716,0,0,1,66.6-.947,3.06,3.06,0,0,1,64.058.2a3.749,3.749,0,0,1-2.539-.9,2.875,2.875,0,0,1-1.045-2.271,2.955,2.955,0,0,1,1.27-2.6,6.468,6.468,0,0,1,3.691-.879H66.45v-.559q0-1.462-1.26-1.462a1.03,1.03,0,0,0-1.172,1.158H60.728a2.95,2.95,0,0,1,1.3-2.487,5.479,5.479,0,0,1,3.325-.956,4.8,4.8,0,0,1,3.193.986,3.429,3.429,0,0,1,1.2,2.705v4.678A4.79,4.79,0,0,0,70.2-.166V0ZM64.849-2.148a1.836,1.836,0,0,0,1.021-.264,1.653,1.653,0,0,0,.581-.6V-4.7h-.957q-1.719,0-1.719,1.543a.942.942,0,0,0,.3.728A1.1,1.1,0,0,0,64.849-2.148ZM86.362-5.205a6.372,6.372,0,0,1-1.108,3.931A3.554,3.554,0,0,1,82.261.2,3.046,3.046,0,0,1,79.868-.869V4.063H76.577V-10.566h3.076l.1.977a3.046,3.046,0,0,1,2.49-1.172,3.582,3.582,0,0,1,3.037,1.44,6.45,6.45,0,0,1,1.084,3.96ZM83.071-5.41q0-2.812-1.641-2.812a1.549,1.549,0,0,0-1.562.84v4.16a1.6,1.6,0,0,0,1.582.879q1.572,0,1.621-2.715Zm8.857.8,1.758-5.957h3.525L92.905,1.768l-.186.449a3.272,3.272,0,0,1-3.242,2.051,5.158,5.158,0,0,1-1.357-.195V1.729h.43a2.251,2.251,0,0,0,1.06-.2A1.216,1.216,0,0,0,90.151.81l.264-.7L86.743-10.566h3.516Zm9.248-5.957.107,1.24a3.633,3.633,0,0,1,3.018-1.436,2.675,2.675,0,0,1,2.705,1.592,3.517,3.517,0,0,1,3.105-1.592q3.213,0,3.3,3.887V0h-3.3V-6.67a2.014,2.014,0,0,0-.273-1.182,1.164,1.164,0,0,0-1-.371,1.559,1.559,0,0,0-1.455.869l.01.137V0h-3.3V-6.65a2.117,2.117,0,0,0-.264-1.2,1.161,1.161,0,0,0-1.006-.371,1.578,1.578,0,0,0-1.445.869V0H98.091V-10.566ZM120.405.2a5.432,5.432,0,0,1-3.936-1.45,5.008,5.008,0,0,1-1.5-3.774V-5.3a6.489,6.489,0,0,1,.6-2.861,4.395,4.395,0,0,1,1.753-1.919,5.292,5.292,0,0,1,2.734-.679,4.574,4.574,0,0,1,3.516,1.382,5.43,5.43,0,0,1,1.289,3.853v1.279h-6.543a2.372,2.372,0,0,0,.771,1.4,2.3,2.3,0,0,0,1.543.508,2.958,2.958,0,0,0,2.441-1.094l1.5,1.777a4.2,4.2,0,0,1-1.743,1.353A5.891,5.891,0,0,1,120.405.2Zm-.371-8.418q-1.445,0-1.719,1.914h3.32v-.254a1.63,1.63,0,0,0-.4-1.226A1.593,1.593,0,0,0,120.034-8.223Z" transform="translate(800.333 549)" fill="#12263f"/>
    <path id="Trazado_799181" data-name="Trazado 799181" d="M-80.474-2.656h-4.7L-85.991,0h-3.662l5.215-14.219h3.223L-75.962,0h-3.682ZM-84.351-5.3h3.057l-1.533-4.932Zm11.826-5.264.107,1.24A3.583,3.583,0,0,1-69.4-10.762a3.015,3.015,0,0,1,2.466.986,4.7,4.7,0,0,1,.845,2.969V0h-3.3V-6.67a1.783,1.783,0,0,0-.322-1.177,1.491,1.491,0,0,0-1.172-.376,1.569,1.569,0,0,0-1.436.762V0H-75.61V-10.566ZM-58.315,0a3.716,3.716,0,0,1-.312-.947A3.06,3.06,0,0,1-61.167.2a3.749,3.749,0,0,1-2.539-.9,2.875,2.875,0,0,1-1.045-2.271,2.955,2.955,0,0,1,1.27-2.6,6.468,6.468,0,0,1,3.691-.879h1.016v-.559q0-1.462-1.26-1.462a1.03,1.03,0,0,0-1.172,1.158H-64.5a2.95,2.95,0,0,1,1.3-2.487,5.479,5.479,0,0,1,3.325-.956,4.8,4.8,0,0,1,3.193.986,3.429,3.429,0,0,1,1.2,2.705v4.678a4.79,4.79,0,0,0,.449,2.227V0Zm-2.061-2.148a1.836,1.836,0,0,0,1.021-.264,1.653,1.653,0,0,0,.581-.6V-4.7h-.957q-1.719,0-1.719,1.543a.942.942,0,0,0,.3.728A1.1,1.1,0,0,0-60.376-2.148ZM-50.181,0h-3.3V-15h3.3Zm5.615,0h-3.311V-10.566h3.311ZM-45.8-14.8h3.477l-2.715,3.066-2.686,0Zm7.178,1.611v2.627h1.738v2.285h-1.738v4.834a1.234,1.234,0,0,0,.215.83,1.152,1.152,0,0,0,.85.234,4.828,4.828,0,0,0,.82-.059V-.088A6.074,6.074,0,0,1-38.589.2a3.448,3.448,0,0,1-2.51-.8,3.282,3.282,0,0,1-.811-2.432V-8.281h-1.348v-2.285h1.348v-2.627ZM-32.114,0h-3.3V-10.566h3.3Zm-3.5-13.3A1.482,1.482,0,0,1-35.1-14.46a1.909,1.909,0,0,1,1.318-.452,1.909,1.909,0,0,1,1.318.452,1.482,1.482,0,0,1,.508,1.159,1.482,1.482,0,0,1-.508,1.159,1.909,1.909,0,0,1-1.318.452,1.909,1.909,0,0,1-1.318-.452A1.482,1.482,0,0,1-35.61-13.3Zm9.99,10.957a1.464,1.464,0,0,0,1.074-.376,1.379,1.379,0,0,0,.371-1.05h3.086A3.653,3.653,0,0,1-22.334-.918,4.631,4.631,0,0,1-25.542.2,4.689,4.689,0,0,1-29.175-1.25a5.7,5.7,0,0,1-1.328-4v-.137a6.436,6.436,0,0,1,.591-2.827,4.3,4.3,0,0,1,1.7-1.885,5.081,5.081,0,0,1,2.637-.659A4.573,4.573,0,0,1-22.3-9.619a4.053,4.053,0,0,1,1.211,3.1h-3.086a1.807,1.807,0,0,0-.4-1.26,1.382,1.382,0,0,0-1.074-.439q-1.279,0-1.494,1.631a11.508,11.508,0,0,0-.068,1.426,4.52,4.52,0,0,0,.381,2.207A1.319,1.319,0,0,0-25.62-2.344ZM-13.745,0a3.716,3.716,0,0,1-.312-.947A3.06,3.06,0,0,1-16.6.2a3.749,3.749,0,0,1-2.539-.9,2.875,2.875,0,0,1-1.045-2.271,2.955,2.955,0,0,1,1.27-2.6,6.468,6.468,0,0,1,3.691-.879H-14.2v-.559q0-1.462-1.26-1.462a1.03,1.03,0,0,0-1.172,1.158h-3.291a2.95,2.95,0,0,1,1.3-2.487,5.479,5.479,0,0,1,3.325-.956,4.8,4.8,0,0,1,3.193.986A3.429,3.429,0,0,1-10.9-7.07v4.678a4.79,4.79,0,0,0,.449,2.227V0Zm-2.061-2.148a1.836,1.836,0,0,0,1.021-.264,1.653,1.653,0,0,0,.581-.6V-4.7h-.957q-1.719,0-1.719,1.543a.942.942,0,0,0,.3.728A1.1,1.1,0,0,0-15.806-2.148ZM.122-4.609,1.88-10.566H5.405L1.1,1.768l-.186.449A3.272,3.272,0,0,1-2.329,4.268a5.158,5.158,0,0,1-1.357-.195V1.729h.43a2.251,2.251,0,0,0,1.06-.2A1.216,1.216,0,0,0-1.655.81l.264-.7L-5.063-10.566h3.516Zm14.229-5.957.107,1.24a3.633,3.633,0,0,1,3.018-1.436A2.675,2.675,0,0,1,20.181-9.17a3.517,3.517,0,0,1,3.105-1.592q3.213,0,3.3,3.887V0h-3.3V-6.67a2.014,2.014,0,0,0-.273-1.182,1.164,1.164,0,0,0-1-.371,1.559,1.559,0,0,0-1.455.869l.01.137V0h-3.3V-6.65a2.117,2.117,0,0,0-.264-1.2A1.161,1.161,0,0,0,16-8.223a1.578,1.578,0,0,0-1.445.869V0H11.265V-10.566ZM33.579.2a5.432,5.432,0,0,1-3.936-1.45,5.008,5.008,0,0,1-1.5-3.774V-5.3a6.489,6.489,0,0,1,.6-2.861,4.395,4.395,0,0,1,1.753-1.919,5.292,5.292,0,0,1,2.734-.679A4.574,4.574,0,0,1,36.743-9.38a5.43,5.43,0,0,1,1.289,3.853v1.279H31.489a2.372,2.372,0,0,0,.771,1.4,2.3,2.3,0,0,0,1.543.508,2.958,2.958,0,0,0,2.441-1.094l1.5,1.777A4.2,4.2,0,0,1,36.006-.308,5.891,5.891,0,0,1,33.579.2Zm-.371-8.418q-1.445,0-1.719,1.914h3.32v-.254a1.63,1.63,0,0,0-.4-1.226A1.593,1.593,0,0,0,33.208-8.223Zm-.039-6.787h3.477l-2.715,3.066-2.686,0Zm10.02,1.816v2.627h1.738v2.285H43.188v4.834a1.234,1.234,0,0,0,.215.83,1.152,1.152,0,0,0,.85.234,4.828,4.828,0,0,0,.82-.059V-.088A6.074,6.074,0,0,1,43.218.2a3.448,3.448,0,0,1-2.51-.8A3.282,3.282,0,0,1,39.9-3.037V-8.281H38.55v-2.285H39.9v-2.627Zm9.424,5.605-1.084-.078a1.947,1.947,0,0,0-1.992.977V0H46.245V-10.566h3.086l.107,1.357a2.548,2.548,0,0,1,2.314-1.553,3.209,3.209,0,0,1,.918.117ZM57.271,0h-3.3V-10.566h3.3Zm-3.5-13.3a1.482,1.482,0,0,1,.508-1.159,1.909,1.909,0,0,1,1.318-.452,1.909,1.909,0,0,1,1.318.452,1.482,1.482,0,0,1,.508,1.159,1.482,1.482,0,0,1-.508,1.159,1.909,1.909,0,0,1-1.318.452,1.909,1.909,0,0,1-1.318-.452A1.482,1.482,0,0,1,53.774-13.3Zm9.99,10.957a1.464,1.464,0,0,0,1.074-.376,1.379,1.379,0,0,0,.371-1.05H68.3A3.653,3.653,0,0,1,67.051-.918,4.631,4.631,0,0,1,63.843.2,4.689,4.689,0,0,1,60.21-1.25a5.7,5.7,0,0,1-1.328-4v-.137a6.436,6.436,0,0,1,.591-2.827,4.3,4.3,0,0,1,1.7-1.885,5.081,5.081,0,0,1,2.637-.659,4.573,4.573,0,0,1,3.271,1.143,4.053,4.053,0,0,1,1.211,3.1H65.21a1.806,1.806,0,0,0-.4-1.26,1.382,1.382,0,0,0-1.074-.439q-1.279,0-1.494,1.631a11.507,11.507,0,0,0-.068,1.426,4.52,4.52,0,0,0,.381,2.207A1.319,1.319,0,0,0,63.765-2.344ZM75.64,0a3.716,3.716,0,0,1-.312-.947A3.06,3.06,0,0,1,72.788.2a3.749,3.749,0,0,1-2.539-.9A2.875,2.875,0,0,1,69.2-2.979a2.955,2.955,0,0,1,1.27-2.6,6.468,6.468,0,0,1,3.691-.879h1.016v-.559q0-1.462-1.26-1.462a1.03,1.03,0,0,0-1.172,1.158H69.458a2.95,2.95,0,0,1,1.3-2.487,5.479,5.479,0,0,1,3.325-.956,4.8,4.8,0,0,1,3.193.986,3.429,3.429,0,0,1,1.2,2.705v4.678a4.79,4.79,0,0,0,.449,2.227V0ZM73.579-2.148A1.836,1.836,0,0,0,74.6-2.412a1.653,1.653,0,0,0,.581-.6V-4.7h-.957Q72.5-4.7,72.5-3.154a.942.942,0,0,0,.3.728A1.1,1.1,0,0,0,73.579-2.148Zm12.256-.82a.76.76,0,0,0-.439-.674,6.685,6.685,0,0,0-1.67-.527,7.615,7.615,0,0,1-2.031-.718,3.4,3.4,0,0,1-1.221-1.079,2.577,2.577,0,0,1-.42-1.455,2.92,2.92,0,0,1,1.2-2.4,4.948,4.948,0,0,1,3.145-.942,5.482,5.482,0,0,1,3.359.947,2.962,2.962,0,0,1,1.27,2.49h-3.3q0-1.27-1.338-1.27a1.326,1.326,0,0,0-.869.288.892.892,0,0,0-.352.718.819.819,0,0,0,.43.713,4.06,4.06,0,0,0,1.372.449,11.857,11.857,0,0,1,1.655.42,3.007,3.007,0,0,1,2.383,2.939A2.767,2.767,0,0,1,87.725-.713,5.631,5.631,0,0,1,84.4.2a5.747,5.747,0,0,1-2.422-.488,4.05,4.05,0,0,1-1.66-1.328,3.007,3.007,0,0,1-.6-1.768H82.8a1.272,1.272,0,0,0,.488,1.069,2.009,2.009,0,0,0,1.2.337A1.58,1.58,0,0,0,85.5-2.256.875.875,0,0,0,85.835-2.969Z" transform="translate(800.333 795)" fill="#12263f"/>
    <path id="Trazado_799182" data-name="Trazado 799182" d="M-67.09-4.814a5.193,5.193,0,0,1-.8,2.622A4.833,4.833,0,0,1-69.946-.43,7,7,0,0,1-72.969.2a5.584,5.584,0,0,1-4.414-1.826,7.54,7.54,0,0,1-1.611-5.156v-.7a8.607,8.607,0,0,1,.728-3.657,5.513,5.513,0,0,1,2.095-2.422,5.844,5.844,0,0,1,3.164-.854,6.129,6.129,0,0,1,4.16,1.362,5.383,5.383,0,0,1,1.787,3.755h-3.418a2.547,2.547,0,0,0-.654-1.865,2.691,2.691,0,0,0-1.875-.566,2.048,2.048,0,0,0-1.875.957,6.151,6.151,0,0,0-.625,3.057v1.006a6.806,6.806,0,0,0,.571,3.252,2.091,2.091,0,0,0,1.968.977,2.632,2.632,0,0,0,1.807-.557A2.363,2.363,0,0,0-70.5-4.814Zm1.055-.566A6.236,6.236,0,0,1-65.42-8.2a4.4,4.4,0,0,1,1.768-1.9,5.323,5.323,0,0,1,2.705-.664,4.858,4.858,0,0,1,3.74,1.47,5.64,5.64,0,0,1,1.367,4v.117a5.472,5.472,0,0,1-1.372,3.921A4.871,4.871,0,0,1-60.928.2a4.927,4.927,0,0,1-3.623-1.353,5.29,5.29,0,0,1-1.475-3.667Zm3.291.205a3.932,3.932,0,0,0,.459,2.148,1.529,1.529,0,0,0,1.357.684q1.758,0,1.8-2.705v-.332q0-2.842-1.816-2.842-1.65,0-1.787,2.451Zm11.377-5.391.107,1.24a3.583,3.583,0,0,1,3.018-1.436,3.015,3.015,0,0,1,2.466.986,4.7,4.7,0,0,1,.845,2.969V0h-3.3V-6.67a1.783,1.783,0,0,0-.322-1.177,1.491,1.491,0,0,0-1.172-.376,1.569,1.569,0,0,0-1.436.762V0h-3.291V-10.566Zm12.09-2.627v2.627h1.738v2.285h-1.738v4.834a1.234,1.234,0,0,0,.215.83,1.152,1.152,0,0,0,.85.234,4.828,4.828,0,0,0,.82-.059V-.088A6.074,6.074,0,0,1-39.248.2a3.448,3.448,0,0,1-2.51-.8,3.282,3.282,0,0,1-.811-2.432V-8.281h-1.348v-2.285h1.348v-2.627ZM-31.133.2a5.432,5.432,0,0,1-3.936-1.45,5.008,5.008,0,0,1-1.5-3.774V-5.3a6.489,6.489,0,0,1,.6-2.861,4.395,4.395,0,0,1,1.753-1.919,5.292,5.292,0,0,1,2.734-.679A4.574,4.574,0,0,1-27.969-9.38,5.43,5.43,0,0,1-26.68-5.527v1.279h-6.543a2.372,2.372,0,0,0,.771,1.4,2.3,2.3,0,0,0,1.543.508,2.958,2.958,0,0,0,2.441-1.094l1.5,1.777A4.2,4.2,0,0,1-28.706-.308,5.891,5.891,0,0,1-31.133.2ZM-31.5-8.223q-1.445,0-1.719,1.914h3.32v-.254a1.63,1.63,0,0,0-.4-1.226A1.593,1.593,0,0,0-31.5-8.223Zm9.17-2.344.107,1.24a3.583,3.583,0,0,1,3.018-1.436,3.015,3.015,0,0,1,2.466.986A4.7,4.7,0,0,1-15.9-6.807V0h-3.3V-6.67a1.783,1.783,0,0,0-.322-1.177,1.491,1.491,0,0,0-1.172-.376,1.569,1.569,0,0,0-1.436.762V0H-25.42V-10.566ZM-10.605,0h-3.3V-10.566h3.3Zm-3.5-13.3a1.482,1.482,0,0,1,.508-1.159,1.909,1.909,0,0,1,1.318-.452,1.909,1.909,0,0,1,1.318.452,1.482,1.482,0,0,1,.508,1.159,1.482,1.482,0,0,1-.508,1.159,1.909,1.909,0,0,1-1.318.452,1.909,1.909,0,0,1-1.318-.452A1.482,1.482,0,0,1-14.1-13.3Zm5.107,7.939A6.455,6.455,0,0,1-7.91-9.316a3.568,3.568,0,0,1,3.027-1.445A3.035,3.035,0,0,1-2.5-9.648V-15H.8V0H-2.158l-.166-1.133A3.116,3.116,0,0,1-4.9.2,3.562,3.562,0,0,1-7.891-1.25,6.659,6.659,0,0,1-8.994-5.361Zm3.291.205q0,2.813,1.641,2.813A1.62,1.62,0,0,0-2.5-3.262V-7.285a1.576,1.576,0,0,0-1.543-.937q-1.523,0-1.65,2.461Zm7.959-.225A6.236,6.236,0,0,1,2.871-8.2a4.4,4.4,0,0,1,1.768-1.9,5.323,5.323,0,0,1,2.705-.664,4.858,4.858,0,0,1,3.74,1.47,5.64,5.64,0,0,1,1.367,4v.117a5.472,5.472,0,0,1-1.372,3.921A4.871,4.871,0,0,1,7.363.2,4.927,4.927,0,0,1,3.74-1.157,5.29,5.29,0,0,1,2.266-4.824Zm3.291.205a3.932,3.932,0,0,0,.459,2.148,1.529,1.529,0,0,0,1.357.684q1.758,0,1.8-2.705v-.332q0-2.842-1.816-2.842-1.65,0-1.787,2.451Zm12.92-.186a6.455,6.455,0,0,1,1.084-3.955,3.568,3.568,0,0,1,3.027-1.445,3.035,3.035,0,0,1,2.383,1.113V-15h3.3V0H25.3l-.166-1.133A3.116,3.116,0,0,1,22.559.2,3.562,3.562,0,0,1,19.57-1.25,6.659,6.659,0,0,1,18.467-5.361Zm3.291.205q0,2.813,1.641,2.813a1.62,1.62,0,0,0,1.563-.918V-7.285a1.576,1.576,0,0,0-1.543-.937q-1.523,0-1.65,2.461ZM33.6,0H30.3V-10.566h3.3Zm-3.5-13.3a1.482,1.482,0,0,1,.508-1.159,1.909,1.909,0,0,1,1.318-.452,1.909,1.909,0,0,1,1.318.452A1.482,1.482,0,0,1,33.76-13.3a1.482,1.482,0,0,1-.508,1.159,1.909,1.909,0,0,1-1.318.452,1.909,1.909,0,0,1-1.318-.452A1.482,1.482,0,0,1,30.107-13.3Zm5.137,7.939a7.134,7.134,0,0,1,.527-2.832,4.245,4.245,0,0,1,1.514-1.9,3.99,3.99,0,0,1,2.295-.669,3.173,3.173,0,0,1,2.578,1.113l.117-.918h2.988V-.4a4.455,4.455,0,0,1-.649,2.427,4.167,4.167,0,0,1-1.88,1.582,6.91,6.91,0,0,1-2.852.552,5.961,5.961,0,0,1-2.251-.439,4.063,4.063,0,0,1-1.665-1.143L37.344.645a3.018,3.018,0,0,0,2.422,1.084A1.96,1.96,0,0,0,41.953-.518V-.85A3.09,3.09,0,0,1,39.561.2a3.819,3.819,0,0,1-3.125-1.479,6.13,6.13,0,0,1-1.191-3.96Zm3.3.205A3.759,3.759,0,0,0,39.033-3.1a1.541,1.541,0,0,0,1.367.757,1.748,1.748,0,0,0,1.553-.713V-7.5a1.7,1.7,0,0,0-1.533-.723,1.551,1.551,0,0,0-1.377.786A4.287,4.287,0,0,0,38.545-5.156ZM50.605,0H47.3V-10.566h3.3Zm-3.5-13.3a1.482,1.482,0,0,1,.508-1.159,1.909,1.909,0,0,1,1.318-.452,1.909,1.909,0,0,1,1.318.452,1.482,1.482,0,0,1,.508,1.159,1.482,1.482,0,0,1-.508,1.159,1.909,1.909,0,0,1-1.318.452,1.909,1.909,0,0,1-1.318-.452A1.482,1.482,0,0,1,47.109-13.3Zm9.355.107v2.627H58.2v2.285H56.465v4.834a1.234,1.234,0,0,0,.215.83,1.152,1.152,0,0,0,.85.234,4.828,4.828,0,0,0,.82-.059V-.088A6.074,6.074,0,0,1,56.494.2a3.448,3.448,0,0,1-2.51-.8,3.282,3.282,0,0,1-.811-2.432V-8.281H51.826v-2.285h1.348v-2.627ZM65.449,0a3.716,3.716,0,0,1-.312-.947A3.06,3.06,0,0,1,62.6.2a3.749,3.749,0,0,1-2.539-.9,2.875,2.875,0,0,1-1.045-2.271,2.955,2.955,0,0,1,1.27-2.6,6.468,6.468,0,0,1,3.691-.879H64.99v-.559q0-1.462-1.26-1.462a1.03,1.03,0,0,0-1.172,1.158H59.268a2.95,2.95,0,0,1,1.3-2.487,5.479,5.479,0,0,1,3.325-.956,4.8,4.8,0,0,1,3.193.986,3.429,3.429,0,0,1,1.2,2.705v4.678A4.79,4.79,0,0,0,68.74-.166V0ZM63.389-2.148a1.836,1.836,0,0,0,1.021-.264,1.653,1.653,0,0,0,.581-.6V-4.7h-.957q-1.719,0-1.719,1.543a.942.942,0,0,0,.3.728A1.1,1.1,0,0,0,63.389-2.148ZM73.584,0h-3.3V-15h3.3Z" transform="translate(491.333 918)" fill="#fff"/>
    <path id="Trazado_799183" data-name="Trazado 799183" d="M-65.049-6.035h-5.225l-.6,3.4h6.182L-65.146,0h-9.521l2.461-14.219h9.541l-.459,2.646h-6.191l-.527,3h5.234Zm6.035-4.541-.215,1.27a3.793,3.793,0,0,1,3.086-1.455,2.788,2.788,0,0,1,1.572.449,2.047,2.047,0,0,1,.82,1.143,4.022,4.022,0,0,1,3.213-1.592,2.49,2.49,0,0,1,2.173,1.1,4.575,4.575,0,0,1,.513,3.013L-48.955,0h-3.223l1.123-6.652.039-.576q0-.966-.908-.995a2.08,2.08,0,0,0-1.582.868L-54.785,0h-3.223l1.113-6.633.039-.585q0-1-.908-1a2.066,2.066,0,0,0-1.562.868L-60.625,0h-3.213L-62-10.566ZM-41.094,0a2.865,2.865,0,0,1-.137-.957A3.259,3.259,0,0,1-43.818.2,3.184,3.184,0,0,1-46.1-.723a2.759,2.759,0,0,1-.85-2.178,3.1,3.1,0,0,1,1.436-2.642,6.768,6.768,0,0,1,3.789-.923l1.074.02.117-.6.039-.518a.839.839,0,0,0-.889-.918,1.235,1.235,0,0,0-1.3,1.162l-3.223.01a3.06,3.06,0,0,1,.693-1.851,4.109,4.109,0,0,1,1.753-1.211,6.125,6.125,0,0,1,2.358-.4,4.723,4.723,0,0,1,2.1.5A3.133,3.133,0,0,1-37.646-8.94,3.368,3.368,0,0,1-37.3-6.992L-38.1-2.021l-.049.605a2.669,2.669,0,0,0,.186,1.23l-.01.186ZM-42.93-2.129A2.072,2.072,0,0,0-41.2-3l.322-1.7-.83-.01a2.188,2.188,0,0,0-1.328.454,1.722,1.722,0,0,0-.654,1.187.865.865,0,0,0,.151.659A.773.773,0,0,0-42.93-2.129ZM-33.271,0h-3.223l1.836-10.566h3.223Zm-1.1-13.232a1.49,1.49,0,0,1,.5-1.191,1.806,1.806,0,0,1,1.265-.479,1.864,1.864,0,0,1,1.255.43,1.464,1.464,0,0,1,.522,1.123,1.493,1.493,0,0,1-.5,1.2,1.811,1.811,0,0,1-1.27.474,1.887,1.887,0,0,1-1.245-.425A1.447,1.447,0,0,1-34.375-13.232ZM-27.842,0h-3.223l2.6-15h3.223Zm11.816-10.576-.215,1.27a3.793,3.793,0,0,1,3.086-1.455,2.788,2.788,0,0,1,1.572.449,2.047,2.047,0,0,1,.82,1.143,4.022,4.022,0,0,1,3.213-1.592,2.49,2.49,0,0,1,2.173,1.1A4.575,4.575,0,0,1-4.863-6.65L-5.967,0H-9.189l1.123-6.652.039-.576q0-.966-.908-.995a2.08,2.08,0,0,0-1.582.868L-11.8,0H-15.02l1.113-6.633.039-.585q0-1-.908-1a2.066,2.066,0,0,0-1.562.868L-17.637,0H-20.85l1.836-10.566ZM1.895,0a2.865,2.865,0,0,1-.137-.957A3.259,3.259,0,0,1-.83.2,3.184,3.184,0,0,1-3.115-.723,2.759,2.759,0,0,1-3.965-2.9,3.1,3.1,0,0,1-2.529-5.542,6.768,6.768,0,0,1,1.26-6.465l1.074.02.117-.6.039-.518A.839.839,0,0,0,1.6-8.477,1.235,1.235,0,0,0,.3-7.314L-2.92-7.3a3.06,3.06,0,0,1,.693-1.851A4.109,4.109,0,0,1-.474-10.366a6.125,6.125,0,0,1,2.358-.4,4.723,4.723,0,0,1,2.1.5A3.133,3.133,0,0,1,5.342-8.94a3.368,3.368,0,0,1,.342,1.948L4.893-2.021l-.049.605a2.669,2.669,0,0,0,.186,1.23L5.02,0ZM.059-2.129A2.072,2.072,0,0,0,1.787-3l.322-1.7-.83-.01a2.188,2.188,0,0,0-1.328.454A1.722,1.722,0,0,0-.7-3.066a.865.865,0,0,0,.151.659A.773.773,0,0,0,.059-2.129Zm13.9-5.459a9.192,9.192,0,0,0-1-.1,2.481,2.481,0,0,0-2.207,1L9.561,0H6.348L8.184-10.566l3-.01-.244,1.387a2.933,2.933,0,0,1,2.441-1.6,4.6,4.6,0,0,1,1,.137ZM18.682-3.9,17.51-2.881,17.012,0H13.8l2.607-15.01h3.213L18.135-7l.391-.469,2.92-3.1h4.072L21.025-6.074,23.75,0H20.225ZM29.736.2a4.912,4.912,0,0,1-2.524-.669A4.215,4.215,0,0,1,25.537-2.31,4.933,4.933,0,0,1,25.088-4.9l.029-.273A6.477,6.477,0,0,1,26.929-9.3a5.011,5.011,0,0,1,3.794-1.46,4.086,4.086,0,0,1,2.324.689,3.853,3.853,0,0,1,1.416,1.848,5.662,5.662,0,0,1,.293,2.646l-.186,1.34H28.281a2.06,2.06,0,0,0,.469,1.348,1.722,1.722,0,0,0,1.309.547,3.325,3.325,0,0,0,2.51-1.074l1.348,1.782A3.976,3.976,0,0,1,32.251-.306a5.848,5.848,0,0,1-2.339.5Zm.781-8.418a1.653,1.653,0,0,0-1.187.427,3.588,3.588,0,0,0-.874,1.5H31.67l.059-.282a2.143,2.143,0,0,0,.02-.641A1.131,1.131,0,0,0,30.518-8.223Zm10.654-4.971-.459,2.627H42.4L42-8.281H40.313l-.82,4.854a1.294,1.294,0,0,0,.063.752q.132.254.659.273a7.637,7.637,0,0,0,.84-.049L40.82-.068a5.192,5.192,0,0,1-1.729.244A2.847,2.847,0,0,1,36.855-.7a3,3,0,0,1-.605-2.334l.859-5.244H35.8l.391-2.285H37.5l.459-2.627ZM45.293,0H42.07l1.836-10.566h3.223Zm-1.1-13.232a1.49,1.49,0,0,1,.5-1.191,1.806,1.806,0,0,1,1.265-.479,1.864,1.864,0,0,1,1.255.43,1.464,1.464,0,0,1,.522,1.123,1.493,1.493,0,0,1-.5,1.2,1.811,1.811,0,0,1-1.27.474,1.887,1.887,0,0,1-1.245-.425A1.447,1.447,0,0,1,44.189-13.232Zm7.91,2.656-.225,1.27a3.756,3.756,0,0,1,3.057-1.465,2.523,2.523,0,0,1,2.183,1.089,4.557,4.557,0,0,1,.522,3.032L56.523,0H53.3l1.123-6.678a3.454,3.454,0,0,0,.02-.626q-.068-.929-1.094-.929A2.008,2.008,0,0,0,51.8-7.48L50.479,0H47.266L49.1-10.566ZM58.916-5.3a8.029,8.029,0,0,1,.874-2.881,5.071,5.071,0,0,1,1.724-1.948,4.15,4.15,0,0,1,2.344-.64,2.885,2.885,0,0,1,2.4,1.143l.342-.947,2.969.01L67.842-.41a4.964,4.964,0,0,1-1.885,3.389A6,6,0,0,1,61.992,4.16a5.661,5.661,0,0,1-2.041-.42,4.4,4.4,0,0,1-1.689-1.211L59.785.635a2.766,2.766,0,0,0,2.207,1.1A2.582,2.582,0,0,0,64.707-.537l.078-.322A3.3,3.3,0,0,1,62.373.2a3.258,3.258,0,0,1-1.787-.513,3.371,3.371,0,0,1-1.211-1.45,5.64,5.64,0,0,1-.5-2.109A9.17,9.17,0,0,1,58.916-5.3ZM62.09-4.258a2.562,2.562,0,0,0,.322,1.4,1.093,1.093,0,0,0,.938.518,2.147,2.147,0,0,0,1.65-.7l.83-4.482a1.424,1.424,0,0,0-1.309-.7,1.87,1.87,0,0,0-1.572.8,4.291,4.291,0,0,0-.8,2.144Q62.09-4.678,62.09-4.258Z" transform="translate(800.333 918)" fill="#fff"/>
    <path id="Trazado_799184" data-name="Trazado 799184" d="M-67.539-14.219l3.174,9.893,3.164-9.893h4.512V0h-3.437V-3.32l.332-6.8L-63.232,0H-65.5l-3.447-10.127.332,6.807V0h-3.428V-14.219ZM-49.551.2a5.432,5.432,0,0,1-3.936-1.45,5.008,5.008,0,0,1-1.5-3.774V-5.3a6.489,6.489,0,0,1,.6-2.861,4.395,4.395,0,0,1,1.753-1.919,5.292,5.292,0,0,1,2.734-.679A4.574,4.574,0,0,1-46.387-9.38,5.43,5.43,0,0,1-45.1-5.527v1.279h-6.543a2.372,2.372,0,0,0,.771,1.4,2.3,2.3,0,0,0,1.543.508,2.958,2.958,0,0,0,2.441-1.094l1.5,1.777A4.2,4.2,0,0,1-47.124-.308,5.891,5.891,0,0,1-49.551.2Zm-.371-8.418q-1.445,0-1.719,1.914h3.32v-.254a1.63,1.63,0,0,0-.4-1.226A1.593,1.593,0,0,0-49.922-8.223Zm5.732,2.861a6.455,6.455,0,0,1,1.084-3.955,3.568,3.568,0,0,1,3.027-1.445A3.035,3.035,0,0,1-37.7-9.648V-15h3.3V0h-2.959l-.166-1.133A3.116,3.116,0,0,1-40.1.2,3.562,3.562,0,0,1-43.086-1.25,6.659,6.659,0,0,1-44.189-5.361Zm3.291.205q0,2.813,1.641,2.813A1.62,1.62,0,0,0-37.7-3.262V-7.285a1.576,1.576,0,0,0-1.543-.937q-1.523,0-1.65,2.461ZM-29.053,0h-3.3V-10.566h3.3Zm-3.5-13.3a1.482,1.482,0,0,1,.508-1.159,1.909,1.909,0,0,1,1.318-.452,1.909,1.909,0,0,1,1.318.452A1.482,1.482,0,0,1-28.9-13.3a1.482,1.482,0,0,1-.508,1.159,1.909,1.909,0,0,1-1.318.452,1.909,1.909,0,0,1-1.318-.452A1.482,1.482,0,0,1-32.549-13.3Zm5.107,7.92A6.236,6.236,0,0,1-26.826-8.2a4.4,4.4,0,0,1,1.768-1.9,5.323,5.323,0,0,1,2.705-.664,4.858,4.858,0,0,1,3.74,1.47,5.64,5.64,0,0,1,1.367,4v.117a5.472,5.472,0,0,1-1.372,3.921A4.871,4.871,0,0,1-22.334.2a4.927,4.927,0,0,1-3.623-1.353,5.29,5.29,0,0,1-1.475-3.667Zm3.291.205a3.932,3.932,0,0,0,.459,2.148,1.529,1.529,0,0,0,1.357.684q1.758,0,1.8-2.705v-.332q0-2.842-1.816-2.842-1.65,0-1.787,2.451Zm13.887,2.207a.76.76,0,0,0-.439-.674,6.685,6.685,0,0,0-1.67-.527A7.615,7.615,0,0,1-14.4-4.888a3.4,3.4,0,0,1-1.221-1.079,2.577,2.577,0,0,1-.42-1.455,2.92,2.92,0,0,1,1.2-2.4,4.948,4.948,0,0,1,3.145-.942,5.482,5.482,0,0,1,3.359.947,2.962,2.962,0,0,1,1.27,2.49h-3.3q0-1.27-1.338-1.27a1.326,1.326,0,0,0-.869.288.892.892,0,0,0-.352.718.819.819,0,0,0,.43.713,4.06,4.06,0,0,0,1.372.449,11.857,11.857,0,0,1,1.655.42A3.007,3.007,0,0,1-7.09-3.066,2.767,2.767,0,0,1-8.374-.713,5.632,5.632,0,0,1-11.7.2a5.747,5.747,0,0,1-2.422-.488,4.05,4.05,0,0,1-1.66-1.328,3.007,3.007,0,0,1-.6-1.768H-13.3a1.272,1.272,0,0,0,.488,1.069,2.009,2.009,0,0,0,1.2.337A1.58,1.58,0,0,0-10.6-2.256.875.875,0,0,0-10.264-2.969Zm15.225,0a.76.76,0,0,0-.439-.674,6.685,6.685,0,0,0-1.67-.527A7.615,7.615,0,0,1,.82-4.888,3.4,3.4,0,0,1-.4-5.967,2.577,2.577,0,0,1-.82-7.422a2.92,2.92,0,0,1,1.2-2.4,4.948,4.948,0,0,1,3.145-.942,5.482,5.482,0,0,1,3.359.947,2.962,2.962,0,0,1,1.27,2.49h-3.3q0-1.27-1.338-1.27a1.326,1.326,0,0,0-.869.288.892.892,0,0,0-.352.718.819.819,0,0,0,.43.713A4.06,4.06,0,0,0,4.1-6.426a11.857,11.857,0,0,1,1.655.42A3.007,3.007,0,0,1,8.135-3.066,2.767,2.767,0,0,1,6.851-.713,5.631,5.631,0,0,1,3.525.2,5.747,5.747,0,0,1,1.1-.293,4.05,4.05,0,0,1-.557-1.621a3.007,3.007,0,0,1-.6-1.768H1.924a1.272,1.272,0,0,0,.488,1.069,2.009,2.009,0,0,0,1.2.337,1.58,1.58,0,0,0,1.011-.273A.875.875,0,0,0,4.961-2.969Zm4.3-2.412A6.236,6.236,0,0,1,9.873-8.2a4.4,4.4,0,0,1,1.768-1.9,5.323,5.323,0,0,1,2.705-.664,4.858,4.858,0,0,1,3.74,1.47,5.64,5.64,0,0,1,1.367,4v.117a5.472,5.472,0,0,1-1.372,3.921A4.871,4.871,0,0,1,14.365.2a4.927,4.927,0,0,1-3.623-1.353A5.29,5.29,0,0,1,9.268-4.824Zm3.291.205a3.932,3.932,0,0,0,.459,2.148,1.529,1.529,0,0,0,1.357.684q1.758,0,1.8-2.705v-.332q0-2.842-1.816-2.842-1.65,0-1.787,2.451ZM25.371-2.344a1.464,1.464,0,0,0,1.074-.376,1.379,1.379,0,0,0,.371-1.05H29.9A3.653,3.653,0,0,1,28.657-.918,4.631,4.631,0,0,1,25.449.2,4.689,4.689,0,0,1,21.816-1.25a5.7,5.7,0,0,1-1.328-4v-.137a6.436,6.436,0,0,1,.591-2.827,4.3,4.3,0,0,1,1.7-1.885,5.081,5.081,0,0,1,2.637-.659,4.573,4.573,0,0,1,3.271,1.143,4.053,4.053,0,0,1,1.211,3.1H26.816a1.807,1.807,0,0,0-.4-1.26,1.382,1.382,0,0,0-1.074-.439q-1.279,0-1.494,1.631a11.508,11.508,0,0,0-.068,1.426,4.52,4.52,0,0,0,.381,2.207A1.319,1.319,0,0,0,25.371-2.344ZM34.766,0h-3.3V-10.566h3.3Zm-3.5-13.3a1.482,1.482,0,0,1,.508-1.159,1.909,1.909,0,0,1,1.318-.452,1.909,1.909,0,0,1,1.318.452,1.482,1.482,0,0,1,.508,1.159,1.482,1.482,0,0,1-.508,1.159,1.909,1.909,0,0,1-1.318.452,1.909,1.909,0,0,1-1.318-.452A1.482,1.482,0,0,1,31.27-13.3ZM42.744,0a3.716,3.716,0,0,1-.312-.947A3.06,3.06,0,0,1,39.893.2a3.749,3.749,0,0,1-2.539-.9,2.875,2.875,0,0,1-1.045-2.271,2.955,2.955,0,0,1,1.27-2.6,6.468,6.468,0,0,1,3.691-.879h1.016v-.559q0-1.462-1.26-1.462a1.03,1.03,0,0,0-1.172,1.158H36.563a2.95,2.95,0,0,1,1.3-2.487,5.479,5.479,0,0,1,3.325-.956,4.8,4.8,0,0,1,3.193.986,3.429,3.429,0,0,1,1.2,2.705v4.678a4.79,4.79,0,0,0,.449,2.227V0ZM40.684-2.148A1.836,1.836,0,0,0,41.7-2.412a1.653,1.653,0,0,0,.581-.6V-4.7h-.957q-1.719,0-1.719,1.543a.942.942,0,0,0,.3.728A1.1,1.1,0,0,0,40.684-2.148ZM50.879,0h-3.3V-15h3.3Zm7.139.2a5.432,5.432,0,0,1-3.936-1.45,5.008,5.008,0,0,1-1.5-3.774V-5.3a6.489,6.489,0,0,1,.6-2.861,4.395,4.395,0,0,1,1.753-1.919,5.292,5.292,0,0,1,2.734-.679A4.574,4.574,0,0,1,61.182-9.38a5.43,5.43,0,0,1,1.289,3.853v1.279H55.928a2.372,2.372,0,0,0,.771,1.4,2.3,2.3,0,0,0,1.543.508,2.958,2.958,0,0,0,2.441-1.094l1.5,1.777A4.2,4.2,0,0,1,60.444-.308,5.891,5.891,0,0,1,58.018.2Zm-.371-8.418q-1.445,0-1.719,1.914h3.32v-.254a1.63,1.63,0,0,0-.4-1.226A1.593,1.593,0,0,0,57.646-8.223Zm11.68,5.254a.76.76,0,0,0-.439-.674,6.685,6.685,0,0,0-1.67-.527,7.615,7.615,0,0,1-2.031-.718,3.4,3.4,0,0,1-1.221-1.079,2.577,2.577,0,0,1-.42-1.455,2.92,2.92,0,0,1,1.2-2.4,4.948,4.948,0,0,1,3.145-.942,5.482,5.482,0,0,1,3.359.947,2.962,2.962,0,0,1,1.27,2.49h-3.3q0-1.27-1.338-1.27a1.326,1.326,0,0,0-.869.288.892.892,0,0,0-.352.718.819.819,0,0,0,.43.713,4.06,4.06,0,0,0,1.372.449,11.857,11.857,0,0,1,1.655.42A3.007,3.007,0,0,1,72.5-3.066,2.767,2.767,0,0,1,71.216-.713,5.631,5.631,0,0,1,67.891.2a5.747,5.747,0,0,1-2.422-.488,4.05,4.05,0,0,1-1.66-1.328,3.007,3.007,0,0,1-.6-1.768h3.076a1.272,1.272,0,0,0,.488,1.069,2.009,2.009,0,0,0,1.2.337,1.58,1.58,0,0,0,1.011-.273A.875.875,0,0,0,69.326-2.969Z" transform="translate(1115.333 918)" fill="#fff"/>
    <path id="Trazado_798245" data-name="Trazado 798245" d="M-12116-9475v150h317v-150" transform="translate(12759.333 10047)" fill="none" stroke="#ffc401" stroke-width="3"/>
    <path id="Trazado_798246" data-name="Trazado 798246" d="M-12116-9475v27h630.5v-27" transform="translate(-11000.667 -8594) rotate(180)" fill="none" stroke="#ffc401" stroke-width="3"/>
    <path id="Trazado_799185" data-name="Trazado 799185" d="M0,0H295V60H0Z" transform="translate(495.333 635)" fill="#68cbfe"/>
    <path id="Trazado_799186" data-name="Trazado 799186" d="M0,0H295V60H0Z" transform="translate(810.333 635)" fill="#68cbfe"/>
    <path id="Trazado_799187" data-name="Trazado 799187" d="M-9.272-4.814a5.193,5.193,0,0,1-.8,2.622A4.833,4.833,0,0,1-12.129-.43,7,7,0,0,1-15.151.2a5.584,5.584,0,0,1-4.414-1.826,7.54,7.54,0,0,1-1.611-5.156v-.7a8.607,8.607,0,0,1,.728-3.657,5.513,5.513,0,0,1,2.095-2.422,5.844,5.844,0,0,1,3.164-.854,6.129,6.129,0,0,1,4.16,1.362A5.383,5.383,0,0,1-9.243-9.307h-3.418a2.547,2.547,0,0,0-.654-1.865,2.691,2.691,0,0,0-1.875-.566,2.048,2.048,0,0,0-1.875.957,6.151,6.151,0,0,0-.625,3.057v1.006a6.806,6.806,0,0,0,.571,3.252,2.091,2.091,0,0,0,1.968.977,2.632,2.632,0,0,0,1.807-.557,2.363,2.363,0,0,0,.664-1.768Zm6.9-.215H-4.224V0H-7.651V-14.219h5.6A6.246,6.246,0,0,1,1.9-13.1a3.8,3.8,0,0,1,1.426,3.17,4.616,4.616,0,0,1-.6,2.458,4.263,4.263,0,0,1-1.88,1.58L3.813-.147V0H.142ZM-4.224-7.666h2.168A1.946,1.946,0,0,0-.586-8.18,1.987,1.987,0,0,0-.093-9.614a2.01,2.01,0,0,0-.5-1.444,1.928,1.928,0,0,0-1.465-.524H-4.224ZM9.9-14.219l3.174,9.893,3.164-9.893h4.512V0H17.31V-3.32l.332-6.8L14.2,0H11.938L8.491-10.127,8.823-3.32V0H5.4V-14.219Z" transform="translate(958.333 672)" fill="#12263f"/>
    <path id="Trazado_799188" data-name="Trazado 799188" d="M-84.1-4.814a5.193,5.193,0,0,1-.8,2.622A4.833,4.833,0,0,1-86.953-.43,7,7,0,0,1-89.976.2,5.584,5.584,0,0,1-94.39-1.631,7.54,7.54,0,0,1-96-6.787v-.7a8.607,8.607,0,0,1,.728-3.657,5.513,5.513,0,0,1,2.095-2.422,5.844,5.844,0,0,1,3.164-.854,6.129,6.129,0,0,1,4.16,1.362,5.383,5.383,0,0,1,1.787,3.755h-3.418a2.547,2.547,0,0,0-.654-1.865,2.691,2.691,0,0,0-1.875-.566,2.048,2.048,0,0,0-1.875.957,6.151,6.151,0,0,0-.625,3.057v1.006a6.806,6.806,0,0,0,.571,3.252,2.091,2.091,0,0,0,1.968.977,2.632,2.632,0,0,0,1.807-.557A2.363,2.363,0,0,0-87.5-4.814Zm1.055-.566A6.236,6.236,0,0,1-82.427-8.2a4.4,4.4,0,0,1,1.768-1.9,5.323,5.323,0,0,1,2.705-.664,4.858,4.858,0,0,1,3.74,1.47,5.64,5.64,0,0,1,1.367,4v.117a5.472,5.472,0,0,1-1.372,3.921A4.871,4.871,0,0,1-77.935.2a4.927,4.927,0,0,1-3.623-1.353,5.29,5.29,0,0,1-1.475-3.667Zm3.291.205a3.932,3.932,0,0,0,.459,2.148,1.529,1.529,0,0,0,1.357.684q1.758,0,1.8-2.705v-.332q0-2.842-1.816-2.842-1.65,0-1.787,2.451Zm11.465-5.391.107,1.24a3.633,3.633,0,0,1,3.018-1.436A2.675,2.675,0,0,1-62.456-9.17a3.516,3.516,0,0,1,3.105-1.592q3.213,0,3.3,3.887V0h-3.3V-6.67a2.014,2.014,0,0,0-.273-1.182,1.164,1.164,0,0,0-1-.371,1.559,1.559,0,0,0-1.455.869l.01.137V0h-3.3V-6.65a2.117,2.117,0,0,0-.264-1.2,1.161,1.161,0,0,0-1.006-.371,1.578,1.578,0,0,0-1.445.869V0h-3.291V-10.566ZM-49.058.2a5.432,5.432,0,0,1-3.936-1.45,5.008,5.008,0,0,1-1.5-3.774V-5.3a6.489,6.489,0,0,1,.6-2.861,4.395,4.395,0,0,1,1.753-1.919,5.292,5.292,0,0,1,2.734-.679A4.574,4.574,0,0,1-45.894-9.38,5.43,5.43,0,0,1-44.6-5.527v1.279h-6.543a2.372,2.372,0,0,0,.771,1.4,2.3,2.3,0,0,0,1.543.508,2.958,2.958,0,0,0,2.441-1.094l1.5,1.777A4.2,4.2,0,0,1-46.631-.308,5.891,5.891,0,0,1-49.058.2Zm-.371-8.418q-1.445,0-1.719,1.914h3.32v-.254a1.63,1.63,0,0,0-.4-1.226A1.593,1.593,0,0,0-49.429-8.223Zm12.539.635-1.084-.078a1.947,1.947,0,0,0-1.992.977V0h-3.291V-10.566h3.086l.107,1.357a2.548,2.548,0,0,1,2.314-1.553,3.209,3.209,0,0,1,.918.117Zm5.469,5.244a1.464,1.464,0,0,0,1.074-.376,1.379,1.379,0,0,0,.371-1.05h3.086A3.653,3.653,0,0,1-28.135-.918,4.631,4.631,0,0,1-31.343.2,4.689,4.689,0,0,1-34.976-1.25a5.7,5.7,0,0,1-1.328-4v-.137a6.436,6.436,0,0,1,.591-2.827,4.3,4.3,0,0,1,1.7-1.885,5.081,5.081,0,0,1,2.637-.659A4.573,4.573,0,0,1-28.1-9.619a4.053,4.053,0,0,1,1.211,3.1h-3.086a1.807,1.807,0,0,0-.4-1.26,1.382,1.382,0,0,0-1.074-.439q-1.279,0-1.494,1.631a11.507,11.507,0,0,0-.068,1.426,4.52,4.52,0,0,0,.381,2.207A1.319,1.319,0,0,0-31.421-2.344ZM-22.026,0h-3.3V-10.566h3.3Zm-3.5-13.3a1.482,1.482,0,0,1,.508-1.159,1.909,1.909,0,0,1,1.318-.452,1.909,1.909,0,0,1,1.318.452A1.482,1.482,0,0,1-21.87-13.3a1.482,1.482,0,0,1-.508,1.159,1.909,1.909,0,0,1-1.318.452,1.909,1.909,0,0,1-1.318-.452A1.482,1.482,0,0,1-25.522-13.3Zm5.107,7.92A6.236,6.236,0,0,1-19.8-8.2a4.4,4.4,0,0,1,1.768-1.9,5.323,5.323,0,0,1,2.705-.664,4.858,4.858,0,0,1,3.74,1.47,5.64,5.64,0,0,1,1.367,4v.117a5.472,5.472,0,0,1-1.372,3.921A4.871,4.871,0,0,1-15.308.2a4.927,4.927,0,0,1-3.623-1.353,5.29,5.29,0,0,1-1.475-3.667Zm3.291.205a3.932,3.932,0,0,0,.459,2.148,1.529,1.529,0,0,0,1.357.684q1.758,0,1.8-2.705v-.332q0-2.842-1.816-2.842-1.65,0-1.787,2.451ZM1.323.2a5.432,5.432,0,0,1-3.936-1.45,5.008,5.008,0,0,1-1.5-3.774V-5.3a6.489,6.489,0,0,1,.6-2.861,4.395,4.395,0,0,1,1.753-1.919,5.292,5.292,0,0,1,2.734-.679A4.574,4.574,0,0,1,4.487-9.38,5.43,5.43,0,0,1,5.776-5.527v1.279H-.767A2.372,2.372,0,0,0,0-2.852a2.3,2.3,0,0,0,1.543.508A2.958,2.958,0,0,0,3.989-3.437l1.5,1.777A4.2,4.2,0,0,1,3.75-.308,5.891,5.891,0,0,1,1.323.2ZM.952-8.223q-1.445,0-1.719,1.914h3.32v-.254a1.63,1.63,0,0,0-.4-1.226A1.593,1.593,0,0,0,.952-8.223ZM10.571,0h-3.3V-15h3.3ZM17.71.2a5.432,5.432,0,0,1-3.936-1.45,5.008,5.008,0,0,1-1.5-3.774V-5.3a6.489,6.489,0,0,1,.6-2.861,4.395,4.395,0,0,1,1.753-1.919,5.292,5.292,0,0,1,2.734-.679A4.574,4.574,0,0,1,20.874-9.38a5.43,5.43,0,0,1,1.289,3.853v1.279H15.62a2.372,2.372,0,0,0,.771,1.4,2.3,2.3,0,0,0,1.543.508,2.958,2.958,0,0,0,2.441-1.094l1.5,1.777A4.2,4.2,0,0,1,20.137-.308,5.891,5.891,0,0,1,17.71.2Zm-.371-8.418q-1.445,0-1.719,1.914h3.32v-.254a1.63,1.63,0,0,0-.4-1.226A1.593,1.593,0,0,0,17.339-8.223ZM27.954-2.344a1.464,1.464,0,0,0,1.074-.376A1.379,1.379,0,0,0,29.4-3.77h3.086A3.653,3.653,0,0,1,31.24-.918,4.631,4.631,0,0,1,28.032.2,4.689,4.689,0,0,1,24.4-1.25a5.7,5.7,0,0,1-1.328-4v-.137a6.436,6.436,0,0,1,.591-2.827,4.3,4.3,0,0,1,1.7-1.885A5.081,5.081,0,0,1,28-10.762a4.573,4.573,0,0,1,3.271,1.143,4.053,4.053,0,0,1,1.211,3.1H29.4a1.807,1.807,0,0,0-.4-1.26,1.382,1.382,0,0,0-1.074-.439q-1.279,0-1.494,1.631a11.508,11.508,0,0,0-.068,1.426,4.52,4.52,0,0,0,.381,2.207A1.319,1.319,0,0,0,27.954-2.344Zm9.756-10.85v2.627h1.738v2.285H37.71v4.834a1.234,1.234,0,0,0,.215.83,1.152,1.152,0,0,0,.85.234,4.828,4.828,0,0,0,.82-.059V-.088A6.074,6.074,0,0,1,37.739.2a3.448,3.448,0,0,1-2.51-.8,3.282,3.282,0,0,1-.811-2.432V-8.281H33.071v-2.285h1.348v-2.627Zm9.424,5.605L46.05-7.666a1.947,1.947,0,0,0-1.992.977V0H40.767V-10.566h3.086l.107,1.357a2.548,2.548,0,0,1,2.314-1.553,3.209,3.209,0,0,1,.918.117Zm.42,2.207A6.236,6.236,0,0,1,48.169-8.2a4.4,4.4,0,0,1,1.768-1.9,5.323,5.323,0,0,1,2.705-.664,4.858,4.858,0,0,1,3.74,1.47,5.64,5.64,0,0,1,1.367,4v.117a5.472,5.472,0,0,1-1.372,3.921A4.871,4.871,0,0,1,52.661.2a4.927,4.927,0,0,1-3.623-1.353,5.29,5.29,0,0,1-1.475-3.667Zm3.291.205A3.932,3.932,0,0,0,51.3-3.027a1.529,1.529,0,0,0,1.357.684q1.758,0,1.8-2.705v-.332q0-2.842-1.816-2.842-1.65,0-1.787,2.451ZM53.091-15h3.477l-2.715,3.066-2.686,0Zm9.131,4.434.107,1.24a3.583,3.583,0,0,1,3.018-1.436,3.015,3.015,0,0,1,2.466.986,4.7,4.7,0,0,1,.845,2.969V0h-3.3V-6.67a1.783,1.783,0,0,0-.322-1.177,1.491,1.491,0,0,0-1.172-.376,1.569,1.569,0,0,0-1.436.762V0H59.136V-10.566ZM73.95,0h-3.3V-10.566h3.3Zm-3.5-13.3a1.482,1.482,0,0,1,.508-1.159,1.909,1.909,0,0,1,1.318-.452,1.909,1.909,0,0,1,1.318.452,1.482,1.482,0,0,1,.508,1.159,1.482,1.482,0,0,1-.508,1.159,1.909,1.909,0,0,1-1.318.452,1.909,1.909,0,0,1-1.318-.452A1.482,1.482,0,0,1,70.454-13.3Zm9.99,10.957a1.464,1.464,0,0,0,1.074-.376,1.379,1.379,0,0,0,.371-1.05h3.086A3.653,3.653,0,0,1,83.73-.918,4.631,4.631,0,0,1,80.522.2,4.689,4.689,0,0,1,76.89-1.25a5.7,5.7,0,0,1-1.328-4v-.137a6.436,6.436,0,0,1,.591-2.827,4.3,4.3,0,0,1,1.7-1.885,5.081,5.081,0,0,1,2.637-.659,4.573,4.573,0,0,1,3.271,1.143,4.053,4.053,0,0,1,1.211,3.1H81.89a1.806,1.806,0,0,0-.4-1.26,1.382,1.382,0,0,0-1.074-.439q-1.279,0-1.494,1.631a11.508,11.508,0,0,0-.068,1.426,4.52,4.52,0,0,0,.381,2.207A1.319,1.319,0,0,0,80.444-2.344Zm5.508-3.037A6.236,6.236,0,0,1,86.567-8.2a4.4,4.4,0,0,1,1.768-1.9,5.323,5.323,0,0,1,2.705-.664,4.858,4.858,0,0,1,3.74,1.47,5.64,5.64,0,0,1,1.367,4v.117a5.472,5.472,0,0,1-1.372,3.921A4.871,4.871,0,0,1,91.06.2a4.927,4.927,0,0,1-3.623-1.353,5.29,5.29,0,0,1-1.475-3.667Zm3.291.205A3.932,3.932,0,0,0,89.7-3.027a1.529,1.529,0,0,0,1.357.684q1.758,0,1.8-2.705v-.332q0-2.842-1.816-2.842-1.65,0-1.787,2.451Z" transform="translate(643.333 672)" fill="#12263f"/>
    <path id="Trazado_799189" data-name="Trazado 799189" d="M0,0V36" transform="translate(799.833 722.5)" fill="none" stroke="#ffc401" stroke-width="3"/>
    <path id="Trazado_799190" data-name="Trazado 799190" d="M0,0V63.5" transform="translate(799.833 818)" fill="none" stroke="#ffc401" stroke-width="3"/>
  </g>
</svg>
